<?xml version="1.0" encoding="UTF-8" standalone="no"?>
<!-- Created with Inkscape (http://www.inkscape.org/) -->

<svg
   xmlns:dc="http://purl.org/dc/elements/1.1/"
   xmlns:cc="http://creativecommons.org/ns#"
   xmlns:rdf="http://www.w3.org/1999/02/22-rdf-syntax-ns#"
   xmlns:svg="http://www.w3.org/2000/svg"
   xmlns="http://www.w3.org/2000/svg"
   xmlns:xlink="http://www.w3.org/1999/xlink"
   xmlns:sodipodi="http://sodipodi.sourceforge.net/DTD/sodipodi-0.dtd"
   xmlns:inkscape="http://www.inkscape.org/namespaces/inkscape"
   width="744.09448819"
   height="1052.3622047"
   id="svg17861"
   version="1.1"
   inkscape:version="0.48.2 r9819"
   sodipodi:docname="wiki_bukvy_3.svg"
   inkscape:export-filename="D:\Dropbox\Photos\falanster\wikification\nalepki\wiki_bukvy_3.png"
   inkscape:export-xdpi="77.01712"
   inkscape:export-ydpi="77.01712">
  <defs
     id="defs17863">
    <radialGradient
       gradientUnits="userSpaceOnUse"
       gradientTransform="translate(192.3999,-648.9004)"
       r="68.686401"
       cy="704.17682"
       cx="-145.4707"
       id="path3930_1_">
      <stop
         id="stop3037"
         style="stop-color:#FFFFFF"
         offset="0" />
      <stop
         id="stop3039"
         style="stop-color:#EAEAEB"
         offset="0.4835" />
      <stop
         id="stop3041"
         style="stop-color:#A9ABAE"
         offset="0.9451" />
      <stop
         id="stop3043"
         style="stop-color:#999B9E"
         offset="1" />
    </radialGradient>
    <linearGradient
       gradientTransform="matrix(1,0,0,-1,0,156)"
       y2="58.770302"
       x2="112.733"
       y1="131.52049"
       x1="66.232903"
       gradientUnits="userSpaceOnUse"
       id="path3945_1_">
      <stop
         id="stop3048"
         style="stop-color:#8A8A8A"
         offset="0" />
      <stop
         id="stop3050"
         style="stop-color:#606060"
         offset="0.5687" />
      <stop
         id="stop3052"
         style="stop-color:#FFFFFF"
         offset="0.5914" />
      <stop
         id="stop3054"
         style="stop-color:#585858"
         offset="0.6116" />
      <stop
         id="stop3056"
         style="stop-color:#303030"
         offset="1" />
    </linearGradient>
    <linearGradient
       id="path3954_1_"
       gradientUnits="userSpaceOnUse"
       x1="35.350101"
       y1="138.2383"
       x2="55.350101"
       y2="44.8633"
       gradientTransform="matrix(1,0,0,-1,0,156)">
      <stop
         offset="0"
         style="stop-color:#A8A9AB"
         id="stop3061" />
      <stop
         offset="1"
         style="stop-color:#636668"
         id="stop3063" />
    </linearGradient>
    <linearGradient
       id="path3961_1_"
       gradientUnits="userSpaceOnUse"
       x1="31.0259"
       y1="137.3105"
       x2="51.026001"
       y2="43.934898"
       gradientTransform="matrix(1,0,0,-1,0,156)">
      <stop
         offset="0"
         style="stop-color:#A8A9AB"
         id="stop3067" />
      <stop
         offset="1"
         style="stop-color:#636668"
         id="stop3069" />
    </linearGradient>
    <linearGradient
       gradientTransform="matrix(1,0,0,-1,0,156)"
       y2="90.865196"
       x2="83.798798"
       y1="90.865196"
       x1="54.716301"
       gradientUnits="userSpaceOnUse"
       id="path3968_1_">
      <stop
         id="stop3073"
         style="stop-color:#231F20"
         offset="0" />
      <stop
         id="stop3075"
         style="stop-color:#474747"
         offset="1" />
    </linearGradient>
    <linearGradient
       gradientTransform="translate(192.3999,-648.9004)"
       y2="762.09747"
       x2="-94.070099"
       y1="672.19342"
       x1="-123.5908"
       gradientUnits="userSpaceOnUse"
       id="path4013_1_">
      <stop
         id="stop3092"
         style="stop-color:#FFFFFF"
         offset="0" />
      <stop
         id="stop3094"
         style="stop-color:#FCFCFC"
         offset="0.0094" />
      <stop
         id="stop3096"
         style="stop-color:#EEEEEE"
         offset="0.0655" />
      <stop
         id="stop3098"
         style="stop-color:#E5E5E5"
         offset="0.1342" />
      <stop
         id="stop3100"
         style="stop-color:#E3E3E3"
         offset="0.2515" />
      <stop
         id="stop3102"
         style="stop-color:#8A8A8A"
         offset="0.3357" />
      <stop
         id="stop3104"
         style="stop-color:#B8B8B8"
         offset="0.4422" />
      <stop
         id="stop3106"
         style="stop-color:#3B3B3B"
         offset="1" />
    </linearGradient>
    <linearGradient
       gradientTransform="matrix(1,0,0,-1,0,156)"
       y2="68.371902"
       x2="119.5471"
       y1="129.1221"
       x1="70.421898"
       gradientUnits="userSpaceOnUse"
       id="path4026_1_">
      <stop
         id="stop3110"
         style="stop-color:#EFF0F0"
         offset="0" />
      <stop
         id="stop3112"
         style="stop-color:#F0F1F2"
         offset="0.5914" />
      <stop
         id="stop3114"
         style="stop-color:#787878"
         offset="0.599" />
      <stop
         id="stop3116"
         style="stop-color:#EEEFF0"
         offset="0.6456" />
      <stop
         id="stop3118"
         style="stop-color:#D8D9DB"
         offset="1" />
    </linearGradient>
    <linearGradient
       gradientTransform="translate(192.3999,-648.9004)"
       y2="760.00238"
       x2="-87.572601"
       y1="669.86823"
       x1="-117.1689"
       gradientUnits="userSpaceOnUse"
       id="path4033_1_">
      <stop
         id="stop3122"
         style="stop-color:#FFFFFF"
         offset="0" />
      <stop
         id="stop3124"
         style="stop-color:#E4E5E6"
         offset="1" />
    </linearGradient>
    <linearGradient
       gradientTransform="matrix(1,0,0,-1,0,156)"
       y2="49.609699"
       x2="79.683899"
       y1="130.72459"
       x1="54.653301"
       gradientUnits="userSpaceOnUse"
       id="path4042_1_">
      <stop
         id="stop3128"
         style="stop-color:#FFFFFF"
         offset="0" />
      <stop
         id="stop3130"
         style="stop-color:#F9F9F9"
         offset="0.7473" />
      <stop
         id="stop3132"
         style="stop-color:#D5D7D8"
         offset="1" />
    </linearGradient>
    <linearGradient
       gradientTransform="translate(192.3999,-648.9004)"
       y2="767.23358"
       x2="-134.8338"
       y1="673.1875"
       x1="-115.5068"
       gradientUnits="userSpaceOnUse"
       id="path4065_1_">
      <stop
         id="stop3144"
         style="stop-color:#FFFFFF"
         offset="0" />
      <stop
         id="stop3146"
         style="stop-color:#E4E5E6"
         offset="1" />
    </linearGradient>
    <linearGradient
       gradientTransform="matrix(1,0,0,-1,0,156)"
       y2="63.503799"
       x2="37.245701"
       y1="122.9229"
       x1="32.516602"
       gradientUnits="userSpaceOnUse"
       id="path4072_1_">
      <stop
         id="stop3150"
         style="stop-color:#989A9C"
         offset="0.2198" />
      <stop
         id="stop3152"
         style="stop-color:#FFFFFF"
         offset="0.2527" />
    </linearGradient>
    <linearGradient
       gradientTransform="translate(192.3999,-648.9004)"
       y2="757.95862"
       x2="-171.6926"
       y1="665.24121"
       x1="-152.6387"
       gradientUnits="userSpaceOnUse"
       id="path4079_1_">
      <stop
         id="stop3156"
         style="stop-color:#FFFFFF"
         offset="0" />
      <stop
         id="stop3158"
         style="stop-color:#E4E5E6"
         offset="1" />
    </linearGradient>
    <linearGradient
       gradientTransform="translate(192.3999,-648.9004)"
       y2="756.41431"
       x2="-130.1433"
       y1="756.375"
       x1="-130.1353"
       gradientUnits="userSpaceOnUse"
       id="path4086_1_">
      <stop
         id="stop3162"
         style="stop-color:#FFFFFF"
         offset="0" />
      <stop
         id="stop3164"
         style="stop-color:#E4E5E6"
         offset="1" />
    </linearGradient>
    <linearGradient
       gradientTransform="translate(192.3999,-648.9004)"
       y2="766.11298"
       x2="-140.54491"
       y1="671.67871"
       x1="-121.1382"
       gradientUnits="userSpaceOnUse"
       id="path4097_1_">
      <stop
         id="stop3170"
         style="stop-color:#FFFFFF"
         offset="0" />
      <stop
         id="stop3172"
         style="stop-color:#E4E5E6"
         offset="1" />
    </linearGradient>
    <linearGradient
       gradientTransform="translate(192.3999,-648.9004)"
       y2="763.14862"
       x2="-155.0065"
       y1="668.64838"
       x1="-135.5864"
       gradientUnits="userSpaceOnUse"
       id="path4104_1_">
      <stop
         id="stop3176"
         style="stop-color:#FFFFFF"
         offset="0" />
      <stop
         id="stop3178"
         style="stop-color:#E4E5E6"
         offset="1" />
    </linearGradient>
    <linearGradient
       gradientTransform="translate(192.3999,-648.9004)"
       y2="764.86401"
       x2="-146.8838"
       y1="670.07812"
       x1="-127.4048"
       gradientUnits="userSpaceOnUse"
       id="path4111_1_">
      <stop
         id="stop3182"
         style="stop-color:#FFFFFF"
         offset="0" />
      <stop
         id="stop3184"
         style="stop-color:#E4E5E6"
         offset="1" />
    </linearGradient>
    <linearGradient
       gradientTransform="translate(192.3999,-648.9004)"
       y2="767.05621"
       x2="-138.85249"
       y1="667.99609"
       x1="-118.4951"
       gradientUnits="userSpaceOnUse"
       id="path4118_1_">
      <stop
         id="stop3188"
         style="stop-color:#FFFFFF"
         offset="0" />
      <stop
         id="stop3190"
         style="stop-color:#E4E5E6"
         offset="1" />
    </linearGradient>
    <linearGradient
       gradientTransform="translate(192.3999,-648.9004)"
       y2="767.29742"
       x2="-134.7851"
       y1="672.88483"
       x1="-115.3828"
       gradientUnits="userSpaceOnUse"
       id="path4125_1_">
      <stop
         id="stop3194"
         style="stop-color:#FFFFFF"
         offset="0" />
      <stop
         id="stop3196"
         style="stop-color:#E4E5E6"
         offset="1" />
    </linearGradient>
    <linearGradient
       id="path4176_1_"
       gradientUnits="userSpaceOnUse"
       x1="-168.85941"
       y1="731.60352"
       x2="-168.6685"
       y2="731.60352"
       gradientTransform="translate(192.3999,-648.9004)">
      <stop
         offset="0"
         style="stop-color:#808080"
         id="stop3215" />
      <stop
         offset="0.0868"
         style="stop-color:#7A7A7A"
         id="stop3217" />
      <stop
         offset="0.36"
         style="stop-color:#6B6B6B"
         id="stop3219" />
      <stop
         offset="0.5192"
         style="stop-color:#686868"
         id="stop3221" />
      <stop
         offset="0.6377"
         style="stop-color:#5F5F5F"
         id="stop3223" />
      <stop
         offset="0.7431"
         style="stop-color:#4E4E4E"
         id="stop3225" />
      <stop
         offset="0.8408"
         style="stop-color:#383838"
         id="stop3227" />
      <stop
         offset="0.9324"
         style="stop-color:#1B1B1B"
         id="stop3229" />
      <stop
         offset="1"
         style="stop-color:#000000"
         id="stop3231" />
    </linearGradient>
    <linearGradient
       id="path4195_1_"
       gradientUnits="userSpaceOnUse"
       x1="-168.6377"
       y1="726.84381"
       x2="-74.017097"
       y2="726.84381"
       gradientTransform="translate(192.3999,-648.9004)">
      <stop
         offset="0"
         style="stop-color:#808080"
         id="stop3235" />
      <stop
         offset="0.0868"
         style="stop-color:#7A7A7A"
         id="stop3237" />
      <stop
         offset="0.3817"
         style="stop-color:#828282"
         id="stop3239" />
      <stop
         offset="0.5185"
         style="stop-color:#808080"
         id="stop3241" />
      <stop
         offset="0.5677"
         style="stop-color:#797979"
         id="stop3243" />
      <stop
         offset="0.6027"
         style="stop-color:#6E6E6E"
         id="stop3245" />
      <stop
         offset="0.608"
         style="stop-color:#6B6B6B"
         id="stop3247" />
      <stop
         offset="1"
         style="stop-color:#4E4E4E"
         id="stop3249" />
    </linearGradient>
    <linearGradient
       gradientTransform="translate(192.3999,-648.9004)"
       y2="708.39447"
       x2="-75.6362"
       y1="708.39447"
       x1="-175.4458"
       gradientUnits="userSpaceOnUse"
       id="path4202_1_">
      <stop
         id="stop3253"
         style="stop-color:#555555"
         offset="0" />
      <stop
         id="stop3255"
         style="stop-color:#231F20"
         offset="1" />
    </linearGradient>
    <linearGradient
       gradientTransform="translate(192.3999,-648.9004)"
       y2="687.9209"
       x2="-83.541"
       y1="687.9209"
       x1="-175.144"
       gradientUnits="userSpaceOnUse"
       id="path4211_1_">
      <stop
         id="stop3259"
         style="stop-color:#A0A0A0"
         offset="0" />
      <stop
         id="stop3261"
         style="stop-color:#656767"
         offset="0.0769" />
      <stop
         id="stop3263"
         style="stop-color:#717375"
         offset="1" />
    </linearGradient>
    <linearGradient
       gradientTransform="translate(192.3999,-648.9004)"
       y2="713.79102"
       x2="-172.3848"
       y1="713.79102"
       x1="-172.3848"
       gradientUnits="userSpaceOnUse"
       id="path4246_1_">
      <stop
         id="stop3272"
         style="stop-color:#FFFFFF"
         offset="0" />
      <stop
         id="stop3274"
         style="stop-color:#F4F4F4"
         offset="0.078" />
      <stop
         id="stop3276"
         style="stop-color:#CECECE"
         offset="0.3807" />
      <stop
         id="stop3278"
         style="stop-color:#BFBFBF"
         offset="0.5396" />
      <stop
         id="stop3280"
         style="stop-color:#7C7C7C"
         offset="0.8357" />
      <stop
         id="stop3282"
         style="stop-color:#A8A8A8"
         offset="0.8996" />
      <stop
         id="stop3284"
         style="stop-color:#9A9A9A"
         offset="0.9093" />
      <stop
         id="stop3286"
         style="stop-color:#7D7D7D"
         offset="0.9327" />
      <stop
         id="stop3288"
         style="stop-color:#686868"
         offset="0.9558" />
      <stop
         id="stop3290"
         style="stop-color:#5B5B5B"
         offset="0.9785" />
      <stop
         id="stop3292"
         style="stop-color:#575757"
         offset="1" />
    </linearGradient>
    <linearGradient
       gradientTransform="translate(192.3999,-648.9004)"
       y2="701.52533"
       x2="-67.171303"
       y1="713.55078"
       x1="-175.7168"
       gradientUnits="userSpaceOnUse"
       id="path4271_1_">
      <stop
         id="stop3296"
         style="stop-color:#FFFFFF"
         offset="0" />
      <stop
         id="stop3298"
         style="stop-color:#F4F4F4"
         offset="0.078" />
      <stop
         id="stop3300"
         style="stop-color:#CECECE"
         offset="0.3807" />
      <stop
         id="stop3302"
         style="stop-color:#BFBFBF"
         offset="0.5396" />
      <stop
         id="stop3304"
         style="stop-color:#7C7C7C"
         offset="0.8357" />
      <stop
         id="stop3306"
         style="stop-color:#A8A8A8"
         offset="0.8996" />
      <stop
         id="stop3308"
         style="stop-color:#9A9A9A"
         offset="0.9093" />
      <stop
         id="stop3310"
         style="stop-color:#7D7D7D"
         offset="0.9327" />
      <stop
         id="stop3312"
         style="stop-color:#686868"
         offset="0.9558" />
      <stop
         id="stop3314"
         style="stop-color:#5B5B5B"
         offset="0.9785" />
      <stop
         id="stop3316"
         style="stop-color:#575757"
         offset="1" />
    </linearGradient>
    <linearGradient
       gradientTransform="translate(192.3999,-648.9004)"
       y2="699.89038"
       x2="-53.160702"
       y1="713.5166"
       x1="-176.15379"
       gradientUnits="userSpaceOnUse"
       id="path4296_1_">
      <stop
         id="stop3320"
         style="stop-color:#FFFFFF"
         offset="0" />
      <stop
         id="stop3322"
         style="stop-color:#F4F4F4"
         offset="0.078" />
      <stop
         id="stop3324"
         style="stop-color:#CECECE"
         offset="0.3807" />
      <stop
         id="stop3326"
         style="stop-color:#BFBFBF"
         offset="0.5396" />
      <stop
         id="stop3328"
         style="stop-color:#7C7C7C"
         offset="0.8357" />
      <stop
         id="stop3330"
         style="stop-color:#A8A8A8"
         offset="0.8996" />
      <stop
         id="stop3332"
         style="stop-color:#9A9A9A"
         offset="0.9093" />
      <stop
         id="stop3334"
         style="stop-color:#7D7D7D"
         offset="0.9327" />
      <stop
         id="stop3336"
         style="stop-color:#686868"
         offset="0.9558" />
      <stop
         id="stop3338"
         style="stop-color:#5B5B5B"
         offset="0.9785" />
      <stop
         id="stop3340"
         style="stop-color:#575757"
         offset="1" />
    </linearGradient>
    <linearGradient
       gradientTransform="matrix(1,0,0,-1,0,156)"
       y2="104.051"
       x2="117.1957"
       y1="84.676804"
       x1="21.2129"
       gradientUnits="userSpaceOnUse"
       id="path4307_1_">
      <stop
         id="stop3344"
         style="stop-color:#EDEDEE"
         offset="0" />
      <stop
         id="stop3346"
         style="stop-color:#FFFFFF"
         offset="0.4176" />
      <stop
         id="stop3348"
         style="stop-color:#F8F9F9"
         offset="0.6264" />
      <stop
         id="stop3350"
         style="stop-color:#BFC0C2"
         offset="1" />
    </linearGradient>
    <linearGradient
       gradientTransform="matrix(1,0,0,-1,0,156)"
       y2="125.2676"
       x2="27.957001"
       y1="125.2676"
       x1="23.4722"
       gradientUnits="userSpaceOnUse"
       id="path4320_1_">
      <stop
         id="stop3357"
         style="stop-color:#E2E3E4"
         offset="0" />
      <stop
         id="stop3359"
         style="stop-color:#FFFFFF"
         offset="0.5055" />
    </linearGradient>
    <linearGradient
       id="path4683_1_"
       gradientUnits="userSpaceOnUse"
       x1="24.1982"
       y1="73.411102"
       x2="118.2354"
       y2="95.777397"
       gradientTransform="matrix(1,0,0,-1,0,156)">
      <stop
         offset="0"
         style="stop-color:#EDEDEE"
         id="stop3539" />
      <stop
         offset="0.4176"
         style="stop-color:#FFFFFF"
         id="stop3541" />
      <stop
         offset="0.6264"
         style="stop-color:#F8F9F9"
         id="stop3543" />
      <stop
         offset="0.9505"
         style="stop-color:#B2B4B6"
         id="stop3545" />
    </linearGradient>
    <linearGradient
       id="path4694_1_"
       gradientUnits="userSpaceOnUse"
       x1="26.6567"
       y1="63.116199"
       x2="121.7809"
       y2="85.740997"
       gradientTransform="matrix(1,0,0,-1,0,156)">
      <stop
         offset="0"
         style="stop-color:#EDEDEE"
         id="stop3549" />
      <stop
         offset="0.4176"
         style="stop-color:#FFFFFF"
         id="stop3551" />
      <stop
         offset="0.6264"
         style="stop-color:#F8F9F9"
         id="stop3553" />
      <stop
         offset="0.9505"
         style="stop-color:#B2B4B6"
         id="stop3555" />
    </linearGradient>
    <linearGradient
       id="path4705_1_"
       gradientUnits="userSpaceOnUse"
       x1="25.4326"
       y1="68.258797"
       x2="120.5521"
       y2="90.8825"
       gradientTransform="matrix(1,0,0,-1,0,156)">
      <stop
         offset="0"
         style="stop-color:#EDEDEE"
         id="stop3559" />
      <stop
         offset="0.4176"
         style="stop-color:#FFFFFF"
         id="stop3561" />
      <stop
         offset="0.6264"
         style="stop-color:#F8F9F9"
         id="stop3563" />
      <stop
         offset="0.9505"
         style="stop-color:#B2B4B6"
         id="stop3565" />
    </linearGradient>
    <linearGradient
       id="path4716_1_"
       gradientUnits="userSpaceOnUse"
       x1="24.7334"
       y1="71.200203"
       x2="119.8123"
       y2="93.814201"
       gradientTransform="matrix(1,0,0,-1,0,156)">
      <stop
         offset="0"
         style="stop-color:#EDEDEE"
         id="stop3569" />
      <stop
         offset="0.4176"
         style="stop-color:#FFFFFF"
         id="stop3571" />
      <stop
         offset="0.6264"
         style="stop-color:#F8F9F9"
         id="stop3573" />
      <stop
         offset="0.9505"
         style="stop-color:#B2B4B6"
         id="stop3575" />
    </linearGradient>
    <linearGradient
       id="path4727_1_"
       gradientUnits="userSpaceOnUse"
       x1="24.8867"
       y1="70.617203"
       x2="119.3196"
       y2="93.077499"
       gradientTransform="matrix(1,0,0,-1,0,156)">
      <stop
         offset="0"
         style="stop-color:#EDEDEE"
         id="stop3579" />
      <stop
         offset="0.4176"
         style="stop-color:#FFFFFF"
         id="stop3581" />
      <stop
         offset="0.6264"
         style="stop-color:#F8F9F9"
         id="stop3583" />
      <stop
         offset="0.9505"
         style="stop-color:#B2B4B6"
         id="stop3585" />
    </linearGradient>
    <linearGradient
       id="path4738_1_"
       gradientUnits="userSpaceOnUse"
       x1="26.111799"
       y1="65.625"
       x2="121.1811"
       y2="88.236702"
       gradientTransform="matrix(1,0,0,-1,0,156)">
      <stop
         offset="0"
         style="stop-color:#EDEDEE"
         id="stop3589" />
      <stop
         offset="0.4176"
         style="stop-color:#FFFFFF"
         id="stop3591" />
      <stop
         offset="0.6264"
         style="stop-color:#F8F9F9"
         id="stop3593" />
      <stop
         offset="0.9505"
         style="stop-color:#B2B4B6"
         id="stop3595" />
    </linearGradient>
    <linearGradient
       gradientTransform="matrix(1,0,0,-1,0,156)"
       y2="126.7951"
       x2="111.546"
       y1="106.2803"
       x1="22.574699"
       gradientUnits="userSpaceOnUse"
       id="path4749_1_">
      <stop
         id="stop3600"
         style="stop-color:#FFFFFF"
         offset="0" />
      <stop
         id="stop3602"
         style="stop-color:#FFFFFF"
         offset="0.6538" />
      <stop
         id="stop3604"
         style="stop-color:#CBCCCE"
         offset="1" />
    </linearGradient>
    <linearGradient
       gradientTransform="translate(192.3999,-648.9004)"
       y2="684.91022"
       x2="-126.4229"
       y1="684.91022"
       x1="-158.8101"
       gradientUnits="userSpaceOnUse"
       id="path4782_1_">
      <stop
         id="stop3617"
         style="stop-color:#696969"
         offset="0" />
      <stop
         id="stop3619"
         style="stop-color:#2E2E2E"
         offset="0.3702" />
      <stop
         id="stop3621"
         style="stop-color:#424242"
         offset="0.4554" />
      <stop
         id="stop3623"
         style="stop-color:#303030"
         offset="0.6014" />
      <stop
         id="stop3625"
         style="stop-color:#4A4A4A"
         offset="0.6947" />
      <stop
         id="stop3627"
         style="stop-color:#666666"
         offset="1" />
    </linearGradient>
    <linearGradient
       gradientTransform="translate(192.3999,-648.9004)"
       y2="684.10248"
       x2="-126.5479"
       y1="684.10248"
       x1="-158.4189"
       gradientUnits="userSpaceOnUse"
       id="path4811_1_">
      <stop
         id="stop3631"
         style="stop-color:#525252"
         offset="0" />
      <stop
         id="stop3633"
         style="stop-color:#333333"
         offset="0.1856" />
      <stop
         id="stop3635"
         style="stop-color:#AEAEAE"
         offset="0.354" />
      <stop
         id="stop3637"
         style="stop-color:#ADADAD"
         offset="0.4199" />
      <stop
         id="stop3639"
         style="stop-color:#9D9D9D"
         offset="0.4276" />
      <stop
         id="stop3641"
         style="stop-color:#818181"
         offset="0.4433" />
      <stop
         id="stop3643"
         style="stop-color:#6A6A6A"
         offset="0.4611" />
      <stop
         id="stop3645"
         style="stop-color:#585858"
         offset="0.4814" />
      <stop
         id="stop3647"
         style="stop-color:#4C4C4C"
         offset="0.506" />
      <stop
         id="stop3649"
         style="stop-color:#444444"
         offset="0.539" />
      <stop
         id="stop3651"
         style="stop-color:#424242"
         offset="0.6166" />
      <stop
         id="stop3653"
         style="stop-color:#454545"
         offset="0.6684" />
      <stop
         id="stop3655"
         style="stop-color:#BDBDBD"
         offset="1" />
    </linearGradient>
    <linearGradient
       gradientTransform="translate(192.3999,-648.9004)"
       y2="687.5658"
       x2="-154.1557"
       y1="694.37109"
       x1="-153.127"
       gradientUnits="userSpaceOnUse"
       id="path4818_1_">
      <stop
         id="stop3659"
         style="stop-color:#969696"
         offset="0" />
      <stop
         id="stop3661"
         style="stop-color:#000000"
         offset="1" />
    </linearGradient>
    <linearGradient
       gradientTransform="matrix(1,0,0,-1,0,156)"
       y2="117.211"
       x2="39.4879"
       y1="109.627"
       x1="38.737801"
       gradientUnits="userSpaceOnUse"
       id="path4831_1_">
      <stop
         id="stop3667"
         style="stop-color:#333333"
         offset="0" />
      <stop
         id="stop3669"
         style="stop-color:#000000"
         offset="0.431" />
      <stop
         id="stop3671"
         style="stop-color:#2E2E2E"
         offset="1" />
    </linearGradient>
    <radialGradient
       gradientUnits="userSpaceOnUse"
       gradientTransform="translate(192.3999,-648.9004)"
       r="72.751701"
       cy="685.40039"
       cx="-138.23289"
       id="path4846_1_">
      <stop
         id="stop3678"
         style="stop-color:#000000;stop-opacity:0"
         offset="0" />
      <stop
         id="stop3680"
         style="stop-color:#000000;stop-opacity:0.08"
         offset="0.8022" />
      <stop
         id="stop3682"
         style="stop-color:#000000;stop-opacity:0.3882"
         offset="1" />
    </radialGradient>
    <radialGradient
       inkscape:collect="always"
       xlink:href="#path3930_1_"
       id="radialGradient32635"
       gradientUnits="userSpaceOnUse"
       gradientTransform="matrix(10.201912,0,0,10.201912,1763.4786,-6691.6604)"
       cx="-145.4707"
       cy="704.17682"
       r="68.686401" />
  </defs>
  <sodipodi:namedview
     id="base"
     pagecolor="#ffffff"
     bordercolor="#666666"
     borderopacity="1.0"
     inkscape:pageopacity="0.0"
     inkscape:pageshadow="2"
     inkscape:zoom="0.24748737"
     inkscape:cx="36.239124"
     inkscape:cy="483.87226"
     inkscape:document-units="px"
     inkscape:current-layer="layer1"
     showgrid="false"
     inkscape:window-width="1366"
     inkscape:window-height="706"
     inkscape:window-x="-8"
     inkscape:window-y="-8"
     inkscape:window-maximized="1"
     showguides="true"
     inkscape:guide-bbox="true" />
  <metadata
     id="metadata17866">
    <rdf:RDF>
      <cc:Work
         rdf:about="">
        <dc:format>image/svg+xml</dc:format>
        <dc:type
           rdf:resource="http://purl.org/dc/dcmitype/StillImage" />
        <dc:title></dc:title>
      </cc:Work>
    </rdf:RDF>
  </metadata>
  <g
     inkscape:label="Layer 1"
     inkscape:groupmode="layer"
     id="layer1">
    <rect
       style="fill:#ff2a2a;fill-opacity:1;stroke:none;stroke-width:15;stroke-linecap:round;stroke-linejoin:round;stroke-miterlimit:4;stroke-opacity:1;stroke-dasharray:none"
       id="rect32638"
       width="1168.5714"
       height="1168.5714"
       x="-94.285713"
       y="-36.209248" />
    <path
       d="m 473.6722,251.19396 c 0.1436,-6.18237 -3.99925,-12.95643 -3.99925,-12.95643 l -0.25491,-0.59172 c 0,0 -4.96847,-9.6816 -13.27286,-12.52794 -8.31446,-2.83613 -15.07826,3.48905 -15.07826,3.48905 0,0 -1.16307,1.33645 -4.36653,5.03974 -3.19323,3.7135 -5.17239,6.79448 -12.2218,9.56939 -7.05981,2.76472 -14.06848,2.08118 -17.78193,0.33667 -3.72371,-1.75474 -4.66238,-5.47843 -4.66238,-5.47843 0,0 -2.33622,-7.36579 -3.19324,-10.70182 -0.87729,-3.37681 -3.14206,-17.28203 -3.14206,-17.28203 0,0 -5.01944,-28.02465 -5.458,-33.70711 0,0 15.04773,-1.28544 37.60425,-7.90648 23.46433,-6.86589 31.04438,-12.30351 31.04438,-12.30351 0,0 -4.40728,-1.59151 -4.93775,-6.75367 -0.52025,-5.17238 -0.90799,-12.14028 -0.90799,-12.14028 0,0 -0.908,-5.10095 4.92752,-11.61997 5.83552,-6.52922 13.81339,-8.80426 17.98605,-9.72243 4.18272,-0.90798 13.06856,-1.73432 21.34228,-1.36705 8.28393,0.38766 12.92585,1.14262 16.25174,2.96876 3.34617,1.81592 3.64202,6.22316 3.64202,6.22316 l -0.0808,11.69139 c 0,0 -0.37751,4.10118 2.66258,5.39681 0,0 5.15192,3.11158 22.4034,1.35686 0,0 7.34542,-1.28544 18.83281,-4.69288 11.47717,-3.41765 42.12375,-12.53815 46.45941,-13.68076 4.33585,-1.13243 9.7224,-2.96876 16.79245,-4.78471 7.0494,-1.82614 20.80175,-6.38639 23.53577,-7.44739 2.75449,-1.06099 18.4756,-6.30478 29.86102,-8.26354 11.37521,-1.98938 22.70946,-1.89756 28.68771,1.52008 0,0 3.66246,3.10137 5.31527,6.75365 1.66287,3.65229 4.86632,8.80427 9.40609,11.0997 4.64192,2.31583 7.67197,3.78491 19.12868,2.78512 0,0 0.23462,-0.97939 -4.01956,-3.77472 -4.25415,-2.82592 -10.11014,-7.15153 -10.11014,-7.15153 0,0 -3.4074,-2.49946 -4.17267,-4.56025 -0.74463,-2.06079 -0.43855,-3.12178 -0.43855,-3.12178 l 8.9573,-14.34389 c 0,0 0,-1.75474 5.16214,-2.42807 5.16218,-0.68353 10.93647,-1.36707 17.76149,-3.1932 6.82501,-1.81593 8.03907,-3.18301 8.03907,-3.18301 l 5.9172,1.81595 c 0,0 36.17585,29.10608 47.48982,36.55347 l 2.04038,-2.43826 c 0,0 4.43781,0.18363 8.42683,1.75472 4.0093,1.5711 9.98772,5.73348 9.98772,5.73348 0,0 16.44544,13.36449 21.12812,22.44421 l 2.27499,6.92711 -1.04064,1.64249 c 0,0 9.36534,13.3339 21.3832,26.54538 0,0 12.51781,16.97599 17.23118,21.322 0,0 -1.10187,-4.07057 -2.05061,-8.66143 l 3.42786,-2.30564 2.07089,-1.46907 6.29455,2.6423 c 36.46162,49.08139 65.61876,106.34473 83.05388,166.57682 l -1.22431,4.93771 4.02978,5.11118 c 11.50771,42.97044 17.62891,88.17512 17.62891,134.77746 0,11.44654 -0.3774,22.81147 -1.1018,34.06419 l -3.1013,5.21317 2.2953,5.66206 C 984.76819,818.84876 761.42792,1027.835 489.27157,1027.835 300.51574,1027.835 135.2449,927.30528 44.090649,776.86788 l -1.040602,-3.7237 -2.091352,-1.5507 C 6.4048024,713.01411 -17.008548,647.07915 -26.322825,576.69615 l 2.162792,-5.356 -3.427859,-4.92753 c -2.172939,-19.302 -3.28498,-38.88969 -3.28498,-58.74261 0,-30.4527 2.601573,-60.2831 7.630993,-89.31773 l 2.550566,-5.73348 -0.887712,-3.34621 C -9.7753396,347.57142 12.934173,289.74698 44.468305,237.89065 l 6.978165,-3.91752 0.826285,0.32645 c 0,0 2.376973,-1.72413 3.611462,-2.2138 l 0.775276,-0.23465 c 0,0 12.028151,-20.10799 16.578198,-26.53518 0,0 5.529413,-3.55028 7.600307,-4.15219 0,0 1.265041,-0.16317 1.928179,0.77536 0,0 5.060188,-4.40723 17.333143,-20.95473 0.0413,-0.051 0.0718,-0.11216 0.12204,-0.17341 0,0 -1.16308,-0.77534 -1.33649,-1.77515 -0.18365,-0.98957 1.10186,-6.02931 1.765,-7.31475 0.66295,-1.28545 1.10169,-1.59151 1.10169,-1.59151 0,0 17.56777,-20.73028 32.14625,-33.0338 0,0 2.65252,-2.06078 6.91691,-2.55046 0,0 15.01721,-6.25378 33.29911,-22.28098 0,0 0.52023,-2.94834 4.87637,-8.75325 4.36654,-5.81508 14.85403,-11.86483 22.66871,-13.63995 7.79421,-1.77514 9.14096,-0.38768 9.14096,-0.38768 l 0.65288,0.66312 5.25389,7.81467 c 0,0 5.76426,-3.22381 14.41547,-6.16194 8.641,-2.94837 9.98755,-2.67292 9.98755,-2.67292 l 8.40637,13.63998 -10.06923,20.40379 c 0,0 -6.5701,14.49695 -16.88417,22.29119 0,0 -4.81533,2.89735 -11.42618,1.29566 -6.61084,-1.60172 -10.93646,3.39722 -10.93646,3.39722 l -1.7343,1.42827 c 0,0 1.42822,-0.24484 3.52982,-1.05079 0,0 1.61205,0.66312 2.79542,2.27504 1.16289,1.61188 9.31435,11.98723 9.31435,11.98723 0,0 0.0502,8.53899 -4.23388,19.77131 -4.27463,11.22209 -14.96623,29.49373 -14.96623,29.49373 0,0 -7.47791,14.5275 -10.96697,22.98489 -3.48907,8.45739 -5.25408,18.00639 -4.97853,23.07675 0,0 1.90773,0.6325 7.21277,-2.06079 6.6823,-3.38703 11.04866,0.27545 11.04866,0.27545 0,0 7.33519,5.40702 10.62016,8.98788 2.67298,2.94836 8.18196,18.00637 2.13229,32.89096 0,0 -4.10123,10.28353 -14.0482,17.5881 0,0 -2.20354,3.38702 -15.59865,1.77515 -3.75423,-0.4387 -5.96819,-2.81576 -13.99703,-2.04041 -8.00857,0.78555 -12.55858,8.31456 -12.55858,8.31456 l 0.13287,-0.24484 c -7.05964,10.19171 -11.77301,25.07631 -11.77301,25.07631 l -0.58145,1.6833 c 0,0 -2.45865,5.19278 -2.97906,17.87375 -0.5407,13.09926 2.89738,31.71776 2.89738,31.71776 0,0 80.35019,-14.15007 100.79488,-0.56111 l 5.9172,5.42742 c 0,0 0.46925,1.77513 -0.31631,3.83592 -0.81625,2.08119 -3.82565,6.86588 -10.06939,11.35473 -6.23332,4.46843 -12.46666,16.14961 -3.19306,23.5052 10.54871,8.34517 17.2513,7.81466 34.99249,4.7745 17.75142,-3.02998 29.56516,-12.94624 29.56516,-12.94624 0,0 9.91628,-7.34537 7.9881,-16.60871 -1.91796,-9.26332 -10.37529,-12.13008 -10.37529,-12.13008 0,0 -6.71299,-4.31539 -1.43846,-12.62996 0,0 1.43846,-7.02912 26.0454,-13.42571 24.62741,-6.3864 69.49542,-15.50691 107.70159,-20.2916 0,0 -25.9027,-83.89033 -7.52908,-94.76556 0,0 4.46851,-3.01978 12.4873,-4.16238 l 7.34525,-0.37746 c 1.3365,-0.27548 3.49929,0.051 8.12076,0.45907 4.62144,0.38768 10.21211,0.77534 17.11879,-4.49905 6.89645,-5.29477 7.1108,-8.35536 7.1108,-8.35536"
       id="path32720"
       inkscape:connector-curvature="0"
       style="fill:#ffffff" />
    <path
       style="opacity:0.51327431;fill:url(#radialGradient32635)"
       inkscape:connector-curvature="0"
       id="path15818"
       d="m 473.6722,251.19396 c 0.1436,-6.18237 -3.99925,-12.95643 -3.99925,-12.95643 l -0.25491,-0.59172 c 0,0 -4.96847,-9.6816 -13.27286,-12.52794 -8.31446,-2.83613 -15.07826,3.48905 -15.07826,3.48905 0,0 -1.16307,1.33645 -4.36653,5.03974 -3.19323,3.7135 -5.17239,6.79448 -12.2218,9.56939 -7.05981,2.76472 -14.06848,2.08118 -17.78193,0.33667 -3.72371,-1.75474 -4.66238,-5.47843 -4.66238,-5.47843 0,0 -2.33622,-7.36579 -3.19324,-10.70182 -0.87729,-3.37681 -3.14206,-17.28203 -3.14206,-17.28203 0,0 -5.01944,-28.02465 -5.458,-33.70711 0,0 15.04773,-1.28544 37.60425,-7.90648 23.46433,-6.86589 31.04438,-12.30351 31.04438,-12.30351 0,0 -4.40728,-1.59151 -4.93775,-6.75367 -0.52025,-5.17238 -0.90799,-12.14028 -0.90799,-12.14028 0,0 -0.908,-5.10095 4.92752,-11.61997 5.83552,-6.52922 13.81339,-8.80426 17.98605,-9.72243 4.18272,-0.90798 13.06856,-1.73432 21.34228,-1.36705 8.28393,0.38766 12.92585,1.14262 16.25174,2.96876 3.34617,1.81592 3.64202,6.22316 3.64202,6.22316 l -0.0808,11.69139 c 0,0 -0.37751,4.10118 2.66258,5.39681 0,0 5.15192,3.11158 22.4034,1.35686 0,0 7.34542,-1.28544 18.83281,-4.69288 11.47717,-3.41765 42.12375,-12.53815 46.45941,-13.68076 4.33585,-1.13243 9.7224,-2.96876 16.79245,-4.78471 7.0494,-1.82614 20.80175,-6.38639 23.53577,-7.44739 2.75449,-1.06099 18.4756,-6.30478 29.86102,-8.26354 11.37521,-1.98938 22.70946,-1.89756 28.68771,1.52008 0,0 3.66246,3.10137 5.31527,6.75365 1.66287,3.65229 4.86632,8.80427 9.40609,11.0997 4.64192,2.31583 7.67197,3.78491 19.12868,2.78512 0,0 0.23462,-0.97939 -4.01956,-3.77472 -4.25415,-2.82592 -10.11014,-7.15153 -10.11014,-7.15153 0,0 -3.4074,-2.49946 -4.17267,-4.56025 -0.74463,-2.06079 -0.43855,-3.12178 -0.43855,-3.12178 l 8.9573,-14.34389 c 0,0 0,-1.75474 5.16214,-2.42807 5.16218,-0.68353 10.93647,-1.36707 17.76149,-3.1932 6.82501,-1.81593 8.03907,-3.18301 8.03907,-3.18301 l 5.9172,1.81595 c 0,0 36.17585,29.10608 47.48982,36.55347 l 2.04038,-2.43826 c 0,0 4.43781,0.18363 8.42683,1.75472 4.0093,1.5711 9.98772,5.73348 9.98772,5.73348 0,0 16.44544,13.36449 21.12812,22.44421 l 2.27499,6.92711 -1.04064,1.64249 c 0,0 9.36534,13.3339 21.3832,26.54538 0,0 12.51781,16.97599 17.23118,21.322 0,0 -1.10187,-4.07057 -2.05061,-8.66143 l 3.42786,-2.30564 2.07089,-1.46907 6.29455,2.6423 c 36.46162,49.08139 65.61876,106.34473 83.05388,166.57682 l -1.22431,4.93771 4.02978,5.11118 c 11.50771,42.97044 17.62891,88.17512 17.62891,134.77746 0,11.44654 -0.3774,22.81147 -1.1018,34.06419 l -3.1013,5.21317 2.2953,5.66206 C 984.76819,818.84876 761.42792,1027.835 489.27157,1027.835 300.51574,1027.835 135.2449,927.30528 44.090649,776.86788 l -1.040602,-3.7237 -2.091352,-1.5507 C 6.4048024,713.01411 -17.008548,647.07915 -26.322825,576.69615 l 2.162792,-5.356 -3.427859,-4.92753 c -2.172939,-19.302 -3.28498,-38.88969 -3.28498,-58.74261 0,-30.4527 2.601573,-60.2831 7.630993,-89.31773 l 2.550566,-5.73348 -0.887712,-3.34621 C -9.7753396,347.57142 12.934173,289.74698 44.468305,237.89065 l 6.978165,-3.91752 0.826285,0.32645 c 0,0 2.376973,-1.72413 3.611462,-2.2138 l 0.775276,-0.23465 c 0,0 12.028151,-20.10799 16.578198,-26.53518 0,0 5.529413,-3.55028 7.600307,-4.15219 0,0 1.265041,-0.16317 1.928179,0.77536 0,0 5.060188,-4.40723 17.333143,-20.95473 0.0413,-0.051 0.0718,-0.11216 0.12204,-0.17341 0,0 -1.16308,-0.77534 -1.33649,-1.77515 -0.18365,-0.98957 1.10186,-6.02931 1.765,-7.31475 0.66295,-1.28545 1.10169,-1.59151 1.10169,-1.59151 0,0 17.56777,-20.73028 32.14625,-33.0338 0,0 2.65252,-2.06078 6.91691,-2.55046 0,0 15.01721,-6.25378 33.29911,-22.28098 0,0 0.52023,-2.94834 4.87637,-8.75325 4.36654,-5.81508 14.85403,-11.86483 22.66871,-13.63995 7.79421,-1.77514 9.14096,-0.38768 9.14096,-0.38768 l 0.65288,0.66312 5.25389,7.81467 c 0,0 5.76426,-3.22381 14.41547,-6.16194 8.641,-2.94837 9.98755,-2.67292 9.98755,-2.67292 l 8.40637,13.63998 -10.06923,20.40379 c 0,0 -6.5701,14.49695 -16.88417,22.29119 0,0 -4.81533,2.89735 -11.42618,1.29566 -6.61084,-1.60172 -10.93646,3.39722 -10.93646,3.39722 l -1.7343,1.42827 c 0,0 1.42822,-0.24484 3.52982,-1.05079 0,0 1.61205,0.66312 2.79542,2.27504 1.16289,1.61188 9.31435,11.98723 9.31435,11.98723 0,0 0.0502,8.53899 -4.23388,19.77131 -4.27463,11.22209 -14.96623,29.49373 -14.96623,29.49373 0,0 -7.47791,14.5275 -10.96697,22.98489 -3.48907,8.45739 -5.25408,18.00639 -4.97853,23.07675 0,0 1.90773,0.6325 7.21277,-2.06079 6.6823,-3.38703 11.04866,0.27545 11.04866,0.27545 0,0 7.33519,5.40702 10.62016,8.98788 2.67298,2.94836 8.18196,18.00637 2.13229,32.89096 0,0 -4.10123,10.28353 -14.0482,17.5881 0,0 -2.20354,3.38702 -15.59865,1.77515 -3.75423,-0.4387 -5.96819,-2.81576 -13.99703,-2.04041 -8.00857,0.78555 -12.55858,8.31456 -12.55858,8.31456 l 0.13287,-0.24484 c -7.05964,10.19171 -11.77301,25.07631 -11.77301,25.07631 l -0.58145,1.6833 c 0,0 -2.45865,5.19278 -2.97906,17.87375 -0.5407,13.09926 2.89738,31.71776 2.89738,31.71776 0,0 80.35019,-14.15007 100.79488,-0.56111 l 5.9172,5.42742 c 0,0 0.46925,1.77513 -0.31631,3.83592 -0.81625,2.08119 -3.82565,6.86588 -10.06939,11.35473 -6.23332,4.46843 -12.46666,16.14961 -3.19306,23.5052 10.54871,8.34517 17.2513,7.81466 34.99249,4.7745 17.75142,-3.02998 29.56516,-12.94624 29.56516,-12.94624 0,0 9.91628,-7.34537 7.9881,-16.60871 -1.91796,-9.26332 -10.37529,-12.13008 -10.37529,-12.13008 0,0 -6.71299,-4.31539 -1.43846,-12.62996 0,0 1.43846,-7.02912 26.0454,-13.42571 24.62741,-6.3864 69.49542,-15.50691 107.70159,-20.2916 0,0 -25.9027,-83.89033 -7.52908,-94.76556 0,0 4.46851,-3.01978 12.4873,-4.16238 l 7.34525,-0.37746 c 1.3365,-0.27548 3.49929,0.051 8.12076,0.45907 4.62144,0.38768 10.21211,0.77534 17.11879,-4.49905 6.89645,-5.29477 7.1108,-8.35536 7.1108,-8.35536" />
    <text
       xml:space="preserve"
       style="font-size:84.31409454px;font-style:normal;font-weight:normal;line-height:125%;letter-spacing:0px;word-spacing:0px;fill:#ffffff;fill-opacity:1;stroke:none;font-family:Sans"
       x="611.93799"
       y="1094.3221"
       id="text32712"
       sodipodi:linespacing="125%"><tspan
         sodipodi:role="line"
         id="tspan32714"
         x="611.93799"
         y="1094.3221">falanster.by</tspan></text>
    <text
       xml:space="preserve"
       style="font-size:520.25689696999996000px;font-style:normal;font-weight:normal;line-height:125%;letter-spacing:0px;word-spacing:0px;fill:#4d4d4d;fill-opacity:1;stroke:none;font-family:Sans"
       x="184.69966"
       y="678.46338"
       id="text32716"
       sodipodi:linespacing="125%"><tspan
         sodipodi:role="line"
         id="tspan32718"
         x="184.69966"
         y="678.46338">ะะท</tspan></text>
  </g>
</svg>
