<?xml version="1.0" encoding="UTF-8" standalone="no"?>
<!-- Created with Inkscape (http://www.inkscape.org/) -->

<svg
   xmlns:dc="http://purl.org/dc/elements/1.1/"
   xmlns:cc="http://creativecommons.org/ns#"
   xmlns:rdf="http://www.w3.org/1999/02/22-rdf-syntax-ns#"
   xmlns:svg="http://www.w3.org/2000/svg"
   xmlns="http://www.w3.org/2000/svg"
   xmlns:xlink="http://www.w3.org/1999/xlink"
   xmlns:sodipodi="http://sodipodi.sourceforge.net/DTD/sodipodi-0.dtd"
   xmlns:inkscape="http://www.inkscape.org/namespaces/inkscape"
   width="744.09448819"
   height="1052.3622047"
   id="svg17861"
   version="1.1"
   inkscape:version="0.48.2 r9819"
   sodipodi:docname="wiki_bukvy_4_2.svg"
   inkscape:export-filename="D:\Dropbox\Photos\falanster\wikification\nalepki\wiki_bukvy_3_2.png"
   inkscape:export-xdpi="77.01712"
   inkscape:export-ydpi="77.01712">
  <defs
     id="defs17863">
    <radialGradient
       gradientUnits="userSpaceOnUse"
       gradientTransform="translate(192.3999,-648.9004)"
       r="68.686401"
       cy="704.17682"
       cx="-145.4707"
       id="path3930_1_">
      <stop
         id="stop3037"
         style="stop-color:#FFFFFF"
         offset="0" />
      <stop
         id="stop3039"
         style="stop-color:#EAEAEB"
         offset="0.4835" />
      <stop
         id="stop3041"
         style="stop-color:#A9ABAE"
         offset="0.9451" />
      <stop
         id="stop3043"
         style="stop-color:#999B9E"
         offset="1" />
    </radialGradient>
    <linearGradient
       gradientTransform="matrix(1,0,0,-1,0,156)"
       y2="58.770302"
       x2="112.733"
       y1="131.52049"
       x1="66.232903"
       gradientUnits="userSpaceOnUse"
       id="path3945_1_">
      <stop
         id="stop3048"
         style="stop-color:#8A8A8A"
         offset="0" />
      <stop
         id="stop3050"
         style="stop-color:#606060"
         offset="0.5687" />
      <stop
         id="stop3052"
         style="stop-color:#FFFFFF"
         offset="0.5914" />
      <stop
         id="stop3054"
         style="stop-color:#585858"
         offset="0.6116" />
      <stop
         id="stop3056"
         style="stop-color:#303030"
         offset="1" />
    </linearGradient>
    <linearGradient
       id="path3954_1_"
       gradientUnits="userSpaceOnUse"
       x1="35.350101"
       y1="138.2383"
       x2="55.350101"
       y2="44.8633"
       gradientTransform="matrix(1,0,0,-1,0,156)">
      <stop
         offset="0"
         style="stop-color:#A8A9AB"
         id="stop3061" />
      <stop
         offset="1"
         style="stop-color:#636668"
         id="stop3063" />
    </linearGradient>
    <linearGradient
       id="path3961_1_"
       gradientUnits="userSpaceOnUse"
       x1="31.0259"
       y1="137.3105"
       x2="51.026001"
       y2="43.934898"
       gradientTransform="matrix(1,0,0,-1,0,156)">
      <stop
         offset="0"
         style="stop-color:#A8A9AB"
         id="stop3067" />
      <stop
         offset="1"
         style="stop-color:#636668"
         id="stop3069" />
    </linearGradient>
    <linearGradient
       gradientTransform="matrix(1,0,0,-1,0,156)"
       y2="90.865196"
       x2="83.798798"
       y1="90.865196"
       x1="54.716301"
       gradientUnits="userSpaceOnUse"
       id="path3968_1_">
      <stop
         id="stop3073"
         style="stop-color:#231F20"
         offset="0" />
      <stop
         id="stop3075"
         style="stop-color:#474747"
         offset="1" />
    </linearGradient>
    <linearGradient
       gradientTransform="translate(192.3999,-648.9004)"
       y2="762.09747"
       x2="-94.070099"
       y1="672.19342"
       x1="-123.5908"
       gradientUnits="userSpaceOnUse"
       id="path4013_1_">
      <stop
         id="stop3092"
         style="stop-color:#FFFFFF"
         offset="0" />
      <stop
         id="stop3094"
         style="stop-color:#FCFCFC"
         offset="0.0094" />
      <stop
         id="stop3096"
         style="stop-color:#EEEEEE"
         offset="0.0655" />
      <stop
         id="stop3098"
         style="stop-color:#E5E5E5"
         offset="0.1342" />
      <stop
         id="stop3100"
         style="stop-color:#E3E3E3"
         offset="0.2515" />
      <stop
         id="stop3102"
         style="stop-color:#8A8A8A"
         offset="0.3357" />
      <stop
         id="stop3104"
         style="stop-color:#B8B8B8"
         offset="0.4422" />
      <stop
         id="stop3106"
         style="stop-color:#3B3B3B"
         offset="1" />
    </linearGradient>
    <linearGradient
       gradientTransform="matrix(1,0,0,-1,0,156)"
       y2="68.371902"
       x2="119.5471"
       y1="129.1221"
       x1="70.421898"
       gradientUnits="userSpaceOnUse"
       id="path4026_1_">
      <stop
         id="stop3110"
         style="stop-color:#EFF0F0"
         offset="0" />
      <stop
         id="stop3112"
         style="stop-color:#F0F1F2"
         offset="0.5914" />
      <stop
         id="stop3114"
         style="stop-color:#787878"
         offset="0.599" />
      <stop
         id="stop3116"
         style="stop-color:#EEEFF0"
         offset="0.6456" />
      <stop
         id="stop3118"
         style="stop-color:#D8D9DB"
         offset="1" />
    </linearGradient>
    <linearGradient
       gradientTransform="translate(192.3999,-648.9004)"
       y2="760.00238"
       x2="-87.572601"
       y1="669.86823"
       x1="-117.1689"
       gradientUnits="userSpaceOnUse"
       id="path4033_1_">
      <stop
         id="stop3122"
         style="stop-color:#FFFFFF"
         offset="0" />
      <stop
         id="stop3124"
         style="stop-color:#E4E5E6"
         offset="1" />
    </linearGradient>
    <linearGradient
       gradientTransform="matrix(1,0,0,-1,0,156)"
       y2="49.609699"
       x2="79.683899"
       y1="130.72459"
       x1="54.653301"
       gradientUnits="userSpaceOnUse"
       id="path4042_1_">
      <stop
         id="stop3128"
         style="stop-color:#FFFFFF"
         offset="0" />
      <stop
         id="stop3130"
         style="stop-color:#F9F9F9"
         offset="0.7473" />
      <stop
         id="stop3132"
         style="stop-color:#D5D7D8"
         offset="1" />
    </linearGradient>
    <linearGradient
       gradientTransform="translate(192.3999,-648.9004)"
       y2="767.23358"
       x2="-134.8338"
       y1="673.1875"
       x1="-115.5068"
       gradientUnits="userSpaceOnUse"
       id="path4065_1_">
      <stop
         id="stop3144"
         style="stop-color:#FFFFFF"
         offset="0" />
      <stop
         id="stop3146"
         style="stop-color:#E4E5E6"
         offset="1" />
    </linearGradient>
    <linearGradient
       gradientTransform="matrix(1,0,0,-1,0,156)"
       y2="63.503799"
       x2="37.245701"
       y1="122.9229"
       x1="32.516602"
       gradientUnits="userSpaceOnUse"
       id="path4072_1_">
      <stop
         id="stop3150"
         style="stop-color:#989A9C"
         offset="0.2198" />
      <stop
         id="stop3152"
         style="stop-color:#FFFFFF"
         offset="0.2527" />
    </linearGradient>
    <linearGradient
       gradientTransform="translate(192.3999,-648.9004)"
       y2="757.95862"
       x2="-171.6926"
       y1="665.24121"
       x1="-152.6387"
       gradientUnits="userSpaceOnUse"
       id="path4079_1_">
      <stop
         id="stop3156"
         style="stop-color:#FFFFFF"
         offset="0" />
      <stop
         id="stop3158"
         style="stop-color:#E4E5E6"
         offset="1" />
    </linearGradient>
    <linearGradient
       gradientTransform="translate(192.3999,-648.9004)"
       y2="756.41431"
       x2="-130.1433"
       y1="756.375"
       x1="-130.1353"
       gradientUnits="userSpaceOnUse"
       id="path4086_1_">
      <stop
         id="stop3162"
         style="stop-color:#FFFFFF"
         offset="0" />
      <stop
         id="stop3164"
         style="stop-color:#E4E5E6"
         offset="1" />
    </linearGradient>
    <linearGradient
       gradientTransform="translate(192.3999,-648.9004)"
       y2="766.11298"
       x2="-140.54491"
       y1="671.67871"
       x1="-121.1382"
       gradientUnits="userSpaceOnUse"
       id="path4097_1_">
      <stop
         id="stop3170"
         style="stop-color:#FFFFFF"
         offset="0" />
      <stop
         id="stop3172"
         style="stop-color:#E4E5E6"
         offset="1" />
    </linearGradient>
    <linearGradient
       gradientTransform="translate(192.3999,-648.9004)"
       y2="763.14862"
       x2="-155.0065"
       y1="668.64838"
       x1="-135.5864"
       gradientUnits="userSpaceOnUse"
       id="path4104_1_">
      <stop
         id="stop3176"
         style="stop-color:#FFFFFF"
         offset="0" />
      <stop
         id="stop3178"
         style="stop-color:#E4E5E6"
         offset="1" />
    </linearGradient>
    <linearGradient
       gradientTransform="translate(192.3999,-648.9004)"
       y2="764.86401"
       x2="-146.8838"
       y1="670.07812"
       x1="-127.4048"
       gradientUnits="userSpaceOnUse"
       id="path4111_1_">
      <stop
         id="stop3182"
         style="stop-color:#FFFFFF"
         offset="0" />
      <stop
         id="stop3184"
         style="stop-color:#E4E5E6"
         offset="1" />
    </linearGradient>
    <linearGradient
       gradientTransform="translate(192.3999,-648.9004)"
       y2="767.05621"
       x2="-138.85249"
       y1="667.99609"
       x1="-118.4951"
       gradientUnits="userSpaceOnUse"
       id="path4118_1_">
      <stop
         id="stop3188"
         style="stop-color:#FFFFFF"
         offset="0" />
      <stop
         id="stop3190"
         style="stop-color:#E4E5E6"
         offset="1" />
    </linearGradient>
    <linearGradient
       gradientTransform="translate(192.3999,-648.9004)"
       y2="767.29742"
       x2="-134.7851"
       y1="672.88483"
       x1="-115.3828"
       gradientUnits="userSpaceOnUse"
       id="path4125_1_">
      <stop
         id="stop3194"
         style="stop-color:#FFFFFF"
         offset="0" />
      <stop
         id="stop3196"
         style="stop-color:#E4E5E6"
         offset="1" />
    </linearGradient>
    <linearGradient
       id="path4176_1_"
       gradientUnits="userSpaceOnUse"
       x1="-168.85941"
       y1="731.60352"
       x2="-168.6685"
       y2="731.60352"
       gradientTransform="translate(192.3999,-648.9004)">
      <stop
         offset="0"
         style="stop-color:#808080"
         id="stop3215" />
      <stop
         offset="0.0868"
         style="stop-color:#7A7A7A"
         id="stop3217" />
      <stop
         offset="0.36"
         style="stop-color:#6B6B6B"
         id="stop3219" />
      <stop
         offset="0.5192"
         style="stop-color:#686868"
         id="stop3221" />
      <stop
         offset="0.6377"
         style="stop-color:#5F5F5F"
         id="stop3223" />
      <stop
         offset="0.7431"
         style="stop-color:#4E4E4E"
         id="stop3225" />
      <stop
         offset="0.8408"
         style="stop-color:#383838"
         id="stop3227" />
      <stop
         offset="0.9324"
         style="stop-color:#1B1B1B"
         id="stop3229" />
      <stop
         offset="1"
         style="stop-color:#000000"
         id="stop3231" />
    </linearGradient>
    <linearGradient
       id="path4195_1_"
       gradientUnits="userSpaceOnUse"
       x1="-168.6377"
       y1="726.84381"
       x2="-74.017097"
       y2="726.84381"
       gradientTransform="translate(192.3999,-648.9004)">
      <stop
         offset="0"
         style="stop-color:#808080"
         id="stop3235" />
      <stop
         offset="0.0868"
         style="stop-color:#7A7A7A"
         id="stop3237" />
      <stop
         offset="0.3817"
         style="stop-color:#828282"
         id="stop3239" />
      <stop
         offset="0.5185"
         style="stop-color:#808080"
         id="stop3241" />
      <stop
         offset="0.5677"
         style="stop-color:#797979"
         id="stop3243" />
      <stop
         offset="0.6027"
         style="stop-color:#6E6E6E"
         id="stop3245" />
      <stop
         offset="0.608"
         style="stop-color:#6B6B6B"
         id="stop3247" />
      <stop
         offset="1"
         style="stop-color:#4E4E4E"
         id="stop3249" />
    </linearGradient>
    <linearGradient
       gradientTransform="translate(192.3999,-648.9004)"
       y2="708.39447"
       x2="-75.6362"
       y1="708.39447"
       x1="-175.4458"
       gradientUnits="userSpaceOnUse"
       id="path4202_1_">
      <stop
         id="stop3253"
         style="stop-color:#555555"
         offset="0" />
      <stop
         id="stop3255"
         style="stop-color:#231F20"
         offset="1" />
    </linearGradient>
    <linearGradient
       gradientTransform="translate(192.3999,-648.9004)"
       y2="687.9209"
       x2="-83.541"
       y1="687.9209"
       x1="-175.144"
       gradientUnits="userSpaceOnUse"
       id="path4211_1_">
      <stop
         id="stop3259"
         style="stop-color:#A0A0A0"
         offset="0" />
      <stop
         id="stop3261"
         style="stop-color:#656767"
         offset="0.0769" />
      <stop
         id="stop3263"
         style="stop-color:#717375"
         offset="1" />
    </linearGradient>
    <linearGradient
       gradientTransform="translate(192.3999,-648.9004)"
       y2="713.79102"
       x2="-172.3848"
       y1="713.79102"
       x1="-172.3848"
       gradientUnits="userSpaceOnUse"
       id="path4246_1_">
      <stop
         id="stop3272"
         style="stop-color:#FFFFFF"
         offset="0" />
      <stop
         id="stop3274"
         style="stop-color:#F4F4F4"
         offset="0.078" />
      <stop
         id="stop3276"
         style="stop-color:#CECECE"
         offset="0.3807" />
      <stop
         id="stop3278"
         style="stop-color:#BFBFBF"
         offset="0.5396" />
      <stop
         id="stop3280"
         style="stop-color:#7C7C7C"
         offset="0.8357" />
      <stop
         id="stop3282"
         style="stop-color:#A8A8A8"
         offset="0.8996" />
      <stop
         id="stop3284"
         style="stop-color:#9A9A9A"
         offset="0.9093" />
      <stop
         id="stop3286"
         style="stop-color:#7D7D7D"
         offset="0.9327" />
      <stop
         id="stop3288"
         style="stop-color:#686868"
         offset="0.9558" />
      <stop
         id="stop3290"
         style="stop-color:#5B5B5B"
         offset="0.9785" />
      <stop
         id="stop3292"
         style="stop-color:#575757"
         offset="1" />
    </linearGradient>
    <linearGradient
       gradientTransform="translate(192.3999,-648.9004)"
       y2="701.52533"
       x2="-67.171303"
       y1="713.55078"
       x1="-175.7168"
       gradientUnits="userSpaceOnUse"
       id="path4271_1_">
      <stop
         id="stop3296"
         style="stop-color:#FFFFFF"
         offset="0" />
      <stop
         id="stop3298"
         style="stop-color:#F4F4F4"
         offset="0.078" />
      <stop
         id="stop3300"
         style="stop-color:#CECECE"
         offset="0.3807" />
      <stop
         id="stop3302"
         style="stop-color:#BFBFBF"
         offset="0.5396" />
      <stop
         id="stop3304"
         style="stop-color:#7C7C7C"
         offset="0.8357" />
      <stop
         id="stop3306"
         style="stop-color:#A8A8A8"
         offset="0.8996" />
      <stop
         id="stop3308"
         style="stop-color:#9A9A9A"
         offset="0.9093" />
      <stop
         id="stop3310"
         style="stop-color:#7D7D7D"
         offset="0.9327" />
      <stop
         id="stop3312"
         style="stop-color:#686868"
         offset="0.9558" />
      <stop
         id="stop3314"
         style="stop-color:#5B5B5B"
         offset="0.9785" />
      <stop
         id="stop3316"
         style="stop-color:#575757"
         offset="1" />
    </linearGradient>
    <linearGradient
       gradientTransform="translate(192.3999,-648.9004)"
       y2="699.89038"
       x2="-53.160702"
       y1="713.5166"
       x1="-176.15379"
       gradientUnits="userSpaceOnUse"
       id="path4296_1_">
      <stop
         id="stop3320"
         style="stop-color:#FFFFFF"
         offset="0" />
      <stop
         id="stop3322"
         style="stop-color:#F4F4F4"
         offset="0.078" />
      <stop
         id="stop3324"
         style="stop-color:#CECECE"
         offset="0.3807" />
      <stop
         id="stop3326"
         style="stop-color:#BFBFBF"
         offset="0.5396" />
      <stop
         id="stop3328"
         style="stop-color:#7C7C7C"
         offset="0.8357" />
      <stop
         id="stop3330"
         style="stop-color:#A8A8A8"
         offset="0.8996" />
      <stop
         id="stop3332"
         style="stop-color:#9A9A9A"
         offset="0.9093" />
      <stop
         id="stop3334"
         style="stop-color:#7D7D7D"
         offset="0.9327" />
      <stop
         id="stop3336"
         style="stop-color:#686868"
         offset="0.9558" />
      <stop
         id="stop3338"
         style="stop-color:#5B5B5B"
         offset="0.9785" />
      <stop
         id="stop3340"
         style="stop-color:#575757"
         offset="1" />
    </linearGradient>
    <linearGradient
       gradientTransform="matrix(1,0,0,-1,0,156)"
       y2="104.051"
       x2="117.1957"
       y1="84.676804"
       x1="21.2129"
       gradientUnits="userSpaceOnUse"
       id="path4307_1_">
      <stop
         id="stop3344"
         style="stop-color:#EDEDEE"
         offset="0" />
      <stop
         id="stop3346"
         style="stop-color:#FFFFFF"
         offset="0.4176" />
      <stop
         id="stop3348"
         style="stop-color:#F8F9F9"
         offset="0.6264" />
      <stop
         id="stop3350"
         style="stop-color:#BFC0C2"
         offset="1" />
    </linearGradient>
    <linearGradient
       gradientTransform="matrix(1,0,0,-1,0,156)"
       y2="125.2676"
       x2="27.957001"
       y1="125.2676"
       x1="23.4722"
       gradientUnits="userSpaceOnUse"
       id="path4320_1_">
      <stop
         id="stop3357"
         style="stop-color:#E2E3E4"
         offset="0" />
      <stop
         id="stop3359"
         style="stop-color:#FFFFFF"
         offset="0.5055" />
    </linearGradient>
    <linearGradient
       id="path4683_1_"
       gradientUnits="userSpaceOnUse"
       x1="24.1982"
       y1="73.411102"
       x2="118.2354"
       y2="95.777397"
       gradientTransform="matrix(1,0,0,-1,0,156)">
      <stop
         offset="0"
         style="stop-color:#EDEDEE"
         id="stop3539" />
      <stop
         offset="0.4176"
         style="stop-color:#FFFFFF"
         id="stop3541" />
      <stop
         offset="0.6264"
         style="stop-color:#F8F9F9"
         id="stop3543" />
      <stop
         offset="0.9505"
         style="stop-color:#B2B4B6"
         id="stop3545" />
    </linearGradient>
    <linearGradient
       id="path4694_1_"
       gradientUnits="userSpaceOnUse"
       x1="26.6567"
       y1="63.116199"
       x2="121.7809"
       y2="85.740997"
       gradientTransform="matrix(1,0,0,-1,0,156)">
      <stop
         offset="0"
         style="stop-color:#EDEDEE"
         id="stop3549" />
      <stop
         offset="0.4176"
         style="stop-color:#FFFFFF"
         id="stop3551" />
      <stop
         offset="0.6264"
         style="stop-color:#F8F9F9"
         id="stop3553" />
      <stop
         offset="0.9505"
         style="stop-color:#B2B4B6"
         id="stop3555" />
    </linearGradient>
    <linearGradient
       id="path4705_1_"
       gradientUnits="userSpaceOnUse"
       x1="25.4326"
       y1="68.258797"
       x2="120.5521"
       y2="90.8825"
       gradientTransform="matrix(1,0,0,-1,0,156)">
      <stop
         offset="0"
         style="stop-color:#EDEDEE"
         id="stop3559" />
      <stop
         offset="0.4176"
         style="stop-color:#FFFFFF"
         id="stop3561" />
      <stop
         offset="0.6264"
         style="stop-color:#F8F9F9"
         id="stop3563" />
      <stop
         offset="0.9505"
         style="stop-color:#B2B4B6"
         id="stop3565" />
    </linearGradient>
    <linearGradient
       id="path4716_1_"
       gradientUnits="userSpaceOnUse"
       x1="24.7334"
       y1="71.200203"
       x2="119.8123"
       y2="93.814201"
       gradientTransform="matrix(1,0,0,-1,0,156)">
      <stop
         offset="0"
         style="stop-color:#EDEDEE"
         id="stop3569" />
      <stop
         offset="0.4176"
         style="stop-color:#FFFFFF"
         id="stop3571" />
      <stop
         offset="0.6264"
         style="stop-color:#F8F9F9"
         id="stop3573" />
      <stop
         offset="0.9505"
         style="stop-color:#B2B4B6"
         id="stop3575" />
    </linearGradient>
    <linearGradient
       id="path4727_1_"
       gradientUnits="userSpaceOnUse"
       x1="24.8867"
       y1="70.617203"
       x2="119.3196"
       y2="93.077499"
       gradientTransform="matrix(1,0,0,-1,0,156)">
      <stop
         offset="0"
         style="stop-color:#EDEDEE"
         id="stop3579" />
      <stop
         offset="0.4176"
         style="stop-color:#FFFFFF"
         id="stop3581" />
      <stop
         offset="0.6264"
         style="stop-color:#F8F9F9"
         id="stop3583" />
      <stop
         offset="0.9505"
         style="stop-color:#B2B4B6"
         id="stop3585" />
    </linearGradient>
    <linearGradient
       id="path4738_1_"
       gradientUnits="userSpaceOnUse"
       x1="26.111799"
       y1="65.625"
       x2="121.1811"
       y2="88.236702"
       gradientTransform="matrix(1,0,0,-1,0,156)">
      <stop
         offset="0"
         style="stop-color:#EDEDEE"
         id="stop3589" />
      <stop
         offset="0.4176"
         style="stop-color:#FFFFFF"
         id="stop3591" />
      <stop
         offset="0.6264"
         style="stop-color:#F8F9F9"
         id="stop3593" />
      <stop
         offset="0.9505"
         style="stop-color:#B2B4B6"
         id="stop3595" />
    </linearGradient>
    <linearGradient
       gradientTransform="matrix(1,0,0,-1,0,156)"
       y2="126.7951"
       x2="111.546"
       y1="106.2803"
       x1="22.574699"
       gradientUnits="userSpaceOnUse"
       id="path4749_1_">
      <stop
         id="stop3600"
         style="stop-color:#FFFFFF"
         offset="0" />
      <stop
         id="stop3602"
         style="stop-color:#FFFFFF"
         offset="0.6538" />
      <stop
         id="stop3604"
         style="stop-color:#CBCCCE"
         offset="1" />
    </linearGradient>
    <linearGradient
       gradientTransform="translate(192.3999,-648.9004)"
       y2="684.91022"
       x2="-126.4229"
       y1="684.91022"
       x1="-158.8101"
       gradientUnits="userSpaceOnUse"
       id="path4782_1_">
      <stop
         id="stop3617"
         style="stop-color:#696969"
         offset="0" />
      <stop
         id="stop3619"
         style="stop-color:#2E2E2E"
         offset="0.3702" />
      <stop
         id="stop3621"
         style="stop-color:#424242"
         offset="0.4554" />
      <stop
         id="stop3623"
         style="stop-color:#303030"
         offset="0.6014" />
      <stop
         id="stop3625"
         style="stop-color:#4A4A4A"
         offset="0.6947" />
      <stop
         id="stop3627"
         style="stop-color:#666666"
         offset="1" />
    </linearGradient>
    <linearGradient
       gradientTransform="translate(192.3999,-648.9004)"
       y2="684.10248"
       x2="-126.5479"
       y1="684.10248"
       x1="-158.4189"
       gradientUnits="userSpaceOnUse"
       id="path4811_1_">
      <stop
         id="stop3631"
         style="stop-color:#525252"
         offset="0" />
      <stop
         id="stop3633"
         style="stop-color:#333333"
         offset="0.1856" />
      <stop
         id="stop3635"
         style="stop-color:#AEAEAE"
         offset="0.354" />
      <stop
         id="stop3637"
         style="stop-color:#ADADAD"
         offset="0.4199" />
      <stop
         id="stop3639"
         style="stop-color:#9D9D9D"
         offset="0.4276" />
      <stop
         id="stop3641"
         style="stop-color:#818181"
         offset="0.4433" />
      <stop
         id="stop3643"
         style="stop-color:#6A6A6A"
         offset="0.4611" />
      <stop
         id="stop3645"
         style="stop-color:#585858"
         offset="0.4814" />
      <stop
         id="stop3647"
         style="stop-color:#4C4C4C"
         offset="0.506" />
      <stop
         id="stop3649"
         style="stop-color:#444444"
         offset="0.539" />
      <stop
         id="stop3651"
         style="stop-color:#424242"
         offset="0.6166" />
      <stop
         id="stop3653"
         style="stop-color:#454545"
         offset="0.6684" />
      <stop
         id="stop3655"
         style="stop-color:#BDBDBD"
         offset="1" />
    </linearGradient>
    <linearGradient
       gradientTransform="translate(192.3999,-648.9004)"
       y2="687.5658"
       x2="-154.1557"
       y1="694.37109"
       x1="-153.127"
       gradientUnits="userSpaceOnUse"
       id="path4818_1_">
      <stop
         id="stop3659"
         style="stop-color:#969696"
         offset="0" />
      <stop
         id="stop3661"
         style="stop-color:#000000"
         offset="1" />
    </linearGradient>
    <linearGradient
       gradientTransform="matrix(1,0,0,-1,0,156)"
       y2="117.211"
       x2="39.4879"
       y1="109.627"
       x1="38.737801"
       gradientUnits="userSpaceOnUse"
       id="path4831_1_">
      <stop
         id="stop3667"
         style="stop-color:#333333"
         offset="0" />
      <stop
         id="stop3669"
         style="stop-color:#000000"
         offset="0.431" />
      <stop
         id="stop3671"
         style="stop-color:#2E2E2E"
         offset="1" />
    </linearGradient>
    <radialGradient
       gradientUnits="userSpaceOnUse"
       gradientTransform="translate(192.3999,-648.9004)"
       r="72.751701"
       cy="685.40039"
       cx="-138.23289"
       id="path4846_1_">
      <stop
         id="stop3678"
         style="stop-color:#000000;stop-opacity:0"
         offset="0" />
      <stop
         id="stop3680"
         style="stop-color:#000000;stop-opacity:0.08"
         offset="0.8022" />
      <stop
         id="stop3682"
         style="stop-color:#000000;stop-opacity:0.3882"
         offset="1" />
    </radialGradient>
    <radialGradient
       inkscape:collect="always"
       xlink:href="#path3930_1_"
       id="radialGradient32635"
       gradientUnits="userSpaceOnUse"
       gradientTransform="matrix(10.201912,0,0,10.201912,1763.4786,-6691.6604)"
       cx="-145.4707"
       cy="704.17682"
       r="68.686401" />
    <radialGradient
       inkscape:collect="always"
       xlink:href="#path3930_1_-3"
       id="radialGradient3461"
       gradientUnits="userSpaceOnUse"
       gradientTransform="matrix(9.4541056,0,0,9.4541056,38.458898,-6484.5177)"
       cx="-145.4707"
       cy="704.17682"
       r="68.686401" />
    <radialGradient
       id="path3930_1_-3"
       cx="-145.4707"
       cy="704.17682"
       r="68.686401"
       gradientTransform="translate(192.3999,-648.9004)"
       gradientUnits="userSpaceOnUse">
      <stop
         offset="0"
         style="stop-color:#FFFFFF"
         id="stop3037-9" />
      <stop
         offset="0.4835"
         style="stop-color:#EAEAEB"
         id="stop3039-5" />
      <stop
         offset="0.9451"
         style="stop-color:#A9ABAE"
         id="stop3041-1" />
      <stop
         offset="1"
         style="stop-color:#999B9E"
         id="stop3043-3" />
    </radialGradient>
  </defs>
  <sodipodi:namedview
     id="base"
     pagecolor="#ffffff"
     bordercolor="#666666"
     borderopacity="1.0"
     inkscape:pageopacity="0.0"
     inkscape:pageshadow="2"
     inkscape:zoom="0.24748737"
     inkscape:cx="36.239124"
     inkscape:cy="483.87226"
     inkscape:document-units="px"
     inkscape:current-layer="layer1"
     showgrid="false"
     inkscape:window-width="1366"
     inkscape:window-height="706"
     inkscape:window-x="-8"
     inkscape:window-y="-8"
     inkscape:window-maximized="1"
     showguides="true"
     inkscape:guide-bbox="true" />
  <metadata
     id="metadata17866">
    <rdf:RDF>
      <cc:Work
         rdf:about="">
        <dc:format>image/svg+xml</dc:format>
        <dc:type
           rdf:resource="http://purl.org/dc/dcmitype/StillImage" />
        <dc:title></dc:title>
      </cc:Work>
    </rdf:RDF>
  </metadata>
  <g
     inkscape:label="Layer 1"
     inkscape:groupmode="layer"
     id="layer1">
    <rect
       style="fill:#00aa88;fill-opacity:1;stroke:none"
       id="rect32638-6"
       width="1168.5714"
       height="1168.5714"
       x="-1727.7784"
       y="-303.68008" />
    <path
       d="m -1156.8039,-50.578798 c 0.133,-5.72919 -3.7062,-12.00671 -3.7062,-12.00671 l -0.2362,-0.54835 c 0,0 -4.6043,-8.97193 -12.2999,-11.60963 -7.705,-2.62824 -13.973,3.2333 -13.973,3.2333 0,0 -1.0779,1.23849 -4.0465,4.67032 -2.9592,3.4413 -4.7932,6.29644 -11.3259,8.86795 -6.5423,2.56206 -13.0373,1.92863 -16.4786,0.31199 -3.4507,-1.62611 -4.3205,-5.07686 -4.3205,-5.07686 0,0 -2.1651,-6.82587 -2.9593,-9.91737 -0.8129,-3.12928 -2.9116,-16.01524 -2.9116,-16.01524 0,0 -4.6516,-25.970432 -5.058,-31.236362 0,0 13.9447,-1.19122 34.8478,-7.32693 21.7444,-6.36262 28.7688,-11.40166 28.7688,-11.40166 0,0 -4.0842,-1.47485 -4.5758,-6.25862 -0.4821,-4.79324 -0.8415,-11.25039 -0.8415,-11.25039 0,0 -0.8414,-4.72705 4.5665,-10.76822 5.4077,-6.05062 12.8008,-8.1589 16.6676,-9.00977 3.8761,-0.84142 12.1106,-1.60719 19.7779,-1.26684 7.6766,0.35924 11.9783,1.05886 15.0604,2.75114 3.1009,1.68282 3.3751,5.767 3.3751,5.767 l -0.075,10.83441 c 0,0 -0.3499,3.80056 2.4674,5.00122 0,0 4.7743,2.8835 20.7612,1.2574 0,0 6.8071,-1.19122 17.4523,-4.34889 10.6359,-3.16713 39.0361,-11.6191 43.054,-12.67795 4.018,-1.04942 9.0098,-2.75115 15.5615,-4.43399 6.5327,-1.69228 19.27705,-5.91826 21.81064,-6.90149 2.5526,-0.98322 17.12133,-5.84264 27.67218,-7.65782 10.54139,-1.84356 21.04487,-1.75847 26.58487,1.40866 0,0 3.39404,2.87404 4.92568,6.2586 1.54092,3.38458 4.5096,8.15891 8.71663,10.28609 4.30165,2.14607 7.10955,3.50747 17.72646,2.58097 0,0 0.2175,-0.9076 -3.72486,-3.49804 -3.94237,-2.61877 -9.36912,-6.62731 -9.36912,-6.62731 0,0 -3.15764,-2.31625 -3.86675,-4.22598 -0.69011,-1.90974 -0.40645,-2.89296 -0.40645,-2.89296 l 8.30073,-13.29247 c 0,0 0,-1.62612 4.7838,-2.25009 4.78372,-0.63343 10.13476,-1.26686 16.45958,-2.95914 6.32472,-1.68282 7.44973,-2.94969 7.44973,-2.94969 l 5.48347,1.68284 c 0,0 33.52418,26.97259 44.00877,33.87408 l 1.89083,-2.25954 c 0,0 4.11251,0.17017 7.80921,1.6261 3.71541,1.45594 9.25559,5.31321 9.25559,5.31321 0,0 15.23994,12.38487 19.5794,20.79904 l 2.10824,6.41935 -0.96442,1.52209 c 0,0 8.67891,12.35652 19.8158,24.59959 0,0 11.60033,15.731642 15.96815,19.759092 0,0 -1.02104,-3.7722 -1.90029,-8.026552 l 3.17663,-2.13663 1.9191,-1.36139 5.8332,2.44862 c 33.7889,45.483702 60.8088,98.5496024 76.9659,154.366642 l -1.1346,4.57577 3.7345,4.73653 c 10.6641,39.820678 16.3366,81.711828 16.3366,124.898188 0,10.6075 -0.3497,21.13937 -1.021,31.56726 l -2.874,4.83104 2.1271,5.24703 c -21.1016,246.74272 -228.07092,440.41008 -480.2781,440.41008 -174.9199,0 -328.0762,-93.16077 -412.5489,-232.57102 l -0.9643,-3.45075 -1.938,-1.43703 c -32.0211,-54.28547 -53.7182,-115.38735 -62.3497,-180.61124 l 2.0042,-4.9634 -3.1766,-4.56634 c -2.0136,-17.88715 -3.0442,-36.03905 -3.0442,-54.43674 0,-28.2205 2.4109,-55.86431 7.0717,-82.77068 l 2.3636,-5.313218 -0.8226,-3.10093 c 10.9384,-57.17843 31.9833,-110.76431 61.206,-158.81953 l 6.4666,-3.63037 0.7657,0.30252 c 0,0 2.2028,-1.59775 3.3468,-2.05152 l 0.7184,-0.21745 c 0,0 11.1465,-18.63407 15.363,-24.59014 0,0 5.1241,-3.29004 7.0432,-3.84783 0,0 1.1723,-0.15121 1.7869,0.71852 0,0 4.6892,-4.084172 16.0626,-19.418732 0.038,-0.0473 0.067,-0.10394 0.113,-0.1607 0,0 -1.0777,-0.71851 -1.2385,-1.64503 -0.1701,-0.91703 1.0211,-5.58736 1.6356,-6.77857 0.6144,-1.19123 1.021,-1.47486 1.021,-1.47486 0,0 16.28,-19.21074 29.7899,-30.6124 0,0 2.4581,-1.90972 6.4099,-2.36351 0,0 13.9164,-5.79537 30.8583,-20.64777 0,0 0.482,-2.73223 4.5189,-8.11163 4.0465,-5.38883 13.7652,-10.99513 21.0071,-12.64013 7.2229,-1.64503 8.4709,-0.35927 8.4709,-0.35927 l 0.605,0.61452 4.8688,7.24184 c 0,0 5.3418,-2.9875 13.3588,-5.71026 8.0076,-2.73225 9.2554,-2.47699 9.2554,-2.47699 l 7.7902,12.64016 -9.3311,18.90818 c 0,0 -6.0885,13.43431 -15.6466,20.65723 0,0 -4.4623,2.68497 -10.5886,1.20068 -6.1262,-1.48431 -10.1348,3.14821 -10.1348,3.14821 l -1.6071,1.32357 c 0,0 1.3235,-0.22689 3.271,-0.97376 0,0 1.4939,0.61451 2.5905,2.10828 1.0777,1.49372 8.6317,11.10856 8.6317,11.10856 0,0 0.046,7.91307 -3.9236,18.32206 -3.9614,10.3995 -13.8693,27.331822 -13.8693,27.331822 0,0 -6.9297,13.46262 -10.163,21.30008 -3.2333,7.83746 -4.8689,16.68651 -4.6136,21.38521 0,0 1.7679,0.58614 6.6841,-1.90973 6.1924,-3.13876 10.2388,0.25526 10.2388,0.25526 0,0 6.7975,5.01068 9.8416,8.32906 2.4771,2.73225 7.5823,16.68649 1.976,30.4800304 0,0 -3.8006,9.52975 -13.0184,16.2988896 0,0 -2.042,3.13875 -14.4552,1.64503 -3.4792,-0.40655 -5.5308,-2.60937 -12.9712,-1.89085 -7.4214,0.72797 -11.6379,7.7051 -11.6379,7.7051 l 0.1231,-0.2269 c -6.5422,9.44466 -10.9101,23.23821 -10.9101,23.23821 l -0.5388,1.55991 c 0,0 -2.2784,4.81214 -2.7607,16.56359 -0.5011,12.13908 2.685,29.39283 2.685,29.39283 0,0 74.4605,-13.11286 93.4066,-0.51998 l 5.4835,5.02959 c 0,0 0.4348,1.64501 -0.2931,3.55474 -0.7565,1.92864 -3.5453,6.362608 -9.3314,10.522418 -5.7763,4.14089 -11.5528,14.96584 -2.959,21.78226 9.7755,7.73346 15.9868,7.24184 32.4275,4.42452 16.4502,-2.80788 27.3981,-11.99727 27.3981,-11.99727 0,0 9.1893,-6.80695 7.4026,-15.39128 -1.7775,-8.584308 -9.6148,-11.240938 -9.6148,-11.240938 0,0 -6.221,-3.99907 -1.3331,-11.70417 0,0 1.3331,-6.51389 24.1363,-12.4416 22.8222,-5.91827 64.4013,-14.37025 99.807,-18.80421 0,0 -24.004,-77.74112 -6.9772,-87.81919 0,0 4.1409,-2.79843 11.5719,-3.85728 l 6.8069,-0.34979 c 1.2386,-0.25528 3.2428,0.0473 7.5255,0.42542 4.2827,0.35926 9.4635,0.71851 15.864,-4.16926 6.3909,-4.90666 6.5895,-7.74291 6.5895,-7.74291"
       id="path32720-2"
       inkscape:connector-curvature="0"
       style="fill:#ffffff" />
    <path
       style="opacity:0.51327431;fill:url(#radialGradient3461)"
       inkscape:connector-curvature="0"
       id="path15818-8"
       d="m -1156.8039,-50.578798 c 0.133,-5.72919 -3.7062,-12.00671 -3.7062,-12.00671 l -0.2362,-0.54835 c 0,0 -4.6043,-8.97193 -12.2999,-11.60963 -7.705,-2.62824 -13.973,3.2333 -13.973,3.2333 0,0 -1.0779,1.23849 -4.0465,4.67032 -2.9592,3.4413 -4.7932,6.29644 -11.3259,8.86795 -6.5423,2.56206 -13.0373,1.92863 -16.4786,0.31199 -3.4507,-1.62611 -4.3205,-5.07686 -4.3205,-5.07686 0,0 -2.1651,-6.82587 -2.9593,-9.91737 -0.8129,-3.12928 -2.9116,-16.01524 -2.9116,-16.01524 0,0 -4.6516,-25.970432 -5.058,-31.236362 0,0 13.9447,-1.19122 34.8478,-7.32693 21.7444,-6.36262 28.7688,-11.40166 28.7688,-11.40166 0,0 -4.0842,-1.47485 -4.5758,-6.25862 -0.4821,-4.79324 -0.8415,-11.25039 -0.8415,-11.25039 0,0 -0.8414,-4.72705 4.5665,-10.76822 5.4077,-6.05062 12.8008,-8.1589 16.6676,-9.00977 3.8761,-0.84142 12.1106,-1.60719 19.7779,-1.26684 7.6766,0.35924 11.9783,1.05886 15.0604,2.75114 3.1009,1.68282 3.3751,5.767 3.3751,5.767 l -0.075,10.83441 c 0,0 -0.3499,3.80056 2.4674,5.00122 0,0 4.7743,2.8835 20.7612,1.2574 0,0 6.8071,-1.19122 17.4523,-4.34889 10.6359,-3.16713 39.0361,-11.6191 43.054,-12.67795 4.018,-1.04942 9.0098,-2.75115 15.5615,-4.43399 6.5327,-1.69228 19.27705,-5.91826 21.81064,-6.90149 2.5526,-0.98322 17.12133,-5.84264 27.67218,-7.65782 10.54139,-1.84356 21.04487,-1.75847 26.58487,1.40866 0,0 3.39404,2.87404 4.92568,6.2586 1.54092,3.38458 4.5096,8.15891 8.71663,10.28609 4.30165,2.14607 7.10955,3.50747 17.72646,2.58097 0,0 0.2175,-0.9076 -3.72486,-3.49804 -3.94237,-2.61877 -9.36912,-6.62731 -9.36912,-6.62731 0,0 -3.15764,-2.31625 -3.86675,-4.22598 -0.69011,-1.90974 -0.40645,-2.89296 -0.40645,-2.89296 l 8.30073,-13.29247 c 0,0 0,-1.62612 4.7838,-2.25009 4.78372,-0.63343 10.13476,-1.26686 16.45958,-2.95914 6.32472,-1.68282 7.44973,-2.94969 7.44973,-2.94969 l 5.48347,1.68284 c 0,0 33.52418,26.97259 44.00877,33.87408 l 1.89083,-2.25954 c 0,0 4.11251,0.17017 7.80921,1.6261 3.71541,1.45594 9.25559,5.31321 9.25559,5.31321 0,0 15.23994,12.38487 19.5794,20.79904 l 2.10824,6.41935 -0.96442,1.52209 c 0,0 8.67891,12.35652 19.8158,24.59959 0,0 11.60033,15.731642 15.96815,19.759092 0,0 -1.02104,-3.7722 -1.90029,-8.026552 l 3.17663,-2.13663 1.9191,-1.36139 5.8332,2.44862 c 33.7889,45.483702 60.8088,98.5496024 76.9659,154.366642 l -1.1346,4.57577 3.7345,4.73653 c 10.6641,39.820678 16.3366,81.711828 16.3366,124.898188 0,10.6075 -0.3497,21.13937 -1.021,31.56726 l -2.874,4.83104 2.1271,5.24703 c -21.1016,246.74272 -228.07092,440.41008 -480.2781,440.41008 -174.9199,0 -328.0762,-93.16077 -412.5489,-232.57102 l -0.9643,-3.45075 -1.938,-1.43703 c -32.0211,-54.28547 -53.7182,-115.38735 -62.3497,-180.61124 l 2.0042,-4.9634 -3.1766,-4.56634 c -2.0136,-17.88715 -3.0442,-36.03905 -3.0442,-54.43674 0,-28.2205 2.4109,-55.86431 7.0717,-82.77068 l 2.3636,-5.313218 -0.8226,-3.10093 c 10.9384,-57.17843 31.9833,-110.76431 61.206,-158.81953 l 6.4666,-3.63037 0.7657,0.30252 c 0,0 2.2028,-1.59775 3.3468,-2.05152 l 0.7184,-0.21745 c 0,0 11.1465,-18.63407 15.363,-24.59014 0,0 5.1241,-3.29004 7.0432,-3.84783 0,0 1.1723,-0.15121 1.7869,0.71852 0,0 4.6892,-4.084172 16.0626,-19.418732 0.038,-0.0473 0.067,-0.10394 0.113,-0.1607 0,0 -1.0777,-0.71851 -1.2385,-1.64503 -0.1701,-0.91703 1.0211,-5.58736 1.6356,-6.77857 0.6144,-1.19123 1.021,-1.47486 1.021,-1.47486 0,0 16.28,-19.21074 29.7899,-30.6124 0,0 2.4581,-1.90972 6.4099,-2.36351 0,0 13.9164,-5.79537 30.8583,-20.64777 0,0 0.482,-2.73223 4.5189,-8.11163 4.0465,-5.38883 13.7652,-10.99513 21.0071,-12.64013 7.2229,-1.64503 8.4709,-0.35927 8.4709,-0.35927 l 0.605,0.61452 4.8688,7.24184 c 0,0 5.3418,-2.9875 13.3588,-5.71026 8.0076,-2.73225 9.2554,-2.47699 9.2554,-2.47699 l 7.7902,12.64016 -9.3311,18.90818 c 0,0 -6.0885,13.43431 -15.6466,20.65723 0,0 -4.4623,2.68497 -10.5886,1.20068 -6.1262,-1.48431 -10.1348,3.14821 -10.1348,3.14821 l -1.6071,1.32357 c 0,0 1.3235,-0.22689 3.271,-0.97376 0,0 1.4939,0.61451 2.5905,2.10828 1.0777,1.49372 8.6317,11.10856 8.6317,11.10856 0,0 0.046,7.91307 -3.9236,18.32206 -3.9614,10.3995 -13.8693,27.331822 -13.8693,27.331822 0,0 -6.9297,13.46262 -10.163,21.30008 -3.2333,7.83746 -4.8689,16.68651 -4.6136,21.38521 0,0 1.7679,0.58614 6.6841,-1.90973 6.1924,-3.13876 10.2388,0.25526 10.2388,0.25526 0,0 6.7975,5.01068 9.8416,8.32906 2.4771,2.73225 7.5823,16.68649 1.976,30.4800304 0,0 -3.8006,9.52975 -13.0184,16.2988896 0,0 -2.042,3.13875 -14.4552,1.64503 -3.4792,-0.40655 -5.5308,-2.60937 -12.9712,-1.89085 -7.4214,0.72797 -11.6379,7.7051 -11.6379,7.7051 l 0.1231,-0.2269 c -6.5422,9.44466 -10.9101,23.23821 -10.9101,23.23821 l -0.5388,1.55991 c 0,0 -2.2784,4.81214 -2.7607,16.56359 -0.5011,12.13908 2.685,29.39283 2.685,29.39283 0,0 74.4605,-13.11286 93.4066,-0.51998 l 5.4835,5.02959 c 0,0 0.4348,1.64501 -0.2931,3.55474 -0.7565,1.92864 -3.5453,6.362608 -9.3314,10.522418 -5.7763,4.14089 -11.5528,14.96584 -2.959,21.78226 9.7755,7.73346 15.9868,7.24184 32.4275,4.42452 16.4502,-2.80788 27.3981,-11.99727 27.3981,-11.99727 0,0 9.1893,-6.80695 7.4026,-15.39128 -1.7775,-8.584308 -9.6148,-11.240938 -9.6148,-11.240938 0,0 -6.221,-3.99907 -1.3331,-11.70417 0,0 1.3331,-6.51389 24.1363,-12.4416 22.8222,-5.91827 64.4013,-14.37025 99.807,-18.80421 0,0 -24.004,-77.74112 -6.9772,-87.81919 0,0 4.1409,-2.79843 11.5719,-3.85728 l 6.8069,-0.34979 c 1.2386,-0.25528 3.2428,0.0473 7.5255,0.42542 4.2827,0.35926 9.4635,0.71851 15.864,-4.16926 6.3909,-4.90666 6.5895,-7.74291 6.5895,-7.74291" />
    <text
       xml:space="preserve"
       style="font-size:78.13381958px;font-style:normal;font-weight:normal;line-height:125%;letter-spacing:0px;word-spacing:0px;fill:#ffffff;fill-opacity:1;stroke:none;font-family:Sans"
       x="-269.93655"
       y="1687.7975"
       id="text32712-8"
       sodipodi:linespacing="125%"
       transform="matrix(0,1,-1,0,0,0)"><tspan
         sodipodi:role="line"
         id="tspan32714-1"
         x="-269.93655"
         y="1687.7975">falanster.by</tspan></text>
    <g
       id="g3448"
       transform="matrix(1.6006119,-0.01040182,0.01040182,1.6006119,366.3181,-524.56328)"
       style="fill:#f9f9f9">
      <text
         sodipodi:linespacing="125%"
         id="text3429"
         y="826.4455"
         x="-1267.22"
         style="font-size:138.57698059px;font-style:normal;font-weight:normal;line-height:125%;letter-spacing:0px;word-spacing:0px;fill:#f9f9f9;fill-opacity:1;stroke:none;font-family:Sans"
         xml:space="preserve"><tspan
           style="font-style:normal;font-variant:normal;font-weight:normal;font-stretch:normal;fill:#f9f9f9;font-family:Linux Libertine;-inkscape-font-specification:Linux Libertine"
           y="826.4455"
           x="-1267.22"
           id="tspan3431"
           sodipodi:role="line"><tspan
   id="tspan3441"
   style="font-size:140px;font-style:normal;font-variant:normal;font-weight:normal;font-stretch:normal;fill:#f9f9f9;font-family:Linux Libertine;-inkscape-font-specification:Linux Libertine">Вікіп</tspan><tspan
   id="tspan3433"
   style="font-size:140px;font-style:normal;font-variant:normal;font-weight:normal;font-stretch:normal;fill:none;font-family:Linux Libertine;-inkscape-font-specification:Linux Libertine">е</tspan>дыЯ</tspan></text>
      <g
         transform="matrix(-1,0,0,1,-1822.3567,-177.14286)"
         id="text3437"
         style="font-size:129.61647034px;font-style:normal;font-weight:normal;line-height:125%;letter-spacing:0px;word-spacing:0px;fill:#f9f9f9;fill-opacity:1;stroke:none;font-family:Sans">
        <path
           inkscape:connector-curvature="0"
           id="path3446"
           style="font-size:140px;font-variant:normal;font-stretch:normal;fill:#f9f9f9;font-family:Linux Libertine;-inkscape-font-specification:Linux Libertine"
           d="m -920.20428,963.22888 25.36132,-0.41015 c 1.41272,4e-5 2.09631,-0.63798 2.05078,-1.91407 -4e-5,-5.33198 -1.13936,-9.11453 -3.41796,-11.34765 -2.27869,-2.23302 -5.01306,-3.34956 -8.20313,-3.34961 -1.2305,5e-5 -2.43818,0.15956 -3.62305,0.47851 -1.18492,0.31907 -2.64325,0.99127 -4.375,2.0166 -1.73179,1.02545 -3.30405,2.7914 -4.71679,5.29786 -1.41278,2.50655 -2.43817,5.58272 -3.07617,9.22851 z m 36.70898,26.52344 c 1.595,0.0912 2.57481,0.82032 2.93945,2.1875 -6.24354,8.11198 -14.196,12.16798 -23.85742,12.16798 -9.25133,0 -16.38348,-2.985 -21.39648,-8.95509 -4.37501,-5.05858 -6.56251,-11.96287 -6.5625,-20.71289 -10e-6,-9.88929 2.96223,-17.84175 8.88672,-23.85742 5.92445,-6.01557 12.28187,-9.02338 19.07226,-9.02344 15.76818,6e-5 23.65229,8.11203 23.65234,24.33594 -5e-5,1.59508 -0.86594,2.39261 -2.59765,2.39258 l -37.25586,-0.27344 c -2e-5,7.83857 1.4811,14.24156 4.44336,19.20898 4.10154,6.69923 9.2057,10.04884 15.3125,10.04883 3.91923,10e-6 7.12072,-0.55826 9.60449,-1.6748 2.48368,-1.11653 5.06994,-3.06477 7.75879,-5.84473 z" />
      </g>
    </g>
    <text
       xml:space="preserve"
       style="font-size:455.62948608px;font-style:normal;font-weight:normal;line-height:125%;letter-spacing:0px;word-spacing:0px;fill:#4d4d4d;fill-opacity:1;stroke:none;font-family:Sans"
       x="-1477.0771"
       y="377.33807"
       id="text32716-9"
       sodipodi:linespacing="125%"><tspan
         sodipodi:role="line"
         id="tspan32718-8"
         x="-1477.0771"
         y="377.33807">Шч</tspan></text>
  </g>
</svg>
