<?xml version="1.0" encoding="UTF-8" standalone="no"?>
<!-- Created with Inkscape (http://www.inkscape.org/) -->

<svg
   xmlns:dc="http://purl.org/dc/elements/1.1/"
   xmlns:cc="http://creativecommons.org/ns#"
   xmlns:rdf="http://www.w3.org/1999/02/22-rdf-syntax-ns#"
   xmlns:svg="http://www.w3.org/2000/svg"
   xmlns="http://www.w3.org/2000/svg"
   xmlns:xlink="http://www.w3.org/1999/xlink"
   xmlns:sodipodi="http://sodipodi.sourceforge.net/DTD/sodipodi-0.dtd"
   xmlns:inkscape="http://www.inkscape.org/namespaces/inkscape"
   width="744.09448819"
   height="1052.3622047"
   id="svg2"
   version="1.1"
   inkscape:version="0.48.2 r9819"
   sodipodi:docname="wiki_bukvy_1_2.svg"
   inkscape:export-filename="D:\Dropbox\Photos\falanster\wikification\nalepki\wiki_bukvy_1_2.png"
   inkscape:export-xdpi="77.017113"
   inkscape:export-ydpi="77.017113">
  <defs
     id="defs4">
    <radialGradient
       id="path3930_1_-3"
       cx="-145.4707"
       cy="704.17682"
       r="68.686401"
       gradientTransform="translate(192.3999,-648.9004)"
       gradientUnits="userSpaceOnUse">
      <stop
         offset="0"
         style="stop-color:#FFFFFF"
         id="stop3037-9" />
      <stop
         offset="0.4835"
         style="stop-color:#EAEAEB"
         id="stop3039-5" />
      <stop
         offset="0.9451"
         style="stop-color:#A9ABAE"
         id="stop3041-1" />
      <stop
         offset="1"
         style="stop-color:#999B9E"
         id="stop3043-3" />
    </radialGradient>
    <radialGradient
       r="68.686401"
       cy="704.17682"
       cx="-145.4707"
       gradientTransform="matrix(10.201912,0,0,10.201912,1765.4786,-6657.6604)"
       gradientUnits="userSpaceOnUse"
       id="radialGradient32635"
       xlink:href="#path3930_1_"
       inkscape:collect="always" />
    <radialGradient
       id="path4846_1_"
       cx="-138.23289"
       cy="685.40039"
       r="72.751701"
       gradientTransform="translate(192.3999,-648.9004)"
       gradientUnits="userSpaceOnUse">
      <stop
         offset="0"
         style="stop-color:#000000;stop-opacity:0"
         id="stop3678" />
      <stop
         offset="0.8022"
         style="stop-color:#000000;stop-opacity:0.08"
         id="stop3680" />
      <stop
         offset="1"
         style="stop-color:#000000;stop-opacity:0.3882"
         id="stop3682" />
    </radialGradient>
    <linearGradient
       id="path4831_1_"
       gradientUnits="userSpaceOnUse"
       x1="38.737801"
       y1="109.627"
       x2="39.4879"
       y2="117.211"
       gradientTransform="matrix(1,0,0,-1,0,156)">
      <stop
         offset="0"
         style="stop-color:#333333"
         id="stop3667" />
      <stop
         offset="0.431"
         style="stop-color:#000000"
         id="stop3669" />
      <stop
         offset="1"
         style="stop-color:#2E2E2E"
         id="stop3671" />
    </linearGradient>
    <linearGradient
       id="path4818_1_"
       gradientUnits="userSpaceOnUse"
       x1="-153.127"
       y1="694.37109"
       x2="-154.1557"
       y2="687.5658"
       gradientTransform="translate(192.3999,-648.9004)">
      <stop
         offset="0"
         style="stop-color:#969696"
         id="stop3659" />
      <stop
         offset="1"
         style="stop-color:#000000"
         id="stop3661" />
    </linearGradient>
    <linearGradient
       id="path4811_1_"
       gradientUnits="userSpaceOnUse"
       x1="-158.4189"
       y1="684.10248"
       x2="-126.5479"
       y2="684.10248"
       gradientTransform="translate(192.3999,-648.9004)">
      <stop
         offset="0"
         style="stop-color:#525252"
         id="stop3631" />
      <stop
         offset="0.1856"
         style="stop-color:#333333"
         id="stop3633" />
      <stop
         offset="0.354"
         style="stop-color:#AEAEAE"
         id="stop3635" />
      <stop
         offset="0.4199"
         style="stop-color:#ADADAD"
         id="stop3637" />
      <stop
         offset="0.4276"
         style="stop-color:#9D9D9D"
         id="stop3639" />
      <stop
         offset="0.4433"
         style="stop-color:#818181"
         id="stop3641" />
      <stop
         offset="0.4611"
         style="stop-color:#6A6A6A"
         id="stop3643" />
      <stop
         offset="0.4814"
         style="stop-color:#585858"
         id="stop3645" />
      <stop
         offset="0.506"
         style="stop-color:#4C4C4C"
         id="stop3647" />
      <stop
         offset="0.539"
         style="stop-color:#444444"
         id="stop3649" />
      <stop
         offset="0.6166"
         style="stop-color:#424242"
         id="stop3651" />
      <stop
         offset="0.6684"
         style="stop-color:#454545"
         id="stop3653" />
      <stop
         offset="1"
         style="stop-color:#BDBDBD"
         id="stop3655" />
    </linearGradient>
    <linearGradient
       id="path4782_1_"
       gradientUnits="userSpaceOnUse"
       x1="-158.8101"
       y1="684.91022"
       x2="-126.4229"
       y2="684.91022"
       gradientTransform="translate(192.3999,-648.9004)">
      <stop
         offset="0"
         style="stop-color:#696969"
         id="stop3617" />
      <stop
         offset="0.3702"
         style="stop-color:#2E2E2E"
         id="stop3619" />
      <stop
         offset="0.4554"
         style="stop-color:#424242"
         id="stop3621" />
      <stop
         offset="0.6014"
         style="stop-color:#303030"
         id="stop3623" />
      <stop
         offset="0.6947"
         style="stop-color:#4A4A4A"
         id="stop3625" />
      <stop
         offset="1"
         style="stop-color:#666666"
         id="stop3627" />
    </linearGradient>
    <linearGradient
       id="path4749_1_"
       gradientUnits="userSpaceOnUse"
       x1="22.574699"
       y1="106.2803"
       x2="111.546"
       y2="126.7951"
       gradientTransform="matrix(1,0,0,-1,0,156)">
      <stop
         offset="0"
         style="stop-color:#FFFFFF"
         id="stop3600" />
      <stop
         offset="0.6538"
         style="stop-color:#FFFFFF"
         id="stop3602" />
      <stop
         offset="1"
         style="stop-color:#CBCCCE"
         id="stop3604" />
    </linearGradient>
    <linearGradient
       gradientTransform="matrix(1,0,0,-1,0,156)"
       y2="88.236702"
       x2="121.1811"
       y1="65.625"
       x1="26.111799"
       gradientUnits="userSpaceOnUse"
       id="path4738_1_">
      <stop
         id="stop3589"
         style="stop-color:#EDEDEE"
         offset="0" />
      <stop
         id="stop3591"
         style="stop-color:#FFFFFF"
         offset="0.4176" />
      <stop
         id="stop3593"
         style="stop-color:#F8F9F9"
         offset="0.6264" />
      <stop
         id="stop3595"
         style="stop-color:#B2B4B6"
         offset="0.9505" />
    </linearGradient>
    <linearGradient
       gradientTransform="matrix(1,0,0,-1,0,156)"
       y2="93.077499"
       x2="119.3196"
       y1="70.617203"
       x1="24.8867"
       gradientUnits="userSpaceOnUse"
       id="path4727_1_">
      <stop
         id="stop3579"
         style="stop-color:#EDEDEE"
         offset="0" />
      <stop
         id="stop3581"
         style="stop-color:#FFFFFF"
         offset="0.4176" />
      <stop
         id="stop3583"
         style="stop-color:#F8F9F9"
         offset="0.6264" />
      <stop
         id="stop3585"
         style="stop-color:#B2B4B6"
         offset="0.9505" />
    </linearGradient>
    <linearGradient
       gradientTransform="matrix(1,0,0,-1,0,156)"
       y2="93.814201"
       x2="119.8123"
       y1="71.200203"
       x1="24.7334"
       gradientUnits="userSpaceOnUse"
       id="path4716_1_">
      <stop
         id="stop3569"
         style="stop-color:#EDEDEE"
         offset="0" />
      <stop
         id="stop3571"
         style="stop-color:#FFFFFF"
         offset="0.4176" />
      <stop
         id="stop3573"
         style="stop-color:#F8F9F9"
         offset="0.6264" />
      <stop
         id="stop3575"
         style="stop-color:#B2B4B6"
         offset="0.9505" />
    </linearGradient>
    <linearGradient
       gradientTransform="matrix(1,0,0,-1,0,156)"
       y2="90.8825"
       x2="120.5521"
       y1="68.258797"
       x1="25.4326"
       gradientUnits="userSpaceOnUse"
       id="path4705_1_">
      <stop
         id="stop3559"
         style="stop-color:#EDEDEE"
         offset="0" />
      <stop
         id="stop3561"
         style="stop-color:#FFFFFF"
         offset="0.4176" />
      <stop
         id="stop3563"
         style="stop-color:#F8F9F9"
         offset="0.6264" />
      <stop
         id="stop3565"
         style="stop-color:#B2B4B6"
         offset="0.9505" />
    </linearGradient>
    <linearGradient
       gradientTransform="matrix(1,0,0,-1,0,156)"
       y2="85.740997"
       x2="121.7809"
       y1="63.116199"
       x1="26.6567"
       gradientUnits="userSpaceOnUse"
       id="path4694_1_">
      <stop
         id="stop3549"
         style="stop-color:#EDEDEE"
         offset="0" />
      <stop
         id="stop3551"
         style="stop-color:#FFFFFF"
         offset="0.4176" />
      <stop
         id="stop3553"
         style="stop-color:#F8F9F9"
         offset="0.6264" />
      <stop
         id="stop3555"
         style="stop-color:#B2B4B6"
         offset="0.9505" />
    </linearGradient>
    <linearGradient
       gradientTransform="matrix(1,0,0,-1,0,156)"
       y2="95.777397"
       x2="118.2354"
       y1="73.411102"
       x1="24.1982"
       gradientUnits="userSpaceOnUse"
       id="path4683_1_">
      <stop
         id="stop3539"
         style="stop-color:#EDEDEE"
         offset="0" />
      <stop
         id="stop3541"
         style="stop-color:#FFFFFF"
         offset="0.4176" />
      <stop
         id="stop3543"
         style="stop-color:#F8F9F9"
         offset="0.6264" />
      <stop
         id="stop3545"
         style="stop-color:#B2B4B6"
         offset="0.9505" />
    </linearGradient>
    <linearGradient
       id="path4320_1_"
       gradientUnits="userSpaceOnUse"
       x1="23.4722"
       y1="125.2676"
       x2="27.957001"
       y2="125.2676"
       gradientTransform="matrix(1,0,0,-1,0,156)">
      <stop
         offset="0"
         style="stop-color:#E2E3E4"
         id="stop3357" />
      <stop
         offset="0.5055"
         style="stop-color:#FFFFFF"
         id="stop3359" />
    </linearGradient>
    <linearGradient
       id="path4307_1_"
       gradientUnits="userSpaceOnUse"
       x1="21.2129"
       y1="84.676804"
       x2="117.1957"
       y2="104.051"
       gradientTransform="matrix(1,0,0,-1,0,156)">
      <stop
         offset="0"
         style="stop-color:#EDEDEE"
         id="stop3344" />
      <stop
         offset="0.4176"
         style="stop-color:#FFFFFF"
         id="stop3346" />
      <stop
         offset="0.6264"
         style="stop-color:#F8F9F9"
         id="stop3348" />
      <stop
         offset="1"
         style="stop-color:#BFC0C2"
         id="stop3350" />
    </linearGradient>
    <linearGradient
       id="path4296_1_"
       gradientUnits="userSpaceOnUse"
       x1="-176.15379"
       y1="713.5166"
       x2="-53.160702"
       y2="699.89038"
       gradientTransform="translate(192.3999,-648.9004)">
      <stop
         offset="0"
         style="stop-color:#FFFFFF"
         id="stop3320" />
      <stop
         offset="0.078"
         style="stop-color:#F4F4F4"
         id="stop3322" />
      <stop
         offset="0.3807"
         style="stop-color:#CECECE"
         id="stop3324" />
      <stop
         offset="0.5396"
         style="stop-color:#BFBFBF"
         id="stop3326" />
      <stop
         offset="0.8357"
         style="stop-color:#7C7C7C"
         id="stop3328" />
      <stop
         offset="0.8996"
         style="stop-color:#A8A8A8"
         id="stop3330" />
      <stop
         offset="0.9093"
         style="stop-color:#9A9A9A"
         id="stop3332" />
      <stop
         offset="0.9327"
         style="stop-color:#7D7D7D"
         id="stop3334" />
      <stop
         offset="0.9558"
         style="stop-color:#686868"
         id="stop3336" />
      <stop
         offset="0.9785"
         style="stop-color:#5B5B5B"
         id="stop3338" />
      <stop
         offset="1"
         style="stop-color:#575757"
         id="stop3340" />
    </linearGradient>
    <linearGradient
       id="path4271_1_"
       gradientUnits="userSpaceOnUse"
       x1="-175.7168"
       y1="713.55078"
       x2="-67.171303"
       y2="701.52533"
       gradientTransform="translate(192.3999,-648.9004)">
      <stop
         offset="0"
         style="stop-color:#FFFFFF"
         id="stop3296" />
      <stop
         offset="0.078"
         style="stop-color:#F4F4F4"
         id="stop3298" />
      <stop
         offset="0.3807"
         style="stop-color:#CECECE"
         id="stop3300" />
      <stop
         offset="0.5396"
         style="stop-color:#BFBFBF"
         id="stop3302" />
      <stop
         offset="0.8357"
         style="stop-color:#7C7C7C"
         id="stop3304" />
      <stop
         offset="0.8996"
         style="stop-color:#A8A8A8"
         id="stop3306" />
      <stop
         offset="0.9093"
         style="stop-color:#9A9A9A"
         id="stop3308" />
      <stop
         offset="0.9327"
         style="stop-color:#7D7D7D"
         id="stop3310" />
      <stop
         offset="0.9558"
         style="stop-color:#686868"
         id="stop3312" />
      <stop
         offset="0.9785"
         style="stop-color:#5B5B5B"
         id="stop3314" />
      <stop
         offset="1"
         style="stop-color:#575757"
         id="stop3316" />
    </linearGradient>
    <linearGradient
       id="path4246_1_"
       gradientUnits="userSpaceOnUse"
       x1="-172.3848"
       y1="713.79102"
       x2="-172.3848"
       y2="713.79102"
       gradientTransform="translate(192.3999,-648.9004)">
      <stop
         offset="0"
         style="stop-color:#FFFFFF"
         id="stop3272" />
      <stop
         offset="0.078"
         style="stop-color:#F4F4F4"
         id="stop3274" />
      <stop
         offset="0.3807"
         style="stop-color:#CECECE"
         id="stop3276" />
      <stop
         offset="0.5396"
         style="stop-color:#BFBFBF"
         id="stop3278" />
      <stop
         offset="0.8357"
         style="stop-color:#7C7C7C"
         id="stop3280" />
      <stop
         offset="0.8996"
         style="stop-color:#A8A8A8"
         id="stop3282" />
      <stop
         offset="0.9093"
         style="stop-color:#9A9A9A"
         id="stop3284" />
      <stop
         offset="0.9327"
         style="stop-color:#7D7D7D"
         id="stop3286" />
      <stop
         offset="0.9558"
         style="stop-color:#686868"
         id="stop3288" />
      <stop
         offset="0.9785"
         style="stop-color:#5B5B5B"
         id="stop3290" />
      <stop
         offset="1"
         style="stop-color:#575757"
         id="stop3292" />
    </linearGradient>
    <linearGradient
       id="path4211_1_"
       gradientUnits="userSpaceOnUse"
       x1="-175.144"
       y1="687.9209"
       x2="-83.541"
       y2="687.9209"
       gradientTransform="translate(192.3999,-648.9004)">
      <stop
         offset="0"
         style="stop-color:#A0A0A0"
         id="stop3259" />
      <stop
         offset="0.0769"
         style="stop-color:#656767"
         id="stop3261" />
      <stop
         offset="1"
         style="stop-color:#717375"
         id="stop3263" />
    </linearGradient>
    <linearGradient
       id="path4202_1_"
       gradientUnits="userSpaceOnUse"
       x1="-175.4458"
       y1="708.39447"
       x2="-75.6362"
       y2="708.39447"
       gradientTransform="translate(192.3999,-648.9004)">
      <stop
         offset="0"
         style="stop-color:#555555"
         id="stop3253" />
      <stop
         offset="1"
         style="stop-color:#231F20"
         id="stop3255" />
    </linearGradient>
    <linearGradient
       gradientTransform="translate(192.3999,-648.9004)"
       y2="726.84381"
       x2="-74.017097"
       y1="726.84381"
       x1="-168.6377"
       gradientUnits="userSpaceOnUse"
       id="path4195_1_">
      <stop
         id="stop3235"
         style="stop-color:#808080"
         offset="0" />
      <stop
         id="stop3237"
         style="stop-color:#7A7A7A"
         offset="0.0868" />
      <stop
         id="stop3239"
         style="stop-color:#828282"
         offset="0.3817" />
      <stop
         id="stop3241"
         style="stop-color:#808080"
         offset="0.5185" />
      <stop
         id="stop3243"
         style="stop-color:#797979"
         offset="0.5677" />
      <stop
         id="stop3245"
         style="stop-color:#6E6E6E"
         offset="0.6027" />
      <stop
         id="stop3247"
         style="stop-color:#6B6B6B"
         offset="0.608" />
      <stop
         id="stop3249"
         style="stop-color:#4E4E4E"
         offset="1" />
    </linearGradient>
    <linearGradient
       gradientTransform="translate(192.3999,-648.9004)"
       y2="731.60352"
       x2="-168.6685"
       y1="731.60352"
       x1="-168.85941"
       gradientUnits="userSpaceOnUse"
       id="path4176_1_">
      <stop
         id="stop3215"
         style="stop-color:#808080"
         offset="0" />
      <stop
         id="stop3217"
         style="stop-color:#7A7A7A"
         offset="0.0868" />
      <stop
         id="stop3219"
         style="stop-color:#6B6B6B"
         offset="0.36" />
      <stop
         id="stop3221"
         style="stop-color:#686868"
         offset="0.5192" />
      <stop
         id="stop3223"
         style="stop-color:#5F5F5F"
         offset="0.6377" />
      <stop
         id="stop3225"
         style="stop-color:#4E4E4E"
         offset="0.7431" />
      <stop
         id="stop3227"
         style="stop-color:#383838"
         offset="0.8408" />
      <stop
         id="stop3229"
         style="stop-color:#1B1B1B"
         offset="0.9324" />
      <stop
         id="stop3231"
         style="stop-color:#000000"
         offset="1" />
    </linearGradient>
    <linearGradient
       id="path4125_1_"
       gradientUnits="userSpaceOnUse"
       x1="-115.3828"
       y1="672.88483"
       x2="-134.7851"
       y2="767.29742"
       gradientTransform="translate(192.3999,-648.9004)">
      <stop
         offset="0"
         style="stop-color:#FFFFFF"
         id="stop3194" />
      <stop
         offset="1"
         style="stop-color:#E4E5E6"
         id="stop3196" />
    </linearGradient>
    <linearGradient
       id="path4118_1_"
       gradientUnits="userSpaceOnUse"
       x1="-118.4951"
       y1="667.99609"
       x2="-138.85249"
       y2="767.05621"
       gradientTransform="translate(192.3999,-648.9004)">
      <stop
         offset="0"
         style="stop-color:#FFFFFF"
         id="stop3188" />
      <stop
         offset="1"
         style="stop-color:#E4E5E6"
         id="stop3190" />
    </linearGradient>
    <linearGradient
       id="path4111_1_"
       gradientUnits="userSpaceOnUse"
       x1="-127.4048"
       y1="670.07812"
       x2="-146.8838"
       y2="764.86401"
       gradientTransform="translate(192.3999,-648.9004)">
      <stop
         offset="0"
         style="stop-color:#FFFFFF"
         id="stop3182" />
      <stop
         offset="1"
         style="stop-color:#E4E5E6"
         id="stop3184" />
    </linearGradient>
    <linearGradient
       id="path4104_1_"
       gradientUnits="userSpaceOnUse"
       x1="-135.5864"
       y1="668.64838"
       x2="-155.0065"
       y2="763.14862"
       gradientTransform="translate(192.3999,-648.9004)">
      <stop
         offset="0"
         style="stop-color:#FFFFFF"
         id="stop3176" />
      <stop
         offset="1"
         style="stop-color:#E4E5E6"
         id="stop3178" />
    </linearGradient>
    <linearGradient
       id="path4097_1_"
       gradientUnits="userSpaceOnUse"
       x1="-121.1382"
       y1="671.67871"
       x2="-140.54491"
       y2="766.11298"
       gradientTransform="translate(192.3999,-648.9004)">
      <stop
         offset="0"
         style="stop-color:#FFFFFF"
         id="stop3170" />
      <stop
         offset="1"
         style="stop-color:#E4E5E6"
         id="stop3172" />
    </linearGradient>
    <linearGradient
       id="path4086_1_"
       gradientUnits="userSpaceOnUse"
       x1="-130.1353"
       y1="756.375"
       x2="-130.1433"
       y2="756.41431"
       gradientTransform="translate(192.3999,-648.9004)">
      <stop
         offset="0"
         style="stop-color:#FFFFFF"
         id="stop3162" />
      <stop
         offset="1"
         style="stop-color:#E4E5E6"
         id="stop3164" />
    </linearGradient>
    <linearGradient
       id="path4079_1_"
       gradientUnits="userSpaceOnUse"
       x1="-152.6387"
       y1="665.24121"
       x2="-171.6926"
       y2="757.95862"
       gradientTransform="translate(192.3999,-648.9004)">
      <stop
         offset="0"
         style="stop-color:#FFFFFF"
         id="stop3156" />
      <stop
         offset="1"
         style="stop-color:#E4E5E6"
         id="stop3158" />
    </linearGradient>
    <linearGradient
       id="path4072_1_"
       gradientUnits="userSpaceOnUse"
       x1="32.516602"
       y1="122.9229"
       x2="37.245701"
       y2="63.503799"
       gradientTransform="matrix(1,0,0,-1,0,156)">
      <stop
         offset="0.2198"
         style="stop-color:#989A9C"
         id="stop3150" />
      <stop
         offset="0.2527"
         style="stop-color:#FFFFFF"
         id="stop3152" />
    </linearGradient>
    <linearGradient
       id="path4065_1_"
       gradientUnits="userSpaceOnUse"
       x1="-115.5068"
       y1="673.1875"
       x2="-134.8338"
       y2="767.23358"
       gradientTransform="translate(192.3999,-648.9004)">
      <stop
         offset="0"
         style="stop-color:#FFFFFF"
         id="stop3144" />
      <stop
         offset="1"
         style="stop-color:#E4E5E6"
         id="stop3146" />
    </linearGradient>
    <linearGradient
       id="path4042_1_"
       gradientUnits="userSpaceOnUse"
       x1="54.653301"
       y1="130.72459"
       x2="79.683899"
       y2="49.609699"
       gradientTransform="matrix(1,0,0,-1,0,156)">
      <stop
         offset="0"
         style="stop-color:#FFFFFF"
         id="stop3128" />
      <stop
         offset="0.7473"
         style="stop-color:#F9F9F9"
         id="stop3130" />
      <stop
         offset="1"
         style="stop-color:#D5D7D8"
         id="stop3132" />
    </linearGradient>
    <linearGradient
       id="path4033_1_"
       gradientUnits="userSpaceOnUse"
       x1="-117.1689"
       y1="669.86823"
       x2="-87.572601"
       y2="760.00238"
       gradientTransform="translate(192.3999,-648.9004)">
      <stop
         offset="0"
         style="stop-color:#FFFFFF"
         id="stop3122" />
      <stop
         offset="1"
         style="stop-color:#E4E5E6"
         id="stop3124" />
    </linearGradient>
    <linearGradient
       id="path4026_1_"
       gradientUnits="userSpaceOnUse"
       x1="70.421898"
       y1="129.1221"
       x2="119.5471"
       y2="68.371902"
       gradientTransform="matrix(1,0,0,-1,0,156)">
      <stop
         offset="0"
         style="stop-color:#EFF0F0"
         id="stop3110" />
      <stop
         offset="0.5914"
         style="stop-color:#F0F1F2"
         id="stop3112" />
      <stop
         offset="0.599"
         style="stop-color:#787878"
         id="stop3114" />
      <stop
         offset="0.6456"
         style="stop-color:#EEEFF0"
         id="stop3116" />
      <stop
         offset="1"
         style="stop-color:#D8D9DB"
         id="stop3118" />
    </linearGradient>
    <linearGradient
       id="path4013_1_"
       gradientUnits="userSpaceOnUse"
       x1="-123.5908"
       y1="672.19342"
       x2="-94.070099"
       y2="762.09747"
       gradientTransform="translate(192.3999,-648.9004)">
      <stop
         offset="0"
         style="stop-color:#FFFFFF"
         id="stop3092" />
      <stop
         offset="0.0094"
         style="stop-color:#FCFCFC"
         id="stop3094" />
      <stop
         offset="0.0655"
         style="stop-color:#EEEEEE"
         id="stop3096" />
      <stop
         offset="0.1342"
         style="stop-color:#E5E5E5"
         id="stop3098" />
      <stop
         offset="0.2515"
         style="stop-color:#E3E3E3"
         id="stop3100" />
      <stop
         offset="0.3357"
         style="stop-color:#8A8A8A"
         id="stop3102" />
      <stop
         offset="0.4422"
         style="stop-color:#B8B8B8"
         id="stop3104" />
      <stop
         offset="1"
         style="stop-color:#3B3B3B"
         id="stop3106" />
    </linearGradient>
    <linearGradient
       id="path3968_1_"
       gradientUnits="userSpaceOnUse"
       x1="54.716301"
       y1="90.865196"
       x2="83.798798"
       y2="90.865196"
       gradientTransform="matrix(1,0,0,-1,0,156)">
      <stop
         offset="0"
         style="stop-color:#231F20"
         id="stop3073" />
      <stop
         offset="1"
         style="stop-color:#474747"
         id="stop3075" />
    </linearGradient>
    <linearGradient
       gradientTransform="matrix(1,0,0,-1,0,156)"
       y2="43.934898"
       x2="51.026001"
       y1="137.3105"
       x1="31.0259"
       gradientUnits="userSpaceOnUse"
       id="path3961_1_">
      <stop
         id="stop3067"
         style="stop-color:#A8A9AB"
         offset="0" />
      <stop
         id="stop3069"
         style="stop-color:#636668"
         offset="1" />
    </linearGradient>
    <linearGradient
       gradientTransform="matrix(1,0,0,-1,0,156)"
       y2="44.8633"
       x2="55.350101"
       y1="138.2383"
       x1="35.350101"
       gradientUnits="userSpaceOnUse"
       id="path3954_1_">
      <stop
         id="stop3061"
         style="stop-color:#A8A9AB"
         offset="0" />
      <stop
         id="stop3063"
         style="stop-color:#636668"
         offset="1" />
    </linearGradient>
    <linearGradient
       id="path3945_1_"
       gradientUnits="userSpaceOnUse"
       x1="66.232903"
       y1="131.52049"
       x2="112.733"
       y2="58.770302"
       gradientTransform="matrix(1,0,0,-1,0,156)">
      <stop
         offset="0"
         style="stop-color:#8A8A8A"
         id="stop3048" />
      <stop
         offset="0.5687"
         style="stop-color:#606060"
         id="stop3050" />
      <stop
         offset="0.5914"
         style="stop-color:#FFFFFF"
         id="stop3052" />
      <stop
         offset="0.6116"
         style="stop-color:#585858"
         id="stop3054" />
      <stop
         offset="1"
         style="stop-color:#303030"
         id="stop3056" />
    </linearGradient>
    <radialGradient
       id="path3930_1_"
       cx="-145.4707"
       cy="704.17682"
       r="68.686401"
       gradientTransform="translate(192.3999,-648.9004)"
       gradientUnits="userSpaceOnUse">
      <stop
         offset="0"
         style="stop-color:#FFFFFF"
         id="stop3037" />
      <stop
         offset="0.4835"
         style="stop-color:#EAEAEB"
         id="stop3039" />
      <stop
         offset="0.9451"
         style="stop-color:#A9ABAE"
         id="stop3041" />
      <stop
         offset="1"
         style="stop-color:#999B9E"
         id="stop3043" />
    </radialGradient>
    <radialGradient
       inkscape:collect="always"
       xlink:href="#path3930_1_-3"
       id="radialGradient3461"
       gradientUnits="userSpaceOnUse"
       gradientTransform="matrix(9.4541056,0,0,9.4541056,1504.8087,-6278.4754)"
       cx="-145.4707"
       cy="704.17682"
       r="68.686401" />
  </defs>
  <sodipodi:namedview
     id="base"
     pagecolor="#ffffff"
     bordercolor="#666666"
     borderopacity="1.0"
     inkscape:pageopacity="0.0"
     inkscape:pageshadow="2"
     inkscape:zoom="0.35"
     inkscape:cx="308.7075"
     inkscape:cy="476.82079"
     inkscape:document-units="px"
     inkscape:current-layer="layer1"
     showgrid="false"
     inkscape:window-width="1366"
     inkscape:window-height="706"
     inkscape:window-x="-8"
     inkscape:window-y="-8"
     inkscape:window-maximized="1" />
  <metadata
     id="metadata7">
    <rdf:RDF>
      <cc:Work
         rdf:about="">
        <dc:format>image/svg+xml</dc:format>
        <dc:type
           rdf:resource="http://purl.org/dc/dcmitype/StillImage" />
        <dc:title></dc:title>
      </cc:Work>
    </rdf:RDF>
  </metadata>
  <g
     inkscape:label="Layer 1"
     inkscape:groupmode="layer"
     id="layer1">
    <rect
       style="fill:#00aa44;fill-opacity:1;stroke:none"
       id="rect32638-6"
       width="1168.5714"
       height="1168.5714"
       x="-261.42856"
       y="-97.63781" />
    <path
       d="m 309.54592,155.46347 c 0.13307,-5.72919 -3.70615,-12.00671 -3.70615,-12.00671 l -0.23622,-0.54835 c 0,0 -4.6043,-8.97193 -12.29989,-11.60963 -7.70504,-2.62824 -13.97305,3.2333 -13.97305,3.2333 0,0 -1.07785,1.23849 -4.04644,4.67032 -2.95922,3.4413 -4.79326,6.29644 -11.32593,8.86795 -6.54231,2.56206 -13.03727,1.92863 -16.47857,0.31199 -3.45075,-1.62611 -4.32055,-5.07686 -4.32055,-5.07686 0,0 -2.16505,-6.82587 -2.95923,-9.91737 -0.81299,-3.12928 -2.91169,-16.01524 -2.91169,-16.01524 0,0 -4.65156,-25.97043 -5.05792,-31.23636 0,0 13.94469,-1.19122 34.84779,-7.32693 21.74435,-6.362616 28.76882,-11.401658 28.76882,-11.401658 0,0 -4.08424,-1.474851 -4.57585,-6.258622 -0.48207,-4.793241 -0.84145,-11.25039 -0.84145,-11.25039 0,0 -0.84144,-4.727047 4.56641,-10.768219 5.40775,-6.050624 12.80087,-8.158902 16.66761,-9.00977 3.87611,-0.841424 12.11067,-1.607193 19.7779,-1.266844 7.67668,0.359244 11.97833,1.058865 15.06044,2.751148 3.10092,1.682812 3.37513,5.766998 3.37513,5.766998 l -0.0751,10.834404 c 0,0 -0.34992,3.800561 2.46734,5.001221 0,0 4.77435,2.883499 20.76121,1.257401 0,0 6.80707,-1.191216 17.45235,-4.348889 10.63591,-3.167134 39.0361,-11.619096 43.05399,-12.677952 4.01798,-1.049422 9.00974,-2.751148 15.5615,-4.433988 6.53268,-1.692282 19.27702,-5.918263 21.81061,-6.901491 2.5526,-0.983219 17.12133,-5.842636 27.67218,-7.657818 10.54139,-1.843557 21.04487,-1.758467 26.58487,1.408657 0,0 3.39404,2.874038 4.92568,6.258604 1.54092,3.384575 4.5096,8.158911 8.71663,10.286085 4.30165,2.146078 7.10955,3.507474 17.72646,2.580969 0,0 0.2175,-0.9076 -3.72486,-3.498031 -3.94237,-2.618778 -9.36912,-6.627318 -9.36912,-6.627318 0,0 -3.15764,-2.316248 -3.86675,-4.225981 -0.69011,-1.909733 -0.40645,-2.892952 -0.40645,-2.892952 l 8.30073,-13.292473 c 0,0 0,-1.626116 4.7838,-2.250091 4.78372,-0.633427 10.13476,-1.266863 16.45958,-2.959136 6.32472,-1.682821 7.44973,-2.949694 7.44973,-2.949694 l 5.48347,1.68284 c 0,0 33.52418,26.972586 44.00877,33.874077 l 1.89083,-2.259534 c 0,0 4.11251,0.17017 7.80921,1.626098 3.71541,1.455938 9.25559,5.313213 9.25559,5.313213 0,0 15.23994,12.384864 19.5794,20.799035 l 2.10824,6.419349 -0.96442,1.522094 c 0,0 8.67891,12.35652 19.8158,24.599588 0,0 11.60033,15.73164 15.96815,19.75909 0,0 -1.02104,-3.7722 -1.90029,-8.02655 l 3.17663,-2.13663 1.9191,-1.36139 5.8332,2.44862 c 33.78894,45.4837 60.80881,98.5496 76.96591,154.36664 l -1.13456,4.57577 3.73441,4.73653 c 10.66418,39.82068 16.33669,81.71183 16.33669,124.89819 0,10.6075 -0.34973,21.13937 -1.02103,31.56726 l -2.87398,4.83104 2.12706,5.24703 c -21.1016,246.74272 -228.07092,440.41008 -480.27808,440.41008 -174.91989,0 -328.076237,-93.16077 -412.54887,-232.57102 l -0.96432,-3.45075 -1.93801,-1.43703 c -32.02108,-54.28547 -53.71826,-115.38735 -62.34973,-180.61124 l 2.00418,-4.9634 -3.17654,-4.56634 c -2.01363,-17.88715 -3.04421,-36.03905 -3.04421,-54.43674 0,-28.2205 2.4109,-55.86431 7.07164,-82.77068 l 2.36364,-5.31322 -0.82263,-3.10093 c 10.93839,-57.17843 31.98336,-110.76431 61.20599,-158.81953 l 6.4666,-3.63037 0.76574,0.30252 c 0,0 2.20276,-1.59775 3.34677,-2.05152 l 0.71847,-0.21745 c 0,0 11.14643,-18.63407 15.36301,-24.59014 0,0 5.124091,-3.29004 7.043192,-3.84783 0,0 1.172275,-0.15121 1.786862,0.71852 0,0 4.689192,-4.08417 16.062573,-19.41873 0.03799,-0.0473 0.06672,-0.10394 0.113057,-0.1607 0,0 -1.077751,-0.71851 -1.238533,-1.64503 -0.170142,-0.91703 1.02113,-5.587358 1.635624,-6.778574 0.614402,-1.191226 1.020945,-1.474851 1.020945,-1.474851 0,0 16.280069,-19.210741 29.789956,-30.612405 0,0 2.45807,-1.909724 6.409887,-2.36351 0,0 13.91643,-5.795374 30.858256,-20.647771 0,0 0.482069,-2.732224 4.518957,-8.111631 4.046433,-5.388831 13.765192,-10.99513 21.00707,-12.640132 7.22288,-1.645021 8.470866,-0.359263 8.470866,-0.359263 l 0.605042,0.614513 4.868786,7.241849 c 0,0 5.341774,-2.987502 13.358835,-5.710265 8.00761,-2.732253 9.25541,-2.476994 9.25541,-2.476994 l 7.790205,12.64016 -9.33112,18.90818 c 0,0 -6.088508,13.434315 -15.646578,20.657232 0,0 -4.462336,2.684973 -10.588653,1.200687 -6.126224,-1.484312 -10.134755,3.148202 -10.134755,3.148202 l -1.607175,1.323577 c 0,0 1.323513,-0.226893 3.271064,-0.973766 0,0 1.493839,0.614513 2.590495,2.108278 1.077659,1.493728 8.631649,11.108561 8.631649,11.108561 0,0 0.04633,7.913077 -3.923552,18.322063 -3.961362,10.3995 -13.869261,27.33182 -13.869261,27.33182 0,0 -6.929766,13.46262 -10.16302,21.30008 -3.233347,7.83746 -4.868971,16.68651 -4.613665,21.38521 0,0 1.767957,0.58614 6.684097,-1.90973 6.192483,-3.13876 10.238823,0.25526 10.238823,0.25526 0,0 6.797526,5.01068 9.841641,8.32906 2.477067,2.73225 7.582254,16.68649 1.976001,30.48003 0,0 -3.80058,9.52975 -13.018459,16.29889 0,0 -2.041982,3.13875 -14.455213,1.64503 -3.479107,-0.40655 -5.530727,-2.60937 -12.971104,-1.89085 -7.421472,0.72797 -11.637954,7.7051 -11.637954,7.7051 l 0.123066,-0.2269 C 6.67448,233.86638 2.306575,247.65993 2.306575,247.65993 l -0.538783,1.55991 c 0,0 -2.278476,4.81214 -2.76073,16.56359 -0.501067,12.13908 2.685019,29.39283 2.685019,29.39283 0,0 74.460481,-13.11286 93.406571,-0.51998 l 5.483468,5.02959 c 0,0 0.43481,1.64501 -0.29312,3.55474 -0.75646,1.92864 -3.545271,6.36261 -9.331304,10.52242 -5.776395,4.14089 -11.552883,14.96584 -2.959044,21.78226 9.775474,7.73346 15.986768,7.24184 32.427528,4.42452 16.45021,-2.80788 27.39805,-11.99727 27.39805,-11.99727 0,0 9.18934,-6.80695 7.40257,-15.39128 -1.77741,-8.58431 -9.61478,-11.24094 -9.61478,-11.24094 0,0 -6.22094,-3.99907 -1.33306,-11.70417 0,0 1.33306,-6.51389 24.13626,-12.4416 22.82219,-5.91827 64.40134,-14.37025 99.807,-18.80421 0,0 -24.00401,-77.74112 -6.97721,-87.81919 0,0 4.14096,-2.79843 11.57197,-3.85728 l 6.80689,-0.34979 c 1.23853,-0.25528 3.2428,0.0473 7.52545,0.42542 4.28274,0.35926 9.46354,0.71851 15.86398,-4.16926 6.39098,-4.90666 6.58957,-7.74291 6.58957,-7.74291"
       id="path32720-2"
       inkscape:connector-curvature="0"
       style="fill:#ffffff" />
    <path
       style="opacity:0.51327431;fill:url(#radialGradient3461)"
       inkscape:connector-curvature="0"
       id="path15818-8"
       d="m 309.54592,155.46347 c 0.13307,-5.72919 -3.70615,-12.00671 -3.70615,-12.00671 l -0.23622,-0.54835 c 0,0 -4.6043,-8.97193 -12.29989,-11.60963 -7.70504,-2.62824 -13.97305,3.2333 -13.97305,3.2333 0,0 -1.07785,1.23849 -4.04644,4.67032 -2.95922,3.4413 -4.79326,6.29644 -11.32593,8.86795 -6.54231,2.56206 -13.03727,1.92863 -16.47857,0.31199 -3.45075,-1.62611 -4.32055,-5.07686 -4.32055,-5.07686 0,0 -2.16505,-6.82587 -2.95923,-9.91737 -0.81299,-3.12928 -2.91169,-16.01524 -2.91169,-16.01524 0,0 -4.65156,-25.97043 -5.05792,-31.23636 0,0 13.94469,-1.19122 34.84779,-7.32693 21.74435,-6.362616 28.76882,-11.401658 28.76882,-11.401658 0,0 -4.08424,-1.474851 -4.57585,-6.258622 -0.48207,-4.793241 -0.84145,-11.25039 -0.84145,-11.25039 0,0 -0.84144,-4.727047 4.56641,-10.768219 5.40775,-6.050624 12.80087,-8.158902 16.66761,-9.00977 3.87611,-0.841424 12.11067,-1.607193 19.7779,-1.266844 7.67668,0.359244 11.97833,1.058865 15.06044,2.751148 3.10092,1.682812 3.37513,5.766998 3.37513,5.766998 l -0.0751,10.834404 c 0,0 -0.34992,3.800561 2.46734,5.001221 0,0 4.77435,2.883499 20.76121,1.257401 0,0 6.80707,-1.191216 17.45235,-4.348889 10.63591,-3.167134 39.0361,-11.619096 43.05399,-12.677952 4.01798,-1.049422 9.00974,-2.751148 15.5615,-4.433988 6.53268,-1.692282 19.27702,-5.918263 21.81061,-6.901491 2.5526,-0.983219 17.12133,-5.842636 27.67218,-7.657818 10.54139,-1.843557 21.04487,-1.758467 26.58487,1.408657 0,0 3.39404,2.874038 4.92568,6.258604 1.54092,3.384575 4.5096,8.158911 8.71663,10.286085 4.30165,2.146078 7.10955,3.507474 17.72646,2.580969 0,0 0.2175,-0.9076 -3.72486,-3.498031 -3.94237,-2.618778 -9.36912,-6.627318 -9.36912,-6.627318 0,0 -3.15764,-2.316248 -3.86675,-4.225981 -0.69011,-1.909733 -0.40645,-2.892952 -0.40645,-2.892952 l 8.30073,-13.292473 c 0,0 0,-1.626116 4.7838,-2.250091 4.78372,-0.633427 10.13476,-1.266863 16.45958,-2.959136 6.32472,-1.682821 7.44973,-2.949694 7.44973,-2.949694 l 5.48347,1.68284 c 0,0 33.52418,26.972586 44.00877,33.874077 l 1.89083,-2.259534 c 0,0 4.11251,0.17017 7.80921,1.626098 3.71541,1.455938 9.25559,5.313213 9.25559,5.313213 0,0 15.23994,12.384864 19.5794,20.799035 l 2.10824,6.419349 -0.96442,1.522094 c 0,0 8.67891,12.35652 19.8158,24.599588 0,0 11.60033,15.73164 15.96815,19.75909 0,0 -1.02104,-3.7722 -1.90029,-8.02655 l 3.17663,-2.13663 1.9191,-1.36139 5.8332,2.44862 c 33.78894,45.4837 60.80881,98.5496 76.96591,154.36664 l -1.13456,4.57577 3.73441,4.73653 c 10.66418,39.82068 16.33669,81.71183 16.33669,124.89819 0,10.6075 -0.34973,21.13937 -1.02103,31.56726 l -2.87398,4.83104 2.12706,5.24703 c -21.1016,246.74272 -228.07092,440.41008 -480.27808,440.41008 -174.91989,0 -328.076237,-93.16077 -412.54887,-232.57102 l -0.96432,-3.45075 -1.93801,-1.43703 c -32.02108,-54.28547 -53.71826,-115.38735 -62.34973,-180.61124 l 2.00418,-4.9634 -3.17654,-4.56634 c -2.01363,-17.88715 -3.04421,-36.03905 -3.04421,-54.43674 0,-28.2205 2.4109,-55.86431 7.07164,-82.77068 l 2.36364,-5.31322 -0.82263,-3.10093 c 10.93839,-57.17843 31.98336,-110.76431 61.20599,-158.81953 l 6.4666,-3.63037 0.76574,0.30252 c 0,0 2.20276,-1.59775 3.34677,-2.05152 l 0.71847,-0.21745 c 0,0 11.14643,-18.63407 15.36301,-24.59014 0,0 5.124091,-3.29004 7.043192,-3.84783 0,0 1.172275,-0.15121 1.786862,0.71852 0,0 4.689192,-4.08417 16.062573,-19.41873 0.03799,-0.0473 0.06672,-0.10394 0.113057,-0.1607 0,0 -1.077751,-0.71851 -1.238533,-1.64503 -0.170142,-0.91703 1.02113,-5.587358 1.635624,-6.778574 0.614402,-1.191226 1.020945,-1.474851 1.020945,-1.474851 0,0 16.280069,-19.210741 29.789956,-30.612405 0,0 2.45807,-1.909724 6.409887,-2.36351 0,0 13.91643,-5.795374 30.858256,-20.647771 0,0 0.482069,-2.732224 4.518957,-8.111631 4.046433,-5.388831 13.765192,-10.99513 21.00707,-12.640132 7.22288,-1.645021 8.470866,-0.359263 8.470866,-0.359263 l 0.605042,0.614513 4.868786,7.241849 c 0,0 5.341774,-2.987502 13.358835,-5.710265 8.00761,-2.732253 9.25541,-2.476994 9.25541,-2.476994 l 7.790205,12.64016 -9.33112,18.90818 c 0,0 -6.088508,13.434315 -15.646578,20.657232 0,0 -4.462336,2.684973 -10.588653,1.200687 -6.126224,-1.484312 -10.134755,3.148202 -10.134755,3.148202 l -1.607175,1.323577 c 0,0 1.323513,-0.226893 3.271064,-0.973766 0,0 1.493839,0.614513 2.590495,2.108278 1.077659,1.493728 8.631649,11.108561 8.631649,11.108561 0,0 0.04633,7.913077 -3.923552,18.322063 -3.961362,10.3995 -13.869261,27.33182 -13.869261,27.33182 0,0 -6.929766,13.46262 -10.16302,21.30008 -3.233347,7.83746 -4.868971,16.68651 -4.613665,21.38521 0,0 1.767957,0.58614 6.684097,-1.90973 6.192483,-3.13876 10.238823,0.25526 10.238823,0.25526 0,0 6.797526,5.01068 9.841641,8.32906 2.477067,2.73225 7.582254,16.68649 1.976001,30.48003 0,0 -3.80058,9.52975 -13.018459,16.29889 0,0 -2.041982,3.13875 -14.455213,1.64503 -3.479107,-0.40655 -5.530727,-2.60937 -12.971104,-1.89085 -7.421472,0.72797 -11.637954,7.7051 -11.637954,7.7051 l 0.123066,-0.2269 C 6.67448,233.86638 2.306575,247.65993 2.306575,247.65993 l -0.538783,1.55991 c 0,0 -2.278476,4.81214 -2.76073,16.56359 -0.501067,12.13908 2.685019,29.39283 2.685019,29.39283 0,0 74.460481,-13.11286 93.406571,-0.51998 l 5.483468,5.02959 c 0,0 0.43481,1.64501 -0.29312,3.55474 -0.75646,1.92864 -3.545271,6.36261 -9.331304,10.52242 -5.776395,4.14089 -11.552883,14.96584 -2.959044,21.78226 9.775474,7.73346 15.986768,7.24184 32.427528,4.42452 16.45021,-2.80788 27.39805,-11.99727 27.39805,-11.99727 0,0 9.18934,-6.80695 7.40257,-15.39128 -1.77741,-8.58431 -9.61478,-11.24094 -9.61478,-11.24094 0,0 -6.22094,-3.99907 -1.33306,-11.70417 0,0 1.33306,-6.51389 24.13626,-12.4416 22.82219,-5.91827 64.40134,-14.37025 99.807,-18.80421 0,0 -24.00401,-77.74112 -6.97721,-87.81919 0,0 4.14096,-2.79843 11.57197,-3.85728 l 6.80689,-0.34979 c 1.23853,-0.25528 3.2428,0.0473 7.52545,0.42542 4.28274,0.35926 9.46354,0.71851 15.86398,-4.16926 6.39098,-4.90666 6.58957,-7.74291 6.58957,-7.74291" />
    <text
       xml:space="preserve"
       style="font-size:78.13381958px;font-style:normal;font-weight:normal;line-height:125%;letter-spacing:0px;word-spacing:0px;fill:#ffffff;fill-opacity:1;stroke:none;font-family:Sans"
       x="-63.894253"
       y="221.4476"
       id="text32712-8"
       sodipodi:linespacing="125%"
       transform="matrix(0,1,-1,0,0,0)"><tspan
         sodipodi:role="line"
         id="tspan32714-1"
         x="-63.894253"
         y="221.4476">falanster.by</tspan></text>
    <text
       xml:space="preserve"
       style="font-size:633.90118408px;font-style:normal;font-weight:normal;line-height:125%;letter-spacing:0px;word-spacing:0px;fill:#4d4d4d;fill-opacity:1;stroke:none;font-family:Sans"
       x="142.88097"
       y="711.83423"
       id="text32716-9"
       sodipodi:linespacing="125%"><tspan
         sodipodi:role="line"
         id="tspan32718-8"
         x="142.88097"
         y="711.83423">Ў</tspan></text>
    <g
       id="g3448"
       transform="matrix(1.6006119,-0.01040182,0.01040182,1.6006119,1832.6679,-318.52101)"
       style="fill:#f9f9f9">
      <text
         sodipodi:linespacing="125%"
         id="text3429"
         y="826.4455"
         x="-1267.22"
         style="font-size:138.57698059000001000px;font-style:normal;font-weight:normal;line-height:125%;letter-spacing:0px;word-spacing:0px;fill:#f9f9f9;fill-opacity:1;stroke:none;font-family:Sans"
         xml:space="preserve"><tspan
           style="font-style:normal;font-variant:normal;font-weight:normal;font-stretch:normal;fill:#f9f9f9;font-family:Linux Libertine;-inkscape-font-specification:Linux Libertine"
           y="826.4455"
           x="-1267.22"
           id="tspan3431"
           sodipodi:role="line"><tspan
   id="tspan3441"
   style="font-size:140px;font-style:normal;font-variant:normal;font-weight:normal;font-stretch:normal;fill:#f9f9f9;font-family:Linux Libertine;-inkscape-font-specification:Linux Libertine">Вікіп</tspan><tspan
   id="tspan3433"
   style="font-size:140px;font-style:normal;font-variant:normal;font-weight:normal;font-stretch:normal;fill:none;font-family:Linux Libertine;-inkscape-font-specification:Linux Libertine">е</tspan>дыЯ</tspan></text>
      <g
         transform="matrix(-1,0,0,1,-1822.3567,-177.14286)"
         id="text3437"
         style="font-size:129.61647033999998000px;font-style:normal;font-weight:normal;line-height:125%;letter-spacing:0px;word-spacing:0px;fill:#f9f9f9;fill-opacity:1;stroke:none;font-family:Sans">
        <path
           inkscape:connector-curvature="0"
           id="path3446"
           style="font-size:140px;font-variant:normal;font-stretch:normal;fill:#f9f9f9;font-family:Linux Libertine;-inkscape-font-specification:Linux Libertine"
           d="m -920.20428,963.22888 25.36132,-0.41015 c 1.41272,4e-5 2.09631,-0.63798 2.05078,-1.91407 -4e-5,-5.33198 -1.13936,-9.11453 -3.41796,-11.34765 -2.27869,-2.23302 -5.01306,-3.34956 -8.20313,-3.34961 -1.2305,5e-5 -2.43818,0.15956 -3.62305,0.47851 -1.18492,0.31907 -2.64325,0.99127 -4.375,2.0166 -1.73179,1.02545 -3.30405,2.7914 -4.71679,5.29786 -1.41278,2.50655 -2.43817,5.58272 -3.07617,9.22851 z m 36.70898,26.52344 c 1.595,0.0912 2.57481,0.82032 2.93945,2.1875 -6.24354,8.11198 -14.196,12.16798 -23.85742,12.16798 -9.25133,0 -16.38348,-2.985 -21.39648,-8.95509 -4.37501,-5.05858 -6.56251,-11.96287 -6.5625,-20.71289 -10e-6,-9.88929 2.96223,-17.84175 8.88672,-23.85742 5.92445,-6.01557 12.28187,-9.02338 19.07226,-9.02344 15.76818,6e-5 23.65229,8.11203 23.65234,24.33594 -5e-5,1.59508 -0.86594,2.39261 -2.59765,2.39258 l -37.25586,-0.27344 c -2e-5,7.83857 1.4811,14.24156 4.44336,19.20898 4.10154,6.69923 9.2057,10.04884 15.3125,10.04883 3.91923,10e-6 7.12072,-0.55826 9.60449,-1.6748 2.48368,-1.11653 5.06994,-3.06477 7.75879,-5.84473 z" />
      </g>
    </g>
  </g>
</svg>
