<?xml version="1.0" encoding="UTF-8" standalone="no"?>
<!-- Created with Inkscape (http://www.inkscape.org/) -->

<svg
   xmlns:dc="http://purl.org/dc/elements/1.1/"
   xmlns:cc="http://creativecommons.org/ns#"
   xmlns:rdf="http://www.w3.org/1999/02/22-rdf-syntax-ns#"
   xmlns:svg="http://www.w3.org/2000/svg"
   xmlns="http://www.w3.org/2000/svg"
   xmlns:xlink="http://www.w3.org/1999/xlink"
   xmlns:sodipodi="http://sodipodi.sourceforge.net/DTD/sodipodi-0.dtd"
   xmlns:inkscape="http://www.inkscape.org/namespaces/inkscape"
   width="744.09448819"
   height="1052.3622047"
   id="svg17861"
   version="1.1"
   inkscape:version="0.48.2 r9819"
   sodipodi:docname="wiki_bukvy_1.svg"
   inkscape:export-filename="D:\Dropbox\Photos\falanster\wikification\nalepki\wiki_grammar_nazi_1.png"
   inkscape:export-xdpi="77.01712"
   inkscape:export-ydpi="77.01712">
  <defs
     id="defs17863">
    <radialGradient
       gradientUnits="userSpaceOnUse"
       gradientTransform="translate(192.3999,-648.9004)"
       r="68.686401"
       cy="704.17682"
       cx="-145.4707"
       id="path3930_1_">
      <stop
         id="stop3037"
         style="stop-color:#FFFFFF"
         offset="0" />
      <stop
         id="stop3039"
         style="stop-color:#EAEAEB"
         offset="0.4835" />
      <stop
         id="stop3041"
         style="stop-color:#A9ABAE"
         offset="0.9451" />
      <stop
         id="stop3043"
         style="stop-color:#999B9E"
         offset="1" />
    </radialGradient>
    <linearGradient
       gradientTransform="matrix(1,0,0,-1,0,156)"
       y2="58.770302"
       x2="112.733"
       y1="131.52049"
       x1="66.232903"
       gradientUnits="userSpaceOnUse"
       id="path3945_1_">
      <stop
         id="stop3048"
         style="stop-color:#8A8A8A"
         offset="0" />
      <stop
         id="stop3050"
         style="stop-color:#606060"
         offset="0.5687" />
      <stop
         id="stop3052"
         style="stop-color:#FFFFFF"
         offset="0.5914" />
      <stop
         id="stop3054"
         style="stop-color:#585858"
         offset="0.6116" />
      <stop
         id="stop3056"
         style="stop-color:#303030"
         offset="1" />
    </linearGradient>
    <linearGradient
       id="path3954_1_"
       gradientUnits="userSpaceOnUse"
       x1="35.350101"
       y1="138.2383"
       x2="55.350101"
       y2="44.8633"
       gradientTransform="matrix(1,0,0,-1,0,156)">
      <stop
         offset="0"
         style="stop-color:#A8A9AB"
         id="stop3061" />
      <stop
         offset="1"
         style="stop-color:#636668"
         id="stop3063" />
    </linearGradient>
    <linearGradient
       id="path3961_1_"
       gradientUnits="userSpaceOnUse"
       x1="31.0259"
       y1="137.3105"
       x2="51.026001"
       y2="43.934898"
       gradientTransform="matrix(1,0,0,-1,0,156)">
      <stop
         offset="0"
         style="stop-color:#A8A9AB"
         id="stop3067" />
      <stop
         offset="1"
         style="stop-color:#636668"
         id="stop3069" />
    </linearGradient>
    <linearGradient
       gradientTransform="matrix(1,0,0,-1,0,156)"
       y2="90.865196"
       x2="83.798798"
       y1="90.865196"
       x1="54.716301"
       gradientUnits="userSpaceOnUse"
       id="path3968_1_">
      <stop
         id="stop3073"
         style="stop-color:#231F20"
         offset="0" />
      <stop
         id="stop3075"
         style="stop-color:#474747"
         offset="1" />
    </linearGradient>
    <linearGradient
       gradientTransform="translate(192.3999,-648.9004)"
       y2="762.09747"
       x2="-94.070099"
       y1="672.19342"
       x1="-123.5908"
       gradientUnits="userSpaceOnUse"
       id="path4013_1_">
      <stop
         id="stop3092"
         style="stop-color:#FFFFFF"
         offset="0" />
      <stop
         id="stop3094"
         style="stop-color:#FCFCFC"
         offset="0.0094" />
      <stop
         id="stop3096"
         style="stop-color:#EEEEEE"
         offset="0.0655" />
      <stop
         id="stop3098"
         style="stop-color:#E5E5E5"
         offset="0.1342" />
      <stop
         id="stop3100"
         style="stop-color:#E3E3E3"
         offset="0.2515" />
      <stop
         id="stop3102"
         style="stop-color:#8A8A8A"
         offset="0.3357" />
      <stop
         id="stop3104"
         style="stop-color:#B8B8B8"
         offset="0.4422" />
      <stop
         id="stop3106"
         style="stop-color:#3B3B3B"
         offset="1" />
    </linearGradient>
    <linearGradient
       gradientTransform="matrix(1,0,0,-1,0,156)"
       y2="68.371902"
       x2="119.5471"
       y1="129.1221"
       x1="70.421898"
       gradientUnits="userSpaceOnUse"
       id="path4026_1_">
      <stop
         id="stop3110"
         style="stop-color:#EFF0F0"
         offset="0" />
      <stop
         id="stop3112"
         style="stop-color:#F0F1F2"
         offset="0.5914" />
      <stop
         id="stop3114"
         style="stop-color:#787878"
         offset="0.599" />
      <stop
         id="stop3116"
         style="stop-color:#EEEFF0"
         offset="0.6456" />
      <stop
         id="stop3118"
         style="stop-color:#D8D9DB"
         offset="1" />
    </linearGradient>
    <linearGradient
       gradientTransform="translate(192.3999,-648.9004)"
       y2="760.00238"
       x2="-87.572601"
       y1="669.86823"
       x1="-117.1689"
       gradientUnits="userSpaceOnUse"
       id="path4033_1_">
      <stop
         id="stop3122"
         style="stop-color:#FFFFFF"
         offset="0" />
      <stop
         id="stop3124"
         style="stop-color:#E4E5E6"
         offset="1" />
    </linearGradient>
    <linearGradient
       gradientTransform="matrix(1,0,0,-1,0,156)"
       y2="49.609699"
       x2="79.683899"
       y1="130.72459"
       x1="54.653301"
       gradientUnits="userSpaceOnUse"
       id="path4042_1_">
      <stop
         id="stop3128"
         style="stop-color:#FFFFFF"
         offset="0" />
      <stop
         id="stop3130"
         style="stop-color:#F9F9F9"
         offset="0.7473" />
      <stop
         id="stop3132"
         style="stop-color:#D5D7D8"
         offset="1" />
    </linearGradient>
    <linearGradient
       gradientTransform="translate(192.3999,-648.9004)"
       y2="767.23358"
       x2="-134.8338"
       y1="673.1875"
       x1="-115.5068"
       gradientUnits="userSpaceOnUse"
       id="path4065_1_">
      <stop
         id="stop3144"
         style="stop-color:#FFFFFF"
         offset="0" />
      <stop
         id="stop3146"
         style="stop-color:#E4E5E6"
         offset="1" />
    </linearGradient>
    <linearGradient
       gradientTransform="matrix(1,0,0,-1,0,156)"
       y2="63.503799"
       x2="37.245701"
       y1="122.9229"
       x1="32.516602"
       gradientUnits="userSpaceOnUse"
       id="path4072_1_">
      <stop
         id="stop3150"
         style="stop-color:#989A9C"
         offset="0.2198" />
      <stop
         id="stop3152"
         style="stop-color:#FFFFFF"
         offset="0.2527" />
    </linearGradient>
    <linearGradient
       gradientTransform="translate(192.3999,-648.9004)"
       y2="757.95862"
       x2="-171.6926"
       y1="665.24121"
       x1="-152.6387"
       gradientUnits="userSpaceOnUse"
       id="path4079_1_">
      <stop
         id="stop3156"
         style="stop-color:#FFFFFF"
         offset="0" />
      <stop
         id="stop3158"
         style="stop-color:#E4E5E6"
         offset="1" />
    </linearGradient>
    <linearGradient
       gradientTransform="translate(192.3999,-648.9004)"
       y2="756.41431"
       x2="-130.1433"
       y1="756.375"
       x1="-130.1353"
       gradientUnits="userSpaceOnUse"
       id="path4086_1_">
      <stop
         id="stop3162"
         style="stop-color:#FFFFFF"
         offset="0" />
      <stop
         id="stop3164"
         style="stop-color:#E4E5E6"
         offset="1" />
    </linearGradient>
    <linearGradient
       gradientTransform="translate(192.3999,-648.9004)"
       y2="766.11298"
       x2="-140.54491"
       y1="671.67871"
       x1="-121.1382"
       gradientUnits="userSpaceOnUse"
       id="path4097_1_">
      <stop
         id="stop3170"
         style="stop-color:#FFFFFF"
         offset="0" />
      <stop
         id="stop3172"
         style="stop-color:#E4E5E6"
         offset="1" />
    </linearGradient>
    <linearGradient
       gradientTransform="translate(192.3999,-648.9004)"
       y2="763.14862"
       x2="-155.0065"
       y1="668.64838"
       x1="-135.5864"
       gradientUnits="userSpaceOnUse"
       id="path4104_1_">
      <stop
         id="stop3176"
         style="stop-color:#FFFFFF"
         offset="0" />
      <stop
         id="stop3178"
         style="stop-color:#E4E5E6"
         offset="1" />
    </linearGradient>
    <linearGradient
       gradientTransform="translate(192.3999,-648.9004)"
       y2="764.86401"
       x2="-146.8838"
       y1="670.07812"
       x1="-127.4048"
       gradientUnits="userSpaceOnUse"
       id="path4111_1_">
      <stop
         id="stop3182"
         style="stop-color:#FFFFFF"
         offset="0" />
      <stop
         id="stop3184"
         style="stop-color:#E4E5E6"
         offset="1" />
    </linearGradient>
    <linearGradient
       gradientTransform="translate(192.3999,-648.9004)"
       y2="767.05621"
       x2="-138.85249"
       y1="667.99609"
       x1="-118.4951"
       gradientUnits="userSpaceOnUse"
       id="path4118_1_">
      <stop
         id="stop3188"
         style="stop-color:#FFFFFF"
         offset="0" />
      <stop
         id="stop3190"
         style="stop-color:#E4E5E6"
         offset="1" />
    </linearGradient>
    <linearGradient
       gradientTransform="translate(192.3999,-648.9004)"
       y2="767.29742"
       x2="-134.7851"
       y1="672.88483"
       x1="-115.3828"
       gradientUnits="userSpaceOnUse"
       id="path4125_1_">
      <stop
         id="stop3194"
         style="stop-color:#FFFFFF"
         offset="0" />
      <stop
         id="stop3196"
         style="stop-color:#E4E5E6"
         offset="1" />
    </linearGradient>
    <linearGradient
       id="path4176_1_"
       gradientUnits="userSpaceOnUse"
       x1="-168.85941"
       y1="731.60352"
       x2="-168.6685"
       y2="731.60352"
       gradientTransform="translate(192.3999,-648.9004)">
      <stop
         offset="0"
         style="stop-color:#808080"
         id="stop3215" />
      <stop
         offset="0.0868"
         style="stop-color:#7A7A7A"
         id="stop3217" />
      <stop
         offset="0.36"
         style="stop-color:#6B6B6B"
         id="stop3219" />
      <stop
         offset="0.5192"
         style="stop-color:#686868"
         id="stop3221" />
      <stop
         offset="0.6377"
         style="stop-color:#5F5F5F"
         id="stop3223" />
      <stop
         offset="0.7431"
         style="stop-color:#4E4E4E"
         id="stop3225" />
      <stop
         offset="0.8408"
         style="stop-color:#383838"
         id="stop3227" />
      <stop
         offset="0.9324"
         style="stop-color:#1B1B1B"
         id="stop3229" />
      <stop
         offset="1"
         style="stop-color:#000000"
         id="stop3231" />
    </linearGradient>
    <linearGradient
       id="path4195_1_"
       gradientUnits="userSpaceOnUse"
       x1="-168.6377"
       y1="726.84381"
       x2="-74.017097"
       y2="726.84381"
       gradientTransform="translate(192.3999,-648.9004)">
      <stop
         offset="0"
         style="stop-color:#808080"
         id="stop3235" />
      <stop
         offset="0.0868"
         style="stop-color:#7A7A7A"
         id="stop3237" />
      <stop
         offset="0.3817"
         style="stop-color:#828282"
         id="stop3239" />
      <stop
         offset="0.5185"
         style="stop-color:#808080"
         id="stop3241" />
      <stop
         offset="0.5677"
         style="stop-color:#797979"
         id="stop3243" />
      <stop
         offset="0.6027"
         style="stop-color:#6E6E6E"
         id="stop3245" />
      <stop
         offset="0.608"
         style="stop-color:#6B6B6B"
         id="stop3247" />
      <stop
         offset="1"
         style="stop-color:#4E4E4E"
         id="stop3249" />
    </linearGradient>
    <linearGradient
       gradientTransform="translate(192.3999,-648.9004)"
       y2="708.39447"
       x2="-75.6362"
       y1="708.39447"
       x1="-175.4458"
       gradientUnits="userSpaceOnUse"
       id="path4202_1_">
      <stop
         id="stop3253"
         style="stop-color:#555555"
         offset="0" />
      <stop
         id="stop3255"
         style="stop-color:#231F20"
         offset="1" />
    </linearGradient>
    <linearGradient
       gradientTransform="translate(192.3999,-648.9004)"
       y2="687.9209"
       x2="-83.541"
       y1="687.9209"
       x1="-175.144"
       gradientUnits="userSpaceOnUse"
       id="path4211_1_">
      <stop
         id="stop3259"
         style="stop-color:#A0A0A0"
         offset="0" />
      <stop
         id="stop3261"
         style="stop-color:#656767"
         offset="0.0769" />
      <stop
         id="stop3263"
         style="stop-color:#717375"
         offset="1" />
    </linearGradient>
    <linearGradient
       gradientTransform="translate(192.3999,-648.9004)"
       y2="713.79102"
       x2="-172.3848"
       y1="713.79102"
       x1="-172.3848"
       gradientUnits="userSpaceOnUse"
       id="path4246_1_">
      <stop
         id="stop3272"
         style="stop-color:#FFFFFF"
         offset="0" />
      <stop
         id="stop3274"
         style="stop-color:#F4F4F4"
         offset="0.078" />
      <stop
         id="stop3276"
         style="stop-color:#CECECE"
         offset="0.3807" />
      <stop
         id="stop3278"
         style="stop-color:#BFBFBF"
         offset="0.5396" />
      <stop
         id="stop3280"
         style="stop-color:#7C7C7C"
         offset="0.8357" />
      <stop
         id="stop3282"
         style="stop-color:#A8A8A8"
         offset="0.8996" />
      <stop
         id="stop3284"
         style="stop-color:#9A9A9A"
         offset="0.9093" />
      <stop
         id="stop3286"
         style="stop-color:#7D7D7D"
         offset="0.9327" />
      <stop
         id="stop3288"
         style="stop-color:#686868"
         offset="0.9558" />
      <stop
         id="stop3290"
         style="stop-color:#5B5B5B"
         offset="0.9785" />
      <stop
         id="stop3292"
         style="stop-color:#575757"
         offset="1" />
    </linearGradient>
    <linearGradient
       gradientTransform="translate(192.3999,-648.9004)"
       y2="701.52533"
       x2="-67.171303"
       y1="713.55078"
       x1="-175.7168"
       gradientUnits="userSpaceOnUse"
       id="path4271_1_">
      <stop
         id="stop3296"
         style="stop-color:#FFFFFF"
         offset="0" />
      <stop
         id="stop3298"
         style="stop-color:#F4F4F4"
         offset="0.078" />
      <stop
         id="stop3300"
         style="stop-color:#CECECE"
         offset="0.3807" />
      <stop
         id="stop3302"
         style="stop-color:#BFBFBF"
         offset="0.5396" />
      <stop
         id="stop3304"
         style="stop-color:#7C7C7C"
         offset="0.8357" />
      <stop
         id="stop3306"
         style="stop-color:#A8A8A8"
         offset="0.8996" />
      <stop
         id="stop3308"
         style="stop-color:#9A9A9A"
         offset="0.9093" />
      <stop
         id="stop3310"
         style="stop-color:#7D7D7D"
         offset="0.9327" />
      <stop
         id="stop3312"
         style="stop-color:#686868"
         offset="0.9558" />
      <stop
         id="stop3314"
         style="stop-color:#5B5B5B"
         offset="0.9785" />
      <stop
         id="stop3316"
         style="stop-color:#575757"
         offset="1" />
    </linearGradient>
    <linearGradient
       gradientTransform="translate(192.3999,-648.9004)"
       y2="699.89038"
       x2="-53.160702"
       y1="713.5166"
       x1="-176.15379"
       gradientUnits="userSpaceOnUse"
       id="path4296_1_">
      <stop
         id="stop3320"
         style="stop-color:#FFFFFF"
         offset="0" />
      <stop
         id="stop3322"
         style="stop-color:#F4F4F4"
         offset="0.078" />
      <stop
         id="stop3324"
         style="stop-color:#CECECE"
         offset="0.3807" />
      <stop
         id="stop3326"
         style="stop-color:#BFBFBF"
         offset="0.5396" />
      <stop
         id="stop3328"
         style="stop-color:#7C7C7C"
         offset="0.8357" />
      <stop
         id="stop3330"
         style="stop-color:#A8A8A8"
         offset="0.8996" />
      <stop
         id="stop3332"
         style="stop-color:#9A9A9A"
         offset="0.9093" />
      <stop
         id="stop3334"
         style="stop-color:#7D7D7D"
         offset="0.9327" />
      <stop
         id="stop3336"
         style="stop-color:#686868"
         offset="0.9558" />
      <stop
         id="stop3338"
         style="stop-color:#5B5B5B"
         offset="0.9785" />
      <stop
         id="stop3340"
         style="stop-color:#575757"
         offset="1" />
    </linearGradient>
    <linearGradient
       gradientTransform="matrix(1,0,0,-1,0,156)"
       y2="104.051"
       x2="117.1957"
       y1="84.676804"
       x1="21.2129"
       gradientUnits="userSpaceOnUse"
       id="path4307_1_">
      <stop
         id="stop3344"
         style="stop-color:#EDEDEE"
         offset="0" />
      <stop
         id="stop3346"
         style="stop-color:#FFFFFF"
         offset="0.4176" />
      <stop
         id="stop3348"
         style="stop-color:#F8F9F9"
         offset="0.6264" />
      <stop
         id="stop3350"
         style="stop-color:#BFC0C2"
         offset="1" />
    </linearGradient>
    <linearGradient
       gradientTransform="matrix(1,0,0,-1,0,156)"
       y2="125.2676"
       x2="27.957001"
       y1="125.2676"
       x1="23.4722"
       gradientUnits="userSpaceOnUse"
       id="path4320_1_">
      <stop
         id="stop3357"
         style="stop-color:#E2E3E4"
         offset="0" />
      <stop
         id="stop3359"
         style="stop-color:#FFFFFF"
         offset="0.5055" />
    </linearGradient>
    <linearGradient
       id="path4683_1_"
       gradientUnits="userSpaceOnUse"
       x1="24.1982"
       y1="73.411102"
       x2="118.2354"
       y2="95.777397"
       gradientTransform="matrix(1,0,0,-1,0,156)">
      <stop
         offset="0"
         style="stop-color:#EDEDEE"
         id="stop3539" />
      <stop
         offset="0.4176"
         style="stop-color:#FFFFFF"
         id="stop3541" />
      <stop
         offset="0.6264"
         style="stop-color:#F8F9F9"
         id="stop3543" />
      <stop
         offset="0.9505"
         style="stop-color:#B2B4B6"
         id="stop3545" />
    </linearGradient>
    <linearGradient
       id="path4694_1_"
       gradientUnits="userSpaceOnUse"
       x1="26.6567"
       y1="63.116199"
       x2="121.7809"
       y2="85.740997"
       gradientTransform="matrix(1,0,0,-1,0,156)">
      <stop
         offset="0"
         style="stop-color:#EDEDEE"
         id="stop3549" />
      <stop
         offset="0.4176"
         style="stop-color:#FFFFFF"
         id="stop3551" />
      <stop
         offset="0.6264"
         style="stop-color:#F8F9F9"
         id="stop3553" />
      <stop
         offset="0.9505"
         style="stop-color:#B2B4B6"
         id="stop3555" />
    </linearGradient>
    <linearGradient
       id="path4705_1_"
       gradientUnits="userSpaceOnUse"
       x1="25.4326"
       y1="68.258797"
       x2="120.5521"
       y2="90.8825"
       gradientTransform="matrix(1,0,0,-1,0,156)">
      <stop
         offset="0"
         style="stop-color:#EDEDEE"
         id="stop3559" />
      <stop
         offset="0.4176"
         style="stop-color:#FFFFFF"
         id="stop3561" />
      <stop
         offset="0.6264"
         style="stop-color:#F8F9F9"
         id="stop3563" />
      <stop
         offset="0.9505"
         style="stop-color:#B2B4B6"
         id="stop3565" />
    </linearGradient>
    <linearGradient
       id="path4716_1_"
       gradientUnits="userSpaceOnUse"
       x1="24.7334"
       y1="71.200203"
       x2="119.8123"
       y2="93.814201"
       gradientTransform="matrix(1,0,0,-1,0,156)">
      <stop
         offset="0"
         style="stop-color:#EDEDEE"
         id="stop3569" />
      <stop
         offset="0.4176"
         style="stop-color:#FFFFFF"
         id="stop3571" />
      <stop
         offset="0.6264"
         style="stop-color:#F8F9F9"
         id="stop3573" />
      <stop
         offset="0.9505"
         style="stop-color:#B2B4B6"
         id="stop3575" />
    </linearGradient>
    <linearGradient
       id="path4727_1_"
       gradientUnits="userSpaceOnUse"
       x1="24.8867"
       y1="70.617203"
       x2="119.3196"
       y2="93.077499"
       gradientTransform="matrix(1,0,0,-1,0,156)">
      <stop
         offset="0"
         style="stop-color:#EDEDEE"
         id="stop3579" />
      <stop
         offset="0.4176"
         style="stop-color:#FFFFFF"
         id="stop3581" />
      <stop
         offset="0.6264"
         style="stop-color:#F8F9F9"
         id="stop3583" />
      <stop
         offset="0.9505"
         style="stop-color:#B2B4B6"
         id="stop3585" />
    </linearGradient>
    <linearGradient
       id="path4738_1_"
       gradientUnits="userSpaceOnUse"
       x1="26.111799"
       y1="65.625"
       x2="121.1811"
       y2="88.236702"
       gradientTransform="matrix(1,0,0,-1,0,156)">
      <stop
         offset="0"
         style="stop-color:#EDEDEE"
         id="stop3589" />
      <stop
         offset="0.4176"
         style="stop-color:#FFFFFF"
         id="stop3591" />
      <stop
         offset="0.6264"
         style="stop-color:#F8F9F9"
         id="stop3593" />
      <stop
         offset="0.9505"
         style="stop-color:#B2B4B6"
         id="stop3595" />
    </linearGradient>
    <linearGradient
       gradientTransform="matrix(1,0,0,-1,0,156)"
       y2="126.7951"
       x2="111.546"
       y1="106.2803"
       x1="22.574699"
       gradientUnits="userSpaceOnUse"
       id="path4749_1_">
      <stop
         id="stop3600"
         style="stop-color:#FFFFFF"
         offset="0" />
      <stop
         id="stop3602"
         style="stop-color:#FFFFFF"
         offset="0.6538" />
      <stop
         id="stop3604"
         style="stop-color:#CBCCCE"
         offset="1" />
    </linearGradient>
    <linearGradient
       gradientTransform="translate(192.3999,-648.9004)"
       y2="684.91022"
       x2="-126.4229"
       y1="684.91022"
       x1="-158.8101"
       gradientUnits="userSpaceOnUse"
       id="path4782_1_">
      <stop
         id="stop3617"
         style="stop-color:#696969"
         offset="0" />
      <stop
         id="stop3619"
         style="stop-color:#2E2E2E"
         offset="0.3702" />
      <stop
         id="stop3621"
         style="stop-color:#424242"
         offset="0.4554" />
      <stop
         id="stop3623"
         style="stop-color:#303030"
         offset="0.6014" />
      <stop
         id="stop3625"
         style="stop-color:#4A4A4A"
         offset="0.6947" />
      <stop
         id="stop3627"
         style="stop-color:#666666"
         offset="1" />
    </linearGradient>
    <linearGradient
       gradientTransform="translate(192.3999,-648.9004)"
       y2="684.10248"
       x2="-126.5479"
       y1="684.10248"
       x1="-158.4189"
       gradientUnits="userSpaceOnUse"
       id="path4811_1_">
      <stop
         id="stop3631"
         style="stop-color:#525252"
         offset="0" />
      <stop
         id="stop3633"
         style="stop-color:#333333"
         offset="0.1856" />
      <stop
         id="stop3635"
         style="stop-color:#AEAEAE"
         offset="0.354" />
      <stop
         id="stop3637"
         style="stop-color:#ADADAD"
         offset="0.4199" />
      <stop
         id="stop3639"
         style="stop-color:#9D9D9D"
         offset="0.4276" />
      <stop
         id="stop3641"
         style="stop-color:#818181"
         offset="0.4433" />
      <stop
         id="stop3643"
         style="stop-color:#6A6A6A"
         offset="0.4611" />
      <stop
         id="stop3645"
         style="stop-color:#585858"
         offset="0.4814" />
      <stop
         id="stop3647"
         style="stop-color:#4C4C4C"
         offset="0.506" />
      <stop
         id="stop3649"
         style="stop-color:#444444"
         offset="0.539" />
      <stop
         id="stop3651"
         style="stop-color:#424242"
         offset="0.6166" />
      <stop
         id="stop3653"
         style="stop-color:#454545"
         offset="0.6684" />
      <stop
         id="stop3655"
         style="stop-color:#BDBDBD"
         offset="1" />
    </linearGradient>
    <linearGradient
       gradientTransform="translate(192.3999,-648.9004)"
       y2="687.5658"
       x2="-154.1557"
       y1="694.37109"
       x1="-153.127"
       gradientUnits="userSpaceOnUse"
       id="path4818_1_">
      <stop
         id="stop3659"
         style="stop-color:#969696"
         offset="0" />
      <stop
         id="stop3661"
         style="stop-color:#000000"
         offset="1" />
    </linearGradient>
    <linearGradient
       gradientTransform="matrix(1,0,0,-1,0,156)"
       y2="117.211"
       x2="39.4879"
       y1="109.627"
       x1="38.737801"
       gradientUnits="userSpaceOnUse"
       id="path4831_1_">
      <stop
         id="stop3667"
         style="stop-color:#333333"
         offset="0" />
      <stop
         id="stop3669"
         style="stop-color:#000000"
         offset="0.431" />
      <stop
         id="stop3671"
         style="stop-color:#2E2E2E"
         offset="1" />
    </linearGradient>
    <radialGradient
       gradientUnits="userSpaceOnUse"
       gradientTransform="translate(192.3999,-648.9004)"
       r="72.751701"
       cy="685.40039"
       cx="-138.23289"
       id="path4846_1_">
      <stop
         id="stop3678"
         style="stop-color:#000000;stop-opacity:0"
         offset="0" />
      <stop
         id="stop3680"
         style="stop-color:#000000;stop-opacity:0.08"
         offset="0.8022" />
      <stop
         id="stop3682"
         style="stop-color:#000000;stop-opacity:0.3882"
         offset="1" />
    </radialGradient>
    <radialGradient
       inkscape:collect="always"
       xlink:href="#path3930_1_"
       id="radialGradient32635"
       gradientUnits="userSpaceOnUse"
       gradientTransform="matrix(10.201912,0,0,10.201912,1765.4786,-6657.6604)"
       cx="-145.4707"
       cy="704.17682"
       r="68.686401" />
    <radialGradient
       inkscape:collect="always"
       xlink:href="#path3930_1_-3"
       id="radialGradient32635-8"
       gradientUnits="userSpaceOnUse"
       gradientTransform="matrix(10.201912,0,0,10.201912,117.8641,-6688.4104)"
       cx="-145.4707"
       cy="704.17682"
       r="68.686401" />
    <radialGradient
       gradientUnits="userSpaceOnUse"
       gradientTransform="translate(192.3999,-648.9004)"
       r="68.686401"
       cy="704.17682"
       cx="-145.4707"
       id="path3930_1_-3">
      <stop
         id="stop3037-9"
         style="stop-color:#FFFFFF"
         offset="0" />
      <stop
         id="stop3039-5"
         style="stop-color:#EAEAEB"
         offset="0.4835" />
      <stop
         id="stop3041-1"
         style="stop-color:#A9ABAE"
         offset="0.9451" />
      <stop
         id="stop3043-3"
         style="stop-color:#999B9E"
         offset="1" />
    </radialGradient>
  </defs>
  <sodipodi:namedview
     id="base"
     pagecolor="#ffffff"
     bordercolor="#666666"
     borderopacity="1.0"
     inkscape:pageopacity="0.0"
     inkscape:pageshadow="2"
     inkscape:zoom="0.24748737"
     inkscape:cx="36.239124"
     inkscape:cy="483.87226"
     inkscape:document-units="px"
     inkscape:current-layer="layer1"
     showgrid="false"
     inkscape:window-width="1366"
     inkscape:window-height="706"
     inkscape:window-x="-8"
     inkscape:window-y="-8"
     inkscape:window-maximized="1" />
  <metadata
     id="metadata17866">
    <rdf:RDF>
      <cc:Work
         rdf:about="">
        <dc:format>image/svg+xml</dc:format>
        <dc:type
           rdf:resource="http://purl.org/dc/dcmitype/StillImage" />
        <dc:title />
      </cc:Work>
    </rdf:RDF>
  </metadata>
  <g
     inkscape:label="Layer 1"
     inkscape:groupmode="layer"
     id="layer1">
    <rect
       style="fill:#00aa44;fill-opacity:1;stroke:none"
       id="rect32638-6"
       width="1168.5714"
       height="1168.5714"
       x="-1739.9003"
       y="-32.959206" />
    <path
       d="m -1171.9423,254.44402 c 0.1436,-6.18237 -3.9993,-12.95643 -3.9993,-12.95643 l -0.2549,-0.59172 c 0,0 -4.9685,-9.6816 -13.2728,-12.52794 -8.3145,-2.83613 -15.0783,3.48905 -15.0783,3.48905 0,0 -1.1631,1.33645 -4.3665,5.03974 -3.1933,3.7135 -5.1724,6.79448 -12.2218,9.56939 -7.0598,2.76472 -14.0685,2.08118 -17.782,0.33667 -3.7237,-1.75474 -4.6623,-5.47843 -4.6623,-5.47843 0,0 -2.3363,-7.36579 -3.1933,-10.70182 -0.8773,-3.37681 -3.142,-17.28203 -3.142,-17.28203 0,0 -5.0195,-28.02465 -5.458,-33.70711 0,0 15.0477,-1.28544 37.6042,-7.90648 23.4643,-6.86589 31.0444,-12.30351 31.0444,-12.30351 0,0 -4.4073,-1.59151 -4.9378,-6.75367 -0.5202,-5.17238 -0.908,-12.14028 -0.908,-12.14028 0,0 -0.908,-5.10095 4.9276,-11.61997 5.8355,-6.52922 13.8134,-8.80426 17.986,-9.72243 4.1827,-0.90798 13.0686,-1.73432 21.3423,-1.36705 8.2839,0.38766 12.9258,1.14262 16.2517,2.96876 3.3462,1.81592 3.6421,6.22316 3.6421,6.22316 l -0.081,11.69139 c 0,0 -0.3776,4.10118 2.6625,5.39681 0,0 5.152,3.11158 22.4034,1.35686 0,0 7.3455,-1.28544 18.8328,-4.69288 11.4772,-3.41765 42.1238,-12.53815 46.4595,-13.68076 4.3358,-1.13243 9.7224,-2.96876 16.7924,-4.78471 7.0494,-1.82614 20.8018,-6.38639 23.5358,-7.44739 2.7545,-1.06099 18.4756,-6.30478 29.861,-8.26354 11.3752,-1.98938 22.7095,-1.89756 28.6877,1.52008 0,0 3.6625,3.10137 5.3153,6.75365 1.6628,3.65229 4.8663,8.80427 9.4061,11.0997 4.6419,2.31583 7.6719,3.78491 19.1286,2.78512 0,0 0.2347,-0.97939 -4.0195,-3.77472 -4.2542,-2.82592 -10.1102,-7.15153 -10.1102,-7.15153 0,0 -3.4074,-2.49946 -4.1726,-4.56025 -0.7447,-2.06079 -0.4386,-3.12178 -0.4386,-3.12178 l 8.9573,-14.343889 c 0,0 0,-1.75474 5.1622,-2.42807 5.1621,-0.68353 10.9364,-1.36707 17.7615,-3.1932 6.825,-1.81593 8.039,-3.18301 8.039,-3.18301 l 5.9172,1.81595 c 0,0 36.1759,29.106079 47.4898,36.553469 l 2.0404,-2.43826 c 0,0 4.4378,0.18363 8.4269,1.75472 4.0093,1.5711 9.9877,5.73348 9.9877,5.73348 0,0 16.4454,13.36449 21.1281,22.44421 l 2.275,6.92711 -1.0407,1.64249 c 0,0 9.3654,13.3339 21.3832,26.54538 0,0 12.5179,16.97599 17.2312,21.322 0,0 -1.1018,-4.07057 -2.0506,-8.66143 l 3.4279,-2.30564 2.0709,-1.46907 6.2946,2.6423 c 36.4616,49.08139 65.6187,106.34473 83.0538,166.57682 l -1.2243,4.93771 4.0298,5.11118 c 11.5077,42.97044 17.6289,88.17512 17.6289,134.77746 0,11.44654 -0.3774,22.81147 -1.1018,34.06419 l -3.1013,5.21317 2.2953,5.66206 c -22.7707,266.25972 -246.111,475.2459 -518.2674,475.2459 -188.7558,0 -354.0266,-100.52966 -445.1809,-250.96706 l -1.0406,-3.7237 -2.0913,-1.5507 c -34.5539,-58.57937 -57.9673,-124.51433 -67.2815,-194.89733 l 2.1627,-5.356 -3.4278,-4.92753 c -2.1729,-19.302 -3.285,-38.88969 -3.285,-58.74261 0,-30.4527 2.6016,-60.2831 7.631,-89.31773 l 2.5506,-5.73348 -0.8877,-3.34621 c 11.8036,-61.70117 34.5132,-119.52561 66.0473,-171.38194 l 6.9781,-3.91752 0.8263,0.32645 c 0,0 2.377,-1.72413 3.6115,-2.2138 l 0.7753,-0.23465 c 0,0 12.0281,-20.10799 16.5782,-26.53518 0,0 5.5294,-3.55028 7.6003,-4.15219 0,0 1.265,-0.16317 1.9282,0.77536 0,0 5.0601,-4.40723 17.3331,-20.95473 0.041,-0.051 0.072,-0.11216 0.122,-0.17341 0,0 -1.163,-0.77534 -1.3365,-1.77515 -0.1836,-0.98957 1.1019,-6.02931 1.765,-7.31475 0.663,-1.28545 1.1017,-1.59151 1.1017,-1.59151 0,0 17.5678,-20.73028 32.1463,-33.0338 0,0 2.6525,-2.06078 6.9169,-2.55046 0,0 15.0172,-6.25378 33.2991,-22.28098 0,0 0.5202,-2.94834 4.8764,-8.75325 4.3665,-5.81508 14.854,-11.864829 22.6687,-13.639949 7.7942,-1.77514 9.1409,-0.38768 9.1409,-0.38768 l 0.6529,0.66312 5.2539,7.814669 c 0,0 5.7643,-3.223809 14.4155,-6.161939 8.641,-2.94837 9.9875,-2.67292 9.9875,-2.67292 l 8.4064,13.639979 -10.0692,20.40379 c 0,0 -6.5701,14.49695 -16.8842,22.29119 0,0 -4.8153,2.89735 -11.4262,1.29566 -6.6108,-1.60172 -10.9364,3.39722 -10.9364,3.39722 l -1.7343,1.42827 c 0,0 1.4282,-0.24484 3.5298,-1.05079 0,0 1.612,0.66312 2.7954,2.27504 1.1629,1.61188 9.3144,11.98723 9.3144,11.98723 0,0 0.05,8.53899 -4.2339,19.77131 -4.2747,11.22209 -14.9663,29.49373 -14.9663,29.49373 0,0 -7.4779,14.5275 -10.9669,22.98489 -3.4891,8.45739 -5.2541,18.00639 -4.9786,23.07675 0,0 1.9078,0.6325 7.2128,-2.06079 6.6823,-3.38703 11.0487,0.27545 11.0487,0.27545 0,0 7.3352,5.40702 10.6201,8.98788 2.673,2.94836 8.182,18.00637 2.1323,32.89096 0,0 -4.1012,10.28353 -14.0482,17.5881 0,0 -2.2035,3.38702 -15.5986,1.77515 -3.7543,-0.4387 -5.9682,-2.81576 -13.9971,-2.04041 -8.0085,0.78555 -12.5585,8.31456 -12.5585,8.31456 l 0.1328,-0.24484 c -7.0596,10.19171 -11.773,25.07631 -11.773,25.07631 l -0.5814,1.6833 c 0,0 -2.4587,5.19278 -2.9791,17.87375 -0.5407,13.09926 2.8974,31.71776 2.8974,31.71776 0,0 80.3502,-14.15007 100.7949,-0.56111 l 5.9172,5.42742 c 0,0 0.4692,1.77513 -0.3163,3.83592 -0.8163,2.08119 -3.8257,6.86588 -10.0694,11.35473 -6.2333,4.46843 -12.4667,16.14961 -3.1931,23.5052 10.5487,8.34517 17.2513,7.81466 34.9925,4.7745 17.7514,-3.02998 29.5652,-12.94624 29.5652,-12.94624 0,0 9.9162,-7.34537 7.9881,-16.60871 -1.918,-9.26332 -10.3753,-12.13008 -10.3753,-12.13008 0,0 -6.713,-4.31539 -1.4385,-12.62996 0,0 1.4385,-7.02912 26.0454,-13.42571 24.6274,-6.3864 69.4954,-15.50691 107.7016,-20.2916 0,0 -25.9027,-83.89033 -7.5291,-94.76556 0,0 4.4685,-3.01978 12.4873,-4.16238 l 7.3453,-0.37746 c 1.3365,-0.27548 3.4993,0.051 8.1207,0.45907 4.6215,0.38768 10.2121,0.77534 17.1188,-4.49905 6.8965,-5.29477 7.1108,-8.35536 7.1108,-8.35536"
       id="path32720-2"
       inkscape:connector-curvature="0"
       style="fill:#ffffff" />
    <path
       style="opacity:0.51327431;fill:url(#radialGradient32635-8)"
       inkscape:connector-curvature="0"
       id="path15818-8"
       d="m -1171.9423,254.44402 c 0.1436,-6.18237 -3.9993,-12.95643 -3.9993,-12.95643 l -0.2549,-0.59172 c 0,0 -4.9685,-9.6816 -13.2728,-12.52794 -8.3145,-2.83613 -15.0783,3.48905 -15.0783,3.48905 0,0 -1.1631,1.33645 -4.3665,5.03974 -3.1933,3.7135 -5.1724,6.79448 -12.2218,9.56939 -7.0598,2.76472 -14.0685,2.08118 -17.782,0.33667 -3.7237,-1.75474 -4.6623,-5.47843 -4.6623,-5.47843 0,0 -2.3363,-7.36579 -3.1933,-10.70182 -0.8773,-3.37681 -3.142,-17.28203 -3.142,-17.28203 0,0 -5.0195,-28.02465 -5.458,-33.70711 0,0 15.0477,-1.28544 37.6042,-7.90648 23.4643,-6.86589 31.0444,-12.30351 31.0444,-12.30351 0,0 -4.4073,-1.59151 -4.9378,-6.75367 -0.5202,-5.17238 -0.908,-12.14028 -0.908,-12.14028 0,0 -0.908,-5.10095 4.9276,-11.61997 5.8355,-6.52922 13.8134,-8.80426 17.986,-9.72243 4.1827,-0.90798 13.0686,-1.73432 21.3423,-1.36705 8.2839,0.38766 12.9258,1.14262 16.2517,2.96876 3.3462,1.81592 3.6421,6.22316 3.6421,6.22316 l -0.081,11.69139 c 0,0 -0.3776,4.10118 2.6625,5.39681 0,0 5.152,3.11158 22.4034,1.35686 0,0 7.3455,-1.28544 18.8328,-4.69288 11.4772,-3.41765 42.1238,-12.53815 46.4595,-13.68076 4.3358,-1.13243 9.7224,-2.96876 16.7924,-4.78471 7.0494,-1.82614 20.8018,-6.38639 23.5358,-7.44739 2.7545,-1.06099 18.4756,-6.30478 29.861,-8.26354 11.3752,-1.98938 22.7095,-1.89756 28.6877,1.52008 0,0 3.6625,3.10137 5.3153,6.75365 1.6628,3.65229 4.8663,8.80427 9.4061,11.0997 4.6419,2.31583 7.6719,3.78491 19.1286,2.78512 0,0 0.2347,-0.97939 -4.0195,-3.77472 -4.2542,-2.82592 -10.1102,-7.15153 -10.1102,-7.15153 0,0 -3.4074,-2.49946 -4.1726,-4.56025 -0.7447,-2.06079 -0.4386,-3.12178 -0.4386,-3.12178 l 8.9573,-14.343889 c 0,0 0,-1.75474 5.1622,-2.42807 5.1621,-0.68353 10.9364,-1.36707 17.7615,-3.1932 6.825,-1.81593 8.039,-3.18301 8.039,-3.18301 l 5.9172,1.81595 c 0,0 36.1759,29.106079 47.4898,36.553469 l 2.0404,-2.43826 c 0,0 4.4378,0.18363 8.4269,1.75472 4.0093,1.5711 9.9877,5.73348 9.9877,5.73348 0,0 16.4454,13.36449 21.1281,22.44421 l 2.275,6.92711 -1.0407,1.64249 c 0,0 9.3654,13.3339 21.3832,26.54538 0,0 12.5179,16.97599 17.2312,21.322 0,0 -1.1018,-4.07057 -2.0506,-8.66143 l 3.4279,-2.30564 2.0709,-1.46907 6.2946,2.6423 c 36.4616,49.08139 65.6187,106.34473 83.0538,166.57682 l -1.2243,4.93771 4.0298,5.11118 c 11.5077,42.97044 17.6289,88.17512 17.6289,134.77746 0,11.44654 -0.3774,22.81147 -1.1018,34.06419 l -3.1013,5.21317 2.2953,5.66206 c -22.7707,266.25972 -246.111,475.2459 -518.2674,475.2459 -188.7558,0 -354.0266,-100.52966 -445.1809,-250.96706 l -1.0406,-3.7237 -2.0913,-1.5507 c -34.5539,-58.57937 -57.9673,-124.51433 -67.2815,-194.89733 l 2.1627,-5.356 -3.4278,-4.92753 c -2.1729,-19.302 -3.285,-38.88969 -3.285,-58.74261 0,-30.4527 2.6016,-60.2831 7.631,-89.31773 l 2.5506,-5.73348 -0.8877,-3.34621 c 11.8036,-61.70117 34.5132,-119.52561 66.0473,-171.38194 l 6.9781,-3.91752 0.8263,0.32645 c 0,0 2.377,-1.72413 3.6115,-2.2138 l 0.7753,-0.23465 c 0,0 12.0281,-20.10799 16.5782,-26.53518 0,0 5.5294,-3.55028 7.6003,-4.15219 0,0 1.265,-0.16317 1.9282,0.77536 0,0 5.0601,-4.40723 17.3331,-20.95473 0.041,-0.051 0.072,-0.11216 0.122,-0.17341 0,0 -1.163,-0.77534 -1.3365,-1.77515 -0.1836,-0.98957 1.1019,-6.02931 1.765,-7.31475 0.663,-1.28545 1.1017,-1.59151 1.1017,-1.59151 0,0 17.5678,-20.73028 32.1463,-33.0338 0,0 2.6525,-2.06078 6.9169,-2.55046 0,0 15.0172,-6.25378 33.2991,-22.28098 0,0 0.5202,-2.94834 4.8764,-8.75325 4.3665,-5.81508 14.854,-11.864829 22.6687,-13.639949 7.7942,-1.77514 9.1409,-0.38768 9.1409,-0.38768 l 0.6529,0.66312 5.2539,7.814669 c 0,0 5.7643,-3.223809 14.4155,-6.161939 8.641,-2.94837 9.9875,-2.67292 9.9875,-2.67292 l 8.4064,13.639979 -10.0692,20.40379 c 0,0 -6.5701,14.49695 -16.8842,22.29119 0,0 -4.8153,2.89735 -11.4262,1.29566 -6.6108,-1.60172 -10.9364,3.39722 -10.9364,3.39722 l -1.7343,1.42827 c 0,0 1.4282,-0.24484 3.5298,-1.05079 0,0 1.612,0.66312 2.7954,2.27504 1.1629,1.61188 9.3144,11.98723 9.3144,11.98723 0,0 0.05,8.53899 -4.2339,19.77131 -4.2747,11.22209 -14.9663,29.49373 -14.9663,29.49373 0,0 -7.4779,14.5275 -10.9669,22.98489 -3.4891,8.45739 -5.2541,18.00639 -4.9786,23.07675 0,0 1.9078,0.6325 7.2128,-2.06079 6.6823,-3.38703 11.0487,0.27545 11.0487,0.27545 0,0 7.3352,5.40702 10.6201,8.98788 2.673,2.94836 8.182,18.00637 2.1323,32.89096 0,0 -4.1012,10.28353 -14.0482,17.5881 0,0 -2.2035,3.38702 -15.5986,1.77515 -3.7543,-0.4387 -5.9682,-2.81576 -13.9971,-2.04041 -8.0085,0.78555 -12.5585,8.31456 -12.5585,8.31456 l 0.1328,-0.24484 c -7.0596,10.19171 -11.773,25.07631 -11.773,25.07631 l -0.5814,1.6833 c 0,0 -2.4587,5.19278 -2.9791,17.87375 -0.5407,13.09926 2.8974,31.71776 2.8974,31.71776 0,0 80.3502,-14.15007 100.7949,-0.56111 l 5.9172,5.42742 c 0,0 0.4692,1.77513 -0.3163,3.83592 -0.8163,2.08119 -3.8257,6.86588 -10.0694,11.35473 -6.2333,4.46843 -12.4667,16.14961 -3.1931,23.5052 10.5487,8.34517 17.2513,7.81466 34.9925,4.7745 17.7514,-3.02998 29.5652,-12.94624 29.5652,-12.94624 0,0 9.9162,-7.34537 7.9881,-16.60871 -1.918,-9.26332 -10.3753,-12.13008 -10.3753,-12.13008 0,0 -6.713,-4.31539 -1.4385,-12.62996 0,0 1.4385,-7.02912 26.0454,-13.42571 24.6274,-6.3864 69.4954,-15.50691 107.7016,-20.2916 0,0 -25.9027,-83.89033 -7.5291,-94.76556 0,0 4.4685,-3.01978 12.4873,-4.16238 l 7.3453,-0.37746 c 1.3365,-0.27548 3.4993,0.051 8.1207,0.45907 4.6215,0.38768 10.2121,0.77534 17.1188,-4.49905 6.8965,-5.29477 7.1108,-8.35536 7.1108,-8.35536" />
    <text
       xml:space="preserve"
       style="font-size:84.31409454px;font-style:normal;font-weight:normal;line-height:125%;letter-spacing:0px;word-spacing:0px;fill:#ffffff;fill-opacity:1;stroke:none;font-family:Sans"
       x="-1033.6766"
       y="1097.5721"
       id="text32712-8"
       sodipodi:linespacing="125%"><tspan
         sodipodi:role="line"
         id="tspan32714-1"
         x="-1033.6766"
         y="1097.5721">falanster.by</tspan></text>
    <text
       xml:space="preserve"
       style="font-size:709.5581665px;font-style:normal;font-weight:normal;line-height:125%;letter-spacing:0px;word-spacing:0px;fill:#4d4d4d;fill-opacity:1;stroke:none;font-family:Sans"
       x="-1385.0676"
       y="837.44861"
       id="text32716-9"
       sodipodi:linespacing="125%"><tspan
         sodipodi:role="line"
         id="tspan32718-8"
         x="-1385.0676"
         y="837.44861">Ў</tspan></text>
  </g>
</svg>
