<?xml version="1.0" encoding="UTF-8" standalone="no"?>
<!-- Created with Inkscape (http://www.inkscape.org/) -->

<svg
   xmlns:dc="http://purl.org/dc/elements/1.1/"
   xmlns:cc="http://creativecommons.org/ns#"
   xmlns:rdf="http://www.w3.org/1999/02/22-rdf-syntax-ns#"
   xmlns:svg="http://www.w3.org/2000/svg"
   xmlns="http://www.w3.org/2000/svg"
   xmlns:xlink="http://www.w3.org/1999/xlink"
   xmlns:sodipodi="http://sodipodi.sourceforge.net/DTD/sodipodi-0.dtd"
   xmlns:inkscape="http://www.inkscape.org/namespaces/inkscape"
   width="744.09448819"
   height="1052.3622047"
   id="svg17861"
   version="1.1"
   inkscape:version="0.48.2 r9819"
   sodipodi:docname="wiki_grammar_nazi_1_2.svg"
   inkscape:export-filename="D:\Dropbox\Photos\falanster\wikification\nalepki\wiki_grammar_nazi_1_2.png"
   inkscape:export-xdpi="77.01712"
   inkscape:export-ydpi="77.01712">
  <defs
     id="defs17863">
    <radialGradient
       gradientUnits="userSpaceOnUse"
       gradientTransform="translate(192.3999,-648.9004)"
       r="68.686401"
       cy="704.17682"
       cx="-145.4707"
       id="path3930_1_">
      <stop
         id="stop3037"
         style="stop-color:#FFFFFF"
         offset="0" />
      <stop
         id="stop3039"
         style="stop-color:#EAEAEB"
         offset="0.4835" />
      <stop
         id="stop3041"
         style="stop-color:#A9ABAE"
         offset="0.9451" />
      <stop
         id="stop3043"
         style="stop-color:#999B9E"
         offset="1" />
    </radialGradient>
    <linearGradient
       gradientTransform="matrix(1,0,0,-1,0,156)"
       y2="58.770302"
       x2="112.733"
       y1="131.52049"
       x1="66.232903"
       gradientUnits="userSpaceOnUse"
       id="path3945_1_">
      <stop
         id="stop3048"
         style="stop-color:#8A8A8A"
         offset="0" />
      <stop
         id="stop3050"
         style="stop-color:#606060"
         offset="0.5687" />
      <stop
         id="stop3052"
         style="stop-color:#FFFFFF"
         offset="0.5914" />
      <stop
         id="stop3054"
         style="stop-color:#585858"
         offset="0.6116" />
      <stop
         id="stop3056"
         style="stop-color:#303030"
         offset="1" />
    </linearGradient>
    <linearGradient
       id="path3954_1_"
       gradientUnits="userSpaceOnUse"
       x1="35.350101"
       y1="138.2383"
       x2="55.350101"
       y2="44.8633"
       gradientTransform="matrix(1,0,0,-1,0,156)">
      <stop
         offset="0"
         style="stop-color:#A8A9AB"
         id="stop3061" />
      <stop
         offset="1"
         style="stop-color:#636668"
         id="stop3063" />
    </linearGradient>
    <linearGradient
       id="path3961_1_"
       gradientUnits="userSpaceOnUse"
       x1="31.0259"
       y1="137.3105"
       x2="51.026001"
       y2="43.934898"
       gradientTransform="matrix(1,0,0,-1,0,156)">
      <stop
         offset="0"
         style="stop-color:#A8A9AB"
         id="stop3067" />
      <stop
         offset="1"
         style="stop-color:#636668"
         id="stop3069" />
    </linearGradient>
    <linearGradient
       gradientTransform="matrix(1,0,0,-1,0,156)"
       y2="90.865196"
       x2="83.798798"
       y1="90.865196"
       x1="54.716301"
       gradientUnits="userSpaceOnUse"
       id="path3968_1_">
      <stop
         id="stop3073"
         style="stop-color:#231F20"
         offset="0" />
      <stop
         id="stop3075"
         style="stop-color:#474747"
         offset="1" />
    </linearGradient>
    <linearGradient
       gradientTransform="translate(192.3999,-648.9004)"
       y2="762.09747"
       x2="-94.070099"
       y1="672.19342"
       x1="-123.5908"
       gradientUnits="userSpaceOnUse"
       id="path4013_1_">
      <stop
         id="stop3092"
         style="stop-color:#FFFFFF"
         offset="0" />
      <stop
         id="stop3094"
         style="stop-color:#FCFCFC"
         offset="0.0094" />
      <stop
         id="stop3096"
         style="stop-color:#EEEEEE"
         offset="0.0655" />
      <stop
         id="stop3098"
         style="stop-color:#E5E5E5"
         offset="0.1342" />
      <stop
         id="stop3100"
         style="stop-color:#E3E3E3"
         offset="0.2515" />
      <stop
         id="stop3102"
         style="stop-color:#8A8A8A"
         offset="0.3357" />
      <stop
         id="stop3104"
         style="stop-color:#B8B8B8"
         offset="0.4422" />
      <stop
         id="stop3106"
         style="stop-color:#3B3B3B"
         offset="1" />
    </linearGradient>
    <linearGradient
       gradientTransform="matrix(1,0,0,-1,0,156)"
       y2="68.371902"
       x2="119.5471"
       y1="129.1221"
       x1="70.421898"
       gradientUnits="userSpaceOnUse"
       id="path4026_1_">
      <stop
         id="stop3110"
         style="stop-color:#EFF0F0"
         offset="0" />
      <stop
         id="stop3112"
         style="stop-color:#F0F1F2"
         offset="0.5914" />
      <stop
         id="stop3114"
         style="stop-color:#787878"
         offset="0.599" />
      <stop
         id="stop3116"
         style="stop-color:#EEEFF0"
         offset="0.6456" />
      <stop
         id="stop3118"
         style="stop-color:#D8D9DB"
         offset="1" />
    </linearGradient>
    <linearGradient
       gradientTransform="translate(192.3999,-648.9004)"
       y2="760.00238"
       x2="-87.572601"
       y1="669.86823"
       x1="-117.1689"
       gradientUnits="userSpaceOnUse"
       id="path4033_1_">
      <stop
         id="stop3122"
         style="stop-color:#FFFFFF"
         offset="0" />
      <stop
         id="stop3124"
         style="stop-color:#E4E5E6"
         offset="1" />
    </linearGradient>
    <linearGradient
       gradientTransform="matrix(1,0,0,-1,0,156)"
       y2="49.609699"
       x2="79.683899"
       y1="130.72459"
       x1="54.653301"
       gradientUnits="userSpaceOnUse"
       id="path4042_1_">
      <stop
         id="stop3128"
         style="stop-color:#FFFFFF"
         offset="0" />
      <stop
         id="stop3130"
         style="stop-color:#F9F9F9"
         offset="0.7473" />
      <stop
         id="stop3132"
         style="stop-color:#D5D7D8"
         offset="1" />
    </linearGradient>
    <linearGradient
       gradientTransform="translate(192.3999,-648.9004)"
       y2="767.23358"
       x2="-134.8338"
       y1="673.1875"
       x1="-115.5068"
       gradientUnits="userSpaceOnUse"
       id="path4065_1_">
      <stop
         id="stop3144"
         style="stop-color:#FFFFFF"
         offset="0" />
      <stop
         id="stop3146"
         style="stop-color:#E4E5E6"
         offset="1" />
    </linearGradient>
    <linearGradient
       gradientTransform="matrix(1,0,0,-1,0,156)"
       y2="63.503799"
       x2="37.245701"
       y1="122.9229"
       x1="32.516602"
       gradientUnits="userSpaceOnUse"
       id="path4072_1_">
      <stop
         id="stop3150"
         style="stop-color:#989A9C"
         offset="0.2198" />
      <stop
         id="stop3152"
         style="stop-color:#FFFFFF"
         offset="0.2527" />
    </linearGradient>
    <linearGradient
       gradientTransform="translate(192.3999,-648.9004)"
       y2="757.95862"
       x2="-171.6926"
       y1="665.24121"
       x1="-152.6387"
       gradientUnits="userSpaceOnUse"
       id="path4079_1_">
      <stop
         id="stop3156"
         style="stop-color:#FFFFFF"
         offset="0" />
      <stop
         id="stop3158"
         style="stop-color:#E4E5E6"
         offset="1" />
    </linearGradient>
    <linearGradient
       gradientTransform="translate(192.3999,-648.9004)"
       y2="756.41431"
       x2="-130.1433"
       y1="756.375"
       x1="-130.1353"
       gradientUnits="userSpaceOnUse"
       id="path4086_1_">
      <stop
         id="stop3162"
         style="stop-color:#FFFFFF"
         offset="0" />
      <stop
         id="stop3164"
         style="stop-color:#E4E5E6"
         offset="1" />
    </linearGradient>
    <linearGradient
       gradientTransform="translate(192.3999,-648.9004)"
       y2="766.11298"
       x2="-140.54491"
       y1="671.67871"
       x1="-121.1382"
       gradientUnits="userSpaceOnUse"
       id="path4097_1_">
      <stop
         id="stop3170"
         style="stop-color:#FFFFFF"
         offset="0" />
      <stop
         id="stop3172"
         style="stop-color:#E4E5E6"
         offset="1" />
    </linearGradient>
    <linearGradient
       gradientTransform="translate(192.3999,-648.9004)"
       y2="763.14862"
       x2="-155.0065"
       y1="668.64838"
       x1="-135.5864"
       gradientUnits="userSpaceOnUse"
       id="path4104_1_">
      <stop
         id="stop3176"
         style="stop-color:#FFFFFF"
         offset="0" />
      <stop
         id="stop3178"
         style="stop-color:#E4E5E6"
         offset="1" />
    </linearGradient>
    <linearGradient
       gradientTransform="translate(192.3999,-648.9004)"
       y2="764.86401"
       x2="-146.8838"
       y1="670.07812"
       x1="-127.4048"
       gradientUnits="userSpaceOnUse"
       id="path4111_1_">
      <stop
         id="stop3182"
         style="stop-color:#FFFFFF"
         offset="0" />
      <stop
         id="stop3184"
         style="stop-color:#E4E5E6"
         offset="1" />
    </linearGradient>
    <linearGradient
       gradientTransform="translate(192.3999,-648.9004)"
       y2="767.05621"
       x2="-138.85249"
       y1="667.99609"
       x1="-118.4951"
       gradientUnits="userSpaceOnUse"
       id="path4118_1_">
      <stop
         id="stop3188"
         style="stop-color:#FFFFFF"
         offset="0" />
      <stop
         id="stop3190"
         style="stop-color:#E4E5E6"
         offset="1" />
    </linearGradient>
    <linearGradient
       gradientTransform="translate(192.3999,-648.9004)"
       y2="767.29742"
       x2="-134.7851"
       y1="672.88483"
       x1="-115.3828"
       gradientUnits="userSpaceOnUse"
       id="path4125_1_">
      <stop
         id="stop3194"
         style="stop-color:#FFFFFF"
         offset="0" />
      <stop
         id="stop3196"
         style="stop-color:#E4E5E6"
         offset="1" />
    </linearGradient>
    <linearGradient
       id="path4176_1_"
       gradientUnits="userSpaceOnUse"
       x1="-168.85941"
       y1="731.60352"
       x2="-168.6685"
       y2="731.60352"
       gradientTransform="translate(192.3999,-648.9004)">
      <stop
         offset="0"
         style="stop-color:#808080"
         id="stop3215" />
      <stop
         offset="0.0868"
         style="stop-color:#7A7A7A"
         id="stop3217" />
      <stop
         offset="0.36"
         style="stop-color:#6B6B6B"
         id="stop3219" />
      <stop
         offset="0.5192"
         style="stop-color:#686868"
         id="stop3221" />
      <stop
         offset="0.6377"
         style="stop-color:#5F5F5F"
         id="stop3223" />
      <stop
         offset="0.7431"
         style="stop-color:#4E4E4E"
         id="stop3225" />
      <stop
         offset="0.8408"
         style="stop-color:#383838"
         id="stop3227" />
      <stop
         offset="0.9324"
         style="stop-color:#1B1B1B"
         id="stop3229" />
      <stop
         offset="1"
         style="stop-color:#000000"
         id="stop3231" />
    </linearGradient>
    <linearGradient
       id="path4195_1_"
       gradientUnits="userSpaceOnUse"
       x1="-168.6377"
       y1="726.84381"
       x2="-74.017097"
       y2="726.84381"
       gradientTransform="translate(192.3999,-648.9004)">
      <stop
         offset="0"
         style="stop-color:#808080"
         id="stop3235" />
      <stop
         offset="0.0868"
         style="stop-color:#7A7A7A"
         id="stop3237" />
      <stop
         offset="0.3817"
         style="stop-color:#828282"
         id="stop3239" />
      <stop
         offset="0.5185"
         style="stop-color:#808080"
         id="stop3241" />
      <stop
         offset="0.5677"
         style="stop-color:#797979"
         id="stop3243" />
      <stop
         offset="0.6027"
         style="stop-color:#6E6E6E"
         id="stop3245" />
      <stop
         offset="0.608"
         style="stop-color:#6B6B6B"
         id="stop3247" />
      <stop
         offset="1"
         style="stop-color:#4E4E4E"
         id="stop3249" />
    </linearGradient>
    <linearGradient
       gradientTransform="translate(192.3999,-648.9004)"
       y2="708.39447"
       x2="-75.6362"
       y1="708.39447"
       x1="-175.4458"
       gradientUnits="userSpaceOnUse"
       id="path4202_1_">
      <stop
         id="stop3253"
         style="stop-color:#555555"
         offset="0" />
      <stop
         id="stop3255"
         style="stop-color:#231F20"
         offset="1" />
    </linearGradient>
    <linearGradient
       gradientTransform="translate(192.3999,-648.9004)"
       y2="687.9209"
       x2="-83.541"
       y1="687.9209"
       x1="-175.144"
       gradientUnits="userSpaceOnUse"
       id="path4211_1_">
      <stop
         id="stop3259"
         style="stop-color:#A0A0A0"
         offset="0" />
      <stop
         id="stop3261"
         style="stop-color:#656767"
         offset="0.0769" />
      <stop
         id="stop3263"
         style="stop-color:#717375"
         offset="1" />
    </linearGradient>
    <linearGradient
       gradientTransform="translate(192.3999,-648.9004)"
       y2="713.79102"
       x2="-172.3848"
       y1="713.79102"
       x1="-172.3848"
       gradientUnits="userSpaceOnUse"
       id="path4246_1_">
      <stop
         id="stop3272"
         style="stop-color:#FFFFFF"
         offset="0" />
      <stop
         id="stop3274"
         style="stop-color:#F4F4F4"
         offset="0.078" />
      <stop
         id="stop3276"
         style="stop-color:#CECECE"
         offset="0.3807" />
      <stop
         id="stop3278"
         style="stop-color:#BFBFBF"
         offset="0.5396" />
      <stop
         id="stop3280"
         style="stop-color:#7C7C7C"
         offset="0.8357" />
      <stop
         id="stop3282"
         style="stop-color:#A8A8A8"
         offset="0.8996" />
      <stop
         id="stop3284"
         style="stop-color:#9A9A9A"
         offset="0.9093" />
      <stop
         id="stop3286"
         style="stop-color:#7D7D7D"
         offset="0.9327" />
      <stop
         id="stop3288"
         style="stop-color:#686868"
         offset="0.9558" />
      <stop
         id="stop3290"
         style="stop-color:#5B5B5B"
         offset="0.9785" />
      <stop
         id="stop3292"
         style="stop-color:#575757"
         offset="1" />
    </linearGradient>
    <linearGradient
       gradientTransform="translate(192.3999,-648.9004)"
       y2="701.52533"
       x2="-67.171303"
       y1="713.55078"
       x1="-175.7168"
       gradientUnits="userSpaceOnUse"
       id="path4271_1_">
      <stop
         id="stop3296"
         style="stop-color:#FFFFFF"
         offset="0" />
      <stop
         id="stop3298"
         style="stop-color:#F4F4F4"
         offset="0.078" />
      <stop
         id="stop3300"
         style="stop-color:#CECECE"
         offset="0.3807" />
      <stop
         id="stop3302"
         style="stop-color:#BFBFBF"
         offset="0.5396" />
      <stop
         id="stop3304"
         style="stop-color:#7C7C7C"
         offset="0.8357" />
      <stop
         id="stop3306"
         style="stop-color:#A8A8A8"
         offset="0.8996" />
      <stop
         id="stop3308"
         style="stop-color:#9A9A9A"
         offset="0.9093" />
      <stop
         id="stop3310"
         style="stop-color:#7D7D7D"
         offset="0.9327" />
      <stop
         id="stop3312"
         style="stop-color:#686868"
         offset="0.9558" />
      <stop
         id="stop3314"
         style="stop-color:#5B5B5B"
         offset="0.9785" />
      <stop
         id="stop3316"
         style="stop-color:#575757"
         offset="1" />
    </linearGradient>
    <linearGradient
       gradientTransform="translate(192.3999,-648.9004)"
       y2="699.89038"
       x2="-53.160702"
       y1="713.5166"
       x1="-176.15379"
       gradientUnits="userSpaceOnUse"
       id="path4296_1_">
      <stop
         id="stop3320"
         style="stop-color:#FFFFFF"
         offset="0" />
      <stop
         id="stop3322"
         style="stop-color:#F4F4F4"
         offset="0.078" />
      <stop
         id="stop3324"
         style="stop-color:#CECECE"
         offset="0.3807" />
      <stop
         id="stop3326"
         style="stop-color:#BFBFBF"
         offset="0.5396" />
      <stop
         id="stop3328"
         style="stop-color:#7C7C7C"
         offset="0.8357" />
      <stop
         id="stop3330"
         style="stop-color:#A8A8A8"
         offset="0.8996" />
      <stop
         id="stop3332"
         style="stop-color:#9A9A9A"
         offset="0.9093" />
      <stop
         id="stop3334"
         style="stop-color:#7D7D7D"
         offset="0.9327" />
      <stop
         id="stop3336"
         style="stop-color:#686868"
         offset="0.9558" />
      <stop
         id="stop3338"
         style="stop-color:#5B5B5B"
         offset="0.9785" />
      <stop
         id="stop3340"
         style="stop-color:#575757"
         offset="1" />
    </linearGradient>
    <linearGradient
       gradientTransform="matrix(1,0,0,-1,0,156)"
       y2="104.051"
       x2="117.1957"
       y1="84.676804"
       x1="21.2129"
       gradientUnits="userSpaceOnUse"
       id="path4307_1_">
      <stop
         id="stop3344"
         style="stop-color:#EDEDEE"
         offset="0" />
      <stop
         id="stop3346"
         style="stop-color:#FFFFFF"
         offset="0.4176" />
      <stop
         id="stop3348"
         style="stop-color:#F8F9F9"
         offset="0.6264" />
      <stop
         id="stop3350"
         style="stop-color:#BFC0C2"
         offset="1" />
    </linearGradient>
    <linearGradient
       gradientTransform="matrix(1,0,0,-1,0,156)"
       y2="125.2676"
       x2="27.957001"
       y1="125.2676"
       x1="23.4722"
       gradientUnits="userSpaceOnUse"
       id="path4320_1_">
      <stop
         id="stop3357"
         style="stop-color:#E2E3E4"
         offset="0" />
      <stop
         id="stop3359"
         style="stop-color:#FFFFFF"
         offset="0.5055" />
    </linearGradient>
    <linearGradient
       id="path4683_1_"
       gradientUnits="userSpaceOnUse"
       x1="24.1982"
       y1="73.411102"
       x2="118.2354"
       y2="95.777397"
       gradientTransform="matrix(1,0,0,-1,0,156)">
      <stop
         offset="0"
         style="stop-color:#EDEDEE"
         id="stop3539" />
      <stop
         offset="0.4176"
         style="stop-color:#FFFFFF"
         id="stop3541" />
      <stop
         offset="0.6264"
         style="stop-color:#F8F9F9"
         id="stop3543" />
      <stop
         offset="0.9505"
         style="stop-color:#B2B4B6"
         id="stop3545" />
    </linearGradient>
    <linearGradient
       id="path4694_1_"
       gradientUnits="userSpaceOnUse"
       x1="26.6567"
       y1="63.116199"
       x2="121.7809"
       y2="85.740997"
       gradientTransform="matrix(1,0,0,-1,0,156)">
      <stop
         offset="0"
         style="stop-color:#EDEDEE"
         id="stop3549" />
      <stop
         offset="0.4176"
         style="stop-color:#FFFFFF"
         id="stop3551" />
      <stop
         offset="0.6264"
         style="stop-color:#F8F9F9"
         id="stop3553" />
      <stop
         offset="0.9505"
         style="stop-color:#B2B4B6"
         id="stop3555" />
    </linearGradient>
    <linearGradient
       id="path4705_1_"
       gradientUnits="userSpaceOnUse"
       x1="25.4326"
       y1="68.258797"
       x2="120.5521"
       y2="90.8825"
       gradientTransform="matrix(1,0,0,-1,0,156)">
      <stop
         offset="0"
         style="stop-color:#EDEDEE"
         id="stop3559" />
      <stop
         offset="0.4176"
         style="stop-color:#FFFFFF"
         id="stop3561" />
      <stop
         offset="0.6264"
         style="stop-color:#F8F9F9"
         id="stop3563" />
      <stop
         offset="0.9505"
         style="stop-color:#B2B4B6"
         id="stop3565" />
    </linearGradient>
    <linearGradient
       id="path4716_1_"
       gradientUnits="userSpaceOnUse"
       x1="24.7334"
       y1="71.200203"
       x2="119.8123"
       y2="93.814201"
       gradientTransform="matrix(1,0,0,-1,0,156)">
      <stop
         offset="0"
         style="stop-color:#EDEDEE"
         id="stop3569" />
      <stop
         offset="0.4176"
         style="stop-color:#FFFFFF"
         id="stop3571" />
      <stop
         offset="0.6264"
         style="stop-color:#F8F9F9"
         id="stop3573" />
      <stop
         offset="0.9505"
         style="stop-color:#B2B4B6"
         id="stop3575" />
    </linearGradient>
    <linearGradient
       id="path4727_1_"
       gradientUnits="userSpaceOnUse"
       x1="24.8867"
       y1="70.617203"
       x2="119.3196"
       y2="93.077499"
       gradientTransform="matrix(1,0,0,-1,0,156)">
      <stop
         offset="0"
         style="stop-color:#EDEDEE"
         id="stop3579" />
      <stop
         offset="0.4176"
         style="stop-color:#FFFFFF"
         id="stop3581" />
      <stop
         offset="0.6264"
         style="stop-color:#F8F9F9"
         id="stop3583" />
      <stop
         offset="0.9505"
         style="stop-color:#B2B4B6"
         id="stop3585" />
    </linearGradient>
    <linearGradient
       id="path4738_1_"
       gradientUnits="userSpaceOnUse"
       x1="26.111799"
       y1="65.625"
       x2="121.1811"
       y2="88.236702"
       gradientTransform="matrix(1,0,0,-1,0,156)">
      <stop
         offset="0"
         style="stop-color:#EDEDEE"
         id="stop3589" />
      <stop
         offset="0.4176"
         style="stop-color:#FFFFFF"
         id="stop3591" />
      <stop
         offset="0.6264"
         style="stop-color:#F8F9F9"
         id="stop3593" />
      <stop
         offset="0.9505"
         style="stop-color:#B2B4B6"
         id="stop3595" />
    </linearGradient>
    <linearGradient
       gradientTransform="matrix(1,0,0,-1,0,156)"
       y2="126.7951"
       x2="111.546"
       y1="106.2803"
       x1="22.574699"
       gradientUnits="userSpaceOnUse"
       id="path4749_1_">
      <stop
         id="stop3600"
         style="stop-color:#FFFFFF"
         offset="0" />
      <stop
         id="stop3602"
         style="stop-color:#FFFFFF"
         offset="0.6538" />
      <stop
         id="stop3604"
         style="stop-color:#CBCCCE"
         offset="1" />
    </linearGradient>
    <linearGradient
       gradientTransform="translate(192.3999,-648.9004)"
       y2="684.91022"
       x2="-126.4229"
       y1="684.91022"
       x1="-158.8101"
       gradientUnits="userSpaceOnUse"
       id="path4782_1_">
      <stop
         id="stop3617"
         style="stop-color:#696969"
         offset="0" />
      <stop
         id="stop3619"
         style="stop-color:#2E2E2E"
         offset="0.3702" />
      <stop
         id="stop3621"
         style="stop-color:#424242"
         offset="0.4554" />
      <stop
         id="stop3623"
         style="stop-color:#303030"
         offset="0.6014" />
      <stop
         id="stop3625"
         style="stop-color:#4A4A4A"
         offset="0.6947" />
      <stop
         id="stop3627"
         style="stop-color:#666666"
         offset="1" />
    </linearGradient>
    <linearGradient
       gradientTransform="translate(192.3999,-648.9004)"
       y2="684.10248"
       x2="-126.5479"
       y1="684.10248"
       x1="-158.4189"
       gradientUnits="userSpaceOnUse"
       id="path4811_1_">
      <stop
         id="stop3631"
         style="stop-color:#525252"
         offset="0" />
      <stop
         id="stop3633"
         style="stop-color:#333333"
         offset="0.1856" />
      <stop
         id="stop3635"
         style="stop-color:#AEAEAE"
         offset="0.354" />
      <stop
         id="stop3637"
         style="stop-color:#ADADAD"
         offset="0.4199" />
      <stop
         id="stop3639"
         style="stop-color:#9D9D9D"
         offset="0.4276" />
      <stop
         id="stop3641"
         style="stop-color:#818181"
         offset="0.4433" />
      <stop
         id="stop3643"
         style="stop-color:#6A6A6A"
         offset="0.4611" />
      <stop
         id="stop3645"
         style="stop-color:#585858"
         offset="0.4814" />
      <stop
         id="stop3647"
         style="stop-color:#4C4C4C"
         offset="0.506" />
      <stop
         id="stop3649"
         style="stop-color:#444444"
         offset="0.539" />
      <stop
         id="stop3651"
         style="stop-color:#424242"
         offset="0.6166" />
      <stop
         id="stop3653"
         style="stop-color:#454545"
         offset="0.6684" />
      <stop
         id="stop3655"
         style="stop-color:#BDBDBD"
         offset="1" />
    </linearGradient>
    <linearGradient
       gradientTransform="translate(192.3999,-648.9004)"
       y2="687.5658"
       x2="-154.1557"
       y1="694.37109"
       x1="-153.127"
       gradientUnits="userSpaceOnUse"
       id="path4818_1_">
      <stop
         id="stop3659"
         style="stop-color:#969696"
         offset="0" />
      <stop
         id="stop3661"
         style="stop-color:#000000"
         offset="1" />
    </linearGradient>
    <linearGradient
       gradientTransform="matrix(1,0,0,-1,0,156)"
       y2="117.211"
       x2="39.4879"
       y1="109.627"
       x1="38.737801"
       gradientUnits="userSpaceOnUse"
       id="path4831_1_">
      <stop
         id="stop3667"
         style="stop-color:#333333"
         offset="0" />
      <stop
         id="stop3669"
         style="stop-color:#000000"
         offset="0.431" />
      <stop
         id="stop3671"
         style="stop-color:#2E2E2E"
         offset="1" />
    </linearGradient>
    <radialGradient
       gradientUnits="userSpaceOnUse"
       gradientTransform="translate(192.3999,-648.9004)"
       r="72.751701"
       cy="685.40039"
       cx="-138.23289"
       id="path4846_1_">
      <stop
         id="stop3678"
         style="stop-color:#000000;stop-opacity:0"
         offset="0" />
      <stop
         id="stop3680"
         style="stop-color:#000000;stop-opacity:0.08"
         offset="0.8022" />
      <stop
         id="stop3682"
         style="stop-color:#000000;stop-opacity:0.3882"
         offset="1" />
    </radialGradient>
    <radialGradient
       inkscape:collect="always"
       xlink:href="#path3930_1_"
       id="radialGradient33812"
       gradientUnits="userSpaceOnUse"
       gradientTransform="matrix(9.1362377,0,0,9.1362377,1634.2676,-5970.0665)"
       cx="-145.4707"
       cy="704.17682"
       r="68.686401" />
  </defs>
  <sodipodi:namedview
     id="base"
     pagecolor="#ffffff"
     bordercolor="#666666"
     borderopacity="1.0"
     inkscape:pageopacity="0.0"
     inkscape:pageshadow="2"
     inkscape:zoom="0.24748737"
     inkscape:cx="36.239124"
     inkscape:cy="483.87226"
     inkscape:document-units="px"
     inkscape:current-layer="layer1"
     showgrid="false"
     inkscape:window-width="1366"
     inkscape:window-height="706"
     inkscape:window-x="-8"
     inkscape:window-y="-8"
     inkscape:window-maximized="1" />
  <metadata
     id="metadata17866">
    <rdf:RDF>
      <cc:Work
         rdf:about="">
        <dc:format>image/svg+xml</dc:format>
        <dc:type
           rdf:resource="http://purl.org/dc/dcmitype/StillImage" />
        <dc:title></dc:title>
      </cc:Work>
    </rdf:RDF>
  </metadata>
  <g
     inkscape:label="Layer 1"
     inkscape:groupmode="layer"
     id="layer1">
    <rect
       style="fill:#d40000;fill-opacity:1;stroke:none;stroke-width:15;stroke-linecap:round;stroke-linejoin:round;stroke-miterlimit:4;stroke-opacity:1;stroke-dasharray:none"
       id="rect32638"
       width="1168.5714"
       height="1168.5714"
       x="-94.285713"
       y="-36.209248" />
    <path
       sodipodi:type="arc"
       style="fill:#e6e6e6;fill-opacity:1;stroke:none"
       id="path32642"
       sodipodi:cx="-514.28571"
       sodipodi:cy="592.36218"
       sodipodi:rx="488.57144"
       sodipodi:ry="488.57144"
       d="m -25.714264,592.36218 a 488.57144,488.57144 0 1 1 -977.142836,0 488.57144,488.57144 0 1 1 977.142836,0 z"
       transform="matrix(0.9480021,0,0,0.9480021,979.08251,-87.500866)" />
    <path
       style="fill:#ffffff"
       inkscape:connector-curvature="0"
       id="path15818"
       d="m 479.19211,247.54916 c 0.1286,-5.53657 -3.58149,-11.60302 -3.58149,-11.60302 l -0.22828,-0.52991 c 0,0 -4.44948,-8.67028 -11.88641,-11.2193 -7.44594,-2.53986 -13.50321,3.12459 -13.50321,3.12459 0,0 -1.04157,1.19686 -3.9104,4.5133 -2.85967,3.3256 -4.6321,6.08474 -10.94513,8.56979 -6.32236,2.47592 -12.59892,1.86379 -15.92446,0.3015 -3.33474,-1.57144 -4.17536,-4.90616 -4.17536,-4.90616 0,0 -2.09218,-6.59637 -2.85968,-9.58393 -0.78565,-3.02407 -2.81385,-15.47678 -2.81385,-15.47678 0,0 -4.49512,-25.09723 -4.88786,-30.18612 0,0 13.47587,-1.15116 33.67617,-7.08058 21.01329,-6.14869 27.80154,-11.01831 27.80154,-11.01831 0,0 -3.9469,-1.42525 -4.42197,-6.04819 -0.4659,-4.63208 -0.81314,-10.87213 -0.81314,-10.87213 0,0 -0.81315,-4.56811 4.41281,-10.40616 5.22594,-5.84719 12.37046,-7.88459 16.10725,-8.70684 3.7458,-0.81313 11.70344,-1.55317 19.11291,-1.22425 7.41859,0.34716 11.57563,1.02326 14.5541,2.65864 2.99664,1.62624 3.26159,5.57311 3.26159,5.57311 l -0.0724,10.47012 c 0,0 -0.33807,3.67277 2.38446,4.83307 0,0 4.61376,2.78654 20.06318,1.21512 0,0 6.57813,-1.15116 16.86556,-4.20267 10.27829,-3.06065 37.72358,-11.22843 41.60634,-12.25169 3.88293,-1.01413 8.70681,-2.65865 15.03834,-4.2849 6.31304,-1.63539 18.62884,-5.71928 21.07727,-6.66945 2.46675,-0.95017 16.54566,-5.6462 26.74179,-7.40035 10.18697,-1.78157 20.33726,-1.69934 25.69104,1.3613 0,0 3.27989,2.7774 4.76004,6.04818 1.48917,3.27077 4.35799,7.88459 8.42355,9.94024 4.15703,2.07392 6.87057,3.38954 17.13053,2.49419 0,0 0.21012,-0.87709 -3.59969,-3.38042 -3.80977,-2.53073 -9.05405,-6.40449 -9.05405,-6.40449 0,0 -3.05146,-2.23838 -3.7368,-4.0839 -0.66685,-1.84552 -0.39274,-2.79568 -0.39274,-2.79568 l 8.02164,-12.84555 c 0,0 0,-1.57145 4.62291,-2.17444 4.62295,-0.61213 9.79406,-1.22427 15.90616,-2.85965 6.11208,-1.62623 7.19931,-2.85051 7.19931,-2.85051 l 5.29911,1.62625 c 0,0 32.39698,26.06571 42.52911,32.73516 l 1.82724,-2.18357 c 0,0 3.97425,0.16446 7.54659,1.57143 3.59049,1.40699 8.94441,5.13457 8.94441,5.13457 0,0 14.72759,11.96846 18.92112,20.09972 l 2.03735,6.20352 -0.93194,1.47093 c 0,0 8.38705,11.94106 19.14955,23.77249 0,0 11.21022,15.2027 15.43124,19.09474 0,0 -0.98678,-3.64536 -1.83641,-7.75668 l 3.0698,-2.06479 1.85456,-1.31561 5.63703,2.36628 c 32.6529,43.95443 58.76434,95.23614 74.37822,149.1765 l -1.09642,4.42193 3.60883,4.57726 c 10.30563,38.48183 15.78742,78.9645 15.78742,120.69884 0,10.25085 -0.33797,20.42863 -0.9867,30.50591 l -2.77734,4.6686 2.05553,5.07062 c -20.39211,238.44668 -220.40264,425.60257 -464.13,425.60257 -169.03872,0 -317.04564,-90.02855 -398.678078,-224.75152 L 93.552,714.97735 91.679107,713.58863 C 60.734674,661.12837 39.767043,602.08087 31.425719,539.04996 l 1.936871,-4.79653 -3.069791,-4.41281 c -1.945958,-17.28574 -2.941837,-34.82733 -2.941837,-52.60646 0,-27.27166 2.329818,-53.98603 6.833873,-79.98775 l 2.284138,-5.13457 -0.794983,-2.99667 C 46.244683,333.8592 66.581999,282.075 94.822128,235.63549 l 6.249242,-3.5083 0.73997,0.29235 c 0,0 2.12867,-1.54403 3.23422,-1.98255 l 0.69428,-0.21014 c 0,0 10.77172,-18.00755 14.84647,-23.76335 0,0 4.95182,-3.17943 6.8064,-3.71847 0,0 1.13289,-0.14612 1.72676,0.69437 0,0 4.53161,-3.94686 15.52256,-18.76584 0.037,-0.0457 0.0643,-0.10044 0.10928,-0.15529 0,0 -1.04158,-0.69435 -1.19688,-1.58973 -0.16446,-0.8862 0.98677,-5.3995 1.58064,-6.55065 0.59369,-1.15118 0.9866,-1.42527 0.9866,-1.42527 0,0 15.73267,-18.56483 28.7883,-29.58315 0,0 2.37545,-1.84551 6.19439,-2.28404 0,0 13.44853,-5.60052 29.82074,-19.95354 0,0 0.46589,-2.64037 4.36699,-7.83891 3.91042,-5.20764 13.30241,-10.62544 20.30077,-12.21514 6.98005,-1.58971 8.18611,-0.34719 8.18611,-0.34719 l 0.58469,0.59385 4.70508,6.99837 c 0,0 5.16214,-2.88705 12.90966,-5.51827 7.73837,-2.64039 8.94426,-2.39371 8.94426,-2.39371 l 7.52825,12.21516 -9.01741,18.27245 c 0,0 -5.8838,12.98262 -15.12048,19.96269 0,0 -4.31232,2.5947 -10.23262,1.16032 -5.92028,-1.43441 -9.79405,3.04235 -9.79405,3.04235 l -1.55315,1.27908 c 0,0 1.27904,-0.21927 3.16111,-0.94103 0,0 1.44365,0.59385 2.50341,2.0374 1.04142,1.4435 8.34139,10.73506 8.34139,10.73506 0,0 0.0449,7.64702 -3.79162,17.70603 -3.8281,10.04985 -13.40287,26.41287 -13.40287,26.41287 0,0 -6.69679,13.00998 -9.82139,20.58393 -3.12461,7.57394 -4.70524,16.12546 -4.45848,20.66619 0,0 1.70845,0.56642 6.45933,-1.84553 5.98428,-3.03322 9.89454,0.24668 9.89454,0.24668 0,0 6.56897,4.84221 9.5108,8.04902 2.39377,2.64038 7.32728,16.12546 1.90955,29.45522 0,0 -3.67282,9.20933 -12.58075,15.75089 0,0 -1.97336,3.03321 -13.96923,1.58972 -3.36207,-0.39288 -5.34477,-2.52164 -12.53493,-1.82727 -7.17201,0.70348 -11.24673,7.44603 -11.24673,7.44603 l 0.11899,-0.21926 c -6.3222,9.1271 -10.54323,22.45687 -10.54323,22.45687 l -0.52071,1.50747 c 0,0 -2.20182,4.65035 -2.66786,16.00669 -0.48423,11.73094 2.59471,28.40458 2.59471,28.40458 0,0 71.95695,-12.67198 90.26602,-0.5025 l 5.29911,4.86048 c 0,0 0.42022,1.5897 -0.28327,3.43523 -0.73099,1.86379 -3.42603,6.14868 -9.01757,10.16863 -5.58219,4.00167 -11.16441,14.46265 -2.85951,21.04989 9.44681,7.47344 15.44926,6.99835 31.33723,4.27577 15.89714,-2.71349 26.47684,-11.5939 26.47684,-11.5939 0,0 8.88044,-6.57809 7.15368,-14.8738 -1.71762,-8.29568 -9.29152,-10.863 -9.29152,-10.863 0,0 -6.01176,-3.8646 -1.28819,-11.31064 0,0 1.28819,-6.29488 23.32474,-12.02329 22.05487,-5.71928 62.23604,-13.88708 96.45127,-18.17198 0,0 -23.19696,-75.12729 -6.74261,-84.86651 0,0 4.00173,-2.70434 11.1829,-3.72758 l 6.57798,-0.33804 c 1.19689,-0.2467 3.13376,0.0457 7.27247,0.41112 4.1387,0.34719 9.14538,0.69436 15.33059,-4.02908 6.17607,-4.74169 6.36802,-7.48258 6.36802,-7.48258" />
    <path
       style="fill:#1a1a1a;stroke:#000000;stroke-width:2.13988328px;stroke-linecap:butt;stroke-linejoin:miter;stroke-opacity:1"
       d="M 556.02826,189.11372 479.94651,116.07536 109.44042,501.9748 495.36234,872.45929 865.82437,484.39875 637.57912,265.28365 415.27548,496.82329 l 76.12578,75.1995 148.20247,-154.3598 81.59491,78.331 L 493.558,730.88542 255.34499,500.08247 z"
       id="path32702"
       inkscape:connector-curvature="0"
       sodipodi:nodetypes="ccccccccccccc" />
    <path
       d="m 479.19211,247.54916 c 0.1286,-5.53657 -3.58149,-11.60302 -3.58149,-11.60302 l -0.22828,-0.52991 c 0,0 -4.44948,-8.67028 -11.88641,-11.2193 -7.44594,-2.53986 -13.50321,3.12459 -13.50321,3.12459 0,0 -1.04157,1.19686 -3.9104,4.5133 -2.85967,3.3256 -4.6321,6.08474 -10.94513,8.56979 -6.32236,2.47592 -12.59892,1.86379 -15.92446,0.3015 -3.33474,-1.57144 -4.17536,-4.90616 -4.17536,-4.90616 0,0 -2.09218,-6.59637 -2.85968,-9.58393 -0.78565,-3.02407 -2.81385,-15.47678 -2.81385,-15.47678 0,0 -4.49512,-25.09723 -4.88786,-30.18612 0,0 13.47587,-1.15116 33.67617,-7.08058 21.01329,-6.14869 27.80154,-11.01831 27.80154,-11.01831 0,0 -3.9469,-1.42525 -4.42197,-6.04819 -0.4659,-4.63208 -0.81314,-10.87213 -0.81314,-10.87213 0,0 -0.81315,-4.56811 4.41281,-10.40616 5.22594,-5.84719 12.37046,-7.88459 16.10725,-8.70684 3.7458,-0.81313 11.70344,-1.55317 19.11291,-1.22425 7.41859,0.34716 11.57563,1.02326 14.5541,2.65864 2.99664,1.62624 3.26159,5.57311 3.26159,5.57311 l -0.0724,10.47012 c 0,0 -0.33807,3.67277 2.38446,4.83307 0,0 4.61376,2.78654 20.06318,1.21512 0,0 6.57813,-1.15116 16.86556,-4.20267 10.27829,-3.06065 37.72358,-11.22843 41.60634,-12.25169 3.88293,-1.01413 8.70681,-2.65865 15.03834,-4.2849 6.31304,-1.63539 18.62884,-5.71928 21.07727,-6.66945 2.46675,-0.95017 16.54566,-5.6462 26.74179,-7.40035 10.18697,-1.78157 20.33726,-1.69934 25.69104,1.3613 0,0 3.27989,2.7774 4.76004,6.04818 1.48917,3.27077 4.35799,7.88459 8.42355,9.94024 4.15703,2.07392 6.87057,3.38954 17.13053,2.49419 0,0 0.21012,-0.87709 -3.59969,-3.38042 -3.80977,-2.53073 -9.05405,-6.40449 -9.05405,-6.40449 0,0 -3.05146,-2.23838 -3.7368,-4.0839 -0.66685,-1.84552 -0.39274,-2.79568 -0.39274,-2.79568 l 8.02164,-12.84555 c 0,0 0,-1.57145 4.62291,-2.17444 4.62295,-0.61213 9.79406,-1.22427 15.90616,-2.85965 6.11208,-1.62623 7.19931,-2.85051 7.19931,-2.85051 l 5.29911,1.62625 c 0,0 32.39698,26.06571 42.52911,32.73516 l 1.82724,-2.18357 c 0,0 3.97425,0.16446 7.54659,1.57143 3.59049,1.40699 8.94441,5.13457 8.94441,5.13457 0,0 14.72759,11.96846 18.92112,20.09972 l 2.03735,6.20352 -0.93194,1.47093 c 0,0 8.38705,11.94106 19.14955,23.77249 0,0 11.21022,15.2027 15.43124,19.09474 0,0 -0.98678,-3.64536 -1.83641,-7.75668 l 3.0698,-2.06479 1.85456,-1.31561 5.63703,2.36628 c 32.6529,43.95443 58.76434,95.23614 74.37822,149.1765 l -1.09642,4.42193 3.60883,4.57726 c 10.30563,38.48183 15.78742,78.9645 15.78742,120.69884 0,10.25085 -0.33797,20.42863 -0.9867,30.50591 l -2.77734,4.6686 2.05553,5.07062 c -20.39211,238.44668 -220.40264,425.60257 -464.13,425.60257 -169.03872,0 -317.04569,-90.02857 -398.678074,-224.75152 l -0.9319,-3.33473 -1.872937,-1.38872 C 60.734632,661.12837 39.767045,602.08087 31.4257,539.04996 l 1.936878,-4.79653 -3.069738,-4.41281 c -1.946012,-17.28574 -2.941855,-34.82733 -2.941855,-52.60646 0,-27.27166 2.329752,-53.98603 6.833879,-79.98775 l 2.28408,-5.13457 -0.794973,-2.99667 C 46.244678,333.8592 66.581981,282.075 94.822173,235.63549 l 6.249177,-3.5083 0.73999,0.29235 c 0,0 2.1287,-1.54403 3.23425,-1.98255 l 0.69422,-0.21014 c 0,0 10.77176,-18.00755 14.84647,-23.76335 0,0 4.95181,-3.17943 6.80639,-3.71847 0,0 1.13294,-0.14612 1.72678,0.69437 0,0 4.53162,-3.94686 15.5226,-18.76584 0.0367,-0.0457 0.0644,-0.10044 0.10925,-0.15529 0,0 -1.0416,-0.69435 -1.19689,-1.58973 -0.16442,-0.8862 0.98681,-5.3995 1.58064,-6.55065 0.59374,-1.15118 0.98661,-1.42527 0.98661,-1.42527 0,0 15.7327,-18.56483 28.78835,-29.58315 0,0 2.37543,-1.84551 6.19437,-2.28404 0,0 13.44853,-5.60052 29.82074,-19.95354 0,0 0.46586,-2.64037 4.36692,-7.83891 3.91048,-5.20764 13.30248,-10.62544 20.30086,-12.21514 6.98004,-1.58971 8.18606,-0.34719 8.18606,-0.34719 l 0.5847,0.59385 4.70509,6.99837 c 0,0 5.16208,-2.88705 12.90968,-5.51827 7.73838,-2.64039 8.94422,-2.39371 8.94422,-2.39371 l 7.52828,12.21516 -9.01747,18.27245 c 0,0 -5.88381,12.98262 -15.12042,19.96269 0,0 -4.31239,2.5947 -10.23264,1.16032 -5.92024,-1.43441 -9.79409,3.04235 -9.79409,3.04235 l -1.55314,1.27908 c 0,0 1.27911,-0.21927 3.16118,-0.94103 0,0 1.4436,0.59385 2.50339,2.0374 1.04142,1.4435 8.34134,10.73506 8.34134,10.73506 0,0 0.0448,7.64702 -3.79163,17.70603 -3.82808,10.04985 -13.40285,26.41287 -13.40285,26.41287 0,0 -6.69678,13.00998 -9.82141,20.58393 -3.12455,7.57394 -4.70517,16.12546 -4.45846,20.66619 0,0 1.70842,0.56642 6.45936,-1.84553 5.98428,-3.03322 9.89449,0.24668 9.89449,0.24668 0,0 6.56898,4.84221 9.51083,8.04902 2.39379,2.64038 7.32732,16.12546 1.90956,29.45522 0,0 -3.67279,9.20933 -12.58075,15.75089 0,0 -1.97332,3.03321 -13.96928,1.58972 -3.36204,-0.39288 -5.34468,-2.52164 -12.5349,-1.82727 -7.17203,0.70348 -11.24675,7.44603 -11.24675,7.44603 l 0.11902,-0.21926 c -6.32217,9.1271 -10.54322,22.45687 -10.54322,22.45687 l -0.52075,1.50747 c 0,0 -2.20178,4.65035 -2.66782,16.00669 -0.48422,11.73094 2.59474,28.40458 2.59474,28.40458 0,0 71.95695,-12.67198 90.26595,-0.5025 l 5.2991,4.86048 c 0,0 0.42027,1.5897 -0.28326,3.43523 -0.73094,1.86379 -3.42598,6.14868 -9.01757,10.16863 -5.58218,4.00167 -11.16436,14.46265 -2.85946,21.04989 9.4468,7.47344 15.44926,6.99835 31.33724,4.27577 15.89712,-2.71349 26.47682,-11.5939 26.47682,-11.5939 0,0 8.88044,-6.57809 7.15368,-14.8738 -1.71762,-8.29568 -9.29152,-10.863 -9.29152,-10.863 0,0 -6.01176,-3.8646 -1.28819,-11.31064 0,0 1.28819,-6.29488 23.32474,-12.02329 22.05487,-5.71928 62.23604,-13.88708 96.45127,-18.17198 0,0 -23.19696,-75.12729 -6.74261,-84.86651 0,0 4.00173,-2.70434 11.1829,-3.72758 l 6.57798,-0.33804 c 1.19689,-0.2467 3.13376,0.0457 7.27247,0.41112 4.1387,0.34719 9.14538,0.69436 15.33059,-4.02908 6.17607,-4.74169 6.36802,-7.48258 6.36802,-7.48258"
       id="path32704"
       inkscape:connector-curvature="0"
       style="opacity:0.07079647;fill:url(#radialGradient33812);stroke:#000000;stroke-width:5.91057491;stroke-miterlimit:4;stroke-dasharray:none" />
    <text
       xml:space="preserve"
       style="font-size:87.6434021px;font-style:normal;font-weight:normal;line-height:125%;letter-spacing:0px;word-spacing:0px;fill:#333333;fill-opacity:1;stroke:none;font-family:Sans"
       x="433.97195"
       y="335.55228"
       id="text32708"
       sodipodi:linespacing="125%"
       transform="matrix(0.71236779,0.70180633,-0.70180633,0.71236779,0,0)"><tspan
         sodipodi:role="line"
         id="tspan32710"
         x="433.97195"
         y="335.55228">grammar nazi</tspan></text>
    <text
       xml:space="preserve"
       style="font-size:81.55050659px;font-style:normal;font-weight:normal;line-height:125%;letter-spacing:0px;word-spacing:0px;fill:#e6e6e6;fill-opacity:1;stroke:none;font-family:Sans"
       x="-1.8430673"
       y="49.609371"
       id="text32712"
       sodipodi:linespacing="125%"
       transform="matrix(0,1,-1,0,0,0)"><tspan
         sodipodi:role="line"
         id="tspan32714"
         x="-1.8430673"
         y="49.609371">falanster.by</tspan></text>
    <g
       id="g3448"
       transform="matrix(1.5792934,-0.01026328,0.01026328,1.5792934,1989.2612,-233.11255)"
       style="fill:#f9f9f9">
      <text
         sodipodi:linespacing="125%"
         id="text3429"
         y="826.4455"
         x="-1267.22"
         style="font-size:138.57698059px;font-style:normal;font-weight:normal;line-height:125%;letter-spacing:0px;word-spacing:0px;fill:#f9f9f9;fill-opacity:1;stroke:none;font-family:Sans"
         xml:space="preserve"><tspan
           style="font-style:normal;font-variant:normal;font-weight:normal;font-stretch:normal;fill:#f9f9f9;font-family:Linux Libertine;-inkscape-font-specification:Linux Libertine"
           y="826.4455"
           x="-1267.22"
           id="tspan3431"
           sodipodi:role="line"><tspan
   id="tspan3441"
   style="font-size:140px;font-style:normal;font-variant:normal;font-weight:normal;font-stretch:normal;fill:#f9f9f9;font-family:Linux Libertine;-inkscape-font-specification:Linux Libertine">Вікіп</tspan><tspan
   id="tspan3433"
   style="font-size:140px;font-style:normal;font-variant:normal;font-weight:normal;font-stretch:normal;fill:none;font-family:Linux Libertine;-inkscape-font-specification:Linux Libertine">е</tspan>дыЯ</tspan></text>
      <g
         transform="matrix(-1,0,0,1,-1822.3567,-177.14286)"
         id="text3437"
         style="font-size:129.61647034px;font-style:normal;font-weight:normal;line-height:125%;letter-spacing:0px;word-spacing:0px;fill:#f9f9f9;fill-opacity:1;stroke:none;font-family:Sans">
        <path
           inkscape:connector-curvature="0"
           id="path3446"
           style="font-size:140px;font-variant:normal;font-stretch:normal;fill:#f9f9f9;font-family:Linux Libertine;-inkscape-font-specification:Linux Libertine"
           d="m -920.20428,963.22888 25.36132,-0.41015 c 1.41272,4e-5 2.09631,-0.63798 2.05078,-1.91407 -4e-5,-5.33198 -1.13936,-9.11453 -3.41796,-11.34765 -2.27869,-2.23302 -5.01306,-3.34956 -8.20313,-3.34961 -1.2305,5e-5 -2.43818,0.15956 -3.62305,0.47851 -1.18492,0.31907 -2.64325,0.99127 -4.375,2.0166 -1.73179,1.02545 -3.30405,2.7914 -4.71679,5.29786 -1.41278,2.50655 -2.43817,5.58272 -3.07617,9.22851 z m 36.70898,26.52344 c 1.595,0.0912 2.57481,0.82032 2.93945,2.1875 -6.24354,8.11198 -14.196,12.16798 -23.85742,12.16798 -9.25133,0 -16.38348,-2.985 -21.39648,-8.95509 -4.37501,-5.05858 -6.56251,-11.96287 -6.5625,-20.71289 -10e-6,-9.88929 2.96223,-17.84175 8.88672,-23.85742 5.92445,-6.01557 12.28187,-9.02338 19.07226,-9.02344 15.76818,6e-5 23.65229,8.11203 23.65234,24.33594 -5e-5,1.59508 -0.86594,2.39261 -2.59765,2.39258 l -37.25586,-0.27344 c -2e-5,7.83857 1.4811,14.24156 4.44336,19.20898 4.10154,6.69923 9.2057,10.04884 15.3125,10.04883 3.91923,10e-6 7.12072,-0.55826 9.60449,-1.6748 2.48368,-1.11653 5.06994,-3.06477 7.75879,-5.84473 z" />
      </g>
    </g>
  </g>
</svg>
