<?xml version="1.0" encoding="UTF-8" standalone="no"?>
<!-- Created with Inkscape (http://www.inkscape.org/) -->

<svg
   xmlns:dc="http://purl.org/dc/elements/1.1/"
   xmlns:cc="http://creativecommons.org/ns#"
   xmlns:rdf="http://www.w3.org/1999/02/22-rdf-syntax-ns#"
   xmlns:svg="http://www.w3.org/2000/svg"
   xmlns="http://www.w3.org/2000/svg"
   xmlns:xlink="http://www.w3.org/1999/xlink"
   xmlns:sodipodi="http://sodipodi.sourceforge.net/DTD/sodipodi-0.dtd"
   xmlns:inkscape="http://www.inkscape.org/namespaces/inkscape"
   width="744.09448819"
   height="1052.3622047"
   id="svg2"
   version="1.1"
   inkscape:version="0.48.2 r9819"
   sodipodi:docname="map.svg">
  <defs
     id="defs4">
    <linearGradient
       id="linearGradient3157">
      <stop
         style="stop-color:#ffffff;stop-opacity:1;"
         offset="0"
         id="stop3159" />
      <stop
         style="stop-color:#ff6600;stop-opacity:0;"
         offset="1"
         id="stop3161" />
    </linearGradient>
    <linearGradient
       id="linearGradient3119">
      <stop
         style="stop-color:#fbf6b1;stop-opacity:1;"
         offset="0"
         id="stop3121" />
      <stop
         id="stop3133"
         offset="0.5865202"
         style="stop-color:#88ca37;stop-opacity:1;" />
      <stop
         id="stop3131"
         offset="0.62734139"
         style="stop-color:#72b69a;stop-opacity:1;" />
      <stop
         id="stop3129"
         offset="0.7027331"
         style="stop-color:#cb892b;stop-opacity:1;" />
      <stop
         id="stop3127"
         offset="0.8236044"
         style="stop-color:#8437c5;stop-opacity:1;" />
      <stop
         style="stop-color:#0b0b28;stop-opacity:1;"
         offset="1"
         id="stop3123" />
    </linearGradient>
    <linearGradient
       id="linearGradient3076">
      <stop
         style="stop-color:#ff534d;stop-opacity:1;"
         offset="0"
         id="stop3078" />
      <stop
         id="stop3088"
         offset="0.32050508"
         style="stop-color:#aace72;stop-opacity:1;" />
      <stop
         id="stop3086"
         offset="0.40038487"
         style="stop-color:#739d98;stop-opacity:1;" />
      <stop
         id="stop3084"
         offset="0.66307867"
         style="stop-color:#9a3b3b;stop-opacity:1;" />
      <stop
         style="stop-color:#3f1313;stop-opacity:1;"
         offset="1"
         id="stop3080" />
    </linearGradient>
    <linearGradient
       id="linearGradient3052">
      <stop
         style="stop-color:#d40000;stop-opacity:0;"
         offset="0"
         id="stop3054" />
      <stop
         id="stop3060"
         offset="0.71651864"
         style="stop-color:#7f1111;stop-opacity:0.49803922;" />
      <stop
         style="stop-color:#2a2222;stop-opacity:0.75;"
         offset="1"
         id="stop3056" />
    </linearGradient>
    <linearGradient
       id="linearGradient3032">
      <stop
         style="stop-color:#ff4128;stop-opacity:0.23529412;"
         offset="0"
         id="stop3034" />
      <stop
         id="stop3048"
         offset="0.36289272"
         style="stop-color:#6acba8;stop-opacity:0.627451;" />
      <stop
         id="stop3046"
         offset="0.5186764"
         style="stop-color:#cfc8a5;stop-opacity:0.627451;" />
      <stop
         id="stop3044"
         offset="0.60724843"
         style="stop-color:#dfa860;stop-opacity:0.627451;" />
      <stop
         id="stop3042"
         offset="0.67452949"
         style="stop-color:#d46600;stop-opacity:0.627451;" />
      <stop
         id="stop3040"
         offset="0.89128983"
         style="stop-color:#d40000;stop-opacity:0.627451;" />
      <stop
         style="stop-color:#d40000;stop-opacity:0.627451;"
         offset="1"
         id="stop3036" />
    </linearGradient>
    <linearGradient
       id="linearGradient3022">
      <stop
         style="stop-color:#3737c8;stop-opacity:0;"
         offset="0"
         id="stop3024" />
      <stop
         style="stop-color:#0d0d2b;stop-opacity:0.72321427;"
         offset="1"
         id="stop3026" />
    </linearGradient>
    <radialGradient
       inkscape:collect="always"
       xlink:href="#linearGradient3022"
       id="radialGradient3028"
       cx="-728.17133"
       cy="117.22345"
       fx="-728.17133"
       fy="117.22345"
       r="80"
       gradientUnits="userSpaceOnUse"
       gradientTransform="matrix(-1.0942452,0.81539714,-0.65445223,-0.87825996,-1448.2521,813.92493)" />
    <radialGradient
       inkscape:collect="always"
       xlink:href="#linearGradient3052"
       id="radialGradient3058"
       cx="-664.53259"
       cy="581.99744"
       fx="-664.53259"
       fy="581.99744"
       r="154.28572"
       gradientUnits="userSpaceOnUse"
       gradientTransform="matrix(-0.98012612,0.83558307,-0.66507488,-0.78012265,-999.64508,1615.1765)" />
    <radialGradient
       inkscape:collect="always"
       xlink:href="#linearGradient3052"
       id="radialGradient3064"
       gradientUnits="userSpaceOnUse"
       gradientTransform="matrix(-0.98012612,0.83558307,-0.66507488,-0.78012265,-999.64508,1615.1765)"
       cx="-664.53259"
       cy="581.99744"
       fx="-664.53259"
       fy="581.99744"
       r="154.28572" />
    <radialGradient
       inkscape:collect="always"
       xlink:href="#linearGradient3076"
       id="radialGradient3082"
       cx="-692.94647"
       cy="584.88782"
       fx="-692.94647"
       fy="584.88782"
       r="154.28572"
       gradientUnits="userSpaceOnUse"
       gradientTransform="matrix(-0.91617791,1.0699228,-1.2192335,-1.0440355,-651.07762,1953.8771)" />
    <radialGradient
       inkscape:collect="always"
       xlink:href="#linearGradient3119"
       id="radialGradient3125"
       cx="-639.73694"
       cy="289.40793"
       fx="-639.73694"
       fy="289.40793"
       r="321.69133"
       gradientTransform="matrix(-1.1709797,-0.92856251,0.29599888,-0.37327514,-836.80374,24.913467)"
       gradientUnits="userSpaceOnUse" />
    <radialGradient
       inkscape:collect="always"
       xlink:href="#linearGradient3052"
       id="radialGradient3137"
       gradientUnits="userSpaceOnUse"
       gradientTransform="matrix(-0.98012612,0.83558307,-0.66507488,-0.78012265,-999.64508,1615.1765)"
       cx="-664.53259"
       cy="581.99744"
       fx="-664.53259"
       fy="581.99744"
       r="154.28572" />
    <radialGradient
       inkscape:collect="always"
       xlink:href="#linearGradient3157"
       id="radialGradient3163"
       cx="479.09946"
       cy="740.48248"
       fx="479.09946"
       fy="740.48248"
       r="268.57144"
       gradientUnits="userSpaceOnUse"
       gradientTransform="matrix(-1.340439,1.1222355,-1.0011336,-1.1957863,1862.625,1088.2789)" />
    <radialGradient
       inkscape:collect="always"
       xlink:href="#linearGradient3052"
       id="radialGradient3167"
       gradientUnits="userSpaceOnUse"
       gradientTransform="matrix(-0.98012612,0.83558307,-0.66507488,-0.78012265,-999.64508,1615.1765)"
       cx="-664.53259"
       cy="581.99744"
       fx="-664.53259"
       fy="581.99744"
       r="154.28572" />
    <path
       sodipodi:type="arc"
       style="fill:none;stroke:#000000"
       id="path3965-6"
       sodipodi:cx="-409.11179"
       sodipodi:cy="699.81897"
       sodipodi:rx="269.71072"
       sodipodi:ry="269.71072"
       d="m -139.40106,699.81897 a 269.71072,269.71072 0 1 1 -539.42145,0 269.71072,269.71072 0 1 1 539.42145,0 z"
       transform="matrix(-0.4583519,0.97626285,0.97626285,0.4583519,-1278.7859,799.77306)" />
    <path
       sodipodi:type="arc"
       style="fill:none;stroke:#000000"
       id="path3965-2"
       sodipodi:cx="-409.11179"
       sodipodi:cy="699.81897"
       sodipodi:rx="269.71072"
       sodipodi:ry="269.71072"
       d="m -139.40106,699.81897 a 269.71072,269.71072 0 1 1 -539.42145,0 269.71072,269.71072 0 1 1 539.42145,0 z"
       transform="matrix(-0.4583519,0.97626285,0.97626285,0.4583519,-1278.7859,799.77306)" />
    <path
       sodipodi:type="arc"
       style="fill:none;stroke:#000000"
       id="path3965-26"
       sodipodi:cx="-409.11179"
       sodipodi:cy="699.81897"
       sodipodi:rx="269.71072"
       sodipodi:ry="269.71072"
       d="m -139.40106,699.81897 a 269.71072,269.71072 0 1 1 -539.42145,0 269.71072,269.71072 0 1 1 539.42145,0 z"
       transform="matrix(-0.4583519,0.97626285,0.97626285,0.4583519,-1278.7859,799.77306)" />
    <path
       sodipodi:type="arc"
       style="fill:none;stroke:#000000"
       id="path4001-9-4"
       sodipodi:cx="-409.11179"
       sodipodi:cy="699.81897"
       sodipodi:rx="269.71072"
       sodipodi:ry="269.71072"
       d="m -139.40106,699.81897 a 269.71072,269.71072 0 1 1 -539.42145,0 269.71072,269.71072 0 1 1 539.42145,0 z"
       transform="matrix(-0.4127545,-0.99639818,0.99639818,-0.4127545,-852.22199,416.60078)" />
  </defs>
  <sodipodi:namedview
     id="base"
     pagecolor="#ffffff"
     bordercolor="#666666"
     borderopacity="1.0"
     inkscape:pageopacity="0.0"
     inkscape:pageshadow="2"
     inkscape:zoom="0.35"
     inkscape:cx="255.47524"
     inkscape:cy="433.90674"
     inkscape:document-units="px"
     inkscape:current-layer="layer1"
     showgrid="false"
     inkscape:window-width="1366"
     inkscape:window-height="706"
     inkscape:window-x="-8"
     inkscape:window-y="-8"
     inkscape:window-maximized="1"
     showguides="true"
     inkscape:guide-bbox="true" />
  <metadata
     id="metadata7">
    <rdf:RDF>
      <cc:Work
         rdf:about="">
        <dc:format>image/svg+xml</dc:format>
        <dc:type
           rdf:resource="http://purl.org/dc/dcmitype/StillImage" />
        <dc:title></dc:title>
      </cc:Work>
    </rdf:RDF>
  </metadata>
  <g
     inkscape:label="Layer 1"
     inkscape:groupmode="layer"
     id="layer1">
    <rect
       style="fill:#000f24;fill-opacity:1;stroke:none"
       id="rect2985"
       width="2208.5715"
       height="1265.7142"
       x="-1100"
       y="-19.066387" />
    <path
       sodipodi:type="arc"
       style="fill:#3737c8;fill-opacity:1;stroke:none"
       id="path2989"
       sodipodi:cx="-774.28571"
       sodipodi:cy="149.50504"
       sodipodi:rx="80"
       sodipodi:ry="80"
       d="m -694.28571,149.50504 a 80,80 0 1 1 -160,0 80,80 0 1 1 160,0 z"
       transform="translate(85.714286,54.285714)" />
    <path
       sodipodi:type="arc"
       style="fill:#c83737;fill-opacity:1;stroke:none"
       id="path2991"
       sodipodi:cx="-782.85712"
       sodipodi:cy="669.50507"
       sodipodi:rx="154.28572"
       sodipodi:ry="154.28572"
       d="m -628.5714,669.50507 a 154.28572,154.28572 0 1 1 -308.57144,0 154.28572,154.28572 0 1 1 308.57144,0 z" />
    <path
       sodipodi:type="arc"
       style="fill:#ffd42a;fill-opacity:1;stroke:none"
       id="path2993"
       sodipodi:cx="-414.28571"
       sodipodi:cy="698.07648"
       sodipodi:rx="268.57144"
       sodipodi:ry="268.57144"
       d="m -145.71426,698.07648 a 268.57144,268.57144 0 1 1 -537.14289,0 268.57144,268.57144 0 1 1 537.14289,0 z" />
    <text
       xml:space="preserve"
       style="font-size:40px;font-style:normal;font-weight:normal;line-height:92.00000167%;letter-spacing:0px;word-spacing:0px;fill:#ffffff;fill-opacity:1;stroke:none;font-family:Sans"
       x="-868.57141"
       y="666.64795"
       id="text3008"
       sodipodi:linespacing="92.000002%"><tspan
         sodipodi:role="line"
         id="tspan3010"
         x="-868.57141"
         y="666.64795"
         style="line-height:92.00000167%;fill:#ffffff">рыхтуем</tspan><tspan
         sodipodi:role="line"
         x="-868.57141"
         y="703.44794"
         id="tspan3012"
         style="line-height:92.00000167%;fill:#ffffff">каманду</tspan></text>
    <path
       style="fill:#a0892c;stroke:#000000;stroke-width:1px;stroke-linecap:butt;stroke-linejoin:miter;stroke-opacity:1"
       d="m -687.91388,208.88481 c 0.51665,2.31426 -0.3875,4.74611 0,7.07107 0.3501,2.10061 1.60266,3.97268 2.0203,6.06091 0.13207,0.66036 -0.21296,1.38143 0,2.02031 0.15059,0.45175 0.85957,0.55839 1.01015,1.01015 1.26822,3.80465 -1.42762,19.36811 0,22.22335 1.58582,3.17163 6.06092,11.84078 6.06092,14.14214 0,0.63001 0.51452,5.54639 0,6.06091 -0.2381,0.2381 -0.69071,-0.10647 -1.01015,0 -7.31696,2.43899 1.59261,-0.29123 -3.03046,2.02031 -1.4625,0.73125 -9.33209,-0.76944 -10.10153,0 -0.23809,0.2381 0.2381,0.77206 0,1.01015 -0.13303,0.13304 -9.74931,0 -11.11167,0 -1.38606,0 -3.27038,0.53031 -4.04061,-1.01015 -2.15178,-4.30356 0.53739,-12.0572 -1.01016,-15.15229 -0.21296,-0.42592 -0.79719,-0.58423 -1.01015,-1.01015 -0.30117,-0.60234 0.47619,-1.54412 0,-2.02031 -0.23809,-0.23809 -0.77206,0.2381 -1.01015,0 -0.50508,-0.50507 -0.50508,-1.51522 -1.01015,-2.0203 -0.18517,-0.18516 -5.56529,-2.78265 -6.06092,-3.03046 -1.5261,-0.76305 -2.43497,-3.5054 -4.04061,-4.04061 -0.63888,-0.21296 -1.41797,0.30117 -2.02031,0 -0.30116,-0.15058 0.2381,-0.77206 0,-1.01015 -0.53239,-0.5324 -1.4879,-0.47776 -2.0203,-1.01015 -0.2381,-0.2381 0.2381,-0.77206 0,-1.01016 -0.9,-0.89999 -9.39616,0.85776 -11.11168,0 -1.62704,-0.81352 -5.11594,-10.23188 -6.06091,-12.12183 -2.10201,-4.20401 0.0697,1.07989 -2.02031,-1.01015 -0.47619,-0.47619 0,-1.34687 0,-2.0203 0,-2.55402 -0.78407,-6.73915 0,-9.09138 2.55155,-7.65464 -0.36476,0.36476 2.02031,-2.0203 0.21641,-0.21641 1.63847,-3.27696 2.0203,-4.04061 0.21296,-0.42592 0.7972,-0.58424 1.01015,-1.01016 0.30496,-0.6099 -0.46695,-2.5635 0,-3.03045 0.34163,-0.34163 6.71741,0 10.10153,0 3.79655,0 29.80522,-0.75476 31.31473,0 0.42592,0.21296 0.58423,0.79719 1.01015,1.01015 0.60234,0.30117 1.54412,-0.47619 2.02031,0 0.23809,0.23809 -0.2381,0.77206 0,1.01015 0.40571,0.40572 2.45914,-0.19044 3.03045,0 1.72023,0.57341 3.36718,1.34687 5.05077,2.02031 z"
       id="path3014"
       inkscape:connector-curvature="0" />
    <path
       style="fill:#a0892c;stroke:#000000;stroke-width:1px;stroke-linecap:butt;stroke-linejoin:miter;stroke-opacity:1"
       d="m -698.01541,148.27565 c -0.18153,1.59241 -11.2494,5.18849 -12.12183,6.06092 -0.23809,0.2381 0.2381,0.77206 0,1.01015 -0.47619,0.47619 -1.41797,-0.30117 -2.0203,0 -0.42592,0.21296 -0.53397,1.01015 -1.01016,1.01015 -0.67343,0 0,-1.34687 0,-2.0203 0,-0.9061 -0.73564,-4.22722 -1.01015,-5.05076 -0.49387,-1.4816 -3.94618,-1.92588 -4.04061,-2.02031 -0.50508,-0.50507 -0.50508,-1.51523 -1.01015,-2.0203 -1.24586,-1.24586 -1.91929,0.90913 -2.02031,1.01015 -0.80626,0.80626 -3.99097,-0.5299 -5.05076,0 -0.42592,0.21296 -0.58423,0.79719 -1.01015,1.01015 -1.07281,0.53641 -3.14014,0.10969 -4.04061,1.01015 -0.47619,0.4762 0.47619,1.54412 0,2.02031 -0.5324,0.5324 -1.48791,0.47776 -2.02031,1.01015 -0.23809,0.2381 0.2381,0.77206 0,1.01015 -0.23809,0.2381 -0.77206,-0.23809 -1.01015,0 -0.2381,0.2381 0.23809,0.77206 0,1.01016 -0.93948,0.93948 -0.68551,-0.64928 -2.02031,2.0203 -0.42591,0.85184 -1.59438,1.16847 -2.0203,2.02031 -0.15059,0.30117 0.23809,0.77205 0,1.01015 -0.2381,0.2381 -1.34687,0 -1.01015,0 0.20654,0 6.57177,-0.49929 7.07106,0 0.4762,0.47619 -0.47619,1.54411 0,2.02031 1.58699,1.58698 8.51454,-2.59715 10.10153,-1.01016 0.47619,0.47619 0.30117,1.41797 0,2.02031 -1.45952,2.91904 -1.70717,0.85358 -4.04061,2.0203 -1.35295,0.67648 -1.3997,2.40985 -2.02031,3.03046 -0.23809,0.2381 -0.77205,-0.23809 -1.01015,0 -0.23809,0.2381 0.2381,0.77206 0,1.01015 -0.69653,0.69653 -10.17694,-0.48622 -12.12183,0 -2.08304,0.52076 -2.47543,1.92041 -3.03046,3.03046 -0.67647,1.35295 -2.40985,1.3997 -3.03045,2.02031 -0.2381,0.23809 0.23809,0.77205 0,1.01015 -0.2381,0.23809 -0.77206,-0.2381 -1.01016,0 -2.0075,2.0075 1.53267,1.53266 2.02031,2.0203 0.47619,0.47619 0,1.34687 0,2.02031 0,0.33672 0.23809,0.77206 0,1.01015 -0.25705,0.25705 -3.77814,1.75783 -4.04061,2.02031 -0.34819,0.34819 -1.01015,5.03575 -1.01015,6.06091 0,1.71014 -0.74829,5.57451 0,7.07107 0.67647,1.35295 2.40985,1.3997 3.03045,2.0203 0.2381,0.2381 -0.23809,0.77206 0,1.01016 0.47619,0.47619 1.41797,-0.30117 2.02031,0 4.20401,2.102 -1.07989,-0.0697 1.01015,2.0203 0.50508,0.50508 2.52538,-0.50507 3.03046,0 0.23809,0.2381 -0.2381,0.77206 0,1.01015 0.86951,0.86952 3.60833,1.01016 5.05076,1.01016 1.01015,0 3.03046,-1.01016 3.03046,0 0,0.33671 -1.01015,0.33671 -1.01015,0 0,-0.47619 0.79719,-0.58424 1.01015,-1.01016 0.41947,-0.83893 0.50338,-7.32615 0,-8.08122 -0.91347,-1.3702 -6.06092,-6.09058 -6.06092,-7.07106 0,-0.60162 4.70482,0.6642 5.05077,1.01015 0.23809,0.23809 -0.2381,0.77206 0,1.01015 0.47619,0.47619 1.41796,-0.30117 2.0203,0 1.34895,0.67448 0.67136,1.34583 2.02031,2.02031 0.60234,0.30117 1.54411,-0.47619 2.0203,0 1.13247,1.13246 -0.74484,5.58138 0,7.07106 2.10201,4.20402 -0.0697,-1.07988 2.02031,1.01016 0.23809,0.23809 -0.2381,0.77205 0,1.01015 0.26739,0.26739 2.61451,0 3.03045,0 0.41595,0 2.76307,0.26739 3.03046,0 0.0388,-0.0388 -0.60588,-8.68711 -1.01015,-9.09137 -0.2381,-0.2381 -0.77206,0.23809 -1.01015,0 -0.47619,-0.47619 0.47619,-1.54412 0,-2.02031 -0.2381,-0.23809 -0.77206,0.2381 -1.01016,0 -0.23809,-0.23809 0.2381,-0.77206 0,-1.01015 -0.64075,-0.64075 -3.19956,0.42052 -4.04061,0 -4.20401,-2.10201 1.07989,0.0697 -1.01015,-2.02031 -0.12664,-0.12664 -2.45967,0.43937 -1.01015,-1.01015 1.80547,-1.80547 4.88625,2.44313 6.06091,3.03046 0.30117,0.15058 0.77206,-0.2381 1.01016,0 0.23809,0.23809 -0.2381,0.77206 0,1.01015 0.23809,0.2381 0.70898,-0.15058 1.01015,0 1.1767,0.58835 1.85376,1.43196 3.03046,2.02031 1.61624,0.80812 4.44467,-0.80813 6.06091,0 4.11005,2.05502 0.45277,-0.37159 4.04061,2.0203 3.87116,2.58077 7.24165,3.37162 9.09138,7.07107 0.74484,1.48968 -1.13247,5.9386 0,7.07107 1.23393,1.23393 2.0203,-0.37848 2.0203,1.01015 0,0.33672 -1.34687,0 -1.01015,0 1.01015,0 2.12695,0.45175 3.03046,0 0.85183,-0.42592 1.16847,-1.59439 2.0203,-2.02031 0.60234,-0.30116 1.54412,0.47619 2.02031,0 0.47619,-0.47619 -0.47619,-1.54411 0,-2.0203 0.23809,-0.2381 0.77205,0.23809 1.01015,0 0.33487,-0.33487 -0.33487,-1.68544 0,-2.02031 0.23809,-0.23809 0.77206,0.2381 1.01015,0 0.67344,-0.67343 -0.67343,-3.36717 0,-4.04061 0.67969,-0.67968 8.10864,0.76447 9.09137,1.01016 4.03618,1.00904 0.0155,1.0179 4.04061,3.03045 0.60234,0.30117 1.41797,-0.30116 2.02031,0 1.68069,0.84035 2.45485,2.23758 4.04061,3.03046 0.60234,0.30117 1.54411,-0.47619 2.0203,0 0.50508,0.50508 0.50508,1.51523 1.01016,2.02031 0.11468,0.11468 9.5352,1.57647 10.10152,1.01015 0.2381,-0.2381 -0.23809,-0.77206 0,-1.01015 1.34687,-1.34687 0.9693,2.14285 2.02031,-1.01016 0.068,-0.20385 -0.33609,-3.70452 0,-4.04061 0.23809,-0.23809 0.77206,0.2381 1.01015,0 0.66224,-0.66223 0.50407,-3.53452 1.01015,-4.04061 0.2381,-0.23809 0.77206,0.2381 1.01016,0 0.58707,-0.58707 0.58569,-3.19169 1.01015,-4.04061 0.21296,-0.42591 0.79719,-0.58423 1.01015,-1.01015 1.61603,-3.23206 -1.15427,-8.65902 0,-12.12183 0.47583,-1.42749 1.94119,-1.94118 2.02031,-2.0203 0.23809,-0.2381 -0.2381,-0.77206 0,-1.01016 0.29071,-0.29071 3.03045,-1.07937 3.03045,-4.04061 0,-2.21755 1.01016,-2.20558 1.01016,-4.04061 0,-0.67343 -0.67344,-2.0203 0,-2.0203 0.33671,0 0.15058,1.31132 0,1.01015 -0.47619,-0.95238 -0.46232,-2.1174 -1.01016,-3.03046 -1.72525,-2.87541 -5.58085,-2.07034 -7.07106,-5.05076 -0.51719,-1.03437 -0.0834,-5.97754 0,-6.06092 0.23809,-0.23809 0.77205,0.2381 1.01015,0 0.47619,-0.47619 0,-1.34687 0,-2.0203 0,-1.20333 0.19391,-9.90761 0,-10.10153 -0.2381,-0.23809 -0.77206,0.2381 -1.01015,0 -0.47619,-0.47619 0.47619,-1.54411 0,-2.0203 -0.33672,-0.33672 -2.69374,-0.67344 -3.03046,-1.01015 -2.09004,-2.09005 3.19386,0.0817 -1.01015,-2.02031 -0.60234,-0.30117 -1.54412,0.47619 -2.02031,0 -0.50508,-0.50507 -0.50508,-1.51523 -1.01015,-2.0203 -1.65016,-1.65016 -2.77211,1.76195 -3.03046,2.0203 -0.23809,0.2381 -0.77206,-0.23809 -1.01015,0 -0.2381,0.2381 0.30117,0.85957 0,1.01015 -0.60234,0.30117 -1.41797,-0.30117 -2.02031,0 -0.30117,0.15059 0.30117,0.85957 0,1.01016 -1.76725,0.88362 -14.49263,-0.21989 -18.18274,1.01015 -2.33409,0.77803 0.0317,2.99871 -1.01016,4.04061 -0.23809,0.23809 -0.77205,-0.2381 -1.01015,0 -0.62061,0.62061 -0.66735,2.35398 -2.0203,3.03046 -1.27534,0.63766 -5.09118,-0.96974 -6.06092,0 -3.0632,3.0632 7.07313,0.25202 -4.04061,3.03045 z"
       id="path3016"
       inkscape:connector-curvature="0" />
    <path
       style="fill:#a0892c;stroke:#000000;stroke-width:1px;stroke-linecap:butt;stroke-linejoin:miter;stroke-opacity:1"
       d="m -622.25397,198.78328 c -1.62461,1.98034 1.15504,6.7813 0,9.09137 -2.102,4.20402 0.0697,-1.07988 -2.0203,1.01016 -0.5324,0.53239 -0.47776,1.48791 -1.01016,2.0203 -0.28217,0.28218 -7.05828,3.52914 -8.08122,4.04061 -0.60233,0.30117 -1.54411,-0.47619 -2.0203,0 -0.2381,0.2381 0.23809,0.77206 0,1.01016 -0.3352,0.33519 -1.68511,-0.3352 -2.02031,0 -0.571,0.571 -0.18174,8.36438 0,9.09137 0.23099,0.92394 1.59439,1.16847 2.02031,2.0203 0.69668,1.39336 -1.22335,0.90356 1.01015,2.02031 0.30117,0.15058 0.77206,-0.2381 1.01015,0 0.64076,0.64075 -0.42052,3.19957 0,4.04061 2.10201,4.20401 -0.0697,-1.07989 2.02031,1.01015 0.23809,0.2381 -0.15059,0.70898 0,1.01015 0.42592,0.85184 1.59439,1.16847 2.0203,2.02031 0.30117,0.60234 -0.47619,1.54411 0,2.0203 0.2381,0.2381 0.77206,-0.23809 1.01016,0 0.67343,0.67344 -0.67344,3.36718 0,4.04061 1.82966,1.82967 5.20931,-2.17885 6.06091,-3.03045 1.01015,-1.01016 2.39158,-1.75271 3.03046,-3.03046 0.15058,-0.30117 -0.2381,-0.77206 0,-1.01015 0.23809,-0.2381 0.77206,0.23809 1.01015,0 0.46696,-0.46696 -0.30495,-2.42056 0,-3.03046 0.42592,-0.85184 1.59439,-1.16847 2.02031,-2.02031 0.30495,-0.6099 -0.46696,-2.5635 0,-3.03045 0.23809,-0.2381 0.77205,0.23809 1.01015,0 0.2381,-0.2381 -0.2381,-0.77206 0,-1.01016 1.74451,-1.74451 2.0203,2.52818 2.0203,-4.04061 0,-5.66838 1.41075,-14.3511 -1.01015,-19.1929 -0.79524,-1.59047 -8.91743,-3.65707 -8.08122,-5.05076 1.01015,-1.68359 3.36718,2.02031 0,0 z"
       id="path3018"
       inkscape:connector-curvature="0" />
    <path
       transform="translate(85.714286,54.285714)"
       d="m -694.28571,149.50504 a 80,80 0 1 1 -160,0 80,80 0 1 1 160,0 z"
       sodipodi:ry="80"
       sodipodi:rx="80"
       sodipodi:cy="149.50504"
       sodipodi:cx="-774.28571"
       id="path3020"
       style="fill:url(#radialGradient3028);fill-opacity:1;stroke:none"
       sodipodi:type="arc" />
    <path
       d="m -628.5714,669.50507 a 154.28572,154.28572 0 1 1 -308.57144,0 154.28572,154.28572 0 1 1 308.57144,0 z"
       sodipodi:ry="154.28572"
       sodipodi:rx="154.28572"
       sodipodi:cy="669.50507"
       sodipodi:cx="-782.85712"
       id="path3050"
       style="fill:url(#radialGradient3058);fill-opacity:1;stroke:none"
       sodipodi:type="arc"
       transform="matrix(1.759485,0,0,1.759485,962.2841,-482.21512)" />
    <path
       sodipodi:type="arc"
       style="fill:#bc5fd3;fill-opacity:1;stroke:none"
       id="path2995"
       sodipodi:cx="14.285714"
       sodipodi:cy="512.36218"
       sodipodi:rx="220"
       sodipodi:ry="220"
       d="m 234.28571,512.36218 a 220,220 0 1 1 -440,0 220,220 0 1 1 440,0 z" />
    <path
       transform="matrix(1.484499,0,0,1.4844991,1177.3344,-481.9787)"
       sodipodi:type="arc"
       style="fill:url(#radialGradient3064);fill-opacity:1;stroke:none"
       id="path3062"
       sodipodi:cx="-782.85712"
       sodipodi:cy="669.50507"
       sodipodi:rx="154.28572"
       sodipodi:ry="154.28572"
       d="m -628.5714,669.50507 a 154.28572,154.28572 0 1 1 -308.57144,0 154.28572,154.28572 0 1 1 308.57144,0 z" />
    <path
       style="fill:url(#radialGradient3125);fill-opacity:1;stroke:none"
       d="m -281.47811,264.89531 c -19.41212,-0.15037 -33.80273,4.72119 -41.75,15.15625 -34.08631,44.75656 62.00191,176.05795 217.59375,301.46875 0.0885,-0.0974 0.19389,-0.1931 0.3125,-0.28125 0.26594,0.13097 0.54659,0.27545 0.8125,0.40625 -0.0166,0.0158 -0.0459,0.0154 -0.0625,0.0312 -0.2505,0.0397 -0.49985,0.0616 -0.75,0.0937 10.14488,8.17234 20.525552,16.30998 31.15625,24.40625 173.86531,132.41462 344.26338,201.10936 380.59375,153.40625 22.6939,-29.79793 -12.28982,-97.97089 -84.125,-177.21875 -1.92937,5.60363 -4.07211,11.08529 -6.40625,16.4375 33.23674,44.53976 46.69138,81.58683 32.40625,100.34375 -28.20385,37.03269 -153.8664,-11.25021 -280.65625,-107.8125 -126.78986,-96.56229 -206.70385,-204.84231 -178.5,-241.875 11.85714,-15.56886 40.94925,-16.0817 80.09375,-4.25 7.7733,-6.80503 16.01075,-13.02448 24.625,-18.65625 -72.17364,-39.10383 -134.78169,-61.34206 -175.34375,-61.65625 z"
       id="path3003"
       inkscape:connector-curvature="0" />
    <path
       sodipodi:type="arc"
       style="fill:#00ffff;fill-opacity:1;stroke:none"
       id="path2999"
       sodipodi:cx="740"
       sodipodi:cy="603.79077"
       sodipodi:rx="220"
       sodipodi:ry="220"
       d="m 960,603.79077 a 220,220 0 1 1 -440,0 220,220 0 1 1 440,0 z" />
    <path
       d="m -628.5714,669.50507 a 154.28572,154.28572 0 1 1 -308.57144,0 154.28572,154.28572 0 1 1 308.57144,0 z"
       sodipodi:ry="154.28572"
       sodipodi:rx="154.28572"
       sodipodi:cy="669.50507"
       sodipodi:cx="-782.85712"
       id="path3066"
       style="fill:url(#radialGradient3082);fill-opacity:1;stroke:none"
       sodipodi:type="arc" />
    <path
       style="fill:#cccccc;stroke:none"
       d="m -721.97669,805.35908 -20.3471,-3.50989 c -3.9556,-3.50607 -6.68062,9.04716 -19.53688,3.24098 -5.60529,-3.24098 -8.44362,-13.21088 -0.21408,-11.78661 8.22958,1.42428 -9.87543,-14.24271 -9.87543,-14.24271 l 19.75091,-11.39418 c 0,0 -4.93772,8.54563 1.6459,14.24271 6.58363,5.69709 21.39683,0 21.39683,0 0,0 9.87551,-8.54563 4.93774,-14.24271 -4.93774,-5.69709 -14.81322,-5.69709 -14.81322,-5.69709 l 16.45914,-14.24272 16.4591,17.09126 c 0,0 -6.58367,-5.69708 0,-11.39417 6.58366,-5.69709 18.90215,-1.55832 20.54804,4.13877 1.64595,5.69709 3.55,13.68697 -7.97138,13.68697 -11.52138,0 2.54735,17.26514 2.54735,17.26514 z"
       id="path3937"
       inkscape:connector-curvature="0"
       sodipodi:nodetypes="cccsccscscccssscc" />
    <path
       transform="matrix(1.4517626,0,0,1.4517626,1878.0061,-368.11732)"
       sodipodi:type="arc"
       style="fill:url(#radialGradient3137);fill-opacity:1;stroke:none"
       id="path3135"
       sodipodi:cx="-782.85712"
       sodipodi:cy="669.50507"
       sodipodi:rx="154.28572"
       sodipodi:ry="154.28572"
       d="m -628.5714,669.50507 a 154.28572,154.28572 0 1 1 -308.57144,0 154.28572,154.28572 0 1 1 308.57144,0 z" />
    <path
       sodipodi:type="arc"
       style="fill:#d45500;fill-opacity:1;stroke:none"
       id="path2997"
       sodipodi:cx="394.28571"
       sodipodi:cy="846.64789"
       sodipodi:rx="268.57144"
       sodipodi:ry="268.57144"
       d="m 662.85715,846.64789 a 268.57144,268.57144 0 1 1 -537.14289,0 268.57144,268.57144 0 1 1 537.14289,0 z"
       transform="translate(-50.794785,4.7933412)" />
    <path
       d="m -628.5714,669.50507 a 154.28572,154.28572 0 1 1 -308.57144,0 154.28572,154.28572 0 1 1 308.57144,0 z"
       sodipodi:ry="154.28572"
       sodipodi:rx="154.28572"
       sodipodi:cy="669.50507"
       sodipodi:cx="-782.85712"
       id="path3165"
       style="fill:url(#radialGradient3167);fill-opacity:1;stroke:none"
       sodipodi:type="arc"
       transform="matrix(1.7529377,0,0,1.7529377,1715.783,-321.23775)" />
    <path
       transform="translate(-52.815094,4.7933406)"
       d="m 662.85715,846.64789 a 268.57144,268.57144 0 1 1 -537.14289,0 268.57144,268.57144 0 1 1 537.14289,0 z"
       sodipodi:ry="268.57144"
       sodipodi:rx="268.57144"
       sodipodi:cy="846.64789"
       sodipodi:cx="394.28571"
       id="path3155"
       style="fill:url(#radialGradient3163);fill-opacity:1;stroke:none"
       sodipodi:type="arc" />
    <text
       xml:space="preserve"
       style="font-size:40px;font-style:normal;font-weight:normal;line-height:83.99999738%;letter-spacing:0px;word-spacing:0px;fill:#b3b3b3;fill-opacity:1;stroke:none;font-family:Sans"
       id="text3939"
       sodipodi:linespacing="83.999997%"
       transform="matrix(1.0462034,0,0,1.0653921,43.650177,-54.46528)"><textPath
         xlink:href="#path3947"
         id="textPath3949"
         style="font-size:40.72917938px">рыхтуем  каманду</textPath></text>
    <path
       sodipodi:type="arc"
       style="fill:none;stroke:none"
       id="path3947"
       sodipodi:cx="-776.80731"
       sodipodi:cy="681.63617"
       sodipodi:rx="144.45181"
       sodipodi:ry="144.45181"
       d="m -632.3555,681.63617 a 144.45181,144.45181 0 1 1 -288.90362,0 144.45181,144.45181 0 1 1 288.90362,0 z"
       transform="matrix(-1.1872543,0,0,1.1872543,-1718.3028,-121.53637)" />
    <text
       xml:space="preserve"
       style="font-size:40px;font-style:normal;font-weight:normal;line-height:125%;letter-spacing:0px;word-spacing:0px;fill:#b3b3b3;fill-opacity:1;stroke:none;font-family:Sans"
       id="text3961"
       sodipodi:linespacing="125%"><textPath
         xlink:href="#path3965"
         id="textPath3967"
         style="font-size:43px">насычаем зместам</textPath></text>
    <path
       sodipodi:type="arc"
       style="fill:none;stroke:none"
       id="path3965"
       sodipodi:cx="-409.11179"
       sodipodi:cy="699.81897"
       sodipodi:rx="269.71072"
       sodipodi:ry="269.71072"
       d="m -139.40106,699.81897 a 269.71072,269.71072 0 1 1 -539.42145,0 269.71072,269.71072 0 1 1 539.42145,0 z"
       transform="matrix(-0.4583519,0.97626285,0.97626285,0.4583519,-1278.7859,799.77306)" />
    <text
       transform="matrix(0.96944884,-0.24529361,0.24529361,0.96944884,566.80902,71.422634)"
       xml:space="preserve"
       style="font-size:40px;font-style:normal;font-weight:normal;line-height:125%;letter-spacing:0px;word-spacing:0px;fill:#b3b3b3;fill-opacity:1;stroke:none;font-family:Sans"
       id="text3961-7"
       sodipodi:linespacing="125%"><textPath
         xlink:href="#path3965-2"
         id="textPath3967-7"
         style="font-size:43px">краўдфандынг</textPath></text>
    <path
       sodipodi:type="arc"
       style="fill:none;stroke:none"
       id="path4001-1"
       sodipodi:cx="-409.11179"
       sodipodi:cy="699.81897"
       sodipodi:rx="269.71072"
       sodipodi:ry="269.71072"
       d="m -139.40106,699.81897 a 269.71072,269.71072 0 1 1 -539.42145,0 269.71072,269.71072 0 1 1 539.42145,0 z"
       transform="matrix(-0.42182922,0.87474548,0.89847167,0.41068986,-456.88084,926.78707)" />
    <text
       xml:space="preserve"
       style="font-size:40px;font-style:normal;font-weight:normal;line-height:125%;letter-spacing:0px;word-spacing:0px;fill:#b3b3b3;fill-opacity:1;stroke:none;font-family:Sans"
       id="text3961-0"
       sodipodi:linespacing="125%"><textPath
         xlink:href="#path4001-9"
         id="textPath4042"
         style="font-size:43px">ствараем дапаможнік</textPath></text>
    <path
       sodipodi:type="arc"
       style="fill:none;stroke:none"
       id="path4001-9"
       sodipodi:cx="-409.11179"
       sodipodi:cy="699.81897"
       sodipodi:rx="269.71072"
       sodipodi:ry="269.71072"
       d="m -139.40106,699.81897 a 269.71072,269.71072 0 1 1 -539.42145,0 269.71072,269.71072 0 1 1 539.42145,0 z"
       transform="matrix(-0.34123736,-0.82375428,0.82375428,-0.34123736,-700.12371,412.93872)" />
    <text
       transform="matrix(0.91747018,0,0,0.91747018,723.82136,139.38382)"
       xml:space="preserve"
       style="font-size:40px;font-style:normal;font-weight:normal;line-height:125%;letter-spacing:0px;word-spacing:0px;fill:#b3b3b3;fill-opacity:1;stroke:none;font-family:Sans"
       id="text3961-0-6"
       sodipodi:linespacing="125%"><textPath
         xlink:href="#path4001-9-4"
         id="textPath4042-0"
         style="font-size:46.86800766px">прэзентацыя</textPath></text>
  </g>
</svg>
