<?xml version="1.0" encoding="UTF-8" standalone="no"?>
<!-- Created with Inkscape (http://www.inkscape.org/) -->

<svg
   xmlns:dc="http://purl.org/dc/elements/1.1/"
   xmlns:cc="http://creativecommons.org/ns#"
   xmlns:rdf="http://www.w3.org/1999/02/22-rdf-syntax-ns#"
   xmlns:svg="http://www.w3.org/2000/svg"
   xmlns="http://www.w3.org/2000/svg"
   xmlns:sodipodi="http://sodipodi.sourceforge.net/DTD/sodipodi-0.dtd"
   xmlns:inkscape="http://www.inkscape.org/namespaces/inkscape"
   width="744.09448819"
   height="1052.3622047"
   id="svg4698"
   version="1.1"
   inkscape:version="0.48.2 r9819"
   sodipodi:docname="story_print_2.svg">
  <defs
     id="defs4700">
    <clipPath
       clipPathUnits="userSpaceOnUse"
       id="clipPath4791">
      <rect
         style="fill:#674561;fill-opacity:1;stroke:#000000;stroke-width:0.89235932;stroke-linecap:round;stroke-linejoin:round;stroke-miterlimit:4;stroke-opacity:1;stroke-dasharray:none"
         id="rect4793"
         width="1629.0129"
         height="1157.1428"
         x="1043.9113"
         y="1054.6479" />
    </clipPath>
  </defs>
  <sodipodi:namedview
     id="base"
     pagecolor="#ffffff"
     bordercolor="#666666"
     borderopacity="1.0"
     inkscape:pageopacity="0.0"
     inkscape:pageshadow="2"
     inkscape:zoom="0.175"
     inkscape:cx="375"
     inkscape:cy="39.462703"
     inkscape:document-units="px"
     inkscape:current-layer="layer1"
     showgrid="false"
     inkscape:window-width="1366"
     inkscape:window-height="706"
     inkscape:window-x="-8"
     inkscape:window-y="-8"
     inkscape:window-maximized="1" />
  <metadata
     id="metadata4703">
    <rdf:RDF>
      <cc:Work
         rdf:about="">
        <dc:format>image/svg+xml</dc:format>
        <dc:type
           rdf:resource="http://purl.org/dc/dcmitype/StillImage" />
        <dc:title></dc:title>
      </cc:Work>
    </rdf:RDF>
  </metadata>
  <g
     inkscape:label="Layer 1"
     inkscape:groupmode="layer"
     id="layer1">
    <g
       id="g4786"
       clip-path="url(#clipPath4791)">
      <rect
         y="1056.0765"
         x="1049.4935"
         height="1157.1428"
         width="1629.0129"
         id="rect3060-4-2"
         style="fill:#674561;fill-opacity:1;stroke:#000000;stroke-width:0.89235932;stroke-linecap:round;stroke-linejoin:round;stroke-miterlimit:4;stroke-opacity:1;stroke-dasharray:none" />
      <path
         inkscape:connector-curvature="0"
         id="path4612-8"
         d="m 1625.2497,2206.3727 c 0,0 -59.6722,-70.8609 -67.1312,-164.0986 -7.4591,-93.238 -104.4264,-253.6071 67.1312,-570.6157 171.5577,-317.0088 290.9021,-443.8122 290.9021,-592.99293 0,-149.18054 -14.918,-320.73822 -52.2132,-343.11524 -37.2951,-22.37713 -82.0493,-108.15599 -298.3611,-74.59033 -216.3118,33.56565 -425.1646,44.75415 -466.1892,111.88544 -41.0247,67.13129 -41.0247,130.53299 -41.0247,130.53299 l 18.6476,-436.35313 c 0,0 261.066,-100.69693 481.1073,-3.72946 220.0413,96.96735 402.7875,268.5249 406.517,298.3611 3.7295,29.83606 63.4017,93.23788 3.7295,279.71353 -59.6722,186.47583 -179.0167,354.30393 -182.7462,455.00083 -3.7295,100.6968 -89.5083,268.525 37.2952,570.6156 126.8035,302.0906 272.2545,331.9268 272.2545,331.9268 z"
         style="opacity:0.09292034;fill:#ffffff;fill-opacity:1;stroke:#000000;stroke-width:1.30532992px;stroke-linecap:butt;stroke-linejoin:miter;stroke-opacity:1" />
      <path
         inkscape:connector-curvature="0"
         id="path4610-8"
         d="m 1886.4492,2201.8064 c 0,0 -60.0112,-41.3047 -84.0157,-120.4721 -24.0045,-79.1673 -124.0232,-130.7981 -104.0194,-629.8963 20.0037,-499.09808 24.0044,-592.03365 4.0007,-657.43271 -20.0037,-65.39906 -148.0276,-175.54491 -196.0366,-185.87105 -48.0089,-10.32612 -164.0306,-61.95705 -268.05,-44.74678 -104.0195,17.21038 -164.0307,55.07292 -164.0307,55.07292 l -8.0015,-368.30005 516.0964,3.44212 c 0,0 196.0366,-6.88412 256.0478,86.05134 60.0112,92.93556 100.0187,103.26171 116.0217,247.82807 16.003,144.56636 -76.0142,203.08142 -108.0202,258.15432 -32.006,55.07281 -80.0149,172.10282 -44.0082,258.15422 36.0067,86.0514 20.0037,192.7552 136.0254,296.0168 116.0217,103.2617 -16.003,271.9224 232.0433,375.1841 248.0463,103.2617 484.0904,58.5149 484.0904,58.5149 l 20.0037,278.8067 8.0016,92.9355 z"
         style="opacity:0.32300882;fill:#915b99;fill-opacity:1;stroke:none" />
    </g>
  </g>
</svg>
