<?xml version="1.0" encoding="UTF-8" standalone="no"?>
<!-- Created with Inkscape (http://www.inkscape.org/) -->

<svg
   xmlns:dc="http://purl.org/dc/elements/1.1/"
   xmlns:cc="http://creativecommons.org/ns#"
   xmlns:rdf="http://www.w3.org/1999/02/22-rdf-syntax-ns#"
   xmlns:svg="http://www.w3.org/2000/svg"
   xmlns="http://www.w3.org/2000/svg"
   xmlns:sodipodi="http://sodipodi.sourceforge.net/DTD/sodipodi-0.dtd"
   xmlns:inkscape="http://www.inkscape.org/namespaces/inkscape"
   width="744.09448819"
   height="1052.3622047"
   id="svg4698"
   version="1.1"
   inkscape:version="0.48.2 r9819"
   sodipodi:docname="New document 8">
  <defs
     id="defs4700">
    <clipPath
       clipPathUnits="userSpaceOnUse"
       id="clipPath4779">
      <rect
         style="fill:#674561;fill-opacity:1;stroke:#000000;stroke-width:0.89235932;stroke-linecap:round;stroke-linejoin:round;stroke-miterlimit:4;stroke-opacity:1;stroke-dasharray:none"
         id="rect4781"
         width="1629.0129"
         height="1157.1428"
         x="-941.36359"
         y="-109.0663" />
    </clipPath>
  </defs>
  <sodipodi:namedview
     id="base"
     pagecolor="#ffffff"
     bordercolor="#666666"
     borderopacity="1.0"
     inkscape:pageopacity="0.0"
     inkscape:pageshadow="2"
     inkscape:zoom="0.175"
     inkscape:cx="375"
     inkscape:cy="39.462703"
     inkscape:document-units="px"
     inkscape:current-layer="layer1"
     showgrid="false"
     inkscape:window-width="1366"
     inkscape:window-height="706"
     inkscape:window-x="-8"
     inkscape:window-y="-8"
     inkscape:window-maximized="1" />
  <metadata
     id="metadata4703">
    <rdf:RDF>
      <cc:Work
         rdf:about="">
        <dc:format>image/svg+xml</dc:format>
        <dc:type
           rdf:resource="http://purl.org/dc/dcmitype/StillImage" />
        <dc:title></dc:title>
      </cc:Work>
    </rdf:RDF>
  </metadata>
  <g
     inkscape:label="Layer 1"
     inkscape:groupmode="layer"
     id="layer1">
    <g
       id="g4764"
       transform="translate(-1211.4286,205.71429)"
       clip-path="url(#clipPath4779)">
      <rect
         y="-103.35209"
         x="-942.94574"
         height="1157.1428"
         width="1629.0129"
         id="rect3060-4"
         style="fill:#674561;fill-opacity:1;stroke:#000000;stroke-width:0.89235932;stroke-linecap:round;stroke-linejoin:round;stroke-miterlimit:4;stroke-opacity:1;stroke-dasharray:none" />
      <path
         inkscape:connector-curvature="0"
         id="path4612-8"
         d="m -369.03598,2194.9441 c 0,0 -59.67223,-70.8609 -67.13123,-164.0986 -7.45904,-93.238 -104.42639,-253.6071 67.13123,-570.6157 171.55766,-317.0088 290.902109,-443.8122 290.902109,-592.9929 0,-149.18054 -14.918054,-320.73822 -52.213199,-343.11524 -37.29514,-22.37713 -82.04931,-108.15599 -298.36114,-74.59033 -216.31178,33.56565 -425.16455,44.75415 -466.18921,111.88544 -41.02467,67.13129 -41.02467,130.53299 -41.02467,130.53299 l 18.64758,-436.35313 c 0,0 261.06597,-100.69693 481.1073,-3.72946 220.04133,96.96735 402.787528,268.5249 406.517025,298.3611 3.72951,29.83606 63.401735,93.23788 3.72951,279.71353 -59.672204,186.4758 -179.016685,354.3039 -182.746205,455.0008 -3.72951,100.6968 -89.50834,268.525 37.29516,570.6156 126.803481,302.0906 272.25453,331.9268 272.25453,331.9268 z"
         style="opacity:0.09292034;fill:#ffffff;fill-opacity:1;stroke:#000000;stroke-width:1.30532992px;stroke-linecap:butt;stroke-linejoin:miter;stroke-opacity:1" />
      <path
         inkscape:connector-curvature="0"
         id="path4610-8"
         d="m -107.83652,2190.3778 c 0,0 -60.0112,-41.3047 -84.01569,-120.4721 -24.00448,-79.1673 -124.02315,-130.7981 -104.01943,-629.8963 20.00375,-499.09805 24.00448,-592.03362 4.00076,-657.43268 -20.00374,-65.39906 -148.02763,-175.54491 -196.0366,-185.87105 -48.00896,-10.32612 -164.03064,-61.95705 -268.05004,-44.74678 -104.01945,17.21038 -164.03067,55.07292 -164.03067,55.07292 l -8.00153,-368.30005 516.09644,3.44212 c 0,0 196.03659,-6.88412 256.04779,86.05134 60.011228,92.93556 100.018693,103.26171 116.02167,247.82807 16.002987,144.56636 -76.0142,203.08142 -108.02017,258.15432 -32.00597,55.07281 -80.01495,172.10279 -44.00822,258.15419 36.00672,86.0514 20.00373,192.7552 136.025413,296.0168 116.021651,103.2617 -16.003006,271.9224 232.043247,375.1841 248.04639,103.2617 484.09048,58.5149 484.09048,58.5149 l 20.0037,278.8067 8.00152,92.9355 z"
         style="opacity:0.32300882;fill:#915b99;fill-opacity:1;stroke:none" />
    </g>
  </g>
</svg>
