<?xml version="1.0" encoding="UTF-8" standalone="no"?>
<!-- Created with Inkscape (http://www.inkscape.org/) -->

<svg
   xmlns:dc="http://purl.org/dc/elements/1.1/"
   xmlns:cc="http://creativecommons.org/ns#"
   xmlns:rdf="http://www.w3.org/1999/02/22-rdf-syntax-ns#"
   xmlns:svg="http://www.w3.org/2000/svg"
   xmlns="http://www.w3.org/2000/svg"
   xmlns:xlink="http://www.w3.org/1999/xlink"
   xmlns:sodipodi="http://sodipodi.sourceforge.net/DTD/sodipodi-0.dtd"
   xmlns:inkscape="http://www.inkscape.org/namespaces/inkscape"
   width="744.09448819"
   height="1052.3622047"
   id="svg4698"
   version="1.1"
   inkscape:version="0.48.2 r9819"
   sodipodi:docname="story_print_5.svg"
   inkscape:export-filename="D:\Dropbox\wiki_dapamozhnik\story\story_print_5.png"
   inkscape:export-xdpi="82.055557"
   inkscape:export-ydpi="82.055557">
  <defs
     id="defs4700">
    <clipPath
       clipPathUnits="userSpaceOnUse"
       id="clipPath4791">
      <rect
         style="fill:#674561;fill-opacity:1;stroke:#000000;stroke-width:0.89235932;stroke-linecap:round;stroke-linejoin:round;stroke-miterlimit:4;stroke-opacity:1;stroke-dasharray:none"
         id="rect4793"
         width="1629.0129"
         height="1157.1428"
         x="1043.9113"
         y="1054.6479" />
    </clipPath>
    <linearGradient
       id="linearGradient4529">
      <stop
         style="stop-color:#ff3c50;stop-opacity:0.04464286;"
         offset="0"
         id="stop4531" />
      <stop
         style="stop-color:#000f24;stop-opacity:1;"
         offset="1"
         id="stop4533" />
    </linearGradient>
    <linearGradient
       id="linearGradient3157">
      <stop
         style="stop-color:#ffffff;stop-opacity:1;"
         offset="0"
         id="stop3159" />
      <stop
         style="stop-color:#14d125;stop-opacity:0;"
         offset="1"
         id="stop3161" />
    </linearGradient>
    <linearGradient
       id="linearGradient3119">
      <stop
         style="stop-color:#fbf6b1;stop-opacity:1;"
         offset="0"
         id="stop3121" />
      <stop
         id="stop3133"
         offset="0.5865202"
         style="stop-color:#88ca37;stop-opacity:1;" />
      <stop
         id="stop3131"
         offset="0.62734139"
         style="stop-color:#72b69a;stop-opacity:1;" />
      <stop
         id="stop3129"
         offset="0.7027331"
         style="stop-color:#cb892b;stop-opacity:1;" />
      <stop
         id="stop3127"
         offset="0.8236044"
         style="stop-color:#8437c5;stop-opacity:1;" />
      <stop
         style="stop-color:#0b0b28;stop-opacity:1;"
         offset="1"
         id="stop3123" />
    </linearGradient>
    <linearGradient
       id="linearGradient3076">
      <stop
         style="stop-color:#ff534d;stop-opacity:1;"
         offset="0"
         id="stop3078" />
      <stop
         id="stop3088"
         offset="0.32050508"
         style="stop-color:#aace72;stop-opacity:1;" />
      <stop
         id="stop3086"
         offset="0.40038487"
         style="stop-color:#739d98;stop-opacity:1;" />
      <stop
         id="stop3084"
         offset="0.66307867"
         style="stop-color:#9a3b3b;stop-opacity:1;" />
      <stop
         style="stop-color:#7e0000;stop-opacity:1;"
         offset="1"
         id="stop3080" />
    </linearGradient>
    <linearGradient
       id="linearGradient3052">
      <stop
         style="stop-color:#d40000;stop-opacity:0;"
         offset="0"
         id="stop3054" />
      <stop
         id="stop3060"
         offset="0.71651864"
         style="stop-color:#7f1111;stop-opacity:0.49803922;" />
      <stop
         style="stop-color:#2a2222;stop-opacity:0.75;"
         offset="1"
         id="stop3056" />
    </linearGradient>
    <linearGradient
       id="linearGradient3032">
      <stop
         style="stop-color:#ff4128;stop-opacity:0.23529412;"
         offset="0"
         id="stop3034" />
      <stop
         id="stop3048"
         offset="0.36289272"
         style="stop-color:#6acba8;stop-opacity:0.627451;" />
      <stop
         id="stop3046"
         offset="0.5186764"
         style="stop-color:#cfc8a5;stop-opacity:0.627451;" />
      <stop
         id="stop3044"
         offset="0.60724843"
         style="stop-color:#dfa860;stop-opacity:0.627451;" />
      <stop
         id="stop3042"
         offset="0.67452949"
         style="stop-color:#d46600;stop-opacity:0.627451;" />
      <stop
         id="stop3040"
         offset="0.89128983"
         style="stop-color:#d40000;stop-opacity:0.627451;" />
      <stop
         style="stop-color:#d40000;stop-opacity:0.627451;"
         offset="1"
         id="stop3036" />
    </linearGradient>
    <linearGradient
       id="linearGradient3022">
      <stop
         style="stop-color:#3737c8;stop-opacity:0;"
         offset="0"
         id="stop3024" />
      <stop
         style="stop-color:#0d0d2b;stop-opacity:0.72321427;"
         offset="1"
         id="stop3026" />
    </linearGradient>
    <radialGradient
       inkscape:collect="always"
       xlink:href="#linearGradient3022"
       id="radialGradient3028"
       cx="-728.17133"
       cy="117.22345"
       fx="-728.17133"
       fy="117.22345"
       r="80"
       gradientUnits="userSpaceOnUse"
       gradientTransform="matrix(-1.0942452,0.81539714,-0.65445223,-0.87825996,-1448.2521,813.92493)" />
    <radialGradient
       inkscape:collect="always"
       xlink:href="#linearGradient3052"
       id="radialGradient3058"
       cx="-664.53259"
       cy="581.99744"
       fx="-664.53259"
       fy="581.99744"
       r="154.28572"
       gradientUnits="userSpaceOnUse"
       gradientTransform="matrix(-0.98012612,0.83558307,-0.66507488,-0.78012265,-999.64508,1615.1765)" />
    <radialGradient
       inkscape:collect="always"
       xlink:href="#linearGradient3052"
       id="radialGradient3064"
       gradientUnits="userSpaceOnUse"
       gradientTransform="matrix(-0.98012612,0.83558307,-0.66507488,-0.78012265,-999.64508,1615.1765)"
       cx="-664.53259"
       cy="581.99744"
       fx="-664.53259"
       fy="581.99744"
       r="154.28572" />
    <radialGradient
       inkscape:collect="always"
       xlink:href="#linearGradient3076"
       id="radialGradient3082"
       cx="-692.94647"
       cy="584.88782"
       fx="-692.94647"
       fy="584.88782"
       r="154.28572"
       gradientUnits="userSpaceOnUse"
       gradientTransform="matrix(-0.91617791,1.0699228,-1.2192335,-1.0440355,-651.07762,1953.8771)" />
    <radialGradient
       inkscape:collect="always"
       xlink:href="#linearGradient3052"
       id="radialGradient3137"
       gradientUnits="userSpaceOnUse"
       gradientTransform="matrix(-0.98012612,0.83558307,-0.66507488,-0.78012265,-999.64508,1615.1765)"
       cx="-664.53259"
       cy="581.99744"
       fx="-664.53259"
       fy="581.99744"
       r="154.28572" />
    <radialGradient
       inkscape:collect="always"
       xlink:href="#linearGradient3157"
       id="radialGradient3163"
       cx="479.09946"
       cy="740.48248"
       fx="479.09946"
       fy="740.48248"
       r="268.57144"
       gradientUnits="userSpaceOnUse"
       gradientTransform="matrix(-0.9128099,0.81302827,-0.79301013,-0.8903333,1503.6364,1010.2374)" />
    <radialGradient
       inkscape:collect="always"
       xlink:href="#linearGradient3052"
       id="radialGradient3167"
       gradientUnits="userSpaceOnUse"
       gradientTransform="matrix(-0.98012612,0.83558307,-0.66507488,-0.78012265,-999.64508,1615.1765)"
       cx="-664.53259"
       cy="581.99744"
       fx="-664.53259"
       fy="581.99744"
       r="154.28572" />
    <path
       sodipodi:type="arc"
       style="fill:none;stroke:#000000"
       id="path3965-6"
       sodipodi:cx="-409.11179"
       sodipodi:cy="699.81897"
       sodipodi:rx="269.71072"
       sodipodi:ry="269.71072"
       d="m -139.40106,699.81897 a 269.71072,269.71072 0 1 1 -539.42145,0 269.71072,269.71072 0 1 1 539.42145,0 z"
       transform="matrix(-0.4583519,0.97626285,0.97626285,0.4583519,-1278.7859,799.77306)" />
    <path
       sodipodi:type="arc"
       style="fill:none;stroke:#000000"
       id="path3965-2"
       sodipodi:cx="-409.11179"
       sodipodi:cy="699.81897"
       sodipodi:rx="269.71072"
       sodipodi:ry="269.71072"
       d="m -139.40106,699.81897 a 269.71072,269.71072 0 1 1 -539.42145,0 269.71072,269.71072 0 1 1 539.42145,0 z"
       transform="matrix(-0.4583519,0.97626285,0.97626285,0.4583519,-1278.7859,799.77306)" />
    <path
       sodipodi:type="arc"
       style="fill:none;stroke:#000000"
       id="path3965-26"
       sodipodi:cx="-409.11179"
       sodipodi:cy="699.81897"
       sodipodi:rx="269.71072"
       sodipodi:ry="269.71072"
       d="m -139.40106,699.81897 a 269.71072,269.71072 0 1 1 -539.42145,0 269.71072,269.71072 0 1 1 539.42145,0 z"
       transform="matrix(-0.4583519,0.97626285,0.97626285,0.4583519,-1278.7859,799.77306)" />
    <path
       sodipodi:type="arc"
       style="fill:none;stroke:#000000"
       id="path4001-9-4"
       sodipodi:cx="-409.11179"
       sodipodi:cy="699.81897"
       sodipodi:rx="269.71072"
       sodipodi:ry="269.71072"
       d="m -139.40106,699.81897 a 269.71072,269.71072 0 1 1 -539.42145,0 269.71072,269.71072 0 1 1 539.42145,0 z"
       transform="matrix(-0.4127545,-0.99639818,0.99639818,-0.4127545,-852.22199,416.60078)" />
    <linearGradient
       id="linearGradient4886">
      <stop
         style="stop-color:#f7fe2c;stop-opacity:1;"
         offset="0"
         id="stop4888" />
      <stop
         style="stop-color:#8d5fd3;stop-opacity:0;"
         offset="1"
         id="stop4890" />
    </linearGradient>
    <path
       sodipodi:type="arc"
       style="fill:none;stroke:#000000"
       id="path4001-9-4-1"
       sodipodi:cx="-409.11179"
       sodipodi:cy="699.81897"
       sodipodi:rx="269.71072"
       sodipodi:ry="269.71072"
       d="m -139.40106,699.81897 a 269.71072,269.71072 0 1 1 -539.42145,0 269.71072,269.71072 0 1 1 539.42145,0 z"
       transform="matrix(-0.4127545,-0.99639818,0.99639818,-0.4127545,-852.22199,416.60078)" />
    <linearGradient
       id="linearGradient3052-4">
      <stop
         style="stop-color:#d40000;stop-opacity:0;"
         offset="0"
         id="stop3054-0" />
      <stop
         id="stop3060-9"
         offset="0.71651864"
         style="stop-color:#7f1111;stop-opacity:0.49803922;" />
      <stop
         style="stop-color:#2a2222;stop-opacity:0.75;"
         offset="1"
         id="stop3056-4" />
    </linearGradient>
    <path
       sodipodi:type="arc"
       style="fill:none;stroke:none"
       id="path4001-9-8"
       sodipodi:cx="-409.11179"
       sodipodi:cy="699.81897"
       sodipodi:rx="269.71072"
       sodipodi:ry="269.71072"
       d="m -139.40106,699.81897 a 269.71072,269.71072 0 1 1 -539.42145,0 269.71072,269.71072 0 1 1 539.42145,0 z"
       transform="matrix(-0.34123736,-0.82375428,0.82375428,-0.34123736,-671.55228,350.08157)" />
    <path
       sodipodi:type="arc"
       style="fill:none;stroke:#000000"
       id="path3965-2-8"
       sodipodi:cx="-409.11179"
       sodipodi:cy="699.81897"
       sodipodi:rx="269.71072"
       sodipodi:ry="269.71072"
       d="m -139.40106,699.81897 a 269.71072,269.71072 0 1 1 -539.42145,0 269.71072,269.71072 0 1 1 539.42145,0 z"
       transform="matrix(-0.4583519,0.97626285,0.97626285,0.4583519,-1278.7859,799.77306)" />
    <linearGradient
       id="linearGradient3157-4">
      <stop
         style="stop-color:#ffffff;stop-opacity:1;"
         offset="0"
         id="stop3159-5" />
      <stop
         style="stop-color:#14d125;stop-opacity:0;"
         offset="1"
         id="stop3161-5" />
    </linearGradient>
    <linearGradient
       id="linearGradient3268">
      <stop
         style="stop-color:#d40000;stop-opacity:0;"
         offset="0"
         id="stop3270" />
      <stop
         id="stop3272"
         offset="0.71651864"
         style="stop-color:#7f1111;stop-opacity:0.49803922;" />
      <stop
         style="stop-color:#2a2222;stop-opacity:0.75;"
         offset="1"
         id="stop3274" />
    </linearGradient>
    <linearGradient
       id="linearGradient3119-7">
      <stop
         style="stop-color:#fbf6b1;stop-opacity:1;"
         offset="0"
         id="stop3121-1" />
      <stop
         id="stop3133-1"
         offset="0.5865202"
         style="stop-color:#88ca37;stop-opacity:1;" />
      <stop
         id="stop3131-5"
         offset="0.62734139"
         style="stop-color:#72b69a;stop-opacity:1;" />
      <stop
         id="stop3129-2"
         offset="0.7027331"
         style="stop-color:#cb892b;stop-opacity:1;" />
      <stop
         id="stop3127-7"
         offset="0.8236044"
         style="stop-color:#8437c5;stop-opacity:1;" />
      <stop
         style="stop-color:#0b0b28;stop-opacity:1;"
         offset="1"
         id="stop3123-6" />
    </linearGradient>
    <linearGradient
       id="linearGradient3285">
      <stop
         style="stop-color:#d40000;stop-opacity:0;"
         offset="0"
         id="stop3287" />
      <stop
         id="stop3289"
         offset="0.71651864"
         style="stop-color:#7f1111;stop-opacity:0.49803922;" />
      <stop
         style="stop-color:#2a2222;stop-opacity:0.75;"
         offset="1"
         id="stop3291" />
    </linearGradient>
    <linearGradient
       id="linearGradient3076-8">
      <stop
         style="stop-color:#ff534d;stop-opacity:1;"
         offset="0"
         id="stop3078-2" />
      <stop
         id="stop3088-4"
         offset="0.32050508"
         style="stop-color:#aace72;stop-opacity:1;" />
      <stop
         id="stop3086-5"
         offset="0.40038487"
         style="stop-color:#739d98;stop-opacity:1;" />
      <stop
         id="stop3084-2"
         offset="0.66307867"
         style="stop-color:#9a3b3b;stop-opacity:1;" />
      <stop
         style="stop-color:#7e0000;stop-opacity:1;"
         offset="1"
         id="stop3080-9" />
    </linearGradient>
    <path
       sodipodi:type="arc"
       style="fill:none;stroke:none"
       id="path3965-4"
       sodipodi:cx="-409.11179"
       sodipodi:cy="699.81897"
       sodipodi:rx="269.71072"
       sodipodi:ry="269.71072"
       d="m -139.40106,699.81897 a 269.71072,269.71072 0 1 1 -539.42145,0 269.71072,269.71072 0 1 1 539.42145,0 z"
       transform="matrix(-0.4583519,0.97626285,0.97626285,0.4583519,-1393.0716,808.34449)" />
    <path
       sodipodi:type="arc"
       style="fill:none;stroke:none"
       id="path3947-2"
       sodipodi:cx="-776.80731"
       sodipodi:cy="681.63617"
       sodipodi:rx="144.45181"
       sodipodi:ry="144.45181"
       d="m -632.3555,681.63617 a 144.45181,144.45181 0 1 1 -288.90362,0 144.45181,144.45181 0 1 1 288.90362,0 z"
       transform="matrix(-1.1872543,0,0,1.1872543,-1822.3028,-121.53637)" />
    <linearGradient
       id="linearGradient3303">
      <stop
         style="stop-color:#d40000;stop-opacity:0;"
         offset="0"
         id="stop3305" />
      <stop
         id="stop3307"
         offset="0.71651864"
         style="stop-color:#7f1111;stop-opacity:0.49803922;" />
      <stop
         style="stop-color:#2a2222;stop-opacity:0.75;"
         offset="1"
         id="stop3309" />
    </linearGradient>
    <linearGradient
       id="linearGradient4561">
      <stop
         id="stop4563"
         offset="0"
         style="stop-color:#fafff7;stop-opacity:1;" />
      <stop
         id="stop4565"
         offset="1"
         style="stop-color:#ffffff;stop-opacity:0;" />
    </linearGradient>
  </defs>
  <sodipodi:namedview
     id="base"
     pagecolor="#ffffff"
     bordercolor="#666666"
     borderopacity="1.0"
     inkscape:pageopacity="0.0"
     inkscape:pageshadow="2"
     inkscape:zoom="0.35"
     inkscape:cx="-685.62807"
     inkscape:cy="-227.78045"
     inkscape:document-units="px"
     inkscape:current-layer="layer1"
     showgrid="false"
     inkscape:window-width="1366"
     inkscape:window-height="706"
     inkscape:window-x="-8"
     inkscape:window-y="-8"
     inkscape:window-maximized="1" />
  <metadata
     id="metadata4703">
    <rdf:RDF>
      <cc:Work
         rdf:about="">
        <dc:format>image/svg+xml</dc:format>
        <dc:type
           rdf:resource="http://purl.org/dc/dcmitype/StillImage" />
        <dc:title></dc:title>
      </cc:Work>
    </rdf:RDF>
  </metadata>
  <g
     inkscape:label="Layer 1"
     inkscape:groupmode="layer"
     id="layer1">
    <g
       id="g4786"
       clip-path="url(#clipPath4791)"
       transform="translate(-2965.7143,-417.14286)"
       style="fill:#d25a34;fill-opacity:1;stroke:none">
      <rect
         y="1056.0765"
         x="1049.4935"
         height="1157.1428"
         width="1629.0129"
         id="rect3060-4-2"
         style="fill:#d25a34;fill-opacity:1;stroke:none;stroke-width:0.89235931999999984;stroke-linecap:round;stroke-linejoin:round;stroke-miterlimit:4;stroke-opacity:1;stroke-dasharray:none" />
      <path
         inkscape:connector-curvature="0"
         id="path4612-8"
         d="m 1625.2497,2206.3727 c 0,0 -59.6722,-70.8609 -67.1312,-164.0986 -7.4591,-93.238 -104.4264,-253.6071 67.1312,-570.6157 171.5577,-317.0088 290.9021,-443.8122 290.9021,-592.99293 0,-149.18054 -14.918,-320.73822 -52.2132,-343.11524 -37.2951,-22.37713 -82.0493,-108.15599 -298.3611,-74.59033 -216.3118,33.56565 -425.1646,44.75415 -466.1892,111.88544 -41.0247,67.13129 -41.0247,130.53299 -41.0247,130.53299 l 18.6476,-436.35313 c 0,0 261.066,-100.69693 481.1073,-3.72946 220.0413,96.96735 402.7875,268.5249 406.517,298.3611 3.7295,29.83606 63.4017,93.23788 3.7295,279.71353 -59.6722,186.47583 -179.0167,354.30393 -182.7462,455.00083 -3.7295,100.6968 -89.5083,268.525 37.2952,570.6156 126.8035,302.0906 272.2545,331.9268 272.2545,331.9268 z"
         style="opacity:0.09292034000000000;fill:#d25a34;fill-opacity:1;stroke:none;stroke-width:1.30532991999999990px;stroke-linecap:butt;stroke-linejoin:miter;stroke-opacity:1" />
      <path
         inkscape:connector-curvature="0"
         id="path4610-8"
         d="m 1886.4492,2201.8064 c 0,0 -60.0112,-41.3047 -84.0157,-120.4721 -24.0045,-79.1673 -124.0232,-130.7981 -104.0194,-629.8963 20.0037,-499.09808 24.0044,-592.03365 4.0007,-657.43271 -20.0037,-65.39906 -148.0276,-175.54491 -196.0366,-185.87105 -48.0089,-10.32612 -164.0306,-61.95705 -268.05,-44.74678 -104.0195,17.21038 -164.0307,55.07292 -164.0307,55.07292 l -8.0015,-368.30005 516.0964,3.44212 c 0,0 196.0366,-6.88412 256.0478,86.05134 60.0112,92.93556 100.0187,103.26171 116.0217,247.82807 16.003,144.56636 -76.0142,203.08142 -108.0202,258.15432 -32.006,55.07281 -80.0149,172.10282 -44.0082,258.15422 36.0067,86.0514 20.0037,192.7552 136.0254,296.0168 116.0217,103.2617 -16.003,271.9224 232.0433,375.1841 248.0463,103.2617 484.0904,58.5149 484.0904,58.5149 l 20.0037,278.8067 8.0016,92.9355 z"
         style="opacity:0.32300881999999997;fill:#d25a34;fill-opacity:1;stroke:none" />
    </g>
    <path
       style="fill:#aa0000;stroke:none;stroke-width:1px;stroke-linecap:butt;stroke-linejoin:miter;stroke-opacity:1;opacity:0.12389381"
       d="m -1907.168,1290.7582 c 0,0 24.2437,-72.731 125.2589,-157.5838 101.0153,-84.8528 290.9239,-218.19296 561.6448,-109.0965 270.72091,109.0965 420.22348,197.9899 557.60423,72.731 137.38075,-125.25892 214.15234,-303.04577 226.27417,-359.61431 12.12183,-56.56854 0,-88.89343 0,-88.89343 l 133.34014,4.04062 -4.04061,549.52302 c 0,0 -250.51783,197.9899 -379.81736,173.7462 -129.29953,-24.2437 -230.31478,-202.0305 -400.02037,-258.5991 -169.7057,-56.5685 -436.3859,-8.0812 -496.9951,149.5026 -60.6091,157.5838 -28.2843,367.6955 44.4467,440.4265 72.731,72.731 165.665,72.731 165.665,72.731 l -537.4011,0 z"
       id="path6290"
       inkscape:connector-curvature="0" />
    <path
       style="fill:#ff9955;stroke:none;stroke-width:1px;stroke-linecap:butt;stroke-linejoin:miter;stroke-opacity:1;fill-opacity:0.3968254"
       d="m -1903.1274,1129.1338 c 0,0 84.8528,-145.46199 230.3148,-177.78687 145.462,-32.32488 197.9899,-64.64976 371.7361,-16.16244 173.7463,48.48732 299.0052,202.03051 408.10165,181.82741 109.09648,-20.203 286.88332,-92.934 274.76149,-270.72084 -12.12183,-177.78684 -72.73098,-202.03051 -72.73098,-202.03051 l 250.51783,8.08123 c 0,0 28.28427,210.11172 -101.01525,339.41125 -129.29953,129.29957 -197.9899,177.78687 -234.35539,181.82747 -36.3655,4.0406 -177.78685,-16.1625 -331.33005,-92.934 -153.5432,-76.7716 -359.6143,-129.29957 -432.3453,-88.89347 -72.731,40.40607 -197.9899,48.48737 -274.7615,177.78687 -76.7716,129.2995 -92.934,254.5584 -92.934,254.5584 z"
       id="path6292"
       inkscape:connector-curvature="0" />
    <text
       xml:space="preserve"
       style="font-size:40px;font-style:normal;font-weight:normal;line-height:125%;letter-spacing:0px;word-spacing:0px;fill:#000000;fill-opacity:1;stroke:none;font-family:Sans"
       x="-3606.1665"
       y="1163.3378"
       id="text4635"
       sodipodi:linespacing="125%"><tspan
         sodipodi:role="line"
         id="tspan4637"
         x="-3606.1665"
         y="1163.3378" /></text>
    <g
       id="g4612"
       transform="matrix(-0.82446217,-0.0551836,-0.0551836,0.82446217,-191.96145,970.98691)"
       style="fill:#e58b59;fill-opacity:1">
      <path
         sodipodi:nodetypes="sssscsssssccssssssssssss"
         inkscape:connector-curvature="0"
         id="path3658-1-3"
         d="m 206.85179,600.97289 c -3.3528,3.35292 -32.9953,-33.65128 -35.6398,-30.94421 -4.5306,4.63796 22.0536,34.42634 21.034,40.40608 -1.0768,6.31446 -36.4522,-17.6306 -38.3075,-13.20786 -1.7711,4.22199 24.1051,13.90774 27.8174,22.21799 -17.0204,4.19548 -60.7276,6.91161 -24.5204,13.82584 4.0333,0.7702 13.998,-4.02702 17.0433,0.21524 4.3716,6.08999 1.0671,22.03056 1.2015,25.5243 0.7841,20.3915 6.0729,43.36491 17.2544,55.68462 30.8202,33.95746 61.9906,29.99606 95.6834,21.17575 29.7343,-7.78406 66.7112,-54.81978 47.0574,-97.25187 -2.8209,-5.23866 -5.204,-25.88809 -23.1656,-42.53291 -1.6653,-22.96406 13.9175,-49.93941 7.9694,-55.2658 -9.4604,-8.47153 -10.7639,45.88828 -27.2236,46.60393 -4.1265,0.17941 -12.4248,-164.03317 -14.6102,-78.89333 -0.1953,7.60753 0.5962,68.89599 -7.2251,73.71134 -4.5057,2.77399 -2.6348,-43.94002 -6.9168,-42.59564 -6.1147,1.91977 -5.0829,37.43547 -9.77,43.75118 -3.3381,4.49809 -11.0318,-39.85045 -16.4128,-38.219 -3.2625,0.98913 6.2941,33.84296 3.9606,39.29708 -2.5782,6.02588 -27.4406,-53.59675 -33.1582,-51.74895 -5.9347,1.91796 12.8863,37.63192 14.2406,57.22289 0.3433,4.9664 -28.0269,-44.27129 -32.1855,-42.8629 -3.946,1.33639 16.3296,53.43016 15.8735,53.88623 z"
         style="fill:#e58b59;fill-opacity:1;stroke:#000000;stroke-width:1.0239625;stroke-linecap:butt;stroke-linejoin:miter;stroke-miterlimit:4;stroke-opacity:1;stroke-dasharray:none" />
      <path
         inkscape:connector-curvature="0"
         id="path3664-7"
         d="m 303.15969,742.21901 c 35.7451,28.08544 42.1282,51.06443 39.5749,70.2136 -2.5532,19.14916 8.9363,66.38377 -14.0427,76.59666 -22.979,10.21285 -80.4264,30.63861 -99.5756,12.76612 -19.1492,-17.87257 -43.4047,-15.31934 -47.2346,-61.27734 -3.8298,-45.958 -10.2129,-74.04343 25.5322,-88.08615 35.7451,-14.04272 95.7458,-10.21289 95.7458,-10.21289 z"
         style="fill:#e58b59;fill-opacity:1;stroke:#000000;stroke-width:0.89362764px;stroke-linecap:butt;stroke-linejoin:miter;stroke-opacity:1" />
      <path
         sodipodi:nodetypes="sssscsssssccssssssssssss"
         inkscape:connector-curvature="0"
         id="path3658-1"
         d="m 207.63609,603.32615 c -3.2125,3.21259 -31.6143,-32.24286 -34.1481,-29.64909 -4.341,4.44385 21.1305,32.98548 20.1536,38.71494 -1.0318,6.05018 -34.9265,-16.89269 -36.7042,-12.65506 -1.697,4.04529 23.0961,13.32565 26.6532,21.28809 -16.3081,4.01988 -58.186,6.62233 -23.4942,13.24718 3.8645,0.73797 13.4121,-3.85848 16.3299,0.20622 4.1886,5.83511 1.0226,21.10851 1.1513,24.45603 0.7514,19.53803 5.8187,41.54993 16.5321,53.354 29.5304,32.53623 59.3961,28.74062 91.6789,20.28947 28.4897,-7.45826 63.919,-52.52537 45.0877,-93.18152 -2.7027,-5.0194 -4.9862,-24.80458 -22.1959,-40.75275 -1.5956,-22.00293 13.335,-47.84927 7.6359,-52.95273 -9.0645,-8.11696 -10.3135,43.96769 -26.0843,44.65339 -3.9537,0.1719 -11.9047,-157.16779 -13.9987,-75.59136 -0.1871,7.28913 0.5713,66.01245 -6.9227,70.62625 -4.317,2.6579 -2.5245,-42.10097 -6.6273,-40.81286 -5.8587,1.83943 -4.8702,35.86866 -9.3611,41.92004 -3.1984,4.30983 -10.57,-38.18256 -15.7259,-36.6194 -3.1258,0.94773 6.0307,32.42652 3.7948,37.65236 -2.4702,5.77366 -26.292,-51.35353 -31.7703,-49.58307 -5.6863,1.83768 12.3469,36.05688 13.6445,54.8279 0.3289,4.75855 -26.8538,-42.41837 -30.8384,-41.06893 -3.7808,1.28046 15.6462,51.19392 15.2092,51.6309 z"
         style="fill:#e58b59;fill-opacity:1;stroke:none" />
      <path
         sodipodi:nodetypes="ccccssc"
         inkscape:connector-curvature="0"
         id="path3660-2"
         d="m 151.48269,768.168 c -18.1873,30.23199 -18.0524,22.19811 -23.3855,52.64598 -6.7267,30.75023 14.7003,43.80721 25.8931,38.99777 41.5707,-20.80115 14.1067,-19.12132 12.4808,-27.10261 -1.4449,-9.66764 11.8952,-38.37386 9.6064,-45.64485 -2.2888,-7.27099 -2.8627,-20.94215 -13.3203,-20.31417 -10.4576,0.62797 -11.2745,1.41788 -11.2745,1.41788 z"
         style="fill:#e58b59;fill-opacity:1;stroke:#000000;stroke-width:0.79542887px;stroke-linecap:butt;stroke-linejoin:miter;stroke-opacity:1" />
      <path
         inkscape:connector-curvature="0"
         id="path3666-6"
         d="m 187.46389,904.21779 c -13.3304,18.88479 -23.3282,18.88479 -24.4391,32.21519 -1.1109,13.3305 12.2196,36.6588 33.3261,31.1044 21.1065,-5.5543 47.7675,-12.2195 46.6567,-18.8848 -1.1109,-6.6652 5.5542,-34.4369 -8.8871,-38.88042 -14.4413,-4.4435 -46.6566,-5.55437 -46.6566,-5.55437 z"
         style="fill:#e58b59;fill-opacity:1;stroke:#000000;stroke-width:0.77760935px;stroke-linecap:butt;stroke-linejoin:miter;stroke-opacity:1" />
      <path
         inkscape:connector-curvature="0"
         id="path3668-0"
         d="m 298.86869,912.90038 c 20,-8.5714 38.5715,-19.99997 44.2858,-7.14283 5.7142,12.85713 18.5714,44.28573 7.1428,49.99993 -11.4286,5.7143 -40,10 -51.4286,8.5715 -11.4285,-1.4286 -11.4285,-10 -10,-22.8572 1.4286,-12.8571 10,-28.5714 10,-28.5714 z"
         style="fill:#e58b59;fill-opacity:1;stroke:#000000;stroke-width:1px;stroke-linecap:butt;stroke-linejoin:miter;stroke-opacity:1" />
      <path
         inkscape:connector-curvature="0"
         id="path3670-4"
         d="m 344.58299,761.47184 c 30,17.14286 30,17.14286 30,17.14286 0,0 1.4286,1.42857 8.5715,24.28571 7.1428,22.85714 18.5714,45.71429 4.2857,47.14286 -14.2857,1.42857 -32.8572,1.42857 -32.8572,1.42857 0,0 -1.4285,-21.42857 -4.2857,-40 -2.8571,-18.57143 -5.7143,-50 -5.7143,-50 z"
         style="fill:#e58b59;fill-opacity:1;stroke:#000000;stroke-width:1px;stroke-linecap:butt;stroke-linejoin:miter;stroke-opacity:1" />
      <path
         transform="matrix(0.84223936,0,0,0.84223936,1312.2526,15.181536)"
         d="m -1252.8571,770.93359 c 0,7.10081 -5.7563,12.85715 -12.8571,12.85715 -7.1008,0 -12.8572,-5.75634 -12.8572,-12.85715 0,-7.1008 5.7564,-12.85714 12.8572,-12.85714 7.1008,0 12.8571,5.75634 12.8571,12.85714 z"
         sodipodi:ry="12.857142"
         sodipodi:rx="12.857142"
         sodipodi:cy="770.93359"
         sodipodi:cx="-1265.7142"
         id="path3676-9"
         style="fill:#e58b59;fill-opacity:1;fill-rule:nonzero;stroke:none"
         sodipodi:type="arc" />
      <path
         transform="matrix(1.0549369,0,0,1.0549369,1660.7874,-144.54051)"
         d="m -1304.2858,765.2193 c 0,5.52285 -4.4771,10 -10,10 -5.5228,0 -10,-4.47715 -10,-10 0,-5.52285 4.4772,-10 10,-10 5.5229,0 10,4.47715 10,10 z"
         sodipodi:ry="10"
         sodipodi:rx="10"
         sodipodi:cy="765.2193"
         sodipodi:cx="-1314.2858"
         id="path3678-4"
         style="fill:#e58b59;fill-opacity:1;fill-rule:nonzero;stroke:none"
         sodipodi:type="arc" />
      <path
         inkscape:connector-curvature="0"
         id="path3719"
         d="m 251.41409,701.45644 c -17.0158,-3.40316 -16.1651,-12.76185 -28.076,-8.5079 -11.9111,4.25395 8.5078,20.41896 19.5681,20.41896 11.0603,0 29.7776,-1.70157 37.4348,-8.5079 7.6571,-6.80632 -28.9269,-3.40316 -28.9269,-3.40316 z"
         style="fill:#e58b59;fill-opacity:1;stroke:#000000;stroke-width:0.84223938px;stroke-linecap:butt;stroke-linejoin:miter;stroke-opacity:1" />
      <path
         inkscape:connector-curvature="0"
         id="path3664-7-0"
         d="m 299.54579,744.91003 c 31.3806,24.65618 36.9843,44.8294 34.7428,61.64044 -2.2414,16.81102 7.8452,58.27824 -12.3281,67.24412 -20.1732,8.96585 -70.6062,26.89757 -87.4173,11.20736 -16.811,-15.6903 -38.1049,-13.44883 -41.4672,-53.79531 -3.3621,-40.34647 -8.9659,-65.00264 22.4147,-77.33072 31.3806,-12.32809 84.0551,-8.96589 84.0551,-8.96589 z"
         style="fill:#e58b59;fill-opacity:1;stroke:none" />
    </g>
    <path
       sodipodi:type="arc"
       style="fill:#ff9955;fill-opacity:1;fill-rule:nonzero;stroke:#4d4d4d"
       id="path6100"
       sodipodi:cx="1048.5714"
       sodipodi:cy="605.2193"
       sodipodi:rx="14.285714"
       sodipodi:ry="12.857142"
       d="m 1062.8571,605.2193 a 14.285714,12.857142 0 1 1 -28.5714,0 14.285714,12.857142 0 1 1 28.5714,0 z"
       transform="matrix(0.79304421,0,0,0.79304421,-1292.7148,1023.0486)" />
    <path
       sodipodi:type="arc"
       style="fill:#ff9955;fill-opacity:1;fill-rule:nonzero;stroke:#4d4d4d"
       id="path6102"
       sodipodi:cx="1101.4286"
       sodipodi:cy="598.07648"
       sodipodi:rx="15.714286"
       sodipodi:ry="17.142857"
       d="m 1117.1429,598.07648 a 15.714286,17.142857 0 1 1 -31.4286,0 15.714286,17.142857 0 1 1 31.4286,0 z"
       transform="matrix(0.79304421,0,0,0.79304421,-1292.7148,1023.0486)" />
  </g>
</svg>
