<?xml version="1.0" encoding="UTF-8" standalone="no"?>
<!-- Created with Inkscape (http://www.inkscape.org/) -->

<svg
   xmlns:dc="http://purl.org/dc/elements/1.1/"
   xmlns:cc="http://creativecommons.org/ns#"
   xmlns:rdf="http://www.w3.org/1999/02/22-rdf-syntax-ns#"
   xmlns:svg="http://www.w3.org/2000/svg"
   xmlns="http://www.w3.org/2000/svg"
   xmlns:sodipodi="http://sodipodi.sourceforge.net/DTD/sodipodi-0.dtd"
   xmlns:inkscape="http://www.inkscape.org/namespaces/inkscape"
   width="744.09448819"
   height="1052.3622047"
   id="svg6189"
   version="1.1"
   inkscape:version="0.48.2 r9819"
   sodipodi:docname="story_print_4.svg"
   inkscape:export-filename="D:\Dropbox\wiki_dapamozhnik\story\story_print_4.png"
   inkscape:export-xdpi="79.478188"
   inkscape:export-ydpi="79.478188">
  <defs
     id="defs6191" />
  <sodipodi:namedview
     id="base"
     pagecolor="#ffffff"
     bordercolor="#666666"
     borderopacity="1.0"
     inkscape:pageopacity="0.0"
     inkscape:pageshadow="2"
     inkscape:zoom="0.49497475"
     inkscape:cx="368.09609"
     inkscape:cy="550.12616"
     inkscape:document-units="px"
     inkscape:current-layer="layer1"
     showgrid="false"
     inkscape:window-width="1366"
     inkscape:window-height="706"
     inkscape:window-x="-8"
     inkscape:window-y="-8"
     inkscape:window-maximized="1" />
  <metadata
     id="metadata6194">
    <rdf:RDF>
      <cc:Work
         rdf:about="">
        <dc:format>image/svg+xml</dc:format>
        <dc:type
           rdf:resource="http://purl.org/dc/dcmitype/StillImage" />
        <dc:title></dc:title>
      </cc:Work>
    </rdf:RDF>
  </metadata>
  <g
     inkscape:label="Layer 1"
     inkscape:groupmode="layer"
     id="layer1">
    <path
       style="fill:#ffeeaa;stroke:#000000;stroke-width:1.47506738px;stroke-linecap:butt;stroke-linejoin:miter;stroke-opacity:1"
       d="m 389.00102,130.47974 c 0,0 1.70734,16.57145 -4.17408,34.25971 -5.88156,17.68819 -16.72042,29.52324 -31.55635,35.07099 -71.9516,20.27508 -123.5567,30.2989 -151.2612,105.34958 -5.10927,52.82783 20.15437,101.47285 65.29295,126.58217 29.18578,11.35659 60.13986,32.67947 91.16509,20.08312 0,0 -22.21172,-10.77458 -41.69982,-30.87334 -8.83152,-9.10868 -24.1677,-33.01459 -23.98289,-37.72285 0.18452,-4.70827 21.30127,8.56867 34.32372,14.55098 29.18149,13.40603 61.45716,8.07116 61.45716,8.07116 0,0 -33.08648,-22.04735 -37.85925,-32.60887 -4.7724,-10.56162 -13.79138,-33.07871 -8.89824,-37.60215 4.89341,-4.52358 17.16192,7.27552 33.20714,6.96223 16.04522,-0.31327 27.56717,-5.51964 27.56717,-5.51964 0,0 -10.62588,-5.60422 -20.72543,-12.60245 -10.09973,-6.99815 -19.73686,-25.76723 -19.89366,-33.7898 -1.90606,-37.55445 29.28133,-43.05159 48.89549,-68.34248 24.33386,-25.06203 20.72084,-42.38278 6.70513,-74.71412 -1.73527,-3.84056 -28.5629,-17.15422 -28.5629,-17.15422 z"
       id="path3123-1-5"
       inkscape:connector-curvature="0"
       sodipodi:nodetypes="csccccssscssscscccc" />
    <path
       style="fill:#ffccaa;stroke:#000000;stroke-width:1.47506738px;stroke-linecap:butt;stroke-linejoin:miter;stroke-opacity:1"
       d="m 420.52218,163.31809 c 0,0 3.63069,29.74728 0.30465,51.72315 -3.32616,21.97585 -11.21371,31.03659 -21.49673,45.24101 -10.28301,14.20438 -40.14653,19.93901 -53.23622,27.65678 -13.08968,7.71777 54.94188,17.81248 54.94188,17.81248 0,0 44.30075,0.34011 68.78804,-3.5815 24.48742,-3.92157 75.85672,-16.90845 85.79031,-24.80078 9.93371,-7.89234 21.03584,-17.83051 21.03584,-17.83051 0,0 -19.16905,3.16055 -34.83295,0.18363 -15.66364,-2.97694 -32.35131,-9.87457 -39.86427,-23.3098 -5.14528,-9.20115 0.40277,-26.35846 0.69384,-31.61854 0.29094,-5.26005 -41.78943,-7.5878 -41.78943,-7.5878 z"
       id="path3143-0-1"
       inkscape:connector-curvature="0"
       sodipodi:nodetypes="cssscsscsascc" />
    <path
       style="fill:#ffe6d5;stroke:#000000;stroke-width:1.47506738px;stroke-linecap:butt;stroke-linejoin:miter;stroke-opacity:1"
       d="m 382.99526,95.632718 c 0,0 -10.63635,1.5221 -5.25547,18.703442 6.24855,8.04653 11.92076,11.8684 17.61673,22.44631 15.21484,28.25527 30.59924,67.4765 57.59005,83.43519 8.29988,2.56953 33.18465,4.95993 41.94968,-0.88658 8.76529,-5.84653 35.23132,-41.74285 36.63233,-47.9967 1.40125,-6.2539 10.51094,-22.20853 10.21534,-35.94286 -0.29522,-13.73437 -1.47069,-21.56156 2.15082,-29.80307 3.62151,-8.241481 7.01044,-12.274939 5.66276,-26.067503 -1.34729,-13.792527 0.46101,-27.410475 -5.50176,-34.071706 -5.96276,-6.661245 -17.59786,-25.243783 -17.59786,-25.243783 0,0 -17.94691,-18.93167 -36.82452,-21.03114142 C 470.75487,-2.92518 429.61035,-3.0907523 416.4623,5.67902 c -13.14779,8.76976 -25.35999,19.701733 -28.27886,34.313505 15.20226,28.72319 -12.18755,55.722545 -5.18818,55.640193 z"
       id="path3119-9-7"
       inkscape:connector-curvature="0"
       sodipodi:nodetypes="ccscsssssscsscc" />
    <path
       style="fill:#ffe680;stroke:#000000;stroke-width:1.47506738px;stroke-linecap:butt;stroke-linejoin:miter;stroke-opacity:1"
       d="m 570.657,65.602345 c -2.08881,-36.792875 -8.42793,-68.7981413 -38.95673,-86.472114 -14.45069,-3.626112 -37.61433,-8.645483 -47.86703,3.819145 -18.52906,-17.959055 -40.2288,-18.871419 -63.95157,-10.804766 -47.71194,15.83596 -66.6742,49.302634 -67.24816,90.195509 -0.16994,22.150437 3.16515,38.163401 6.90779,46.812261 3.74239,8.64888 21.57296,29.68458 21.57296,29.68458 0,0 -2.34126,-14.90271 2.4488,-25.19008 4.78969,-10.28731 15.83836,-0.17908 15.83836,-0.17908 -15.6288,-30.908753 -11.12113,-35.45908 4.89283,-69.374572 0,0 -11.56779,18.354274 -9.10993,31.153027 2.45761,12.798665 5.03182,23.493368 5.03182,23.493368 0,0 0,-18.994349 6.65673,-24.957229 6.66113,-5.96293 21.38453,-24.142626 21.38453,-24.142626 0,0 1.52226,10.636489 5.43924,16.129344 15.51572,-19.767444 45.60792,-32.825618 55.45672,-29.644461 0,0 9.06088,7.887835 8.65358,15.251884 -0.40729,7.364125 10.45724,-17.36045 8.64415,-22.736902 17.19837,2.263924 29.06579,34.38363 33.57421,52.969439 5.30793,29.707308 7.92994,55.255928 12.80378,48.187438 6.76314,-9.80831 9.71735,-14.26698 17.82792,-64.194165 z"
       id="path3121-4-1"
       inkscape:connector-curvature="0"
       sodipodi:nodetypes="cccccscsccscscccsccsc" />
    <path
       style="fill:#f9f9f9;stroke:#000000;stroke-width:1.47506738px;stroke-linecap:butt;stroke-linejoin:miter;stroke-opacity:1"
       d="m 330.36081,124.65356 9.44905,20.00685 c 0,0 0.15748,-7.06618 8.57446,-4.04962 8.4161,3.01654 13.8683,12.09364 13.8683,12.09364 -9.29559,11.19572 -1.95283,8.88928 -16.19609,7.64927 l 9.34339,24.71762 20.40415,-6.141 c 0,0 -7.11874,2.19703 -0.76528,13.17962 6.35232,10.98254 23.44804,5.23868 23.44804,5.23868 0,0 4.41925,-7.91322 -3.3883,-17.04317 -7.8078,-9.1299 16.30176,-12.35995 16.30176,-12.35995 l -10.00478,-16.24887 c -13.21434,8.64818 -19.00452,8.33999 -22.99811,-4.28601 0,0 6.08566,-19.18737 17.14868,-8.09919 4.99233,5.00344 -14.15962,-20.11245 -14.15962,-20.11245 l -46.3132,5.56024 z"
       id="path3125-8-1"
       inkscape:connector-curvature="0"
       sodipodi:nodetypes="ccsccccscscccsccc" />
    <path
       style="fill:#f9f9f9;stroke:#000000;stroke-width:1.47506738px;stroke-linecap:butt;stroke-linejoin:miter;stroke-opacity:1"
       d="m 424.10368,113.79072 c 0,0 7.89648,-3.11091 14.36264,-4.72136 6.46617,-1.61037 6.76063,0.77151 10.96227,1.09849 4.20188,0.32703 15.26125,6.90941 15.26125,6.90941 0,0 -5.84993,3.15291 -11.01647,4.11718 -8.54101,1.59397 -18.32604,3.66556 -29.56969,-7.40378 z"
       id="path3127-8-5"
       inkscape:connector-curvature="0"
       sodipodi:nodetypes="csscsc" />
    <path
       style="fill:#f9f9f9;stroke:#000000;stroke-width:1.47506738px;stroke-linecap:butt;stroke-linejoin:miter;stroke-opacity:1"
       d="m 497.32217,116.02365 c 10.47496,-6.42251 12.55245,-9.53954 20.99094,-8.56685 8.43886,0.97273 13.96603,2.4628 13.96603,2.4628 0,0 -3.1595,6.78875 -11.06692,9.03583 -10.18565,2.89448 -22.80603,0.21882 -23.89005,-2.93178 z"
       id="path3129-2-2"
       inkscape:connector-curvature="0"
       sodipodi:nodetypes="cscsc" />
    <path
       style="fill:none;stroke:#000000;stroke-width:4.42520189;stroke-linecap:butt;stroke-linejoin:miter;stroke-miterlimit:4;stroke-opacity:1;stroke-dasharray:none"
       d="m 465.35236,96.434139 c -10.04629,-6.834087 -10.26553,-9.843244 -24.89874,-7.708703 -14.51773,2.117547 -19.34402,6.31654 -19.34402,6.31654 l 0,0"
       id="path3131-4-7"
       inkscape:connector-curvature="0"
       sodipodi:nodetypes="cscc" />
    <path
       style="fill:none;stroke:#000000;stroke-width:4.42520189;stroke-linecap:butt;stroke-linejoin:miter;stroke-miterlimit:4;stroke-opacity:1;stroke-dasharray:none"
       d="m 500.40845,99.636856 c 5.60919,-6.021157 9.12541,-8.582766 24.33698,-6.594565 10.27296,1.342741 12.77459,3.371282 12.77459,3.371282"
       id="path3133-5-6"
       inkscape:connector-curvature="0"
       sodipodi:nodetypes="csc" />
    <path
       style="fill:#e9afaf;stroke:#000000;stroke-width:1.47506738px;stroke-linecap:butt;stroke-linejoin:miter;stroke-opacity:1"
       d="m 456.03638,183.81228 c 0,0 11.67786,13.37278 24.30201,14.0711 12.62403,0.69832 17.84717,-12.98676 17.84717,-12.98676 l -23.461,0.0135 z"
       id="path3141-7-1"
       inkscape:connector-curvature="0"
       sodipodi:nodetypes="csccc" />
    <path
       style="fill:#ffccaa;stroke:#000000;stroke-width:1.34704983px;stroke-linecap:butt;stroke-linejoin:miter;stroke-opacity:1"
       d="m 282.04888,383.52377 -51.36956,80.7931 c 0,0 -9.92,20.35992 -25.42251,35.65905 -15.50302,15.29913 -22.72062,27.67664 -26.69132,46.46487 -3.97031,18.78828 7.55158,37.08943 7.55158,37.08943 l 32.40464,4.41312 36.58981,-17.73158 28.83811,-62.08121 93.35217,-115.53606 z"
       id="path3149-1-4"
       inkscape:connector-curvature="0"
       sodipodi:nodetypes="ccsscccccc" />
    <path
       style="fill:#ffe6d5;stroke:#000000;stroke-width:1.56489789px;stroke-linecap:butt;stroke-linejoin:miter;stroke-opacity:1"
       d="m 189.74122,517.28477 c 0,0 19.65735,-2.77345 36.05144,4.06621 16.39433,6.83975 41.44867,22.62731 50.06829,35.14031 8.61975,12.51293 16.9966,46.41656 26.66338,59.29025 9.6673,12.87377 47.39018,32.70019 47.39018,32.70019 l 13.7956,11.04136 -10.35321,47.73331 c 0,0 -61.66954,-31.97802 -71.01419,-42.35473 -9.34515,-10.37677 -72.34854,-57.48446 -88.85734,-75.93979 -13.39598,-14.97537 -24.04579,-24.64975 -23.72365,-40.38249 0.25346,-12.39461 19.98088,-31.29434 19.98088,-31.29434 z"
       id="path3151-5-2"
       inkscape:connector-curvature="0"
       sodipodi:nodetypes="cssscccssac" />
    <path
       style="fill:#37c8ab;stroke:#000000;stroke-width:1.47506738px;stroke-linecap:butt;stroke-linejoin:miter;stroke-opacity:1"
       d="m 439.16255,109.0948 c -5.43924,3.69395 -4.89031,12.20112 5.21698,11.08598 0,0 7.48063,-1.69668 3.5634,-7.18951 -3.91711,-5.49284 -8.78038,-3.89647 -8.78038,-3.89647 z"
       id="path3197-8-3"
       inkscape:connector-curvature="0"
       sodipodi:nodetypes="ccsc" />
    <path
       style="fill:none;stroke:#000000;stroke-width:1.47506738px;stroke-linecap:butt;stroke-linejoin:miter;stroke-opacity:1"
       d="M 526.52442,97.426164 z"
       id="path3199-5-2"
       inkscape:connector-curvature="0" />
    <path
       style="fill:#00d4aa;stroke:#000000;stroke-width:1.70892549px;stroke-linecap:butt;stroke-linejoin:miter;stroke-opacity:1"
       d="m 515.7238,118.59953 c 0,0 8.18704,-9.40736 -2.34453,-11.1109 -5.14478,-0.83213 -6.72931,0.48863 -7.71082,3.27019 -0.89886,2.54756 3.43271,7.29208 3.43271,7.29208 z"
       id="path3201-7-2"
       inkscape:connector-curvature="0"
       sodipodi:nodetypes="csacc" />
    <path
       style="fill:#d35f5f;stroke:#000000;stroke-width:1.47506738px;stroke-linecap:butt;stroke-linejoin:miter;stroke-opacity:1"
       d="m 462.67752,177.95663 c 15.0776,-5.49731 9.11836,-6.04303 15.7176,-2.13321 4.62327,2.7393 6.5317,-1.50408 8.63573,-1.38769 2.10377,0.1161 11.07094,7.38087 11.07094,7.38087 -8.83371,1.8494 -10.32704,1.59728 -17.91006,1.99395 -6.37032,0.70288 -34.20616,-3.57767 -34.20616,-3.57767 z"
       id="path3139-9-1"
       inkscape:connector-curvature="0"
       sodipodi:nodetypes="csscccc" />
    <path
       style="fill:#ffccaa;stroke:#000000;stroke-width:1.34704983px;stroke-linecap:butt;stroke-linejoin:miter;stroke-opacity:1"
       d="m 665.86643,328.04821 30.00223,90.91871 c 0,0 4.6277,22.1702 15.90799,40.80211 11.28061,18.63199 15.24466,32.40094 14.48968,51.58933 -0.75539,19.18827 -16.4111,34.10755 -16.4111,34.10755 l -32.498,-3.66317 -31.12821,-26.15823 -12.74386,-67.25552 -62.1898,-134.8913 z"
       id="path3149-1-0-6"
       inkscape:connector-curvature="0"
       sodipodi:nodetypes="ccsscccccc" />
    <path
       style="fill:#f9f9f9;stroke:#000000;stroke-width:1.47506738px;stroke-linecap:butt;stroke-linejoin:miter;stroke-opacity:1"
       d="m 345.2164,284.72478 c 0,0 -13.32679,-7.06855 -39.85094,33.67343 -26.52413,40.74197 -33.41797,50.91293 -37.33042,64.41448 -3.9127,13.50153 -5.3722,20.80746 -5.3722,20.80746 0,0 22.15056,0.17007 36.58779,6.24484 14.4371,6.07475 53.082,23.47801 53.082,23.47801 l 12.37572,-24.07801 c 0,0 -5.43032,21.85943 2.9366,61.3658 3.51057,16.57649 29.14088,30.20251 35.82037,50.55282 9.23988,28.15009 10.5595,66.52343 8.86541,75.00426 -48.061,106.12111 -81.33445,121.96248 -142.4455,174.83864 136.35129,92.31948 44.76589,97.15407 226.66335,100.57747 41.08691,1.21748 90.75093,-6.83308 94.95898,-6.60025 1.34943,0.0742 35.99509,4.82201 63.37556,-31.35748 18.93273,-25.01698 67.67911,-70.13658 47.19167,-91.95575 -25.83806,-27.51759 -3.53455,-6.61243 -72.50862,-94.86097 -13.56012,-17.34948 -17.54956,-83.03146 -25.50591,-106.13855 -10.00088,-29.04442 -2.51975,-63.4532 -2.51975,-63.4532 0,0 12.21233,-10.93195 18.34516,-26.4212 6.13295,-15.48916 2.5605,-46.28846 -7.96402,-65.86483 -2.54252,-4.72893 9.18641,19.95229 11.00427,38.91384 38.05933,-34.07318 46.17837,-67.44704 56.62704,-93.15162 l -44.33509,-42.60991 c 0,0 -11.75119,-16.47849 -31.44842,-22.84426 -19.69711,-6.36575 -27.06138,-6.77309 -27.06138,-6.77309 -25.58264,26.78919 -49.48453,28.67866 -84.50087,39.64535 -68.05219,4.9882 -92.19332,4.2006 -146.99067,-13.40728 z"
       id="path3145-8-8"
       inkscape:connector-curvature="0"
       sodipodi:nodetypes="csscsccsscccssssscsscccscccc" />
    <text
       xml:space="preserve"
       style="font-size:109.75708771px;font-style:normal;font-weight:normal;line-height:125%;letter-spacing:0px;word-spacing:0px;fill:#4d4d4d;fill-opacity:1;stroke:none;font-family:Sans"
       x="397.44614"
       y="487.90555"
       id="text4486-2-5"
       sodipodi:linespacing="125%"
       transform="matrix(0.99882622,-0.04843732,0.04843732,0.99882622,0,0)"><tspan
         sodipodi:role="line"
         id="tspan4488-7-7"
         x="397.44614"
         y="487.90555"
         style="font-style:normal;font-variant:normal;font-weight:normal;font-stretch:normal;fill:#4d4d4d;font-family:EpsilonCTT;-inkscape-font-specification:EpsilonCTT">Вікі</tspan></text>
    <path
       style="fill:#ffe6d5;stroke:#000000;stroke-width:1.56489789px;stroke-linecap:butt;stroke-linejoin:miter;stroke-opacity:1"
       d="m 688.81929,486.44251 c 0,0 -18.35243,7.56906 -29.02068,21.77243 -10.66845,14.20358 -24.26917,40.50927 -25.36011,55.6645 -1.0912,15.15531 8.86553,48.62907 7.05434,64.62593 -1.81145,15.99712 -24.28755,52.20383 -24.28755,52.20383 l -6.29912,16.50913 33.11182,35.90635 c 0,0 36.96406,-58.81633 39.76269,-72.49724 2.79888,-13.68118 33.24699,-86.21716 38.12869,-110.49294 3.96116,-19.6982 8.24085,-33.43494 -0.009,-46.83544 -6.49874,-10.5573 -33.08257,-16.85567 -33.08257,-16.85567 z"
       id="path3151-5-1-6"
       inkscape:connector-curvature="0"
       sodipodi:nodetypes="cssscccssac" />
    <path
       style="fill:#f9f9f9;stroke:#000000;stroke-width:1.89986002px;stroke-linecap:butt;stroke-linejoin:miter;stroke-opacity:1"
       d="m 224.66071,406.91227 -26.81056,67.7119 -12.34529,14.69372 c 0,0 -7.87685,3.40847 37.6883,13.6173 45.56528,10.20888 75.37672,27.2346 75.37672,27.2346 0,0 -7.87686,3.40846 12.98124,-26.19102 20.85836,-29.59952 25.32679,-40.88485 25.32679,-40.88485 0,0 -32.37207,-40.23238 -62.81947,-45.76078 -30.44742,-5.52844 -49.39773,-10.42087 -49.39773,-10.42087 z"
       id="path5247-1"
       inkscape:connector-curvature="0" />
    <path
       style="fill:#999999;stroke:#000000;stroke-width:1.89986002px;stroke-linecap:butt;stroke-linejoin:miter;stroke-opacity:1"
       d="m 498.6599,576.7775 165.20229,-67.74482 c 0,0 18.5262,12.55735 11.93779,62.16704 -6.58846,49.60969 -35.51909,155.64598 -35.51909,155.64598 0,0 -48.74515,47.27766 -94.52238,40.90131 C 499.98116,761.37053 493.7838,664.9236 493.7838,664.9236 z"
       id="path5984-2"
       inkscape:connector-curvature="0" />
    <path
       style="fill:#f2f2f2;stroke:#000000;stroke-width:1.89986002px;stroke-linecap:butt;stroke-linejoin:miter;stroke-opacity:1"
       d="m 515.26153,554.6309 c 0,0 36.82402,-40.24882 42.58088,-5.33291 5.75685,34.91597 5.5449,38.74838 5.5449,38.74838 L 534.6687,690.25022 c 0,0 -20.41773,91.1305 -1.46755,96.02295 18.95019,4.89245 81.7532,-18.54264 81.7532,-18.54264 l 44.27679,-35.99241 c 0,0 -36.20434,-40.44436 -26.20749,-82.17719 9.99686,-41.73284 43.20029,-86.02609 43.20029,-86.02609 0,0 34.70397,-1.92442 9.99689,-41.73281 -24.70709,-39.80837 -56.42661,-22.34218 -56.42661,-22.34218 l -81.54112,14.71022 z"
       id="path5986-3"
       inkscape:connector-curvature="0" />
    <path
       style="fill:none;stroke:#000000;stroke-width:1.50220478px;stroke-linecap:butt;stroke-linejoin:miter;stroke-opacity:1"
       d="m 492.12934,142.97938 c 0,0 -0.37938,3.41427 0.37937,7.96664 4.55232,-1.51746 3.41421,0.37937 3.41421,0.37937 2.92767,6.10127 3.27258,4.62207 -0.37937,9.86344 -2.78201,0 -2.14969,0.37938 -4.9317,0.37938 0,0 -8.34604,4.55238 -14.03647,1.51745 -5.22868,-2.78862 -6.82856,-1.89681 -6.82856,-1.89681 -6.92993,2.45875 -7.44654,-2.2098 -6.82855,-10.24283 l 6.06981,-0.37936"
       id="path5988-3"
       inkscape:connector-curvature="0"
       sodipodi:nodetypes="cccccsccc" />
    <path
       sodipodi:type="arc"
       style="fill:#1a1a1a;fill-opacity:1;fill-rule:nonzero;stroke:#000000;stroke-width:1;stroke-linecap:round;stroke-linejoin:round;stroke-miterlimit:4;stroke-opacity:0.45502642;stroke-dasharray:none;stroke-dashoffset:0"
       id="path5990-4"
       sodipodi:cx="253.39285"
       sodipodi:cy="371.64789"
       sodipodi:rx="2.3214285"
       sodipodi:ry="2.1428571"
       d="m 255.71428,371.64789 a 2.3214285,2.1428571 0 1 1 -4.64286,0 2.3214285,2.1428571 0 1 1 4.64286,0 z"
       transform="matrix(1.5022048,0,0,1.5022048,61.960976,-444.7092)" />
    <path
       sodipodi:type="arc"
       style="fill:#1a1a1a;fill-opacity:1;fill-rule:nonzero;stroke:#000000;stroke-width:1;stroke-linecap:round;stroke-linejoin:round;stroke-miterlimit:4;stroke-opacity:0.45502642;stroke-dasharray:none;stroke-dashoffset:0"
       id="path5992-1"
       sodipodi:cx="299.10715"
       sodipodi:cy="371.11218"
       sodipodi:rx="1.9642857"
       sodipodi:ry="1.9642857"
       d="m 301.07143,371.11218 a 1.9642857,1.9642857 0 1 1 -3.92857,0 1.9642857,1.9642857 0 1 1 3.92857,0 z"
       transform="matrix(1.9532562,0,0,1.7488,-72.550075,-537.29666)" />
    <path
       style="fill:#ffe6d5;fill-opacity:1;stroke:#000000;stroke-width:1.62604606px;stroke-linecap:butt;stroke-linejoin:miter;stroke-opacity:1"
       d="m 619.59863,688.03984 c 0,0 -18.85082,6.46415 -24.57346,7.35302 -5.72239,0.88908 -20.60138,3.20012 -20.60138,3.20012 0,0 2.96289,10.1478 8.88767,10.40624 5.9244,0.25819 28.07421,-0.82516 28.07421,-0.82516 0,0 20.36553,-7.87803 37.66769,-16.45897 11.53991,-5.72316 -36.52304,16.2813 -36.52304,16.2813 l -37.63458,-0.0472 5.55471,11.51297 c 0,0 44.50163,-1.01945 49.48377,0.56391 4.98201,1.58338 -0.41321,0.69371 22.99099,-13.0004 -25.29765,15.48222 -25.23086,13.6689 -25.23086,13.6689 -16.51874,-2.42388 -47.3449,-1.80606 -47.3449,-1.80606 0,0 41.16955,10.1061 51.67232,9.65342 10.50264,-0.45275 22.01496,-5.18776 27.53542,-7.22406 5.52074,-2.03606 25.85173,-23.46362 25.85173,-23.46362 -25.11488,-64.0709 -46.05545,-14.59366 -65.81029,-9.81444 z"
       id="path3153-9-1"
       inkscape:connector-curvature="0"
       sodipodi:nodetypes="cscscscccscccsscc" />
    <path
       style="fill:#ececec;stroke:none"
       d="m 331.07024,303.50367 c 0,0 -6.43799,0 -15.02201,15.02205 -8.58403,15.02205 -32.19005,55.79618 -32.19005,55.79618 l -6.43811,21.46006 c 0,0 23.60616,-4.29201 36.48212,2.146 12.8761,6.43803 23.60604,12.87605 23.60604,12.87605 l 17.16804,-12.87605 15.02214,4.29201 c 0,0 0,36.48213 4.29195,51.50418 4.29207,15.02205 23.60616,36.48211 30.04415,49.35814 6.43798,12.87605 21.45999,34.33611 21.45999,55.79619 0,21.46007 -10.72993,47.21215 -17.16805,62.2342 -6.43798,15.02205 -27.89798,83.69428 -45.06603,94.4243 -17.16804,10.73004 -51.50427,21.46007 -57.94225,36.48212 -6.43798,15.022 25.75207,38.62816 42.92012,53.65017 17.16804,15.02201 19.31408,36.48213 40.77421,38.62817 21.45999,2.14591 141.63645,12.87597 178.11846,8.58402 36.48213,-4.29207 79.4023,-42.92012 87.98633,-57.94225 8.58403,-15.02201 -17.1681,4.29207 -45.06608,12.8761 -27.89811,8.58402 -45.06616,19.31408 -72.96427,4.29195 -27.89811,-15.02201 -49.35823,-53.65018 -64.38024,-38.62805 -15.02201,15.02201 -30.04402,2.14591 -40.77409,-6.43811 -10.73006,-8.58402 -2.14603,-81.54822 6.43799,-103.00829 8.58403,-21.46007 19.31409,-64.38019 30.04415,-77.25624 10.72993,-12.87605 0,-38.62813 -2.14604,-51.50417 -2.14604,-12.87605 -2.14604,-32.19011 -2.14604,-32.19011 0,0 -6.43798,12.87605 -25.75207,8.58404 -19.31408,-4.29202 -49.3581,-34.33612 -49.3581,-45.06614 0,-10.73004 6.43798,-66.52622 15.02201,-79.40227 8.58402,-12.87602 2.14603,-6.43801 -15.02201,-32.19009 -17.16805,-25.75208 -4.29208,-32.19011 -23.60617,-40.77412 -19.31395,-8.58404 -34.33609,-10.73004 -34.33609,-10.73004 z"
       id="path5998-3"
       inkscape:connector-curvature="0" />
    <path
       style="fill:#ffff00;stroke:#000000;stroke-width:1.50220478px;stroke-linecap:butt;stroke-linejoin:miter;stroke-opacity:1"
       d="m 373.99036,535.2724 42.92024,197.43263 23.60604,36.48211 -2.14604,-38.62811 -45.06616,-199.57864 z"
       id="path6000-8"
       inkscape:connector-curvature="0" />
    <path
       style="fill:#ffccaa;stroke:#000000;stroke-width:1.65032506px;stroke-linecap:butt;stroke-linejoin:miter;stroke-opacity:1"
       d="m 358.36445,643.4801 c 0,0 0,8.25163 -5.89396,15.32445 -5.89409,7.07282 -3.53648,22.39727 -3.53648,22.39727 0,0 1.17887,7.07281 -3.53635,9.43042 -14.17069,36.2229 19.27811,32.74102 41.3444,37.56292 25.22527,5.36116 1.20025,-13.78773 -20.12591,-19.88091 8.73056,0.44502 23.87848,11.29292 30.62968,11.1034 8.15924,-0.22902 16.83471,-3.98407 4.73446,-13.46099 -15.32452,-12.96685 -35.36414,-18.86087 -35.36414,-18.86087 l 30.64892,15.32445 c 0,0 11.78793,7.07283 18.86075,15.32445 7.07283,8.25162 20.03975,22.39726 20.03975,22.39726 l 2.35761,-14.14564 c 0,0 5.89396,4.71522 -9.43044,-16.50324 -15.32453,-21.21849 -43.61572,-35.36413 -43.61572,-35.36413 l -5.89408,-5.894 33.00653,11.78802 c 0,0 8.25157,3.53642 15.3244,16.50326 7.07283,12.96685 12.96692,29.47009 12.96692,29.47009 l 7.07283,-8.25162 c 0,0 -4.71522,-14.14564 -7.07283,-23.57608 -2.35761,-9.43042 -21.21849,-30.6489 -21.21849,-30.6489 l -35.36414,-11.78799 45.8181,22.88864 -17.85924,-35.43229 -22.17157,4.29202 -31.721,0"
       id="path5994-7"
       inkscape:connector-curvature="0"
       sodipodi:nodetypes="csccccscccsccscccsccscccccc" />
    <path
       style="fill:#00ffff;stroke:#000000;stroke-width:1.47506738px;stroke-linecap:butt;stroke-linejoin:miter;stroke-opacity:1"
       d="m 445.21387,728.37666 -6.04704,-13.82057 6.8049,-3.53967 5.83623,12.78822 z"
       id="path4458-5-4"
       inkscape:connector-curvature="0" />
    <path
       style="fill:#00ffff;stroke:#000000;stroke-width:1.47506738px;stroke-linecap:butt;stroke-linejoin:miter;stroke-opacity:1"
       d="m 443.24305,733.64977 c 0,0 -4.78289,-7.58985 -8.02956,-8.50576 -3.24641,-0.91591 -5.87987,-0.97493 -6.12339,0.49503 -0.24491,1.46993 3.56025,10.40785 6.80692,11.32384 3.24666,0.91591 7.34603,-3.31311 7.34603,-3.31311 z"
       id="path4462-3-2"
       inkscape:connector-curvature="0" />
    <path
       style="fill:none;stroke:#000000;stroke-width:1.50220478px;stroke-linecap:butt;stroke-linejoin:miter;stroke-opacity:1"
       d="M 431.93261,756.31116 z"
       id="path6002-7"
       inkscape:connector-curvature="0" />
    <path
       style="fill:#1a1a1a;stroke:#000000;stroke-width:1.50220478px;stroke-linecap:butt;stroke-linejoin:miter;stroke-opacity:1"
       d="M 445.66708,772.62072 428.49903,755.45271 441.375,746.86869 z"
       id="path6004-7"
       inkscape:connector-curvature="0" />
    <g
       transform="matrix(0.14295658,-0.30510937,0.30510937,0.14295658,-33.314709,863.97549)"
       id="g5335">
      <rect
         y="155.44742"
         x="1406.3324"
         height="66.591812"
         width="66.591812"
         id="rect3344-8-2-3"
         style="fill:#c35fb0;fill-opacity:1" />
      <rect
         y="287.65564"
         x="1406.6742"
         height="66.591812"
         width="66.591812"
         id="rect3344-1-2-7-3"
         style="fill:#dd39ca;fill-opacity:1" />
      <rect
         y="222.08083"
         x="1473.1284"
         height="66.591812"
         width="66.591812"
         id="rect3344-2-4-6-7"
         style="fill:#c580bb;fill-opacity:1" />
      <rect
         y="222.01689"
         x="1406.549"
         height="66.591812"
         width="66.591812"
         id="rect3344-4-5-1-4"
         style="fill:#ba3293;fill-opacity:1" />
      <rect
         y="354.32233"
         x="1340.1741"
         height="66.591812"
         width="66.591812"
         id="rect3344-0-5-4-3"
         style="fill:#a8188e;fill-opacity:1" />
      <rect
         y="354.32233"
         x="1473.2574"
         height="66.591812"
         width="66.591812"
         id="rect3344-9-2-8"
         style="fill:#c894c9;fill-opacity:1" />
      <rect
         y="221.97559"
         x="1340.0908"
         height="66.591812"
         width="66.591812"
         id="rect3344-3-1-3-0"
         style="fill:#9e1674;fill-opacity:1" />
      <text
         sodipodi:linespacing="125%"
         id="text3017-7-2-8"
         y="288.75418"
         x="1533.1349"
         style="font-size:133.22677612px;font-style:normal;font-weight:normal;line-height:125%;letter-spacing:0px;word-spacing:0px;fill:#808080;fill-opacity:1;stroke:none;font-family:Sans"
         xml:space="preserve"><tspan
           style="font-style:normal;font-variant:normal;font-weight:normal;font-stretch:normal;fill:#808080;font-family:Segoe UI;-inkscape-font-specification:Segoe UI"
           y="288.75418"
           x="1533.1349"
           id="tspan3019-1-2-8"
           sodipodi:role="line">і</tspan></text>
      <rect
         y="292.83536"
         x="1477.2534"
         height="11.189312"
         width="62.807663"
         id="rect3021-1-1-0"
         style="fill:#333333;fill-opacity:1;stroke:none" />
    </g>
  </g>
</svg>
