<?xml version="1.0" encoding="UTF-8" standalone="no"?>
<!-- Created with Inkscape (http://www.inkscape.org/) -->

<svg
   xmlns:dc="http://purl.org/dc/elements/1.1/"
   xmlns:cc="http://creativecommons.org/ns#"
   xmlns:rdf="http://www.w3.org/1999/02/22-rdf-syntax-ns#"
   xmlns:svg="http://www.w3.org/2000/svg"
   xmlns="http://www.w3.org/2000/svg"
   xmlns:xlink="http://www.w3.org/1999/xlink"
   xmlns:sodipodi="http://sodipodi.sourceforge.net/DTD/sodipodi-0.dtd"
   xmlns:inkscape="http://www.inkscape.org/namespaces/inkscape"
   width="744.09448819"
   height="1052.3622047"
   id="svg2"
   version="1.1"
   inkscape:version="0.48.2 r9819"
   sodipodi:docname="5.svg"
   inkscape:export-filename="D:\Dropbox\wiki_dapamozhnik\story\5.png"
   inkscape:export-xdpi="61.09697"
   inkscape:export-ydpi="61.09697">
  <defs
     id="defs4">
    <linearGradient
       id="linearGradient4561">
      <stop
         style="stop-color:#fafff7;stop-opacity:1;"
         offset="0"
         id="stop4563" />
      <stop
         style="stop-color:#ffffff;stop-opacity:0;"
         offset="1"
         id="stop4565" />
    </linearGradient>
    <linearGradient
       id="linearGradient3303">
      <stop
         id="stop3305"
         offset="0"
         style="stop-color:#d40000;stop-opacity:0;" />
      <stop
         style="stop-color:#7f1111;stop-opacity:0.49803922;"
         offset="0.71651864"
         id="stop3307" />
      <stop
         id="stop3309"
         offset="1"
         style="stop-color:#2a2222;stop-opacity:0.75;" />
    </linearGradient>
    <path
       transform="matrix(-1.1872543,0,0,1.1872543,-1822.3028,-121.53637)"
       d="m -632.3555,681.63617 a 144.45181,144.45181 0 1 1 -288.90362,0 144.45181,144.45181 0 1 1 288.90362,0 z"
       sodipodi:ry="144.45181"
       sodipodi:rx="144.45181"
       sodipodi:cy="681.63617"
       sodipodi:cx="-776.80731"
       id="path3947-2"
       style="fill:none;stroke:none"
       sodipodi:type="arc" />
    <path
       transform="matrix(-0.4583519,0.97626285,0.97626285,0.4583519,-1393.0716,808.34449)"
       d="m -139.40106,699.81897 a 269.71072,269.71072 0 1 1 -539.42145,0 269.71072,269.71072 0 1 1 539.42145,0 z"
       sodipodi:ry="269.71072"
       sodipodi:rx="269.71072"
       sodipodi:cy="699.81897"
       sodipodi:cx="-409.11179"
       id="path3965-4"
       style="fill:none;stroke:none"
       sodipodi:type="arc" />
    <linearGradient
       id="linearGradient3076-8">
      <stop
         id="stop3078-2"
         offset="0"
         style="stop-color:#ff534d;stop-opacity:1;" />
      <stop
         style="stop-color:#aace72;stop-opacity:1;"
         offset="0.32050508"
         id="stop3088-4" />
      <stop
         style="stop-color:#739d98;stop-opacity:1;"
         offset="0.40038487"
         id="stop3086-5" />
      <stop
         style="stop-color:#9a3b3b;stop-opacity:1;"
         offset="0.66307867"
         id="stop3084-2" />
      <stop
         id="stop3080-9"
         offset="1"
         style="stop-color:#7e0000;stop-opacity:1;" />
    </linearGradient>
    <linearGradient
       id="linearGradient3285">
      <stop
         id="stop3287"
         offset="0"
         style="stop-color:#d40000;stop-opacity:0;" />
      <stop
         style="stop-color:#7f1111;stop-opacity:0.49803922;"
         offset="0.71651864"
         id="stop3289" />
      <stop
         id="stop3291"
         offset="1"
         style="stop-color:#2a2222;stop-opacity:0.75;" />
    </linearGradient>
    <linearGradient
       id="linearGradient3119-7">
      <stop
         id="stop3121-1"
         offset="0"
         style="stop-color:#fbf6b1;stop-opacity:1;" />
      <stop
         style="stop-color:#88ca37;stop-opacity:1;"
         offset="0.5865202"
         id="stop3133-1" />
      <stop
         style="stop-color:#72b69a;stop-opacity:1;"
         offset="0.62734139"
         id="stop3131-5" />
      <stop
         style="stop-color:#cb892b;stop-opacity:1;"
         offset="0.7027331"
         id="stop3129-2" />
      <stop
         style="stop-color:#8437c5;stop-opacity:1;"
         offset="0.8236044"
         id="stop3127-7" />
      <stop
         id="stop3123-6"
         offset="1"
         style="stop-color:#0b0b28;stop-opacity:1;" />
    </linearGradient>
    <linearGradient
       id="linearGradient3268">
      <stop
         id="stop3270"
         offset="0"
         style="stop-color:#d40000;stop-opacity:0;" />
      <stop
         style="stop-color:#7f1111;stop-opacity:0.49803922;"
         offset="0.71651864"
         id="stop3272" />
      <stop
         id="stop3274"
         offset="1"
         style="stop-color:#2a2222;stop-opacity:0.75;" />
    </linearGradient>
    <linearGradient
       id="linearGradient3157-4">
      <stop
         id="stop3159-5"
         offset="0"
         style="stop-color:#ffffff;stop-opacity:1;" />
      <stop
         id="stop3161-5"
         offset="1"
         style="stop-color:#14d125;stop-opacity:0;" />
    </linearGradient>
    <path
       transform="matrix(-0.4583519,0.97626285,0.97626285,0.4583519,-1278.7859,799.77306)"
       d="m -139.40106,699.81897 a 269.71072,269.71072 0 1 1 -539.42145,0 269.71072,269.71072 0 1 1 539.42145,0 z"
       sodipodi:ry="269.71072"
       sodipodi:rx="269.71072"
       sodipodi:cy="699.81897"
       sodipodi:cx="-409.11179"
       id="path3965-2-8"
       style="fill:none;stroke:#000000"
       sodipodi:type="arc" />
    <path
       transform="matrix(-0.34123736,-0.82375428,0.82375428,-0.34123736,-671.55228,350.08157)"
       d="m -139.40106,699.81897 a 269.71072,269.71072 0 1 1 -539.42145,0 269.71072,269.71072 0 1 1 539.42145,0 z"
       sodipodi:ry="269.71072"
       sodipodi:rx="269.71072"
       sodipodi:cy="699.81897"
       sodipodi:cx="-409.11179"
       id="path4001-9-8"
       style="fill:none;stroke:none"
       sodipodi:type="arc" />
    <linearGradient
       id="linearGradient3052-4">
      <stop
         id="stop3054-0"
         offset="0"
         style="stop-color:#d40000;stop-opacity:0;" />
      <stop
         style="stop-color:#7f1111;stop-opacity:0.49803922;"
         offset="0.71651864"
         id="stop3060-9" />
      <stop
         id="stop3056-4"
         offset="1"
         style="stop-color:#2a2222;stop-opacity:0.75;" />
    </linearGradient>
    <path
       transform="matrix(-0.4127545,-0.99639818,0.99639818,-0.4127545,-852.22199,416.60078)"
       d="m -139.40106,699.81897 a 269.71072,269.71072 0 1 1 -539.42145,0 269.71072,269.71072 0 1 1 539.42145,0 z"
       sodipodi:ry="269.71072"
       sodipodi:rx="269.71072"
       sodipodi:cy="699.81897"
       sodipodi:cx="-409.11179"
       id="path4001-9-4-1"
       style="fill:none;stroke:#000000"
       sodipodi:type="arc" />
    <linearGradient
       id="linearGradient4886">
      <stop
         id="stop4888"
         offset="0"
         style="stop-color:#f7fe2c;stop-opacity:1;" />
      <stop
         id="stop4890"
         offset="1"
         style="stop-color:#8d5fd3;stop-opacity:0;" />
    </linearGradient>
    <path
       transform="matrix(-0.4127545,-0.99639818,0.99639818,-0.4127545,-852.22199,416.60078)"
       d="m -139.40106,699.81897 a 269.71072,269.71072 0 1 1 -539.42145,0 269.71072,269.71072 0 1 1 539.42145,0 z"
       sodipodi:ry="269.71072"
       sodipodi:rx="269.71072"
       sodipodi:cy="699.81897"
       sodipodi:cx="-409.11179"
       id="path4001-9-4"
       style="fill:none;stroke:#000000"
       sodipodi:type="arc" />
    <path
       transform="matrix(-0.4583519,0.97626285,0.97626285,0.4583519,-1278.7859,799.77306)"
       d="m -139.40106,699.81897 a 269.71072,269.71072 0 1 1 -539.42145,0 269.71072,269.71072 0 1 1 539.42145,0 z"
       sodipodi:ry="269.71072"
       sodipodi:rx="269.71072"
       sodipodi:cy="699.81897"
       sodipodi:cx="-409.11179"
       id="path3965-26"
       style="fill:none;stroke:#000000"
       sodipodi:type="arc" />
    <path
       transform="matrix(-0.4583519,0.97626285,0.97626285,0.4583519,-1278.7859,799.77306)"
       d="m -139.40106,699.81897 a 269.71072,269.71072 0 1 1 -539.42145,0 269.71072,269.71072 0 1 1 539.42145,0 z"
       sodipodi:ry="269.71072"
       sodipodi:rx="269.71072"
       sodipodi:cy="699.81897"
       sodipodi:cx="-409.11179"
       id="path3965-2"
       style="fill:none;stroke:#000000"
       sodipodi:type="arc" />
    <path
       transform="matrix(-0.4583519,0.97626285,0.97626285,0.4583519,-1278.7859,799.77306)"
       d="m -139.40106,699.81897 a 269.71072,269.71072 0 1 1 -539.42145,0 269.71072,269.71072 0 1 1 539.42145,0 z"
       sodipodi:ry="269.71072"
       sodipodi:rx="269.71072"
       sodipodi:cy="699.81897"
       sodipodi:cx="-409.11179"
       id="path3965-6"
       style="fill:none;stroke:#000000"
       sodipodi:type="arc" />
    <radialGradient
       r="154.28572"
       fy="581.99744"
       fx="-664.53259"
       cy="581.99744"
       cx="-664.53259"
       gradientTransform="matrix(-0.98012612,0.83558307,-0.66507488,-0.78012265,-999.64508,1615.1765)"
       gradientUnits="userSpaceOnUse"
       id="radialGradient3167"
       xlink:href="#linearGradient3052"
       inkscape:collect="always" />
    <radialGradient
       gradientTransform="matrix(-0.9128099,0.81302827,-0.79301013,-0.8903333,1503.6364,1010.2374)"
       gradientUnits="userSpaceOnUse"
       r="268.57144"
       fy="740.48248"
       fx="479.09946"
       cy="740.48248"
       cx="479.09946"
       id="radialGradient3163"
       xlink:href="#linearGradient3157"
       inkscape:collect="always" />
    <radialGradient
       r="154.28572"
       fy="581.99744"
       fx="-664.53259"
       cy="581.99744"
       cx="-664.53259"
       gradientTransform="matrix(-0.98012612,0.83558307,-0.66507488,-0.78012265,-999.64508,1615.1765)"
       gradientUnits="userSpaceOnUse"
       id="radialGradient3137"
       xlink:href="#linearGradient3052"
       inkscape:collect="always" />
    <radialGradient
       gradientTransform="matrix(-0.91617791,1.0699228,-1.2192335,-1.0440355,-651.07762,1953.8771)"
       gradientUnits="userSpaceOnUse"
       r="154.28572"
       fy="584.88782"
       fx="-692.94647"
       cy="584.88782"
       cx="-692.94647"
       id="radialGradient3082"
       xlink:href="#linearGradient3076"
       inkscape:collect="always" />
    <radialGradient
       r="154.28572"
       fy="581.99744"
       fx="-664.53259"
       cy="581.99744"
       cx="-664.53259"
       gradientTransform="matrix(-0.98012612,0.83558307,-0.66507488,-0.78012265,-999.64508,1615.1765)"
       gradientUnits="userSpaceOnUse"
       id="radialGradient3064"
       xlink:href="#linearGradient3052"
       inkscape:collect="always" />
    <radialGradient
       gradientTransform="matrix(-0.98012612,0.83558307,-0.66507488,-0.78012265,-999.64508,1615.1765)"
       gradientUnits="userSpaceOnUse"
       r="154.28572"
       fy="581.99744"
       fx="-664.53259"
       cy="581.99744"
       cx="-664.53259"
       id="radialGradient3058"
       xlink:href="#linearGradient3052"
       inkscape:collect="always" />
    <radialGradient
       gradientTransform="matrix(-1.0942452,0.81539714,-0.65445223,-0.87825996,-1448.2521,813.92493)"
       gradientUnits="userSpaceOnUse"
       r="80"
       fy="117.22345"
       fx="-728.17133"
       cy="117.22345"
       cx="-728.17133"
       id="radialGradient3028"
       xlink:href="#linearGradient3022"
       inkscape:collect="always" />
    <linearGradient
       id="linearGradient3022">
      <stop
         id="stop3024"
         offset="0"
         style="stop-color:#3737c8;stop-opacity:0;" />
      <stop
         id="stop3026"
         offset="1"
         style="stop-color:#0d0d2b;stop-opacity:0.72321427;" />
    </linearGradient>
    <linearGradient
       id="linearGradient3032">
      <stop
         id="stop3034"
         offset="0"
         style="stop-color:#ff4128;stop-opacity:0.23529412;" />
      <stop
         style="stop-color:#6acba8;stop-opacity:0.627451;"
         offset="0.36289272"
         id="stop3048" />
      <stop
         style="stop-color:#cfc8a5;stop-opacity:0.627451;"
         offset="0.5186764"
         id="stop3046" />
      <stop
         style="stop-color:#dfa860;stop-opacity:0.627451;"
         offset="0.60724843"
         id="stop3044" />
      <stop
         style="stop-color:#d46600;stop-opacity:0.627451;"
         offset="0.67452949"
         id="stop3042" />
      <stop
         style="stop-color:#d40000;stop-opacity:0.627451;"
         offset="0.89128983"
         id="stop3040" />
      <stop
         id="stop3036"
         offset="1"
         style="stop-color:#d40000;stop-opacity:0.627451;" />
    </linearGradient>
    <linearGradient
       id="linearGradient3052">
      <stop
         id="stop3054"
         offset="0"
         style="stop-color:#d40000;stop-opacity:0;" />
      <stop
         style="stop-color:#7f1111;stop-opacity:0.49803922;"
         offset="0.71651864"
         id="stop3060" />
      <stop
         id="stop3056"
         offset="1"
         style="stop-color:#2a2222;stop-opacity:0.75;" />
    </linearGradient>
    <linearGradient
       id="linearGradient3076">
      <stop
         id="stop3078"
         offset="0"
         style="stop-color:#ff534d;stop-opacity:1;" />
      <stop
         style="stop-color:#aace72;stop-opacity:1;"
         offset="0.32050508"
         id="stop3088" />
      <stop
         style="stop-color:#739d98;stop-opacity:1;"
         offset="0.40038487"
         id="stop3086" />
      <stop
         style="stop-color:#9a3b3b;stop-opacity:1;"
         offset="0.66307867"
         id="stop3084" />
      <stop
         id="stop3080"
         offset="1"
         style="stop-color:#7e0000;stop-opacity:1;" />
    </linearGradient>
    <linearGradient
       id="linearGradient3119">
      <stop
         id="stop3121"
         offset="0"
         style="stop-color:#fbf6b1;stop-opacity:1;" />
      <stop
         style="stop-color:#88ca37;stop-opacity:1;"
         offset="0.5865202"
         id="stop3133" />
      <stop
         style="stop-color:#72b69a;stop-opacity:1;"
         offset="0.62734139"
         id="stop3131" />
      <stop
         style="stop-color:#cb892b;stop-opacity:1;"
         offset="0.7027331"
         id="stop3129" />
      <stop
         style="stop-color:#8437c5;stop-opacity:1;"
         offset="0.8236044"
         id="stop3127" />
      <stop
         id="stop3123"
         offset="1"
         style="stop-color:#0b0b28;stop-opacity:1;" />
    </linearGradient>
    <linearGradient
       id="linearGradient3157">
      <stop
         id="stop3159"
         offset="0"
         style="stop-color:#ffffff;stop-opacity:1;" />
      <stop
         id="stop3161"
         offset="1"
         style="stop-color:#14d125;stop-opacity:0;" />
    </linearGradient>
    <linearGradient
       id="linearGradient4529">
      <stop
         id="stop4531"
         offset="0"
         style="stop-color:#ff3c50;stop-opacity:0.04464286;" />
      <stop
         id="stop4533"
         offset="1"
         style="stop-color:#000f24;stop-opacity:1;" />
    </linearGradient>
    <linearGradient
       inkscape:collect="always"
       xlink:href="#linearGradient3076-8"
       id="linearGradient3652"
       x1="1691.4285"
       y1="1078.0764"
       x2="-554.28571"
       y2="972.36212"
       gradientUnits="userSpaceOnUse"
       gradientTransform="matrix(0.9135681,0,0,1.0659758,-62.971813,-45.054701)" />
  </defs>
  <sodipodi:namedview
     id="base"
     pagecolor="#ffffff"
     bordercolor="#666666"
     borderopacity="1.0"
     inkscape:pageopacity="0.0"
     inkscape:pageshadow="2"
     inkscape:zoom="0.35"
     inkscape:cx="379.04147"
     inkscape:cy="407.07117"
     inkscape:document-units="px"
     inkscape:current-layer="layer1"
     showgrid="false"
     inkscape:window-width="1366"
     inkscape:window-height="706"
     inkscape:window-x="-8"
     inkscape:window-y="-8"
     inkscape:window-maximized="1"
     showguides="true"
     inkscape:guide-bbox="true" />
  <metadata
     id="metadata7">
    <rdf:RDF>
      <cc:Work
         rdf:about="">
        <dc:format>image/svg+xml</dc:format>
        <dc:type
           rdf:resource="http://purl.org/dc/dcmitype/StillImage" />
        <dc:title></dc:title>
      </cc:Work>
    </rdf:RDF>
  </metadata>
  <g
     inkscape:label="Layer 1"
     inkscape:groupmode="layer"
     id="layer1">
    <rect
       style="fill:#f2f2f2;fill-opacity:1;stroke:none"
       id="rect2985"
       width="2018.894"
       height="1107.2858"
       x="-729.28583"
       y="4.6600256" />
    <text
       xml:space="preserve"
       style="font-size:40px;font-style:normal;font-weight:normal;line-height:125%;letter-spacing:0px;word-spacing:0px;fill:#000000;fill-opacity:1;stroke:none;font-family:Sans"
       x="-375.00012"
       y="1067.0886"
       id="text4635"
       sodipodi:linespacing="125%"><tspan
         sodipodi:role="line"
         id="tspan4637"
         x="-375.00012"
         y="1067.0886" /></text>
    <g
       id="g4595"
       transform="matrix(-0.9652112,-0.06373431,-0.06373431,0.9652112,832.21531,60.627795)"
       style="fill:#808080">
      <path
         sodipodi:nodetypes="sssscsssccssssssssssss"
         inkscape:connector-curvature="0"
         id="path3658-6"
         d="m -22.507963,568.12266 c -3.55387,-2.9686 29.8526701,-35.03115 26.9887201,-37.36716 -4.90666996,-4.00209 -31.5614301,24.45591 -37.4668801,23.98604 -6.23597,-0.49628 13.96776,-36.99546 9.50392,-38.41409 -4.26132,-1.35424 -11.42419,24.66059 -19.18349,28.99686 -18.86857,-4.06284 -30.44089,-3.75632 -39.03259,-2.6512 -19.766197,2.5426 -41.650597,9.69176 -52.657997,21.64306 -30.3403,32.94219 -23.7667,62.91556 -12.2467,94.91848 10.1665,28.24285 59.144797,60.1049 98.702867,37.28454 4.84942,-3.20099 24.36584,-11.34568 38.9885101,-30.26938 22.1915799,-3.62407 50.1513499,13.20339 54.8131499,6.95287 7.41452,-9.94138 -50.1406099,-12.14059 -52.2732299,-28.08842 -0.53466,-3.99811 46.6874999,-6.22971 46.0025599,-10.33955 -1.22171,-7.33085 -32.9352299,1.51135 -38.3016799,-5.67612 -3.09147,-4.14049 42.5100999,-6.39768 40.8287299,-10.44537 -2.40101,-5.78016 -36.8567599,-1.67696 -43.4090499,-5.68484 -4.66659,-2.85438 48.0410099,-13.09897 45.9844899,-18.19065 -1.24685,-3.08702 -42.6110799,7.96637 -48.1198999,6.17259 -6.08631,-1.98181 49.7381799,-31.36882 47.4418399,-36.76902 -2.38353,-5.60522 -35.4795599,15.81867 -54.4173,18.8458 -4.80082,0.7674 40.61619,-31.12528 38.88333,-35.04741 -1.64427,-3.72155 -50.54585,20.54681 -51.0293,20.14297 z"
         style="fill:#808080;stroke:#000000;stroke-width:0.53615493px;stroke-linecap:butt;stroke-linejoin:miter;stroke-opacity:1" />
      <path
         inkscape:connector-curvature="0"
         id="path3664"
         d="m -26.481663,707.07308 c 35.7451001,28.08544 42.12815,51.06443 39.57493,70.2136 -2.55322,19.14916 8.93628,66.38377 -14.04270986,76.59666 -22.97900014,10.21285 -80.42644014,30.63863 -99.57563714,12.76612 -19.1492,-17.87257 -43.4047,-15.31934 -47.2346,-61.27734 -3.8298,-45.958 -10.2129,-74.04343 25.5322,-88.08615 35.745097,-14.04272 95.745817,-10.21289 95.745817,-10.21289 z"
         style="fill:#808080;stroke:#000000;stroke-width:0.89362764px;stroke-linecap:butt;stroke-linejoin:miter;stroke-opacity:1" />
      <path
         sodipodi:nodetypes="sssscsssccssssssssssss"
         inkscape:connector-curvature="0"
         id="path3658"
         d="m -124.35528,565.7201 c -3.2744,3.27445 -32.2232,-32.86379 -34.8058,-30.22007 -4.4246,4.52943 21.5375,33.62071 20.5418,39.46051 -1.0516,6.16669 -35.5992,-17.21801 -37.4111,-12.89877 -1.7296,4.12319 23.541,13.58227 27.1665,21.69805 -5.7328,18.42999 -6.4617,29.98339 -6.1288,38.63949 0.766,19.9143 5.9308,42.3501 16.8506,54.3815 30.099,33.1628 60.539897,29.2941 93.444277,20.6802 29.0384,-7.6019 65.15,-53.5369 45.9561001,-94.976 -2.7548,-5.11608 -9.1228,-25.28228 -26.6640001,-41.53758 -1.6264,-22.42666 17.6324001,-48.77074 11.8235,-53.97248 -9.239,-8.27328 -16.5729,48.85502 -32.6475,49.55392 -4.0299,0.17522 -2.0325,-47.05742 -6.1871,-46.74251 -7.4107,0.5617 -1.438,32.93852 -9.0763,37.64118 -4.40017,2.70908 -2.57307,-42.91175 -6.75488,-41.59883 -5.9716,1.87485 -4.964,36.55942 -9.5414,42.72733 -3.26,4.39283 -8.7533,-49.0194 -14.0084,-47.42613 -3.1861,0.96598 4.1265,43.1525 1.8476,48.47898 -2.5178,5.88486 -26.798397,-52.34249 -32.382197,-50.53793 -5.7958,1.87307 12.5847,36.75126 13.9073,55.88377 0.3353,4.85018 -27.371,-43.23526 -31.4323,-41.85983 -3.8536,1.30511 15.9475,52.1798 15.5021,52.6252 z"
         style="fill:#808080;fill-opacity:1;stroke:#000000;stroke-width:0.53615493px;stroke-linecap:butt;stroke-linejoin:miter;stroke-opacity:1" />
      <path
         inkscape:connector-curvature="0"
         id="path3660"
         d="m -178.15868,733.02207 c -18.1873,30.23199 -18.0524,22.19811 -23.3855,52.64598 -5.3331,30.44792 8.0142,49.15529 12.7536,54.05661 4.7394,4.9013 7.8449,11.38243 19.2004,5.14421 11.3555,-6.23824 29.219,-17.18886 27.6931,-22.03617 -1.5258,-4.84737 -19.8284,-15.60178 -21.2732,-25.26949 -1.4449,-9.66764 11.8952,-38.37386 9.6064,-45.64485 -2.2888,-7.27099 -2.8627,-20.94215 -13.3203,-20.31417 -10.4576,0.62797 -11.2745,1.41788 -11.2745,1.41788 z"
         style="fill:#808080;stroke:#000000;stroke-width:0.79542887px;stroke-linecap:butt;stroke-linejoin:miter;stroke-opacity:1" />
      <path
         inkscape:connector-curvature="0"
         id="path3666"
         d="m -142.17748,869.07186 c -13.3304,18.88481 -23.3282,18.88481 -24.4391,32.21521 -1.1109,13.3305 12.2196,36.6588 33.3261,31.1044 21.1065,-5.5543 47.767497,-12.2195 46.656697,-18.8848 -1.1109,-6.6652 5.5542,-34.4369 -8.8871,-38.88044 -14.441297,-4.4435 -46.656597,-5.55437 -46.656597,-5.55437 z"
         style="fill:#808080;stroke:#000000;stroke-width:0.77760935px;stroke-linecap:butt;stroke-linejoin:miter;stroke-opacity:1" />
      <path
         inkscape:connector-curvature="0"
         id="path3668"
         d="m -30.772623,877.75447 c 20,-8.57142 38.5714301,-19.99999 44.28572,-7.14285 5.71428,12.85715 18.57142,44.28575 7.14285,49.99995 -11.4285699,5.7143 -40,10 -51.42857,8.5715 -11.42857,-1.4286 -11.42857,-10 -10,-22.8572 1.42857,-12.8571 10,-28.5714 10,-28.5714 z"
         style="fill:#808080;stroke:#000000;stroke-width:1px;stroke-linecap:butt;stroke-linejoin:miter;stroke-opacity:1" />
      <path
         sodipodi:nodetypes="ccsscsc"
         inkscape:connector-curvature="0"
         id="path3670"
         d="m 14.941667,726.32591 c 30,17.14286 30,17.14286 30,17.14286 0,0 1.42857,1.42857 8.57143,24.28571 7.14285,22.85714 18.57142,69.95795 4.28571,71.38652 -14.28571,1.42857 -32.85714,-6.65265 -32.85714,-6.65265 0,0 -1.42857,-37.59101 -4.28572,-56.16244 -2.85714,-18.57143 -5.71428,-50 -5.71428,-50 z"
         style="fill:#808080;stroke:#000000;stroke-width:1px;stroke-linecap:butt;stroke-linejoin:miter;stroke-opacity:1" />
      <path
         transform="translate(1173.5132,-153.17913)"
         d="m -1252.8571,770.93359 c 0,7.10081 -5.7563,12.85715 -12.8571,12.85715 -7.1008,0 -12.8572,-5.75634 -12.8572,-12.85715 0,-7.1008 5.7564,-12.85714 12.8572,-12.85714 7.1008,0 12.8571,5.75634 12.8571,12.85714 z"
         sodipodi:ry="12.857142"
         sodipodi:rx="12.857142"
         sodipodi:cy="770.93359"
         sodipodi:cx="-1265.7142"
         id="path3676"
         style="fill:#808080;fill-opacity:1;fill-rule:nonzero;stroke:none"
         sodipodi:type="arc" />
      <path
         transform="translate(1250.656,-146.03628)"
         d="m -1304.2858,765.2193 c 0,5.52285 -4.4771,10 -10,10 -5.5228,0 -10,-4.47715 -10,-10 0,-5.52285 4.4772,-10 10,-10 5.5229,0 10,4.47715 10,10 z"
         sodipodi:ry="10"
         sodipodi:rx="10"
         sodipodi:cy="765.2193"
         sodipodi:cx="-1314.2858"
         id="path3678"
         style="fill:#808080;fill-opacity:1;fill-rule:nonzero;stroke:none"
         sodipodi:type="arc" />
      <path
         inkscape:connector-curvature="0"
         id="path3721"
         d="m -79.078183,648.36065 c 0,0 -9.0914,3.03045 -11.1117,13.13198 -2.0203,10.10152 7.0711,21.2132 17.1726,21.2132 10.10154,0 11.1117,-2.0203 10.10154,-11.11168 -1.01015,-9.09137 -16.16244,-23.2335 -16.16244,-23.2335 z"
         style="fill:#808080;stroke:#000000;stroke-width:1px;stroke-linecap:butt;stroke-linejoin:miter;stroke-opacity:1" />
      <path
         inkscape:connector-curvature="0"
         id="path3664-6"
         d="m -36.094733,714.93727 c 32.2534801,25.34203 38.0130701,46.07641 35.70927014,63.35507 -2.30380004,17.27865 8.06339996,59.89934 -12.67099014,69.11463 -20.73439,9.21525 -72.57033,27.64586 -89.849027,11.51911 -17.2787,-16.12676 -39.1649,-13.82293 -42.6207,-55.29171 -3.4557,-41.46878 -9.2153,-66.8108 23.0382,-79.48181 32.253497,-12.67102 86.393247,-9.21529 86.393247,-9.21529 z"
         style="fill:#808080;fill-opacity:1;stroke:none" />
    </g>
    <path
       style="fill:url(#linearGradient3652);fill-opacity:1;stroke:#000000;stroke-width:0.98683411000000021px;stroke-linecap:butt;stroke-linejoin:miter;stroke-opacity:1;opacity:0.68584071"
       d="m -728.81837,856.11476 c 0,0 421.61677,14.56305 864.22135,48.84876 424.19091,32.85933 733.46467,39.59338 861.3642,57.86727 127.89952,18.27386 292.34182,51.77601 292.34182,51.77601 l 0,100.5063 -2017.68043,0 z"
       id="path3630"
       inkscape:connector-curvature="0"
       sodipodi:nodetypes="csscccc" />
    <g
       id="g4612"
       transform="matrix(-1.0396169,-0.06958452,-0.06958452,1.0396169,1398.5815,12.008055)"
       style="fill:#808080">
      <path
         sodipodi:nodetypes="sssscsssssccssssssssssss"
         inkscape:connector-curvature="0"
         id="path3658-1-3"
         d="m 206.85179,600.97289 c -3.3528,3.35292 -32.9953,-33.65128 -35.6398,-30.94421 -4.5306,4.63796 22.0536,34.42634 21.034,40.40608 -1.0768,6.31446 -36.4522,-17.6306 -38.3075,-13.20786 -1.7711,4.22199 24.1051,13.90774 27.8174,22.21799 -17.0204,4.19548 -60.7276,6.91161 -24.5204,13.82584 4.0333,0.7702 13.998,-4.02702 17.0433,0.21524 4.3716,6.08999 1.0671,22.03056 1.2015,25.5243 0.7841,20.3915 6.0729,43.36491 17.2544,55.68462 30.8202,33.95746 61.9906,29.99606 95.6834,21.17575 29.7343,-7.78406 66.7112,-54.81978 47.0574,-97.25187 -2.8209,-5.23866 -5.204,-25.88809 -23.1656,-42.53291 -1.6653,-22.96406 13.9175,-49.93941 7.9694,-55.2658 -9.4604,-8.47153 -10.7639,45.88828 -27.2236,46.60393 -4.1265,0.17941 -12.4248,-164.03317 -14.6102,-78.89333 -0.1953,7.60753 0.5962,68.89599 -7.2251,73.71134 -4.5057,2.77399 -2.6348,-43.94002 -6.9168,-42.59564 -6.1147,1.91977 -5.0829,37.43547 -9.77,43.75118 -3.3381,4.49809 -11.0318,-39.85045 -16.4128,-38.219 -3.2625,0.98913 6.2941,33.84296 3.9606,39.29708 -2.5782,6.02588 -27.4406,-53.59675 -33.1582,-51.74895 -5.9347,1.91796 12.8863,37.63192 14.2406,57.22289 0.3433,4.9664 -28.0269,-44.27129 -32.1855,-42.8629 -3.946,1.33639 16.3296,53.43016 15.8735,53.88623 z"
         style="fill:#808080;stroke:#000000;stroke-width:1.0239625;stroke-linecap:butt;stroke-linejoin:miter;stroke-miterlimit:4;stroke-opacity:1;stroke-dasharray:none" />
      <path
         inkscape:connector-curvature="0"
         id="path3664-7"
         d="m 303.15969,742.21901 c 35.7451,28.08544 42.1282,51.06443 39.5749,70.2136 -2.5532,19.14916 8.9363,66.38377 -14.0427,76.59666 -22.979,10.21285 -80.4264,30.63861 -99.5756,12.76612 -19.1492,-17.87257 -43.4047,-15.31934 -47.2346,-61.27734 -3.8298,-45.958 -10.2129,-74.04343 25.5322,-88.08615 35.7451,-14.04272 95.7458,-10.21289 95.7458,-10.21289 z"
         style="fill:#808080;stroke:#000000;stroke-width:0.89362764px;stroke-linecap:butt;stroke-linejoin:miter;stroke-opacity:1" />
      <path
         sodipodi:nodetypes="sssscsssssccssssssssssss"
         inkscape:connector-curvature="0"
         id="path3658-1"
         d="m 207.63609,603.32615 c -3.2125,3.21259 -31.6143,-32.24286 -34.1481,-29.64909 -4.341,4.44385 21.1305,32.98548 20.1536,38.71494 -1.0318,6.05018 -34.9265,-16.89269 -36.7042,-12.65506 -1.697,4.04529 23.0961,13.32565 26.6532,21.28809 -16.3081,4.01988 -58.186,6.62233 -23.4942,13.24718 3.8645,0.73797 13.4121,-3.85848 16.3299,0.20622 4.1886,5.83511 1.0226,21.10851 1.1513,24.45603 0.7514,19.53803 5.8187,41.54993 16.5321,53.354 29.5304,32.53623 59.3961,28.74062 91.6789,20.28947 28.4897,-7.45826 63.919,-52.52537 45.0877,-93.18152 -2.7027,-5.0194 -4.9862,-24.80458 -22.1959,-40.75275 -1.5956,-22.00293 13.335,-47.84927 7.6359,-52.95273 -9.0645,-8.11696 -10.3135,43.96769 -26.0843,44.65339 -3.9537,0.1719 -11.9047,-157.16779 -13.9987,-75.59136 -0.1871,7.28913 0.5713,66.01245 -6.9227,70.62625 -4.317,2.6579 -2.5245,-42.10097 -6.6273,-40.81286 -5.8587,1.83943 -4.8702,35.86866 -9.3611,41.92004 -3.1984,4.30983 -10.57,-38.18256 -15.7259,-36.6194 -3.1258,0.94773 6.0307,32.42652 3.7948,37.65236 -2.4702,5.77366 -26.292,-51.35353 -31.7703,-49.58307 -5.6863,1.83768 12.3469,36.05688 13.6445,54.8279 0.3289,4.75855 -26.8538,-42.41837 -30.8384,-41.06893 -3.7808,1.28046 15.6462,51.19392 15.2092,51.6309 z"
         style="fill:#808080;fill-opacity:1;stroke:none" />
      <path
         sodipodi:nodetypes="ccccssc"
         inkscape:connector-curvature="0"
         id="path3660-2"
         d="m 151.48269,768.168 c -18.1873,30.23199 -18.0524,22.19811 -23.3855,52.64598 -6.7267,30.75023 14.7003,43.80721 25.8931,38.99777 41.5707,-20.80115 14.1067,-19.12132 12.4808,-27.10261 -1.4449,-9.66764 11.8952,-38.37386 9.6064,-45.64485 -2.2888,-7.27099 -2.8627,-20.94215 -13.3203,-20.31417 -10.4576,0.62797 -11.2745,1.41788 -11.2745,1.41788 z"
         style="fill:#808080;stroke:#000000;stroke-width:0.79542887px;stroke-linecap:butt;stroke-linejoin:miter;stroke-opacity:1" />
      <path
         inkscape:connector-curvature="0"
         id="path3666-6"
         d="m 187.46389,904.21779 c -13.3304,18.88479 -23.3282,18.88479 -24.4391,32.21519 -1.1109,13.3305 12.2196,36.6588 33.3261,31.1044 21.1065,-5.5543 47.7675,-12.2195 46.6567,-18.8848 -1.1109,-6.6652 5.5542,-34.4369 -8.8871,-38.88042 -14.4413,-4.4435 -46.6566,-5.55437 -46.6566,-5.55437 z"
         style="fill:#808080;stroke:#000000;stroke-width:0.77760935px;stroke-linecap:butt;stroke-linejoin:miter;stroke-opacity:1" />
      <path
         inkscape:connector-curvature="0"
         id="path3668-0"
         d="m 298.86869,912.90038 c 20,-8.5714 38.5715,-19.99997 44.2858,-7.14283 5.7142,12.85713 18.5714,44.28573 7.1428,49.99993 -11.4286,5.7143 -40,10 -51.4286,8.5715 -11.4285,-1.4286 -11.4285,-10 -10,-22.8572 1.4286,-12.8571 10,-28.5714 10,-28.5714 z"
         style="fill:#808080;stroke:#000000;stroke-width:1px;stroke-linecap:butt;stroke-linejoin:miter;stroke-opacity:1" />
      <path
         inkscape:connector-curvature="0"
         id="path3670-4"
         d="m 344.58299,761.47184 c 30,17.14286 30,17.14286 30,17.14286 0,0 1.4286,1.42857 8.5715,24.28571 7.1428,22.85714 18.5714,45.71429 4.2857,47.14286 -14.2857,1.42857 -32.8572,1.42857 -32.8572,1.42857 0,0 -1.4285,-21.42857 -4.2857,-40 -2.8571,-18.57143 -5.7143,-50 -5.7143,-50 z"
         style="fill:#808080;stroke:#000000;stroke-width:1px;stroke-linecap:butt;stroke-linejoin:miter;stroke-opacity:1" />
      <path
         transform="matrix(0.84223936,0,0,0.84223936,1312.2526,15.181536)"
         d="m -1252.8571,770.93359 c 0,7.10081 -5.7563,12.85715 -12.8571,12.85715 -7.1008,0 -12.8572,-5.75634 -12.8572,-12.85715 0,-7.1008 5.7564,-12.85714 12.8572,-12.85714 7.1008,0 12.8571,5.75634 12.8571,12.85714 z"
         sodipodi:ry="12.857142"
         sodipodi:rx="12.857142"
         sodipodi:cy="770.93359"
         sodipodi:cx="-1265.7142"
         id="path3676-9"
         style="fill:#808080;fill-opacity:1;fill-rule:nonzero;stroke:none"
         sodipodi:type="arc" />
      <path
         transform="matrix(1.0549369,0,0,1.0549369,1660.7874,-144.54051)"
         d="m -1304.2858,765.2193 c 0,5.52285 -4.4771,10 -10,10 -5.5228,0 -10,-4.47715 -10,-10 0,-5.52285 4.4772,-10 10,-10 5.5229,0 10,4.47715 10,10 z"
         sodipodi:ry="10"
         sodipodi:rx="10"
         sodipodi:cy="765.2193"
         sodipodi:cx="-1314.2858"
         id="path3678-4"
         style="fill:#808080;fill-opacity:1;fill-rule:nonzero;stroke:none"
         sodipodi:type="arc" />
      <path
         inkscape:connector-curvature="0"
         id="path3719"
         d="m 251.41409,701.45644 c -17.0158,-3.40316 -16.1651,-12.76185 -28.076,-8.5079 -11.9111,4.25395 8.5078,20.41896 19.5681,20.41896 11.0603,0 29.7776,-1.70157 37.4348,-8.5079 7.6571,-6.80632 -28.9269,-3.40316 -28.9269,-3.40316 z"
         style="fill:#808080;stroke:#000000;stroke-width:0.84223938px;stroke-linecap:butt;stroke-linejoin:miter;stroke-opacity:1" />
      <path
         inkscape:connector-curvature="0"
         id="path3664-7-0"
         d="m 299.54579,744.91003 c 31.3806,24.65618 36.9843,44.8294 34.7428,61.64044 -2.2414,16.81102 7.8452,58.27824 -12.3281,67.24412 -20.1732,8.96585 -70.6062,26.89757 -87.4173,11.20736 -16.811,-15.6903 -38.1049,-13.44883 -41.4672,-53.79531 -3.3621,-40.34647 -8.9659,-65.00264 22.4147,-77.33072 31.3806,-12.32809 84.0551,-8.96589 84.0551,-8.96589 z"
         style="fill:#808080;fill-opacity:1;stroke:none" />
    </g>
    <path
       style="fill:#808080;stroke:#000000;stroke-width:1.02191782px;stroke-linecap:butt;stroke-linejoin:miter;stroke-opacity:1"
       d="m -446.7469,350.08043 c 0,0 -9.34392,6.61808 -21.77415,8.86458 -12.43028,2.24636 -22.94869,-0.56779 -30.99008,-7.9874 -35.04259,-38.20461 -57.47999,-67.11891 -111.09793,-59.30678 -33.15214,14.49893 -54.12291,46.59081 -54.71189,83.22864 2.53034,22.0553 -0.32248,48.55451 17.08735,63.73738 0,0 -0.65366,-17.49907 5.12501,-36.41796 2.61896,-8.5737 11.99338,-26.17132 14.86183,-27.6327 2.86828,-1.46159 1.67964,16.19088 2.26258,26.33827 1.30603,22.73906 14.78164,41.13606 14.78164,41.13606 0,0 2.60502,-28.07539 7.38524,-34.59752 4.78038,-6.52196 15.34051,-19.70388 19.60008,-18.15897 4.25964,1.54501 1.1313,13.1692 6.43481,23.09826 5.3035,9.92906 12.08436,15.39059 12.08436,15.39059 0,0 -0.0443,-8.52204 0.91097,-17.18186 0.95522,-8.65988 9.0818,-20.973 13.81897,-23.75811 21.80126,-13.7704 35.0266,3.89167 56.37259,7.68666 22.71445,6.82313 31.89782,-1.23766 46.72078,-20.8315 1.7384,-2.37152 1.12782,-23.60762 1.12782,-23.60762 z"
       id="path3123-1"
       inkscape:connector-curvature="0"
       sodipodi:nodetypes="csccccssscssscscccc" />
    <path
       style="fill:#808080;stroke:#000000;stroke-width:1.02191782px;stroke-linecap:butt;stroke-linejoin:miter;stroke-opacity:1"
       d="m -433.28784,381.9879 c 0,0 2.25057,21.12591 -0.15153,36.69311 -2.40224,15.56716 -7.80113,21.94261 -14.85616,31.95107 -7.05506,10.0084 -27.2985,13.87946 -36.20748,19.26794 -8.90899,5.38848 37.04703,12.99802 37.04703,12.99802 0,0 29.96874,0.53341 46.5624,-2.087 16.59378,-2.62038 51.43675,-11.4942 58.2118,-17.0273 6.77504,-5.53311 14.35476,-12.50979 14.35476,-12.50979 0,0 -12.99039,2.11561 -23.56697,-0.0994 -10.57647,-2.21507 -21.81866,-7.21812 -26.80852,-16.79827 -3.41733,-6.561 0.4548,-18.69539 0.68805,-22.42483 0.2332,-3.72942 -28.21966,-5.65817 -28.21966,-5.65817 z"
       id="path3143-0"
       inkscape:connector-curvature="0"
       sodipodi:nodetypes="cssscsscsascc" />
    <path
       style="fill:#808080;stroke:#000000;stroke-width:1.02191782px;stroke-linecap:butt;stroke-linejoin:miter;stroke-opacity:1"
       d="m -458.20816,333.72614 c 0,0 -7.20641,1.00962 -3.68489,13.2331 4.17173,5.74922 7.98278,8.49774 11.76316,16.03902 10.09806,20.1439 20.23495,48.0679 38.38492,59.56657 5.59741,1.87749 22.41635,3.73728 28.38664,-0.35227 5.97042,-4.08959 24.12388,-29.379 25.11496,-33.80608 0.99122,-4.42711 7.26461,-15.68486 7.15962,-25.42959 -0.10476,-9.74475 -0.84594,-15.30491 1.66111,-21.12735 2.50709,-5.82241 4.82772,-8.66132 4.01139,-18.45428 -0.81617,-9.79297 0.50143,-19.44126 -3.48657,-24.20589 -3.98799,-4.76464 -11.7311,-18.02334 -11.7311,-18.02334 0,0 -12.01083,-13.54799 -24.76773,-15.1618 -12.75744,-1.61382 -40.5921,-2.0026 -49.54787,4.13174 -8.95563,6.13435 -17.29318,13.80869 -19.36894,24.15465 10.08629,20.47576 -8.63057,39.44778 -3.8947,39.43552 z"
       id="path3119-9"
       inkscape:connector-curvature="0"
       sodipodi:nodetypes="ccscsssssscsscc" />
    <path
       style="fill:#808080;stroke:#000000;stroke-width:1.02191782px;stroke-linecap:butt;stroke-linejoin:miter;stroke-opacity:1"
       d="m -331.04047,313.66089 c -1.15873,-26.1137 -5.22604,-48.85922 -25.75774,-61.59802 -9.75136,-2.66755 -25.3877,-6.38093 -32.41017,2.39355 -12.41147,-12.86189 -27.08581,-13.6522 -43.19088,-8.08636 -32.38842,10.919 -45.44849,34.53437 -46.11953,63.53895 -0.26818,15.71183 1.87743,27.093 4.34966,33.25298 2.47211,6.15997 14.38967,21.19974 14.38967,21.19974 0,0 -1.48089,-10.58703 1.83082,-17.85304 3.31159,-7.26598 10.71654,-0.0226 10.71654,-0.0226 -10.35972,-22.02896 -7.27871,-25.22712 3.78989,-49.18031 0,0 -7.95297,12.94379 -6.37866,22.03909 1.57418,9.09525 3.24181,16.6988 3.24181,16.6988 0,0 0.1269,-13.47417 4.67608,-17.66013 4.5477,-4.18604 14.63434,-16.98515 14.63434,-16.98515 0,0 0.95627,7.55529 3.56833,11.4776 10.63365,-13.92019 31.08238,-22.98488 37.72348,-20.66331 0,0 6.0755,5.65518 5.74901,10.87637 -0.32652,5.22123 7.19472,-12.2461 6.00525,-16.07198 11.61969,1.71939 19.42636,24.58254 22.34794,37.79658 3.38559,21.1086 4.98286,39.24944 8.32907,34.26736 4.64328,-6.91315 6.67275,-10.05653 12.50509,-45.42013 z"
       id="path3121-4"
       inkscape:connector-curvature="0"
       sodipodi:nodetypes="cccccscsccscscccsccsc" />
    <path
       style="fill:#808080;stroke:#000000;stroke-width:1.02191782px;stroke-linecap:butt;stroke-linejoin:miter;stroke-opacity:1"
       d="m -494.01799,353.9657 6.25427,14.25467 c 0,0 0.1554,-5.01154 5.82897,-2.81616 5.67295,2.19535 9.2988,8.67038 9.2988,8.67038 -6.3662,7.88066 -1.38264,6.29296 -11.01016,5.3194 l 6.15022,17.59565 13.84665,-4.2217 c 0,0 -4.8313,1.51155 -0.60884,9.34422 4.2216,7.83262 15.8272,3.87083 15.8272,3.87083 0,0 3.04449,-5.5843 -2.17449,-12.11234 -5.21908,-6.52801 11.11424,-8.66033 11.11424,-8.66033 l -6.65621,-11.5925 c -8.99982,6.04763 -12.91495,5.79084 -15.52946,-3.19205 0,0 4.24983,-13.57092 11.65765,-5.63227 3.3429,3.58222 -9.44043,-14.36065 -9.44043,-14.36065 l -31.37103,3.63888 z"
       id="path3125-8"
       inkscape:connector-curvature="0"
       sodipodi:nodetypes="ccsccccscscccsccc" />
    <path
       style="fill:#808080;stroke:#000000;stroke-width:1.02191782px;stroke-linecap:butt;stroke-linejoin:miter;stroke-opacity:1"
       d="m -430.52233,346.87806 c 0,0 5.36369,-2.15472 9.74944,-3.2545 4.38576,-1.0997 4.56853,0.59188 7.40878,0.85153 2.84053,0.2597 10.27704,5.00201 10.27704,5.00201 0,0 -3.97946,2.19801 -7.48156,2.84797 -5.78923,1.0744 -12.42356,2.4794 -19.9537,-5.44704 z"
       id="path3127-8"
       inkscape:connector-curvature="0"
       sodipodi:nodetypes="csscsc" />
    <path
       style="fill:#808080;stroke:#000000;stroke-width:1.02191782px;stroke-linecap:butt;stroke-linejoin:miter;stroke-opacity:1"
       d="m -381.00278,348.94488 c 7.13109,-4.48689 8.55814,-6.68432 14.26035,-5.93869 5.70244,0.7457 9.4315,1.83916 9.4315,1.83916 0,0 -2.18442,4.79493 -7.54968,6.33681 -6.91095,1.98609 -15.43064,0.004 -16.14217,-2.23728 z"
       id="path3129-2"
       inkscape:connector-curvature="0"
       sodipodi:nodetypes="cscsc" />
    <path
       style="fill:#808080;stroke:#000000;stroke-width:3.06575322;stroke-linecap:butt;stroke-linejoin:miter;stroke-miterlimit:4;stroke-opacity:1;stroke-dasharray:none"
       d="m -402.4961,334.83776 c -6.74939,-4.91418 -6.87693,-7.05025 -16.79166,-5.63255 -9.83636,1.40639 -13.13057,4.35322 -13.13057,4.35322 l 0,0"
       id="path3131-4"
       inkscape:connector-curvature="0"
       sodipodi:nodetypes="cscc" />
    <path
       style="fill:#808080;stroke:#000000;stroke-width:3.06575322;stroke-linecap:butt;stroke-linejoin:miter;stroke-miterlimit:4;stroke-opacity:1;stroke-dasharray:none"
       d="m -378.80149,337.34086 c 3.83638,-4.23425 6.23297,-6.02821 16.51047,-4.51752 6.94072,1.02024 8.61914,2.47574 8.61914,2.47574"
       id="path3133-5"
       inkscape:connector-curvature="0"
       sodipodi:nodetypes="csc" />
    <path
       style="fill:#808080;stroke:#000000;stroke-width:1.02191782px;stroke-linecap:butt;stroke-linejoin:miter;stroke-opacity:1"
       d="m -409.40292,396.76015 c 0,0 7.80806,9.56331 16.34391,10.14195 8.5358,0.57861 12.1641,-9.0948 12.1641,-9.0948 l -15.87235,-0.14584 z"
       id="path3141-7"
       inkscape:connector-curvature="0"
       sodipodi:nodetypes="csccc" />
    <path
       style="fill:#808080;stroke:#000000;stroke-width:0.93322814px;stroke-linecap:butt;stroke-linejoin:miter;stroke-opacity:1"
       d="m -528.49272,537.28305 -35.31206,56.97382 c 0,0 -6.85205,14.37739 -17.44588,25.12798 -10.59406,10.75058 -15.56265,19.48327 -18.3789,32.78498 -2.81597,13.30175 4.85246,26.36011 4.85246,26.36011 l 21.89244,3.34425 24.87692,-12.33706 19.93932,-43.84866 63.95508,-81.34274 z"
       id="path3149-1"
       inkscape:connector-curvature="0"
       sodipodi:nodetypes="ccsscccccc" />
    <path
       style="fill:#808080;stroke:#000000;stroke-width:1.2555418px;stroke-linecap:butt;stroke-linejoin:miter;stroke-opacity:1"
       d="m -448.79592,707.56533 87.62318,2.25859 75.30205,30.87271 95.73137,28.4479 c 0,0 31.739,-4.25842 62.05464,16.20245 30.31566,20.46081 41.070988,31.40944 41.070988,31.40944 0,0 20.516087,8.75306 -26.991848,38.66306 -47.50797,29.91001 -57.76597,25.53349 -57.76597,25.53349 l -100.00162,-28.86585 c 0,0 -94.38545,-6.39816 -126.76419,6.1316 -32.37877,12.52978 -80.80363,57.10225 -80.80363,57.10225 l -40.74567,34.04958 c 0,0 -25.38721,13.00369 -69.68594,-8.40502 -44.29867,-21.40871 -33.35293,-28.02904 -9.85682,-66.92906 23.49609,-38.90004 92.20781,-71.05385 92.20781,-71.05385 l 42.80876,-67.04018 z"
       id="path5968"
       inkscape:connector-curvature="0"
       sodipodi:nodetypes="ccccscsccsccssccc" />
    <path
       style="fill:#808080;stroke:#000000;stroke-width:1.08415186px;stroke-linecap:butt;stroke-linejoin:miter;stroke-opacity:1"
       d="m -591.86717,631.56101 c 0,0 13.31809,-1.83779 24.36205,3.12219 11.04405,4.96006 27.88505,16.32457 33.62998,25.25782 5.7451,8.9332 11.1779,33.0388 17.62887,42.23482 6.45123,9.19608 31.83506,23.50921 31.83506,23.50921 l 9.25691,7.92343 -7.33444,33.79253 c 0,0 -41.50055,-23.09108 -47.75083,-30.51368 -6.25058,-7.42265 -48.54894,-41.25511 -59.5902,-54.45573 -8.95927,-10.71148 -16.0974,-17.64447 -15.7707,-28.80275 0.25721,-8.79074 13.7342,-22.06765 13.7342,-22.06765 z"
       id="path3151-5"
       inkscape:connector-curvature="0"
       sodipodi:nodetypes="cssscccssac" />
    <g
       id="g5977"
       transform="matrix(-0.20432689,-1.3304351,1.2690484,-0.21547235,-2374.8903,618.0261)"
       style="fill:#808080">
      <path
         sodipodi:nodetypes="ccssccscccc"
         inkscape:connector-curvature="0"
         id="path3175-4"
         d="m -606.88113,1599.1368 -0.5546,18.3011 c 0,0 7.2095,6.6549 16.6373,7.7641 9.4278,1.1091 27.1743,2.2182 35.4929,-1.1092 8.3188,-3.3275 15.5283,-9.9825 15.5283,-9.9825 0,0 3.8821,-13.8644 6.1003,-16.6372 2.2183,-2.773 9.4278,-1.1092 16.0828,-4.9912 6.6549,-3.8821 11.0914,-11.6462 11.0914,-11.6462 l 0,-18.301 -38.8204,14.9736 z"
         style="fill:#808080;stroke:#000000;stroke-width:0.77640837px;stroke-linecap:butt;stroke-linejoin:miter;stroke-opacity:1" />
      <path
         sodipodi:nodetypes="csssccscscscsccc"
         inkscape:connector-curvature="0"
         id="path3173-7"
         d="m -554.19633,1538.6879 c 0,0 -4.9911,10.5369 -11.0914,15.5281 -6.1005,4.9912 -17.1919,18.8557 -25.5107,23.2923 -8.3187,4.4366 -11.646,3.882 -14.9735,11.0915 -3.3275,7.2095 0,16.0828 0,16.0828 2.8004,7.5029 13.0316,6.2004 19.4102,6.6549 8.3186,0.5546 17.7464,2.2183 27.1743,-0.5546 9.4278,-2.7729 17.7464,-12.2007 17.7464,-12.2007 0,0 4.4367,-6.1003 4.9913,-12.7553 0.5546,-6.6549 11.0914,-1.1091 11.0914,-1.1091 0,0 9.9824,-2.2183 12.7553,-8.8732 2.7729,-6.655 4.4367,-12.7553 4.4367,-12.7553 0,0 -3.8821,-8.8733 -3.8821,-12.2007 0,-3.3275 -0.5546,-17.7465 -0.5546,-17.7465 l 3.3275,-17.1918 z"
         style="fill:#808080;stroke:#000000;stroke-width:0.77640837px;stroke-linecap:butt;stroke-linejoin:miter;stroke-opacity:1" />
      <path
         inkscape:connector-curvature="0"
         id="path3183-2"
         d="m -561.96033,1577.5083 -6.1004,4.9912 c 0,0 -21.6285,-6.655 -24.4013,-6.1004 -2.773,0.5546 1.6636,-3.882 1.6636,-3.882 0,0 27.1743,1.1091 28.8381,4.9912 z"
         style="fill:#808080;stroke:#000000;stroke-width:0.77640837px;stroke-linecap:butt;stroke-linejoin:miter;stroke-opacity:1" />
      <path
         inkscape:connector-curvature="0"
         id="path3185-3"
         d="m -554.75093,1573.0717 c 0,0 -14.9735,-8.3187 -22.183,-6.655 -7.2095,1.6637 1.109,-6.6549 1.109,-6.6549 0,0 21.6286,1.1091 22.7377,4.4366 1.1092,3.3274 -1.6637,8.8733 -1.6637,8.8733 z"
         style="fill:#808080;stroke:#000000;stroke-width:0.77640837px;stroke-linecap:butt;stroke-linejoin:miter;stroke-opacity:1" />
      <path
         inkscape:connector-curvature="0"
         id="path3187-2"
         d="m -545.87753,1560.3163 c 0,0 -18.3012,-6.1003 -21.6286,-4.9911 -3.3275,1.1091 3.3274,-6.1004 3.3274,-6.1004 0,0 14.9736,-1.6637 18.3012,1.6638 3.3274,3.3274 0,9.4277 0,9.4277 z"
         style="fill:#808080;stroke:#000000;stroke-width:0.77640837px;stroke-linecap:butt;stroke-linejoin:miter;stroke-opacity:1" />
    </g>
    <path
       style="fill:#808080;stroke:#000000;stroke-width:1.02191782px;stroke-linecap:butt;stroke-linejoin:miter;stroke-opacity:1"
       d="m -577.62671,961.84398 c 0,0 115.28751,30.59876 135.93568,34.46151 20.64831,3.86281 75.47894,13.16521 90.43416,15.49881 14.95512,2.3333 33.43607,10.6674 42.66926,15.9557 9.23329,5.2885 2.3444,-32.12635 2.3444,-32.12635 0,0 -22.68606,-19.57184 -19.08358,-25.52981 3.60239,-5.95762 -8.46776,-13.50545 -24.86292,-13.60506 -16.39509,-0.0999 -56.89741,-20.52729 -65.41784,-25.81133 -8.52046,-5.28389 -56.82076,-32.48602 -67.47484,-38.53047 -10.65425,-6.04428 -53.33798,-19.75782 -65.45624,-19.83152 -12.11817,-0.0735 -17.84957,4.3764 -17.84957,4.3764 l 2.65018,31.40927 -3.02371,26.89032 z"
       id="path3171-6"
       inkscape:connector-curvature="0"
       sodipodi:nodetypes="cssscssssscccc" />
    <g
       id="g5970"
       transform="matrix(-0.34203329,1.2995111,-1.2390507,-0.35743079,1434.02,1930.3614)"
       style="fill:#808080">
      <path
         sodipodi:nodetypes="cscscccccc"
         inkscape:connector-curvature="0"
         id="path3181-7"
         d="m -344.87913,1575.9019 c 0,0 -4.3443,10.9188 2.072,16.739 6.4163,5.8202 21.86092,8.1343 21.86092,8.1343 0,0 11.1748,-1.7506 18.79243,1.8998 7.61751,3.6504 14.90915,15.0581 20.93427,16.9765 15.63259,4.3338 19.16028,1.8098 39.96422,0.014 12.2831,-1.7042 20.06826,-15.2536 20.06826,-15.2536 l 0.0513,-14.4297 -60.87992,-4.2231 z"
         style="fill:#808080;stroke:#000000;stroke-width:0.77640837px;stroke-linecap:butt;stroke-linejoin:miter;stroke-opacity:1" />
      <path
         sodipodi:nodetypes="csssssssscssccc"
         inkscape:connector-curvature="0"
         id="path3179-1"
         d="m -334.71003,1545.2454 c 0,0 -11.2029,15.6261 -11.6452,26.1539 -0.4422,10.5277 12.8093,12.1945 16.68791,12.3575 3.87865,0.163 13.22829,2.2211 20.33839,4.7401 7.10996,2.519 15.47888,13.1056 20.42677,15.8451 9.76397,5.4058 21.83751,8.6884 30.8426,5.7364 9.00518,-2.9521 30.91723,-9.2474 32.18838,-13.0794 1.27115,-3.832 5.56881,-13.6427 -0.87072,-18.9088 -6.43954,-5.2662 -9.07029,-8.7071 -19.13698,-6.9098 -10.06675,1.7973 -10.06675,1.7973 -10.06675,1.7973 0,0 -5.8389,-6.351 -14.51806,-11.1563 -8.67917,-4.8052 -4.87041,-2.9799 -16.08721,-13.4424 -11.21681,-10.4625 -25.069,-11.0444 -25.069,-11.0444 l -13.11181,-4.9915 z"
         style="fill:#808080;stroke:#000000;stroke-width:0.77640837px;stroke-linecap:butt;stroke-linejoin:miter;stroke-opacity:1" />
      <path
         inkscape:connector-curvature="0"
         id="path3191-2"
         d="m -267.03204,1585.8335 c 0,0 8.89337,-13.503 13.88016,-13.2935 4.98679,0.2095 -6.46283,-4.7121 -6.46283,-4.7121 0,0 -13.53093,4.9822 -15.40269,9.8992 -1.87185,4.917 7.98536,8.1064 7.98536,8.1064 z"
         style="fill:#808080;stroke:#000000;stroke-width:0.77640837px;stroke-linecap:butt;stroke-linejoin:miter;stroke-opacity:1" />
      <path
         inkscape:connector-curvature="0"
         id="path3193-1"
         d="m -296.41736,1571.8323 c 0,0 5.8855,5.2429 9.30313,3.1662 3.41762,-2.0767 14.91845,-11.5847 18.24295,-11.445 3.32459,0.1397 -6.43953,-5.2661 -6.43953,-5.2661 0,0 -10.18313,4.5676 -15.28625,7.1286 -5.10325,2.5609 -5.8203,6.4163 -5.8203,6.4163 z"
         style="fill:#808080;stroke:#000000;stroke-width:0.77640837px;stroke-linecap:butt;stroke-linejoin:miter;stroke-opacity:1" />
      <path
         inkscape:connector-curvature="0"
         id="path3195-6"
         d="m -308.62593,1558.5527 9.20996,5.3826 c 0,0 11.47748,-8.9538 16.46438,-8.7442 4.98679,0.2094 -0.87541,-5.5875 -0.87541,-5.5875 0,0 -24.61275,4.5166 -24.79893,8.9491 z"
         style="fill:#808080;stroke:#000000;stroke-width:0.77640837px;stroke-linecap:butt;stroke-linejoin:miter;stroke-opacity:1" />
    </g>
    <path
       style="fill:#808080;stroke:#000000;stroke-width:1.02191782px;stroke-linecap:butt;stroke-linejoin:miter;stroke-opacity:1"
       d="m -420.302,343.64621 c -3.7054,2.58452 -3.39286,8.62291 3.45282,7.89851 0,0 5.07262,-1.15425 2.46043,-5.07656 -2.61202,-3.92231 -5.91325,-2.82195 -5.91325,-2.82195 z"
       id="path3197-8"
       inkscape:connector-curvature="0"
       sodipodi:nodetypes="ccsc" />
    <path
       style="fill:#808080;stroke:#000000;stroke-width:1.02191782px;stroke-linecap:butt;stroke-linejoin:miter;stroke-opacity:1"
       d="M -361.11781,335.94487 z"
       id="path3199-5"
       inkscape:connector-curvature="0" />
    <path
       style="fill:#808080;stroke:#000000;stroke-width:1.1839335px;stroke-linecap:butt;stroke-linejoin:miter;stroke-opacity:1"
       d="m -368.57121,350.8935 c 0,0 5.6039,-6.61936 -1.50934,-7.89725 -3.47487,-0.62421 -4.556,0.30224 -5.23931,2.26893 -0.6257,1.80124 2.27195,5.19545 2.27195,5.19545 z"
       id="path3201-7"
       inkscape:connector-curvature="0"
       sodipodi:nodetypes="csacc" />
    <path
       style="fill:#808080;stroke:#000000;stroke-width:1.20243382px;stroke-linecap:butt;stroke-linejoin:miter;stroke-opacity:1"
       d="m -599.3118,906.45261 c 0,0 -11.50815,2.12077 -18.91533,0.60128 -7.40718,-1.51951 -11.3747,-7.71129 -12.21171,-12.36468 -0.83725,-4.65312 -1.18894,-11.89571 2.91199,-15.53581 4.10096,-3.64029 13.28778,-11.61529 17.07932,-9.04484 3.7914,2.57046 4.15741,14.29764 11.40278,16.6803 7.24548,2.38234 11.18464,-0.39461 10.67101,-6.77422 -0.51349,-6.37956 -4.34738,-22.40319 -4.34738,-22.40319 l -3.65808,-12.40235 c 0,0 9.37685,0.13098 18.92951,3.88317 9.55265,3.75228 21.7644,16.11665 21.7644,16.11665 l -10.81858,12.12152 c 0,0 -9.70045,1.59542 -5.8806,13.13478 3.81976,11.53903 9.25726,14.44715 16.16512,14.07156 6.90771,-0.37548 9.86205,-2.45831 10.6568,-11.25837 0.79489,-8.80002 6.17595,-23.82965 6.17595,-23.82965 l 33.44847,17.61735 c 0,0 -5.70465,16.75596 -11.92286,27.1321 -6.21829,10.37637 -10.3051,18.50127 -11.90874,31.61657 -1.60381,13.11581 -1.56128,26.56896 -1.56128,26.56896 0,0 -8.05428,1.93278 -25.8232,0.97684 -17.76871,-0.95628 -19.73826,0.43247 -19.73826,0.43247 0,0 7.2313,-2.10202 10.65682,-11.25852 3.42566,-9.15646 0.59066,-21.39029 -4.34736,-22.40326 -4.93818,-1.01302 -14.97616,-2.17586 -20.06198,2.15872 -5.08584,4.33477 -6.04231,13.99766 -5.20524,18.65072 0.83717,4.6535 -29.81871,-14.18352 -29.81871,-14.18352 0,0 -4.61464,-2.73919 -5.12815,-9.1186 -0.51364,-6.37957 14.27247,-12.30962 14.27247,-12.30962 l 11.97943,-9.19419 z"
       id="path3167-6"
       inkscape:connector-curvature="0" />
    <path
       style="fill:#808080;stroke:#000000;stroke-width:1.02191782px;stroke-linecap:butt;stroke-linejoin:miter;stroke-opacity:1"
       d="m -404.86943,392.65011 c 10.23854,-3.80023 6.21071,-4.22665 10.64829,-1.4096 3.10888,1.97367 4.42931,-1.02389 5.85201,-0.92746 1.42245,0.0962 7.43883,5.30882 7.43883,5.30882 -5.9891,1.25366 -6.99768,1.06496 -12.13061,1.29635 -4.3146,0.4566 -23.117,-2.76347 -23.117,-2.76347 z"
       id="path3139-9"
       inkscape:connector-curvature="0"
       sodipodi:nodetypes="csscccc" />
    <path
       style="fill:#808080;stroke:#000000;stroke-width:0.93322814px;stroke-linecap:butt;stroke-linejoin:miter;stroke-opacity:1"
       d="m -268.44246,500.46117 19.66894,64.69329 c 0,0 2.97751,15.75748 10.48022,29.04887 7.50292,13.29146 10.08954,23.08495 9.44608,36.69172 -0.64373,13.6067 -11.33854,24.0868 -11.33854,24.0868 l -21.96076,-2.81287 -20.87851,-18.76126 -8.15668,-47.79341 -41.14098,-96.09855 z"
       id="path3149-1-0"
       inkscape:connector-curvature="0"
       sodipodi:nodetypes="ccsscccccc" />
    <path
       style="fill:#808080;stroke:#000000;stroke-width:1.02191782px;stroke-linecap:butt;stroke-linejoin:miter;stroke-opacity:1"
       d="m -485.07443,467.61412 c 0,0 -8.96718,-5.10214 -27.19351,23.62428 -18.22623,28.72641 -22.96051,35.89598 -25.70082,45.44782 -2.74044,9.55184 -3.77829,14.72486 -3.77829,14.72486 0,0 14.98448,0.26672 24.7098,4.6712 9.72517,4.40449 35.74957,17.00476 35.74957,17.00476 l 8.5391,-16.99873 c 0,0 -3.82496,15.47072 1.56243,43.55072 2.26041,11.78208 19.506,21.61705 23.88427,36.09711 6.05645,20.02988 6.68389,47.25967 5.4791,53.26456 -33.24883,74.96269 -55.86904,85.98073 -97.57851,123.08677 91.60833,66.38821 29.61394,69.21384 152.65067,72.84176 27.78831,1.13464 61.44355,-4.24874 64.28883,-4.05584 0.91246,0.062 24.31864,3.65803 43.09274,-21.82626 12.98167,-17.62158 78.2036,-82.14108 64.49396,-97.75414 -17.29012,-19.69067 -29.11577,-2.42527 -75.16903,-65.48138 -9.05398,-12.39671 -16.45983,-28.47059 -21.68279,-44.91464 -6.56519,-20.66933 -1.266,-45.0287 -1.266,-45.0287 0,0 8.33769,-7.67432 12.59386,-18.62155 4.2563,-10.94717 2.05235,-32.81896 -4.93252,-46.77536 -1.68741,-3.37134 6.07701,14.21423 7.17572,27.67705 25.98415,-23.91966 31.70776,-47.54068 38.9544,-65.70596 l -29.69968,-30.51875 c 0,0 -7.83617,-11.7669 -21.11809,-16.41252 -13.2818,-4.64559 -18.26113,-4.98312 -18.26113,-4.98312 -17.49284,18.83487 -33.67641,20.01759 -57.44214,27.56617 -46.07432,3.08973 -62.40123,2.37183 -99.35192,-10.48011 z"
       id="path3145-8"
       inkscape:connector-curvature="0"
       sodipodi:nodetypes="csscsccsscccssssscsscccscccc" />
    <text
       xml:space="preserve"
       style="font-size:76.03905487px;font-style:normal;font-weight:normal;line-height:125%;letter-spacing:0px;word-spacing:0px;fill:#808080;fill-opacity:1;stroke:none;font-family:Sans"
       x="-467.28357"
       y="556.43921"
       id="text4486-2"
       sodipodi:linespacing="125%"
       transform="matrix(0.97587091,-0.04008909,0.03733173,1.0231921,0,0)"><tspan
         sodipodi:role="line"
         id="tspan4488-7"
         x="-467.28357"
         y="556.43921"
         style="font-style:normal;font-variant:normal;font-weight:normal;font-stretch:normal;fill:#808080;font-family:EpsilonCTT;-inkscape-font-specification:EpsilonCTT"></tspan></text>
    <path
       style="fill:#808080;stroke:#000000;stroke-width:1.08415186px;stroke-linecap:butt;stroke-linejoin:miter;stroke-opacity:1"
       d="m -254.00922,612.97345 c 0,0 -12.46845,5.24824 -19.78412,15.25339 -7.31582,10.00532 -16.69907,28.57622 -17.54197,39.31977 -0.843,10.74359 5.66162,34.55468 4.32567,45.89051 -1.3361,11.336 -16.79238,36.87191 -16.79238,36.87191 l -4.37572,11.66962 22.15309,25.6894 c 0,0 25.41423,-41.47905 27.4022,-51.16549 1.98815,-9.68661 23.08897,-60.94102 26.55946,-78.12944 2.81609,-13.94727 5.80644,-23.66354 0.31831,-33.22394 -4.32364,-7.53191 -22.26502,-12.17515 -22.26502,-12.17515 z"
       id="path3151-5-1"
       inkscape:connector-curvature="0"
       sodipodi:nodetypes="cssscccssac" />
    <path
       style="fill:#808080;stroke:#000000;stroke-width:1.31621182px;stroke-linecap:butt;stroke-linejoin:miter;stroke-opacity:1"
       d="m -567.47972,553.49582 -18.60652,47.8563 -8.45362,10.34195 c 0,0 -5.35255,2.36594 25.40333,9.9083 30.75604,7.54239 50.80685,19.81658 50.80685,19.81658 0,0 -5.35257,2.36596 8.96342,-18.49362 14.31607,-20.8596 17.41717,-28.83564 17.41717,-28.83564 0,0 -21.6227,-28.75334 -42.18328,-32.87583 -20.56056,-4.12249 -33.34735,-7.71804 -33.34735,-7.71804 z"
       id="path5247"
       inkscape:connector-curvature="0" />
    <g
       id="g5300"
       transform="matrix(0.25824165,0.12106449,-0.11570004,0.27088578,-207.72223,703.12046)"
       style="fill:#808080">
      <rect
         y="60.010883"
         x="-1268.0199"
         height="59.808636"
         width="59.808636"
         id="rect3344-0"
         style="fill:#808080;fill-opacity:1" />
      <rect
         y="178.75209"
         x="-1267.7131"
         height="59.808636"
         width="59.808636"
         id="rect3344-1-9"
         style="fill:#808080;fill-opacity:1" />
      <rect
         y="119.85656"
         x="-1208.0281"
         height="59.808636"
         width="59.808636"
         id="rect3344-2-3"
         style="fill:#808080" />
      <rect
         y="119.79937"
         x="-1267.8256"
         height="59.808636"
         width="59.808636"
         id="rect3344-4-0"
         style="fill:#808080" />
      <rect
         y="119.76199"
         x="-1327.5142"
         height="59.808636"
         width="59.808636"
         id="rect3344-3-0"
         style="fill:#808080" />
      <text
         sodipodi:linespacing="125%"
         id="text3017-8"
         y="179.73885"
         x="-1154.1338"
         style="font-size:119.65602875px;font-style:normal;font-weight:normal;line-height:125%;letter-spacing:0px;word-spacing:0px;fill:#808080;fill-opacity:1;stroke:none;font-family:Sans"
         xml:space="preserve"><tspan
           style="font-style:normal;font-variant:normal;font-weight:normal;font-stretch:normal;fill:#808080;font-family:Segoe UI;-inkscape-font-specification:Segoe UI"
           y="179.73885"
           x="-1154.1338"
           id="tspan3019-7"
           sodipodi:role="line"></tspan></text>
      <rect
         y="183.40395"
         x="-1204.3231"
         height="10.049547"
         width="56.40995"
         id="rect3021-6"
         style="fill:#808080;fill-opacity:1;stroke:none" />
    </g>
    <path
       style="fill:#808080;stroke:#000000;stroke-width:1.02191782px;stroke-linecap:butt;stroke-linejoin:miter;stroke-opacity:1"
       d="m -163.56513,806.98143 c 0,0 -21.54462,19.09975 -37.91334,24.38663 -16.36875,5.28662 -35.26898,7.55 -50.92536,14.95026 -15.6563,7.40048 -28.50344,20.89157 -45.38334,35.88098 -16.87986,14.98901 -30.8337,29.68434 -46.96497,35.67549 -16.13125,5.99128 -22.06376,1.8529 -33.21238,9.16429 -11.14847,7.31145 -10.59302,13.44699 -18.26441,13.12525 -7.67116,-0.32169 14.4731,2.55187 17.32272,11.00615 2.84944,8.45415 -2.72079,25.5847 3.48935,32.79069 6.21011,7.2063 14.2759,4.21063 14.2759,4.21063 0,0 7.46982,-11.49425 14.86338,-14.24027 7.39344,-2.74592 98.13174,-36.4467 98.13174,-36.4467 0,0 32.02522,-12.68694 44.55826,-18.13442 12.53312,-5.44775 89.78856,-36.51901 89.78856,-36.51901 l 8.02543,-5.35867 c 0,0 -31.71925,-22.30627 -38.16691,-30.21696 -6.44751,-7.91054 -19.82189,-38.61565 -19.62463,-40.27434 z"
       id="path3177-4"
       inkscape:connector-curvature="0"
       sodipodi:nodetypes="csssssssscscsccsc" />
    <path
       style="fill:#808080;stroke:#000000;stroke-width:1.20952916px;stroke-linecap:butt;stroke-linejoin:miter;stroke-opacity:1"
       d="m -156.92203,796.61953 -13.00968,29.76751 c 0,0 10.06368,-3.40502 14.28372,-1.64358 4.22006,1.76144 12.63002,4.03375 11.00636,10.96149 -1.62358,6.92776 -4.8707,20.78358 -15.02482,20.43642 -10.1541,-0.34734 -22.32325,-10.02532 -20.60917,-13.20119 1.71387,-3.17572 -4.90089,19.53302 -9.55167,24.66668 -4.65085,5.13349 7.27745,4.80625 18.80492,12.62469 11.52756,7.81843 33.1488,13.48255 44.95659,8.15239 11.80768,-5.32986 71.876893,-88.32583 71.876893,-88.32583 0,0 -18.72366,15.53171 -24.136606,13.80292 -5.41299,-1.72865 10.343886,-16.5533 10.343886,-16.5533 0,0 10.003454,-5.90634 1.442782,-14.432 -8.560472,-8.52547 -14.675247,-14.61528 -24.127427,-10.60144 -9.452148,4.01397 -16.458528,10.4638 -18.051998,18.6423 -1.59341,8.17848 4.1206,22.41394 -2.97622,25.11159 -7.09661,2.69784 -17.92238,-0.75939 -22.78408,-4.38076 -4.86155,-3.62099 -22.44348,-15.02789 -22.44348,-15.02789 z"
       id="path3169-1"
       inkscape:connector-curvature="0" />
    <path
       style="fill:#808080;stroke:#000000;stroke-width:1.31621182px;stroke-linecap:butt;stroke-linejoin:miter;stroke-opacity:1"
       d="m -383.28372,675.80078 112.23389,-46.96703 c 0,0 12.44682,9.03003 7.64649,44.17842 -4.80034,35.14842 -25.10615,110.17708 -25.10615,110.17708 0,0 -33.30485,33.21615 -64.23076,28.39101 -30.92591,-4.82515 -34.45174,-73.28304 -34.45174,-73.28304 z"
       id="path5984"
       inkscape:connector-curvature="0" />
    <path
       style="fill:#808080;stroke:#000000;stroke-width:1.31621182px;stroke-linecap:butt;stroke-linejoin:miter;stroke-opacity:1"
       d="m -371.89891,660.20003 c 0,0 25.19104,-28.30867 28.84435,-3.50225 3.65332,24.80646 3.48342,27.52369 3.48342,27.52369 l -20.13593,72.31143 c 0,0 -14.44345,64.51101 -1.65676,68.10656 12.78666,3.59554 55.43727,-12.61457 55.43727,-12.61457 l 30.20374,-25.24011 c 0,0 -24.21395,-28.92895 -17.16213,-58.46723 7.05179,-29.53829 29.82144,-60.73985 29.82144,-60.73985 0,0 23.49181,-1.13627 7.05183,-29.53826 -16.44001,-28.40199 -38.02017,-16.22106 -38.02017,-16.22106 l -55.26734,9.89733 z"
       id="path5986"
       inkscape:connector-curvature="0" />
    <path
       style="fill:#808080;stroke:#000000;stroke-width:1.04071856px;stroke-linecap:butt;stroke-linejoin:miter;stroke-opacity:1"
       d="m -384.70238,368.03234 c 0,0 -0.28024,2.41951 0.20158,5.65385 3.09032,-1.04645 2.30726,0.29163 2.30726,0.29163 1.93848,4.34738 2.18206,3.30036 -0.32487,6.99437 -1.88213,-0.0184 -1.45698,0.25495 -3.33911,0.2366 0,0 -5.67786,3.17431 -9.50668,0.98388 -3.51815,-2.01266 -4.60666,-1.39059 -4.60666,-1.39059 -4.70537,1.69848 -5.02251,-1.61667 -4.54893,-7.31103 l 4.10907,-0.2291"
       id="path5988"
       inkscape:connector-curvature="0"
       sodipodi:nodetypes="cccccsccc" />
    <path
       sodipodi:type="arc"
       style="fill:#808080;fill-opacity:1;fill-rule:nonzero;stroke:#000000;stroke-width:1;stroke-linecap:round;stroke-linejoin:round;stroke-miterlimit:4;stroke-opacity:0.45502642;stroke-dasharray:none;stroke-dashoffset:0"
       id="path5990"
       sodipodi:cx="253.39285"
       sodipodi:cy="371.64789"
       sodipodi:rx="2.3214285"
       sodipodi:ry="2.1428571"
       d="m 255.71428,371.64789 a 2.3214285,2.1428571 0 1 1 -4.64286,0 2.3214285,2.1428571 0 1 1 4.64286,0 z"
       transform="matrix(1.0162968,0.00990623,-0.01038706,1.065626,-671.66344,-51.695726)" />
    <path
       sodipodi:type="arc"
       style="fill:#808080;fill-opacity:1;fill-rule:nonzero;stroke:#000000;stroke-width:1;stroke-linecap:round;stroke-linejoin:round;stroke-miterlimit:4;stroke-opacity:0.45502642;stroke-dasharray:none;stroke-dashoffset:0"
       id="path5992"
       sodipodi:cx="299.10715"
       sodipodi:cy="371.11218"
       sodipodi:rx="1.9642857"
       sodipodi:ry="1.9642857"
       d="m 301.07143,371.11218 a 1.9642857,1.9642857 0 1 1 -3.92857,0 1.9642857,1.9642857 0 1 1 3.92857,0 z"
       transform="matrix(1.3214497,0.01288067,-0.01209216,1.2405542,-762.02491,-118.26194)" />
    <path
       style="fill:#808080;fill-opacity:1;stroke:#000000;stroke-width:1.12651503px;stroke-linecap:butt;stroke-linejoin:miter;stroke-opacity:1"
       d="m -302.23355,755.52497 c 0,0 -12.79796,4.46121 -16.67561,5.054 -3.87759,0.59295 -13.95973,2.13423 -13.95973,2.13423 0,0 1.93432,7.21814 5.94082,7.44053 4.00632,0.22222 18.99897,-0.40021 18.99897,-0.40021 0,0 13.83251,-5.45418 25.59738,-11.42718 7.84675,-3.98376 -24.82176,11.3087 -24.82176,11.3087 l -25.46085,-0.28166 3.67837,8.20362 c 0,0 30.11405,-0.42969 33.47363,0.72635 3.35962,1.15606 -0.28432,0.48938 15.6442,-9.07053 -17.22184,10.81587 -17.1641,9.52998 -17.1641,9.52998 -11.1588,-1.82837 -32.01813,-1.59337 -32.01813,-1.59337 0,0 27.78285,7.44048 34.8915,7.18863 7.10857,-0.25192 14.9298,-3.53489 18.67867,-4.94298 3.74906,-1.40793 17.6519,-16.47402 17.6519,-16.47402 -16.54812,-45.61589 -31.05731,-10.65608 -44.45526,-7.39611 z"
       id="path3153-9"
       inkscape:connector-curvature="0"
       sodipodi:nodetypes="cscscscccscccsscc" />
    <path
       style="fill:#808080;stroke:none"
       d="m -494.77468,480.84211 c 0,0 -4.35556,-0.0425 -10.26681,10.55718 -5.91132,10.59967 -22.16362,39.36813 -22.16362,39.36813 l -4.50394,15.18076 c 0,0 16.00006,-2.88898 24.66665,1.76289 8.66661,4.65191 15.88134,9.28963 15.88134,9.28963 l 11.70385,-9.02073 10.1333,3.1437 c 0,0 -0.25226,25.8795 2.54757,36.56405 2.79984,10.68458 15.71812,26.03515 19.98466,35.21155 4.26653,9.1764 14.2811,24.49869 14.13271,39.72191 -0.14838,15.22321 -7.58572,33.42035 -12.04514,44.03414 -4.45943,10.61382 -19.4528,59.18663 -31.1418,66.68502 -11.68902,7.49841 -34.99284,14.88358 -39.45229,25.49739 -4.45941,10.61381 17.15515,27.57164 28.6661,38.3411 11.51095,10.76947 12.8144,26.00685 27.31809,27.6707 14.5037,1.66384 95.73324,10.06795 120.4444,7.26387 24.71119,-2.80404 54.01533,-29.92281 59.9266,-40.52248 5.9113,-10.59964 -11.64448,2.93143 -30.57793,8.83673 -18.93344,5.90533 -30.62243,13.40373 -49.39265,2.56351 -18.77021,-10.84023 -33.02164,-38.38357 -43.28848,-27.82638 -10.26683,10.55722 -20.34077,1.32422 -27.54069,-4.83584 -7.1999,-6.16005 -0.888,-57.86242 5.06782,-73.02904 5.9558,-15.16662 13.51183,-45.5423 20.86012,-54.60548 7.3483,-9.0632 0.2671,-27.40182 -1.09571,-36.5499 -1.36282,-9.1481 -1.22927,-22.84899 -1.22927,-22.84899 0,0 -4.44459,9.09147 -17.48159,5.91946 -13.037,-3.172 -33.15521,-24.68266 -33.08102,-32.29426 0.0742,-7.61163 4.81556,-47.14957 10.71202,-56.22689 5.89643,-9.0773 1.49636,-4.5528 -9.94041,-22.9339 -11.43674,-18.38108 -2.68112,-22.86315 -15.68844,-29.0798 -13.00731,-6.21665 -23.15544,-7.83803 -23.15544,-7.83803 z"
       id="path5998"
       inkscape:connector-curvature="0" />
    <path
       style="fill:#808080;stroke:#000000;stroke-width:1.04071856px;stroke-linecap:butt;stroke-linejoin:miter;stroke-opacity:1"
       d="m -467.34021,645.53599 27.67191,140.33671 15.71812,26.03518 -1.18476,-27.41596 -29.10892,-141.87321 z"
       id="path6000"
       inkscape:connector-curvature="0" />
    <path
       style="fill:#808080;stroke:#000000;stroke-width:1.14333546px;stroke-linecap:butt;stroke-linejoin:miter;stroke-opacity:1"
       d="m -478.65991,722.19274 c 0,0 -0.0571,5.8535 -4.09347,10.8319 -4.03644,4.97841 -2.54738,15.86473 -2.54738,15.86473 0,0 0.74858,5.02506 -2.45773,6.66639 -9.83745,25.60216 12.81597,23.35277 27.71124,26.91881 17.0288,3.96942 0.90736,-9.77273 -13.47844,-14.23573 5.90348,0.37327 16.07664,8.16838 20.64533,8.07846 5.52161,-0.10865 11.41692,-2.71518 3.29611,-9.51766 -10.2779,-9.2994 -23.79472,-13.61263 -23.79472,-13.61263 l 20.62915,11.07289 c 0,0 7.92613,5.09502 12.6541,10.99515 4.72798,5.90014 13.40272,16.0202 13.40272,16.0202 l 1.69281,-10.01901 c 0,0 3.95492,3.38373 -6.26592,-11.76917 -10.22085,-15.15291 -29.26312,-25.37403 -29.26312,-25.37403 l -3.94676,-4.21994 22.2486,8.5798 c 0,0 5.55806,2.56306 10.25342,11.80803 4.69539,9.24501 8.56878,20.99087 8.56878,20.99087 l 4.84208,-5.80686 c 0,0 -3.0922,-10.06565 -4.62201,-16.77092 -1.52979,-6.70523 -14.14315,-21.88149 -14.14315,-21.88149 l -23.8436,-8.59528 30.83936,16.53876 -11.83742,-25.25252 -15.0296,2.89842 -21.46038,-0.20918"
       id="path5994"
       inkscape:connector-curvature="0"
       sodipodi:nodetypes="csccccscccsccscccsccscccccc" />
    <path
       style="fill:#808080;stroke:#000000;stroke-width:1.02191782px;stroke-linecap:butt;stroke-linejoin:miter;stroke-opacity:1"
       d="m -420.49015,782.98894 -3.99545,-9.84386 4.62825,-2.46608 3.85997,9.11014 z"
       id="path4458-5"
       inkscape:connector-curvature="0" />
    <path
       style="fill:#808080;stroke:#000000;stroke-width:1.02191782px;stroke-linecap:butt;stroke-linejoin:miter;stroke-opacity:1"
       d="m -421.85993,786.71653 c 0,0 -3.18332,-5.41558 -5.37348,-6.08672 -2.18997,-0.67114 -3.97116,-0.73035 -4.14616,0.31079 -0.17585,1.04111 2.33674,7.40653 4.52686,8.07772 2.19014,0.67113 4.99278,-2.30179 4.99278,-2.30179 z"
       id="path4462-3"
       inkscape:connector-curvature="0" />
    <path
       style="fill:#808080;stroke:#000000;stroke-width:1.04071856px;stroke-linecap:butt;stroke-linejoin:miter;stroke-opacity:1"
       d="M -429.66857,802.71734 z"
       id="path6002"
       inkscape:connector-curvature="0" />
    <path
       style="fill:#808080;stroke:#000000;stroke-width:1.04071856px;stroke-linecap:butt;stroke-linejoin:miter;stroke-opacity:1"
       d="m -420.48948,814.37755 -11.4961,-12.29181 8.77046,-6.00436 z"
       id="path6004"
       inkscape:connector-curvature="0" />
    <path
       sodipodi:type="arc"
       style="fill:#666666;fill-opacity:1;fill-rule:nonzero;stroke:none"
       id="path6096"
       sodipodi:cx="834.28571"
       sodipodi:cy="583.79077"
       sodipodi:rx="14.285714"
       sodipodi:ry="14.285714"
       d="m 848.57142,583.79077 a 14.285714,14.285714 0 1 1 -28.57143,0 14.285714,14.285714 0 1 1 28.57143,0 z"
       transform="translate(12.571429,76.571429)" />
    <path
       sodipodi:type="arc"
       style="fill:#666666;fill-opacity:1;fill-rule:nonzero;stroke:none"
       id="path6098"
       sodipodi:cx="878.57141"
       sodipodi:cy="585.2193"
       sodipodi:rx="15.714286"
       sodipodi:ry="18.571428"
       d="m 894.2857,585.2193 a 15.714286,18.571428 0 1 1 -31.42857,0 15.714286,18.571428 0 1 1 31.42857,0 z"
       transform="translate(12.571429,76.571429)" />
    <path
       sodipodi:type="arc"
       style="fill:#666666;fill-opacity:1;fill-rule:nonzero;stroke:none"
       id="path6100"
       sodipodi:cx="1048.5714"
       sodipodi:cy="605.2193"
       sodipodi:rx="14.285714"
       sodipodi:ry="12.857142"
       d="m 1062.8571,605.2193 a 14.285714,12.857142 0 1 1 -28.5714,0 14.285714,12.857142 0 1 1 28.5714,0 z"
       transform="translate(10.571429,68.571429)" />
    <path
       sodipodi:type="arc"
       style="fill:#666666;fill-opacity:1;fill-rule:nonzero;stroke:none"
       id="path6102"
       sodipodi:cx="1101.4286"
       sodipodi:cy="598.07648"
       sodipodi:rx="15.714286"
       sodipodi:ry="17.142857"
       d="m 1117.1429,598.07648 a 15.714286,17.142857 0 1 1 -31.4286,0 15.714286,17.142857 0 1 1 31.4286,0 z"
       transform="translate(10.571429,68.571429)" />
    <text
       xml:space="preserve"
       style="font-size:40px;font-style:normal;font-weight:normal;line-height:125%;letter-spacing:0px;word-spacing:0px;fill:#000000;fill-opacity:1;stroke:none;font-family:Sans"
       x="-102.85714"
       y="109.50504"
       id="text6104"
       sodipodi:linespacing="125%"><tspan
         sodipodi:role="line"
         id="tspan6106"
         x="-102.85714"
         y="109.50504"
         style="fill:#999999"></tspan></text>
    <text
       sodipodi:linespacing="125%"
       id="text6108"
       y="88.672089"
       x="76.976471"
       style="font-size:47.30746078px;font-style:normal;font-weight:normal;line-height:125%;letter-spacing:0px;word-spacing:0px;fill:#000000;fill-opacity:1;stroke:none;font-family:Sans"
       xml:space="preserve"
       transform="matrix(0.81636901,0.57753065,-0.57753065,0.81636901,0,0)"><tspan
         style="fill:#999999"
         y="88.672089"
         x="76.976471"
         id="tspan6110"
         sodipodi:role="line"></tspan></text>
    <text
       sodipodi:linespacing="125%"
       id="text6112"
       y="148.48375"
       x="-85.980621"
       style="font-size:50.20236588px;font-style:normal;font-weight:normal;line-height:125%;letter-spacing:0px;word-spacing:0px;fill:#000000;fill-opacity:1;stroke:none;font-family:Sans"
       xml:space="preserve"
       transform="matrix(0.68422257,-0.72927325,0.72927325,0.68422257,0,0)"><tspan
         style="fill:#999999"
         y="148.48375"
         x="-85.980621"
         id="tspan6114"
         sodipodi:role="line"></tspan></text>
    <text
       sodipodi:linespacing="125%"
       id="text6116"
       y="141.49707"
       x="-254.32065"
       style="font-size:58.51919556px;font-style:normal;font-weight:normal;line-height:125%;letter-spacing:0px;word-spacing:0px;fill:#000000;fill-opacity:1;stroke:none;font-family:Sans"
       xml:space="preserve"
       transform="matrix(-0.15401305,-0.98806881,0.98806881,-0.15401305,0,0)"><tspan
         style="fill:#999999"
         y="141.49707"
         x="-254.32065"
         id="tspan6118"
         sodipodi:role="line"></tspan></text>
    <text
       sodipodi:linespacing="125%"
       id="text6120"
       y="171.85297"
       x="469.00354"
       style="font-size:33.50136948px;font-style:normal;font-weight:normal;line-height:125%;letter-spacing:0px;word-spacing:0px;fill:#000000;fill-opacity:1;stroke:none;font-family:Sans"
       xml:space="preserve"
       transform="matrix(0.99569695,-0.09266923,0.09266923,0.99569695,0,0)"><tspan
         style="fill:#999999"
         y="171.85297"
         x="469.00354"
         id="tspan6122"
         sodipodi:role="line"></tspan></text>
    <text
       sodipodi:linespacing="125%"
       id="text6124"
       y="828.8092"
       x="-376.69901"
       style="font-size:55.32390213px;font-style:normal;font-weight:normal;line-height:125%;letter-spacing:0px;word-spacing:0px;fill:#000000;fill-opacity:1;stroke:none;font-family:Sans"
       xml:space="preserve"
       transform="matrix(-0.31432312,-0.94931606,0.94931606,-0.31432312,0,0)"><tspan
         style="fill:#999999"
         y="828.8092"
         x="-376.69901"
         id="tspan6126"
         sodipodi:role="line"></tspan></text>
    <text
       sodipodi:linespacing="125%"
       id="text6128"
       y="-83.732628"
       x="944.99634"
       style="font-size:56.30763626px;font-style:normal;font-weight:normal;line-height:125%;letter-spacing:0px;word-spacing:0px;fill:#000000;fill-opacity:1;stroke:none;font-family:Sans"
       xml:space="preserve"
       transform="matrix(0.95368466,0.3008082,-0.3008082,0.95368466,0,0)"><tspan
         style="fill:#999999"
         y="-83.732628"
         x="944.99634"
         id="tspan6130"
         sodipodi:role="line"></tspan></text>
    <text
       sodipodi:linespacing="125%"
       id="text6132"
       y="1013.5292"
       x="841.14905"
       style="font-size:48.88990021px;font-style:normal;font-weight:normal;line-height:125%;letter-spacing:0px;word-spacing:0px;fill:#000000;fill-opacity:1;stroke:none;font-family:Sans"
       xml:space="preserve"
       transform="matrix(0.82500007,-0.56513263,0.56513263,0.82500007,0,0)"><tspan
         style="fill:#999999"
         y="1013.5292"
         x="841.14905"
         id="tspan6134"
         sodipodi:role="line"></tspan></text>
    <text
       sodipodi:linespacing="125%"
       id="text6136"
       y="937.69922"
       x="880.6405"
       style="font-size:51.84541321px;font-style:normal;font-weight:normal;line-height:125%;letter-spacing:0px;word-spacing:0px;fill:#000000;fill-opacity:1;stroke:none;font-family:Sans"
       xml:space="preserve"
       transform="matrix(0.87521137,-0.4837407,0.4837407,0.87521137,0,0)"><tspan
         style="fill:#999999"
         y="937.69922"
         x="880.6405"
         id="tspan6138"
         sodipodi:role="line"></tspan></text>
    <text
       sodipodi:linespacing="125%"
       id="text6140"
       y="-921.76923"
       x="712.34491"
       style="font-size:56.34802628px;font-style:normal;font-weight:normal;line-height:125%;letter-spacing:0px;word-spacing:0px;fill:#000000;fill-opacity:1;stroke:none;font-family:Sans"
       xml:space="preserve"
       transform="matrix(0.24159864,0.97037627,-0.97037627,0.24159864,0,0)"><tspan
         style="fill:#999999"
         y="-921.76923"
         x="712.34491"
         id="tspan6142"
         sodipodi:role="line"></tspan></text>
    <text
       sodipodi:linespacing="125%"
       id="text6144"
       y="163.63339"
       x="969.60626"
       style="font-size:62.78184891px;font-style:normal;font-weight:normal;line-height:125%;letter-spacing:0px;word-spacing:0px;fill:#000000;fill-opacity:1;stroke:none;font-family:Sans"
       xml:space="preserve"
       transform="matrix(0.98263352,0.18555692,-0.18555692,0.98263352,0,0)"><tspan
         style="fill:#999999"
         y="163.63339"
         x="969.60626"
         id="tspan6146"
         sodipodi:role="line"></tspan></text>
    <text
       sodipodi:linespacing="125%"
       id="text6148"
       y="723.85388"
       x="807.09491"
       style="font-size:36.7989502px;font-style:normal;font-weight:normal;line-height:125%;letter-spacing:0px;word-spacing:0px;fill:#000000;fill-opacity:1;stroke:none;font-family:Sans"
       xml:space="preserve"
       transform="matrix(0.95269694,-0.30392194,0.30392194,0.95269694,0,0)"><tspan
         style="fill:#999999"
         y="723.85388"
         x="807.09491"
         id="tspan6150"
         sodipodi:role="line"></tspan></text>
    <text
       sodipodi:linespacing="125%"
       id="text6152"
       y="758.82794"
       x="786.72046"
       style="font-size:37.81894302px;font-style:normal;font-weight:normal;line-height:125%;letter-spacing:0px;word-spacing:0px;fill:#000000;fill-opacity:1;stroke:none;font-family:Sans"
       xml:space="preserve"
       transform="matrix(0.84445915,-0.53561997,0.53561997,0.84445915,0,0)"><tspan
         style="fill:#999999"
         y="758.82794"
         x="786.72046"
         id="tspan6154"
         sodipodi:role="line"></tspan></text>
    <text
       sodipodi:linespacing="125%"
       id="text6156"
       y="1231.5677"
       x="321.9024"
       style="font-size:65.91858673px;font-style:normal;font-weight:normal;line-height:125%;letter-spacing:0px;word-spacing:0px;fill:#000000;fill-opacity:1;stroke:none;font-family:Sans"
       xml:space="preserve"
       transform="matrix(0.3343901,-0.94243475,0.94243475,0.3343901,0,0)"><tspan
         style="fill:#999999"
         y="1231.5677"
         x="321.9024"
         id="tspan6158"
         sodipodi:role="line"></tspan></text>
    <text
       xml:space="preserve"
       style="font-size:40px;font-style:normal;font-weight:normal;line-height:125%;letter-spacing:0px;word-spacing:0px;fill:#000000;fill-opacity:1;stroke:none;font-family:Sans"
       x="-497.14285"
       y="95.219322"
       id="text6160"
       sodipodi:linespacing="125%"><tspan
         sodipodi:role="line"
         id="tspan6162"
         x="-497.14285"
         y="95.219322"
         style="fill:#cccccc"></tspan></text>
    <text
       sodipodi:linespacing="125%"
       id="text6164"
       y="564.401"
       x="161.8457"
       style="font-size:20.6346817px;font-style:normal;font-weight:normal;line-height:125%;letter-spacing:0px;word-spacing:0px;fill:#000000;fill-opacity:1;stroke:none;font-family:Sans"
       xml:space="preserve"
       transform="matrix(-0.05220286,0.9986365,-0.9986365,-0.05220286,0,0)"><tspan
         style="fill:#cccccc"
         y="564.401"
         x="161.8457"
         id="tspan6166"
         sodipodi:role="line"></tspan></text>
    <text
       sodipodi:linespacing="125%"
       id="text6168"
       y="602.4624"
       x="159.32191"
       style="font-size:52.67508698px;font-style:normal;font-weight:normal;line-height:125%;letter-spacing:0px;word-spacing:0px;fill:#000000;fill-opacity:1;stroke:none;font-family:Sans"
       xml:space="preserve"
       transform="matrix(0.05946571,0.99823035,-0.99823035,0.05946571,0,0)"><tspan
         style="fill:#cccccc"
         y="602.4624"
         x="159.32191"
         id="tspan6170"
         sodipodi:role="line"></tspan></text>
    <text
       sodipodi:linespacing="125%"
       id="text6172"
       y="709.5423"
       x="98.873375"
       style="font-size:34.01135254px;font-style:normal;font-weight:normal;line-height:125%;letter-spacing:0px;word-spacing:0px;fill:#000000;fill-opacity:1;stroke:none;font-family:Sans"
       xml:space="preserve"
       transform="matrix(0.12554011,0.99208854,-0.99208854,0.12554011,0,0)"><tspan
         style="fill:#cccccc"
         y="709.5423"
         x="98.873375"
         id="tspan6174"
         sodipodi:role="line"></tspan></text>
    <text
       sodipodi:linespacing="125%"
       id="text6176"
       y="-384.18454"
       x="-449.85605"
       style="font-size:34.49419785px;font-style:normal;font-weight:normal;line-height:125%;letter-spacing:0px;word-spacing:0px;fill:#000000;fill-opacity:1;stroke:none;font-family:Sans"
       xml:space="preserve"
       transform="matrix(0.65402719,-0.75647104,0.75647104,0.65402719,0,0)"><tspan
         style="fill:#cccccc"
         y="-384.18454"
         x="-449.85605"
         id="tspan6178"
         sodipodi:role="line"></tspan></text>
    <text
       sodipodi:linespacing="125%"
       id="text6180"
       y="-489.90549"
       x="-186.31566"
       style="font-size:24.57880402px;font-style:normal;font-weight:normal;line-height:125%;letter-spacing:0px;word-spacing:0px;fill:#000000;fill-opacity:1;stroke:none;font-family:Sans"
       xml:space="preserve"
       transform="matrix(-0.1158023,-0.99327228,0.99327228,-0.1158023,0,0)"><tspan
         style="fill:#cccccc"
         y="-489.90549"
         x="-186.31566"
         id="tspan6182"
         sodipodi:role="line"></tspan></text>
    <text
       sodipodi:linespacing="125%"
       id="text6184"
       y="-225.27631"
       x="39.144726"
       style="font-size:37.08351135px;font-style:normal;font-weight:normal;line-height:125%;letter-spacing:0px;word-spacing:0px;fill:#000000;fill-opacity:1;stroke:none;font-family:Sans"
       xml:space="preserve"
       transform="matrix(-0.43946538,-0.89825953,0.89825953,-0.43946538,0,0)"><tspan
         style="fill:#cccccc"
         y="-225.27631"
         x="39.144726"
         id="tspan6186"
         sodipodi:role="line"></tspan></text>
    <text
       sodipodi:linespacing="125%"
       id="text6188"
       y="-109.88575"
       x="-205.23262"
       style="font-size:47.81849289px;font-style:normal;font-weight:normal;line-height:125%;letter-spacing:0px;word-spacing:0px;fill:#000000;fill-opacity:1;stroke:none;font-family:Sans"
       xml:space="preserve"
       transform="matrix(-0.05117047,-0.99868993,0.99868993,-0.05117047,0,0)"><tspan
         style="fill:#cccccc"
         y="-109.88575"
         x="-205.23262"
         id="tspan6190"
         sodipodi:role="line"></tspan></text>
    <text
       sodipodi:linespacing="125%"
       id="text6192"
       y="110.27563"
       x="-221.2086"
       style="font-size:45.13855743px;font-style:normal;font-weight:normal;line-height:125%;letter-spacing:0px;word-spacing:0px;fill:#000000;fill-opacity:1;stroke:none;font-family:Sans"
       xml:space="preserve"
       transform="matrix(-0.25923965,-0.96581303,0.96581303,-0.25923965,0,0)"><tspan
         style="fill:#cccccc"
         y="110.27563"
         x="-221.2086"
         id="tspan6194"
         sodipodi:role="line"></tspan></text>
    <text
       sodipodi:linespacing="125%"
       id="text6196"
       y="495.4552"
       x="640.85809"
       style="font-size:37.45513916px;font-style:normal;font-weight:normal;line-height:125%;letter-spacing:0px;word-spacing:0px;fill:#000000;fill-opacity:1;stroke:none;font-family:Sans"
       xml:space="preserve"
       transform="matrix(0.91543039,-0.40247634,0.40247634,0.91543039,0,0)"><tspan
         style="fill:#cccccc"
         y="495.4552"
         x="640.85809"
         id="tspan6198"
         sodipodi:role="line"></tspan></text>
    <text
       sodipodi:linespacing="125%"
       id="text6200"
       y="-130.908"
       x="1095.2234"
       style="font-size:36.2291069px;font-style:normal;font-weight:normal;line-height:125%;letter-spacing:0px;word-spacing:0px;fill:#000000;fill-opacity:1;stroke:none;font-family:Sans"
       xml:space="preserve"
       transform="matrix(0.97845701,0.20645069,-0.20645069,0.97845701,0,0)"><tspan
         style="fill:#cccccc"
         y="-130.908"
         x="1095.2234"
         id="tspan6202"
         sodipodi:role="line"></tspan></text>
    <text
       sodipodi:linespacing="125%"
       id="text6204"
       y="258.8667"
       x="1044.7322"
       style="font-size:57.00479889px;font-style:normal;font-weight:normal;line-height:125%;letter-spacing:0px;word-spacing:0px;fill:#000000;fill-opacity:1;stroke:none;font-family:Sans"
       xml:space="preserve"
       transform="matrix(0.99661068,-0.08226266,0.08226266,0.99661068,0,0)"><tspan
         style="fill:#cccccc"
         y="258.8667"
         x="1044.7322"
         id="tspan6206"
         sodipodi:role="line"></tspan></text>
    <text
       sodipodi:linespacing="125%"
       id="text6208"
       y="-528.44116"
       x="947.30481"
       style="font-size:37.7930069px;font-style:normal;font-weight:normal;line-height:125%;letter-spacing:0px;word-spacing:0px;fill:#000000;fill-opacity:1;stroke:none;font-family:Sans"
       xml:space="preserve"
       transform="matrix(0.79079908,0.61207582,-0.61207582,0.79079908,0,0)"><tspan
         style="fill:#cccccc"
         y="-528.44116"
         x="947.30481"
         id="tspan6210"
         sodipodi:role="line"></tspan></text>
    <text
       sodipodi:linespacing="125%"
       id="text6212"
       y="1177.3828"
       x="-520.31659"
       style="font-size:21.71674538px;font-style:normal;font-weight:normal;line-height:125%;letter-spacing:0px;word-spacing:0px;fill:#000000;fill-opacity:1;stroke:none;font-family:Sans"
       xml:space="preserve"
       transform="matrix(-0.14464197,-0.98948406,0.98948406,-0.14464197,0,0)"><tspan
         style="fill:#cccccc"
         y="1177.3828"
         x="-520.31659"
         id="tspan6214"
         sodipodi:role="line"></tspan></text>
    <text
       sodipodi:linespacing="125%"
       id="text6216"
       y="820.00928"
       x="-774.29193"
       style="font-size:49.73261261px;font-style:normal;font-weight:normal;line-height:125%;letter-spacing:0px;word-spacing:0px;fill:#000000;fill-opacity:1;stroke:none;font-family:Sans"
       xml:space="preserve"
       transform="matrix(-0.44363433,-0.89620789,0.89620789,-0.44363433,0,0)"><tspan
         style="fill:#cccccc"
         y="820.00928"
         x="-774.29193"
         id="tspan6218"
         sodipodi:role="line"></tspan></text>
    <text
       sodipodi:linespacing="125%"
       id="text6220"
       y="-1004.3859"
       x="747.84039"
       style="font-size:15.45628071px;font-style:normal;font-weight:normal;line-height:125%;letter-spacing:0px;word-spacing:0px;fill:#000000;fill-opacity:1;stroke:none;font-family:Sans"
       xml:space="preserve"
       transform="matrix(0.26284543,0.96483796,-0.96483796,0.26284543,0,0)"><tspan
         style="fill:#cccccc"
         y="-1004.3859"
         x="747.84039"
         id="tspan6222"
         sodipodi:role="line"></tspan></text>
    <text
       sodipodi:linespacing="125%"
       id="text6224"
       y="-812.03436"
       x="911.08783"
       style="font-size:33.24426651px;font-style:normal;font-weight:normal;line-height:125%;letter-spacing:0px;word-spacing:0px;fill:#000000;fill-opacity:1;stroke:none;font-family:Sans"
       xml:space="preserve"
       transform="matrix(0.32647662,0.94520528,-0.94520528,0.32647662,0,0)"><tspan
         style="fill:#cccccc"
         y="-812.03436"
         x="911.08783"
         id="tspan6226"
         sodipodi:role="line"></tspan></text>
    <text
       sodipodi:linespacing="125%"
       id="text6236"
       y="995.9408"
       x="-352.94324"
       style="font-size:66.66770172px;font-style:normal;font-weight:normal;line-height:125%;letter-spacing:0px;word-spacing:0px;fill:#000000;fill-opacity:1;stroke:none;font-family:Sans"
       xml:space="preserve"
       transform="matrix(0.55890435,-0.82923213,0.82923213,0.55890435,0,0)"><tspan
         style="fill:#cccccc"
         y="995.9408"
         x="-352.94324"
         id="tspan6238"
         sodipodi:role="line"></tspan></text>
    <text
       sodipodi:linespacing="125%"
       id="text6240"
       y="-124.11642"
       x="993.43103"
       style="font-size:50.24156189px;font-style:normal;font-weight:normal;line-height:125%;letter-spacing:0px;word-spacing:0px;fill:#000000;fill-opacity:1;stroke:none;font-family:Sans"
       xml:space="preserve"
       transform="matrix(0.40177626,0.91573786,-0.91573786,0.40177626,0,0)"><tspan
         style="fill:#cccccc"
         y="-124.11642"
         x="993.43103"
         id="tspan6242"
         sodipodi:role="line"></tspan></text>
    <text
       sodipodi:linespacing="125%"
       id="text6244"
       y="-801.73517"
       x="686.71484"
       style="font-size:16.48830986px;font-style:normal;font-weight:normal;line-height:125%;letter-spacing:0px;word-spacing:0px;fill:#000000;fill-opacity:1;stroke:none;font-family:Sans"
       xml:space="preserve"
       transform="matrix(-0.43241543,0.9016745,-0.9016745,-0.43241543,0,0)"><tspan
         style="fill:#cccccc"
         y="-801.73517"
         x="686.71484"
         id="tspan6246"
         sodipodi:role="line"></tspan></text>
    <text
       sodipodi:linespacing="125%"
       id="text6248"
       y="73.408195"
       x="-957.0202"
       style="font-size:42.17910767px;font-style:normal;font-weight:normal;line-height:125%;letter-spacing:0px;word-spacing:0px;fill:#000000;fill-opacity:1;stroke:none;font-family:Sans"
       xml:space="preserve"
       transform="matrix(-0.46589094,-0.88484215,0.88484215,-0.46589094,0,0)"><tspan
         style="fill:#cccccc"
         y="73.408195"
         x="-957.0202"
         id="tspan6250"
         sodipodi:role="line"></tspan></text>
  </g>
</svg>
