<?xml version="1.0" encoding="UTF-8" standalone="no"?>
<!-- Created with Inkscape (http://www.inkscape.org/) -->

<svg
   xmlns:dc="http://purl.org/dc/elements/1.1/"
   xmlns:cc="http://creativecommons.org/ns#"
   xmlns:rdf="http://www.w3.org/1999/02/22-rdf-syntax-ns#"
   xmlns:svg="http://www.w3.org/2000/svg"
   xmlns="http://www.w3.org/2000/svg"
   xmlns:xlink="http://www.w3.org/1999/xlink"
   xmlns:sodipodi="http://sodipodi.sourceforge.net/DTD/sodipodi-0.dtd"
   xmlns:inkscape="http://www.inkscape.org/namespaces/inkscape"
   width="744.09448819"
   height="1052.3622047"
   id="svg2"
   version="1.1"
   inkscape:version="0.48.2 r9819"
   sodipodi:docname="New document 1">
  <defs
     id="defs4">
    <radialGradient
       r="72.629254"
       fy="843.23206"
       fx="-1240.4673"
       cy="843.23206"
       cx="-1240.4673"
       gradientTransform="matrix(-1.730706,1.6395057,-1.5093566,-1.5933172,-571.10041,4130.6464)"
       gradientUnits="userSpaceOnUse"
       id="radialGradient4627"
       xlink:href="#linearGradient3767"
       inkscape:collect="always" />
    <radialGradient
       r="94.717406"
       fy="800.13977"
       fx="-1181.8784"
       cy="800.13977"
       cx="-1181.8784"
       gradientTransform="matrix(-1.3851032,-3.2961404,2.6056091,-1.0949309,-3360.2404,-2276.2839)"
       gradientUnits="userSpaceOnUse"
       id="radialGradient4625"
       xlink:href="#linearGradient4561"
       inkscape:collect="always" />
    <radialGradient
       r="74.246421"
       fy="960.70844"
       fx="-1058.6399"
       cy="960.70844"
       cx="-1058.6399"
       gradientTransform="matrix(1.8547018,-1.1219693,1.0570786,1.7474346,821.36166,-2028.2673)"
       gradientUnits="userSpaceOnUse"
       id="radialGradient4610"
       xlink:href="#linearGradient3741"
       inkscape:collect="always" />
    <radialGradient
       r="91.645795"
       fy="800.88434"
       fx="-965.70581"
       cy="800.88434"
       cx="-965.70581"
       gradientTransform="matrix(-2.1404714,-4.9472031,3.8437623,-1.6630273,-5179.0958,-2758.9036)"
       gradientUnits="userSpaceOnUse"
       id="radialGradient4608"
       xlink:href="#linearGradient4587"
       inkscape:collect="always" />
    <linearGradient
       id="linearGradient4529">
      <stop
         style="stop-color:#ff3c50;stop-opacity:0.04464286;"
         offset="0"
         id="stop4531" />
      <stop
         style="stop-color:#000f24;stop-opacity:1;"
         offset="1"
         id="stop4533" />
    </linearGradient>
    <linearGradient
       id="linearGradient3157">
      <stop
         style="stop-color:#ffffff;stop-opacity:1;"
         offset="0"
         id="stop3159" />
      <stop
         style="stop-color:#14d125;stop-opacity:0;"
         offset="1"
         id="stop3161" />
    </linearGradient>
    <linearGradient
       id="linearGradient3119">
      <stop
         style="stop-color:#fbf6b1;stop-opacity:1;"
         offset="0"
         id="stop3121" />
      <stop
         id="stop3133"
         offset="0.5865202"
         style="stop-color:#88ca37;stop-opacity:1;" />
      <stop
         id="stop3131"
         offset="0.62734139"
         style="stop-color:#72b69a;stop-opacity:1;" />
      <stop
         id="stop3129"
         offset="0.7027331"
         style="stop-color:#cb892b;stop-opacity:1;" />
      <stop
         id="stop3127"
         offset="0.8236044"
         style="stop-color:#8437c5;stop-opacity:1;" />
      <stop
         style="stop-color:#0b0b28;stop-opacity:1;"
         offset="1"
         id="stop3123" />
    </linearGradient>
    <linearGradient
       id="linearGradient3076">
      <stop
         style="stop-color:#ff534d;stop-opacity:1;"
         offset="0"
         id="stop3078" />
      <stop
         id="stop3088"
         offset="0.32050508"
         style="stop-color:#aace72;stop-opacity:1;" />
      <stop
         id="stop3086"
         offset="0.40038487"
         style="stop-color:#739d98;stop-opacity:1;" />
      <stop
         id="stop3084"
         offset="0.66307867"
         style="stop-color:#9a3b3b;stop-opacity:1;" />
      <stop
         style="stop-color:#7e0000;stop-opacity:1;"
         offset="1"
         id="stop3080" />
    </linearGradient>
    <linearGradient
       id="linearGradient3052">
      <stop
         style="stop-color:#d40000;stop-opacity:0;"
         offset="0"
         id="stop3054" />
      <stop
         id="stop3060"
         offset="0.71651864"
         style="stop-color:#7f1111;stop-opacity:0.49803922;" />
      <stop
         style="stop-color:#2a2222;stop-opacity:0.75;"
         offset="1"
         id="stop3056" />
    </linearGradient>
    <linearGradient
       id="linearGradient3032">
      <stop
         style="stop-color:#ff4128;stop-opacity:0.23529412;"
         offset="0"
         id="stop3034" />
      <stop
         id="stop3048"
         offset="0.36289272"
         style="stop-color:#6acba8;stop-opacity:0.627451;" />
      <stop
         id="stop3046"
         offset="0.5186764"
         style="stop-color:#cfc8a5;stop-opacity:0.627451;" />
      <stop
         id="stop3044"
         offset="0.60724843"
         style="stop-color:#dfa860;stop-opacity:0.627451;" />
      <stop
         id="stop3042"
         offset="0.67452949"
         style="stop-color:#d46600;stop-opacity:0.627451;" />
      <stop
         id="stop3040"
         offset="0.89128983"
         style="stop-color:#d40000;stop-opacity:0.627451;" />
      <stop
         style="stop-color:#d40000;stop-opacity:0.627451;"
         offset="1"
         id="stop3036" />
    </linearGradient>
    <linearGradient
       id="linearGradient3022">
      <stop
         style="stop-color:#3737c8;stop-opacity:0;"
         offset="0"
         id="stop3024" />
      <stop
         style="stop-color:#0d0d2b;stop-opacity:0.72321427;"
         offset="1"
         id="stop3026" />
    </linearGradient>
    <radialGradient
       inkscape:collect="always"
       xlink:href="#linearGradient3022"
       id="radialGradient3028"
       cx="-728.17133"
       cy="117.22345"
       fx="-728.17133"
       fy="117.22345"
       r="80"
       gradientUnits="userSpaceOnUse"
       gradientTransform="matrix(-1.0942452,0.81539714,-0.65445223,-0.87825996,-1448.2521,813.92493)" />
    <radialGradient
       inkscape:collect="always"
       xlink:href="#linearGradient3052"
       id="radialGradient3058"
       cx="-664.53259"
       cy="581.99744"
       fx="-664.53259"
       fy="581.99744"
       r="154.28572"
       gradientUnits="userSpaceOnUse"
       gradientTransform="matrix(-0.98012612,0.83558307,-0.66507488,-0.78012265,-999.64508,1615.1765)" />
    <radialGradient
       inkscape:collect="always"
       xlink:href="#linearGradient3052"
       id="radialGradient3064"
       gradientUnits="userSpaceOnUse"
       gradientTransform="matrix(-0.98012612,0.83558307,-0.66507488,-0.78012265,-999.64508,1615.1765)"
       cx="-664.53259"
       cy="581.99744"
       fx="-664.53259"
       fy="581.99744"
       r="154.28572" />
    <radialGradient
       inkscape:collect="always"
       xlink:href="#linearGradient3076"
       id="radialGradient3082"
       cx="-692.94647"
       cy="584.88782"
       fx="-692.94647"
       fy="584.88782"
       r="154.28572"
       gradientUnits="userSpaceOnUse"
       gradientTransform="matrix(-0.91617791,1.0699228,-1.2192335,-1.0440355,-651.07762,1953.8771)" />
    <radialGradient
       inkscape:collect="always"
       xlink:href="#linearGradient3052"
       id="radialGradient3137"
       gradientUnits="userSpaceOnUse"
       gradientTransform="matrix(-0.98012612,0.83558307,-0.66507488,-0.78012265,-999.64508,1615.1765)"
       cx="-664.53259"
       cy="581.99744"
       fx="-664.53259"
       fy="581.99744"
       r="154.28572" />
    <radialGradient
       inkscape:collect="always"
       xlink:href="#linearGradient3157"
       id="radialGradient3163"
       cx="479.09946"
       cy="740.48248"
       fx="479.09946"
       fy="740.48248"
       r="268.57144"
       gradientUnits="userSpaceOnUse"
       gradientTransform="matrix(-0.9128099,0.81302827,-0.79301013,-0.8903333,1503.6364,1010.2374)" />
    <radialGradient
       inkscape:collect="always"
       xlink:href="#linearGradient3052"
       id="radialGradient3167"
       gradientUnits="userSpaceOnUse"
       gradientTransform="matrix(-0.98012612,0.83558307,-0.66507488,-0.78012265,-999.64508,1615.1765)"
       cx="-664.53259"
       cy="581.99744"
       fx="-664.53259"
       fy="581.99744"
       r="154.28572" />
    <path
       sodipodi:type="arc"
       style="fill:none;stroke:#000000"
       id="path3965-6"
       sodipodi:cx="-409.11179"
       sodipodi:cy="699.81897"
       sodipodi:rx="269.71072"
       sodipodi:ry="269.71072"
       d="m -139.40106,699.81897 a 269.71072,269.71072 0 1 1 -539.42145,0 269.71072,269.71072 0 1 1 539.42145,0 z"
       transform="matrix(-0.4583519,0.97626285,0.97626285,0.4583519,-1278.7859,799.77306)" />
    <path
       sodipodi:type="arc"
       style="fill:none;stroke:#000000"
       id="path3965-2"
       sodipodi:cx="-409.11179"
       sodipodi:cy="699.81897"
       sodipodi:rx="269.71072"
       sodipodi:ry="269.71072"
       d="m -139.40106,699.81897 a 269.71072,269.71072 0 1 1 -539.42145,0 269.71072,269.71072 0 1 1 539.42145,0 z"
       transform="matrix(-0.4583519,0.97626285,0.97626285,0.4583519,-1278.7859,799.77306)" />
    <path
       sodipodi:type="arc"
       style="fill:none;stroke:#000000"
       id="path3965-26"
       sodipodi:cx="-409.11179"
       sodipodi:cy="699.81897"
       sodipodi:rx="269.71072"
       sodipodi:ry="269.71072"
       d="m -139.40106,699.81897 a 269.71072,269.71072 0 1 1 -539.42145,0 269.71072,269.71072 0 1 1 539.42145,0 z"
       transform="matrix(-0.4583519,0.97626285,0.97626285,0.4583519,-1278.7859,799.77306)" />
    <path
       sodipodi:type="arc"
       style="fill:none;stroke:#000000"
       id="path4001-9-4"
       sodipodi:cx="-409.11179"
       sodipodi:cy="699.81897"
       sodipodi:rx="269.71072"
       sodipodi:ry="269.71072"
       d="m -139.40106,699.81897 a 269.71072,269.71072 0 1 1 -539.42145,0 269.71072,269.71072 0 1 1 539.42145,0 z"
       transform="matrix(-0.4127545,-0.99639818,0.99639818,-0.4127545,-852.22199,416.60078)" />
    <linearGradient
       id="linearGradient4886">
      <stop
         style="stop-color:#f7fe2c;stop-opacity:1;"
         offset="0"
         id="stop4888" />
      <stop
         style="stop-color:#8d5fd3;stop-opacity:0;"
         offset="1"
         id="stop4890" />
    </linearGradient>
    <path
       sodipodi:type="arc"
       style="fill:none;stroke:#000000"
       id="path4001-9-4-1"
       sodipodi:cx="-409.11179"
       sodipodi:cy="699.81897"
       sodipodi:rx="269.71072"
       sodipodi:ry="269.71072"
       d="m -139.40106,699.81897 a 269.71072,269.71072 0 1 1 -539.42145,0 269.71072,269.71072 0 1 1 539.42145,0 z"
       transform="matrix(-0.4127545,-0.99639818,0.99639818,-0.4127545,-852.22199,416.60078)" />
    <linearGradient
       id="linearGradient3052-4">
      <stop
         style="stop-color:#d40000;stop-opacity:0;"
         offset="0"
         id="stop3054-0" />
      <stop
         id="stop3060-9"
         offset="0.71651864"
         style="stop-color:#7f1111;stop-opacity:0.49803922;" />
      <stop
         style="stop-color:#2a2222;stop-opacity:0.75;"
         offset="1"
         id="stop3056-4" />
    </linearGradient>
    <path
       sodipodi:type="arc"
       style="fill:none;stroke:none"
       id="path4001-9-8"
       sodipodi:cx="-409.11179"
       sodipodi:cy="699.81897"
       sodipodi:rx="269.71072"
       sodipodi:ry="269.71072"
       d="m -139.40106,699.81897 a 269.71072,269.71072 0 1 1 -539.42145,0 269.71072,269.71072 0 1 1 539.42145,0 z"
       transform="matrix(-0.34123736,-0.82375428,0.82375428,-0.34123736,-671.55228,350.08157)" />
    <path
       sodipodi:type="arc"
       style="fill:none;stroke:#000000"
       id="path3965-2-8"
       sodipodi:cx="-409.11179"
       sodipodi:cy="699.81897"
       sodipodi:rx="269.71072"
       sodipodi:ry="269.71072"
       d="m -139.40106,699.81897 a 269.71072,269.71072 0 1 1 -539.42145,0 269.71072,269.71072 0 1 1 539.42145,0 z"
       transform="matrix(-0.4583519,0.97626285,0.97626285,0.4583519,-1278.7859,799.77306)" />
    <linearGradient
       id="linearGradient3157-4">
      <stop
         style="stop-color:#ffffff;stop-opacity:1;"
         offset="0"
         id="stop3159-5" />
      <stop
         style="stop-color:#14d125;stop-opacity:0;"
         offset="1"
         id="stop3161-5" />
    </linearGradient>
    <linearGradient
       id="linearGradient3268">
      <stop
         style="stop-color:#d40000;stop-opacity:0;"
         offset="0"
         id="stop3270" />
      <stop
         id="stop3272"
         offset="0.71651864"
         style="stop-color:#7f1111;stop-opacity:0.49803922;" />
      <stop
         style="stop-color:#2a2222;stop-opacity:0.75;"
         offset="1"
         id="stop3274" />
    </linearGradient>
    <linearGradient
       id="linearGradient3119-7">
      <stop
         style="stop-color:#fbf6b1;stop-opacity:1;"
         offset="0"
         id="stop3121-1" />
      <stop
         id="stop3133-1"
         offset="0.5865202"
         style="stop-color:#88ca37;stop-opacity:1;" />
      <stop
         id="stop3131-5"
         offset="0.62734139"
         style="stop-color:#72b69a;stop-opacity:1;" />
      <stop
         id="stop3129-2"
         offset="0.7027331"
         style="stop-color:#cb892b;stop-opacity:1;" />
      <stop
         id="stop3127-7"
         offset="0.8236044"
         style="stop-color:#8437c5;stop-opacity:1;" />
      <stop
         style="stop-color:#0b0b28;stop-opacity:1;"
         offset="1"
         id="stop3123-6" />
    </linearGradient>
    <linearGradient
       id="linearGradient3285">
      <stop
         style="stop-color:#d40000;stop-opacity:0;"
         offset="0"
         id="stop3287" />
      <stop
         id="stop3289"
         offset="0.71651864"
         style="stop-color:#7f1111;stop-opacity:0.49803922;" />
      <stop
         style="stop-color:#2a2222;stop-opacity:0.75;"
         offset="1"
         id="stop3291" />
    </linearGradient>
    <linearGradient
       id="linearGradient3076-8">
      <stop
         style="stop-color:#ff534d;stop-opacity:1;"
         offset="0"
         id="stop3078-2" />
      <stop
         id="stop3088-4"
         offset="0.32050508"
         style="stop-color:#aace72;stop-opacity:1;" />
      <stop
         id="stop3086-5"
         offset="0.40038487"
         style="stop-color:#739d98;stop-opacity:1;" />
      <stop
         id="stop3084-2"
         offset="0.66307867"
         style="stop-color:#9a3b3b;stop-opacity:1;" />
      <stop
         style="stop-color:#7e0000;stop-opacity:1;"
         offset="1"
         id="stop3080-9" />
    </linearGradient>
    <path
       sodipodi:type="arc"
       style="fill:none;stroke:none"
       id="path3965-4"
       sodipodi:cx="-409.11179"
       sodipodi:cy="699.81897"
       sodipodi:rx="269.71072"
       sodipodi:ry="269.71072"
       d="m -139.40106,699.81897 a 269.71072,269.71072 0 1 1 -539.42145,0 269.71072,269.71072 0 1 1 539.42145,0 z"
       transform="matrix(-0.4583519,0.97626285,0.97626285,0.4583519,-1393.0716,808.34449)" />
    <path
       sodipodi:type="arc"
       style="fill:none;stroke:none"
       id="path3947-2"
       sodipodi:cx="-776.80731"
       sodipodi:cy="681.63617"
       sodipodi:rx="144.45181"
       sodipodi:ry="144.45181"
       d="m -632.3555,681.63617 a 144.45181,144.45181 0 1 1 -288.90362,0 144.45181,144.45181 0 1 1 288.90362,0 z"
       transform="matrix(-1.1872543,0,0,1.1872543,-1822.3028,-121.53637)" />
    <linearGradient
       id="linearGradient3303">
      <stop
         style="stop-color:#d40000;stop-opacity:0;"
         offset="0"
         id="stop3305" />
      <stop
         id="stop3307"
         offset="0.71651864"
         style="stop-color:#7f1111;stop-opacity:0.49803922;" />
      <stop
         style="stop-color:#2a2222;stop-opacity:0.75;"
         offset="1"
         id="stop3309" />
    </linearGradient>
    <linearGradient
       id="linearGradient3741"
       inkscape:collect="always">
      <stop
         id="stop3743"
         offset="0"
         style="stop-color:#ff8080;stop-opacity:1;" />
      <stop
         id="stop3745"
         offset="1"
         style="stop-color:#ff8080;stop-opacity:0;" />
    </linearGradient>
    <linearGradient
       id="linearGradient3767"
       inkscape:collect="always">
      <stop
         id="stop3769"
         offset="0"
         style="stop-color:#e6e6e6;stop-opacity:1;" />
      <stop
         id="stop3771"
         offset="1"
         style="stop-color:#e6e6e6;stop-opacity:0;" />
    </linearGradient>
    <linearGradient
       id="linearGradient4561">
      <stop
         id="stop4563"
         offset="0"
         style="stop-color:#fafff7;stop-opacity:1;" />
      <stop
         id="stop4565"
         offset="1"
         style="stop-color:#ffffff;stop-opacity:0;" />
    </linearGradient>
    <linearGradient
       id="linearGradient4587"
       inkscape:collect="always">
      <stop
         id="stop4589"
         offset="0"
         style="stop-color:#ff8080;stop-opacity:1;" />
      <stop
         id="stop4591"
         offset="1"
         style="stop-color:#ff8080;stop-opacity:0;" />
    </linearGradient>
    <linearGradient
       inkscape:collect="always"
       xlink:href="#linearGradient4529"
       id="linearGradient3436"
       gradientUnits="userSpaceOnUse"
       gradientTransform="matrix(-0.67702316,0.73596171,-0.73596171,-0.67702316,-984.87758,1753.6497)"
       x1="-897.14288"
       y1="306.64789"
       x2="-838.57147"
       y2="208.07646" />
    <linearGradient
       inkscape:collect="always"
       xlink:href="#linearGradient3076-8"
       id="linearGradient3533"
       gradientUnits="userSpaceOnUse"
       gradientTransform="matrix(0.85272086,0,0,1.4110549,-107.95744,-444.94714)"
       x1="1691.4285"
       y1="1078.0764"
       x2="-554.28571"
       y2="972.36212" />
  </defs>
  <sodipodi:namedview
     id="base"
     pagecolor="#ffffff"
     bordercolor="#666666"
     borderopacity="1.0"
     inkscape:pageopacity="0.0"
     inkscape:pageshadow="2"
     inkscape:zoom="0.35"
     inkscape:cx="375"
     inkscape:cy="520"
     inkscape:document-units="px"
     inkscape:current-layer="layer1"
     showgrid="false"
     inkscape:window-width="1366"
     inkscape:window-height="706"
     inkscape:window-x="-8"
     inkscape:window-y="-8"
     inkscape:window-maximized="1" />
  <metadata
     id="metadata7">
    <rdf:RDF>
      <cc:Work
         rdf:about="">
        <dc:format>image/svg+xml</dc:format>
        <dc:type
           rdf:resource="http://purl.org/dc/dcmitype/StillImage" />
        <dc:title></dc:title>
      </cc:Work>
    </rdf:RDF>
  </metadata>
  <g
     inkscape:label="Layer 1"
     inkscape:groupmode="layer"
     id="layer1">
    <rect
       style="fill:#000f24;fill-opacity:1;stroke:none"
       id="rect2985"
       width="1885.7144"
       height="1114.2858"
       x="-729.93988"
       y="-26.661345" />
    <text
       xml:space="preserve"
       style="font-size:40px;font-style:normal;font-weight:normal;line-height:125%;letter-spacing:0px;word-spacing:0px;fill:#000000;fill-opacity:1;stroke:none;font-family:Sans"
       x="-375.65417"
       y="1042.7673"
       id="text4635"
       sodipodi:linespacing="125%"><tspan
         sodipodi:role="line"
         id="tspan4637"
         x="-375.65417"
         y="1042.7673" /></text>
    <path
       sodipodi:type="arc"
       style="fill:none;stroke:none"
       id="path3331"
       sodipodi:cx="-409.11179"
       sodipodi:cy="699.81897"
       sodipodi:rx="269.71072"
       sodipodi:ry="269.71072"
       d="m -139.40106,699.81897 a 269.71072,269.71072 0 1 1 -539.42145,0 269.71072,269.71072 0 1 1 539.42145,0 z"
       transform="matrix(-0.54738813,1.1659048,1.1659048,0.54738813,-1193.6901,570.59584)" />
    <path
       sodipodi:type="arc"
       style="fill:#3737c8;fill-opacity:1;stroke:none"
       id="path2989"
       sodipodi:cx="-774.28571"
       sodipodi:cy="149.50504"
       sodipodi:rx="80"
       sodipodi:ry="80"
       d="m -694.28571,149.50504 a 80,80 0 1 1 -160,0 80,80 0 1 1 160,0 z"
       transform="translate(301.33567,-17.963334)" />
    <path
       style="fill:#a0892c;stroke:#000000;stroke-width:1px;stroke-linecap:butt;stroke-linejoin:miter;stroke-opacity:1"
       d="m -472.29249,136.63576 c 0.51665,2.31426 -0.3875,4.74611 0,7.07107 0.3501,2.10061 1.60266,3.97268 2.0203,6.06091 0.13207,0.66036 -0.21296,1.38143 0,2.02031 0.15059,0.45175 0.85957,0.55839 1.01015,1.01015 1.26822,3.80465 -1.42762,19.36811 0,22.22335 1.58582,3.17163 6.06092,11.84078 6.06092,14.14214 0,0.63001 0.51452,5.54639 0,6.06091 -0.2381,0.2381 -0.69071,-0.10647 -1.01015,0 -7.31696,2.43899 1.59261,-0.29123 -3.03046,2.02031 -1.4625,0.73125 -9.33209,-0.76944 -10.10153,0 -0.23809,0.2381 0.2381,0.77206 0,1.01015 -0.13303,0.13304 -9.74931,0 -11.11167,0 -1.38606,0 -3.27038,0.53031 -4.04061,-1.01015 -2.15178,-4.30356 0.53739,-12.0572 -1.01016,-15.15229 -0.21296,-0.42592 -0.79719,-0.58423 -1.01015,-1.01015 -0.30117,-0.60234 0.47619,-1.54412 0,-2.02031 -0.23809,-0.23809 -0.77206,0.2381 -1.01015,0 -0.50508,-0.50507 -0.50508,-1.51522 -1.01015,-2.0203 -0.18517,-0.18516 -5.56529,-2.78265 -6.06092,-3.03046 -1.5261,-0.76305 -2.43497,-3.5054 -4.04061,-4.04061 -0.63888,-0.21296 -1.41797,0.30117 -2.02031,0 -0.30116,-0.15058 0.2381,-0.77206 0,-1.01015 -0.53239,-0.5324 -1.4879,-0.47776 -2.0203,-1.01015 -0.2381,-0.2381 0.2381,-0.77206 0,-1.01016 -0.9,-0.89999 -9.39616,0.85776 -11.11168,0 -1.62704,-0.81352 -5.11594,-10.23188 -6.06091,-12.12183 -2.10201,-4.20401 0.0697,1.07989 -2.02031,-1.01015 -0.47619,-0.47619 0,-1.34687 0,-2.0203 0,-2.55402 -0.78407,-6.73915 0,-9.09138 2.55155,-7.65464 -0.36476,0.36476 2.02031,-2.0203 0.21641,-0.21641 1.63847,-3.27696 2.0203,-4.04061 0.21296,-0.42592 0.7972,-0.58424 1.01015,-1.01016 0.30496,-0.6099 -0.46695,-2.5635 0,-3.03045 0.34163,-0.34163 6.71741,0 10.10153,0 3.79655,0 29.80522,-0.75476 31.31473,0 0.42592,0.21296 0.58423,0.79719 1.01015,1.01015 0.60234,0.30117 1.54412,-0.47619 2.02031,0 0.23809,0.23809 -0.2381,0.77206 0,1.01015 0.40571,0.40572 2.45914,-0.19044 3.03045,0 1.72023,0.57341 3.36718,1.34687 5.05077,2.02031 z"
       id="path3014"
       inkscape:connector-curvature="0" />
    <path
       style="fill:#a0892c;stroke:#000000;stroke-width:1px;stroke-linecap:butt;stroke-linejoin:miter;stroke-opacity:1"
       d="m -482.39402,76.026602 c -0.18153,1.59241 -11.2494,5.18849 -12.12183,6.06092 -0.23809,0.2381 0.2381,0.77206 0,1.01015 -0.47619,0.47619 -1.41797,-0.30117 -2.0203,0 -0.42592,0.21296 -0.53397,1.01015 -1.01016,1.01015 -0.67343,0 0,-1.34687 0,-2.0203 0,-0.9061 -0.73564,-4.22722 -1.01015,-5.05076 -0.49387,-1.481601 -3.94618,-1.925881 -4.04061,-2.020311 -0.50508,-0.50507 -0.50508,-1.51523 -1.01015,-2.0203 -1.24586,-1.24586 -1.91929,0.90913 -2.02031,1.01015 -0.80626,0.80626 -3.99097,-0.5299 -5.05076,0 -0.42592,0.21296 -0.58423,0.79719 -1.01015,1.01015 -1.07281,0.53641 -3.14014,0.10969 -4.04061,1.010151 -0.47619,0.4762 0.47619,1.54412 0,2.02031 -0.5324,0.5324 -1.48791,0.47776 -2.02031,1.01015 -0.23809,0.2381 0.2381,0.77206 0,1.01015 -0.23809,0.2381 -0.77206,-0.23809 -1.01015,0 -0.2381,0.2381 0.23809,0.77206 0,1.01016 -0.93948,0.93948 -0.68551,-0.64928 -2.02031,2.0203 -0.42591,0.85184 -1.59438,1.16847 -2.0203,2.02031 -0.15059,0.30117 0.23809,0.77205 0,1.01015 -0.2381,0.2381 -1.34687,0 -1.01015,0 0.20654,0 6.57177,-0.49929 7.07106,0 0.4762,0.47619 -0.47619,1.54411 0,2.02031 1.58699,1.58698 8.51454,-2.59715 10.10153,-1.01016 0.47619,0.47619 0.30117,1.41797 0,2.02031 -1.45952,2.91904 -1.70717,0.85358 -4.04061,2.0203 -1.35295,0.67648 -1.3997,2.40985 -2.02031,3.03046 -0.23809,0.2381 -0.77205,-0.23809 -1.01015,0 -0.23809,0.2381 0.2381,0.77206 0,1.01015 -0.69653,0.69653 -10.17694,-0.48622 -12.12183,0 -2.08304,0.52076 -2.47543,1.92041 -3.03046,3.03046 -0.67647,1.35295 -2.40985,1.3997 -3.03045,2.020308 -0.2381,0.23809 0.23809,0.77205 0,1.01015 -0.2381,0.23809 -0.77206,-0.2381 -1.01016,0 -2.0075,2.0075 1.53267,1.53266 2.02031,2.0203 0.47619,0.47619 0,1.34687 0,2.02031 0,0.33672 0.23809,0.77206 0,1.01015 -0.25705,0.25705 -3.77814,1.75783 -4.04061,2.02031 -0.34819,0.34819 -1.01015,5.03575 -1.01015,6.06091 0,1.71014 -0.74829,5.57451 0,7.07107 0.67647,1.35295 2.40985,1.3997 3.03045,2.0203 0.2381,0.2381 -0.23809,0.77206 0,1.01016 0.47619,0.47619 1.41797,-0.30117 2.02031,0 4.20401,2.102 -1.07989,-0.0697 1.01015,2.0203 0.50508,0.50508 2.52538,-0.50507 3.03046,0 0.23809,0.2381 -0.2381,0.77206 0,1.01015 0.86951,0.86952 3.60833,1.01016 5.05076,1.01016 1.01015,0 3.03046,-1.01016 3.03046,0 0,0.33671 -1.01015,0.33671 -1.01015,0 0,-0.47619 0.79719,-0.58424 1.01015,-1.01016 0.41947,-0.83893 0.50338,-7.32615 0,-8.08122 -0.91347,-1.3702 -6.06092,-6.09058 -6.06092,-7.07106 0,-0.60162 4.70482,0.6642 5.05077,1.01015 0.23809,0.23809 -0.2381,0.77206 0,1.01015 0.47619,0.47619 1.41796,-0.30117 2.0203,0 1.34895,0.67448 0.67136,1.34583 2.02031,2.02031 0.60234,0.30117 1.54411,-0.47619 2.0203,0 1.13247,1.13246 -0.74484,5.58138 0,7.07106 2.10201,4.20402 -0.0697,-1.07988 2.02031,1.01016 0.23809,0.23809 -0.2381,0.77205 0,1.01015 0.26739,0.26739 2.61451,0 3.03045,0 0.41595,0 2.76307,0.26739 3.03046,0 0.0388,-0.0388 -0.60588,-8.68711 -1.01015,-9.09137 -0.2381,-0.2381 -0.77206,0.23809 -1.01015,0 -0.47619,-0.47619 0.47619,-1.54412 0,-2.02031 -0.2381,-0.23809 -0.77206,0.2381 -1.01016,0 -0.23809,-0.23809 0.2381,-0.77206 0,-1.01015 -0.64075,-0.64075 -3.19956,0.42052 -4.04061,0 -4.20401,-2.10201 1.07989,0.0697 -1.01015,-2.02031 -0.12664,-0.12664 -2.45967,0.43937 -1.01015,-1.01015 1.80547,-1.80547 4.88625,2.44313 6.06091,3.03046 0.30117,0.15058 0.77206,-0.2381 1.01016,0 0.23809,0.23809 -0.2381,0.77206 0,1.01015 0.23809,0.2381 0.70898,-0.15058 1.01015,0 1.1767,0.58835 1.85376,1.43196 3.03046,2.02031 1.61624,0.80812 4.44467,-0.80813 6.06091,0 4.11005,2.05502 0.45277,-0.37159 4.04061,2.0203 3.87116,2.58077 7.24165,3.37162 9.09138,7.07107 0.74484,1.48968 -1.13247,5.9386 0,7.07107 1.23393,1.23393 2.0203,-0.37848 2.0203,1.01015 0,0.33672 -1.34687,0 -1.01015,0 1.01015,0 2.12695,0.45175 3.03046,0 0.85183,-0.42592 1.16847,-1.59439 2.0203,-2.02031 0.60234,-0.30116 1.54412,0.47619 2.02031,0 0.47619,-0.47619 -0.47619,-1.54411 0,-2.0203 0.23809,-0.2381 0.77205,0.23809 1.01015,0 0.33487,-0.33487 -0.33487,-1.68544 0,-2.02031 0.23809,-0.23809 0.77206,0.2381 1.01015,0 0.67344,-0.67343 -0.67343,-3.36717 0,-4.04061 0.67969,-0.67968 8.10864,0.76447 9.09137,1.01016 4.03618,1.00904 0.0155,1.0179 4.04061,3.03045 0.60234,0.30117 1.41797,-0.30116 2.02031,0 1.68069,0.84035 2.45485,2.23758 4.04061,3.03046 0.60234,0.30117 1.54411,-0.47619 2.0203,0 0.50508,0.50508 0.50508,1.51523 1.01016,2.02031 0.11468,0.11468 9.5352,1.57647 10.10152,1.01015 0.2381,-0.2381 -0.23809,-0.77206 0,-1.01015 1.34687,-1.34687 0.9693,2.14285 2.02031,-1.01016 0.068,-0.20385 -0.33609,-3.70452 0,-4.04061 0.23809,-0.23809 0.77206,0.2381 1.01015,0 0.66224,-0.66223 0.50407,-3.53452 1.01015,-4.04061 0.2381,-0.23809 0.77206,0.2381 1.01016,0 0.58707,-0.58707 0.58569,-3.19169 1.01015,-4.04061 0.21296,-0.42591 0.79719,-0.58423 1.01015,-1.01015 1.61603,-3.23206 -1.15427,-8.65902 0,-12.12183 0.47583,-1.42749 1.94119,-1.94118 2.02031,-2.0203 0.23809,-0.2381 -0.2381,-0.77206 0,-1.01016 0.29071,-0.29071 3.03045,-1.07937 3.03045,-4.040608 0,-2.21755 1.01016,-2.20558 1.01016,-4.04061 0,-0.67343 -0.67344,-2.0203 0,-2.0203 0.33671,0 0.15058,1.31132 0,1.01015 -0.47619,-0.95238 -0.46232,-2.1174 -1.01016,-3.03046 -1.72525,-2.87541 -5.58085,-2.07034 -7.07106,-5.05076 -0.51719,-1.03437 -0.0834,-5.97754 0,-6.06092 0.23809,-0.23809 0.77205,0.2381 1.01015,0 0.47619,-0.47619 0,-1.34687 0,-2.0203 0,-1.20333 0.19391,-9.907611 0,-10.101531 -0.2381,-0.23809 -0.77206,0.2381 -1.01015,0 -0.47619,-0.47619 0.47619,-1.54411 0,-2.0203 -0.33672,-0.33672 -2.69374,-0.67344 -3.03046,-1.01015 -2.09004,-2.09005 3.19386,0.0817 -1.01015,-2.02031 -0.60234,-0.30117 -1.54412,0.47619 -2.02031,0 -0.50508,-0.50507 -0.50508,-1.51523 -1.01015,-2.0203 -1.65016,-1.65016 -2.77211,1.76195 -3.03046,2.0203 -0.23809,0.2381 -0.77206,-0.23809 -1.01015,0 -0.2381,0.2381 0.30117,0.85957 0,1.01015 -0.60234,0.30117 -1.41797,-0.30117 -2.02031,0 -0.30117,0.15059 0.30117,0.85957 0,1.01016 -1.76725,0.88362 -14.49263,-0.21989 -18.18274,1.01015 -2.33409,0.77803 0.0317,2.99871 -1.01016,4.04061 -0.23809,0.23809 -0.77205,-0.2381 -1.01015,0 -0.62061,0.62061 -0.66735,2.35398 -2.0203,3.03046 -1.27534,0.63766 -5.09118,-0.96974 -6.06092,0 -3.0632,3.063201 7.07313,0.25202 -4.04061,3.030451 z"
       id="path3016"
       inkscape:connector-curvature="0" />
    <path
       transform="translate(301.33567,-17.963334)"
       d="m -694.28571,149.50504 a 80,80 0 1 1 -160,0 80,80 0 1 1 160,0 z"
       sodipodi:ry="80"
       sodipodi:rx="80"
       sodipodi:cy="149.50504"
       sodipodi:cx="-774.28571"
       id="path3020"
       style="fill:url(#radialGradient3028);fill-opacity:1;stroke:none"
       sodipodi:type="arc" />
    <text
       xml:space="preserve"
       style="font-size:40px;font-style:normal;font-weight:normal;line-height:125%;letter-spacing:0px;word-spacing:0px;fill:#666666;fill-opacity:1;stroke:none;font-family:Sans"
       x="3.5398781"
       y="702.55841"
       id="text4960"
       sodipodi:linespacing="125%"
       transform="matrix(0,1,-1,0,0,0)"><tspan
         sodipodi:role="line"
         id="tspan4962"
         x="3.5398781"
         y="702.55841">falanster.by</tspan></text>
    <g
       id="g4595"
       transform="matrix(-1.0315851,0.24069386,0.24069386,1.0315851,-536.68817,-64.327569)">
      <path
         sodipodi:nodetypes="sssscsssccssssssssssss"
         inkscape:connector-curvature="0"
         id="path3658-6"
         d="m -22.507963,568.12266 c -3.55387,-2.9686 29.8526701,-35.03115 26.9887201,-37.36716 -4.90666996,-4.00209 -31.5614301,24.45591 -37.4668801,23.98604 -6.23597,-0.49628 13.96776,-36.99546 9.50392,-38.41409 -4.26132,-1.35424 -11.42419,24.66059 -19.18349,28.99686 -18.86857,-4.06284 -30.44089,-3.75632 -39.03259,-2.6512 -19.766197,2.5426 -41.650597,9.69176 -52.657997,21.64306 -30.3403,32.94219 -23.7667,62.91556 -12.2467,94.91848 10.1665,28.24285 59.144797,60.1049 98.702867,37.28454 4.84942,-3.20099 24.36584,-11.34568 38.9885101,-30.26938 22.1915799,-3.62407 50.1513499,13.20339 54.8131499,6.95287 7.41452,-9.94138 -50.1406099,-12.14059 -52.2732299,-28.08842 -0.53466,-3.99811 46.6874999,-6.22971 46.0025599,-10.33955 -1.22171,-7.33085 -32.9352299,1.51135 -38.3016799,-5.67612 -3.09147,-4.14049 42.5100999,-6.39768 40.8287299,-10.44537 -2.40101,-5.78016 -36.8567599,-1.67696 -43.4090499,-5.68484 -4.66659,-2.85438 48.0410099,-13.09897 45.9844899,-18.19065 -1.24685,-3.08702 -42.6110799,7.96637 -48.1198999,6.17259 -6.08631,-1.98181 49.7381799,-31.36882 47.4418399,-36.76902 -2.38353,-5.60522 -35.4795599,15.81867 -54.4173,18.8458 -4.80082,0.7674 40.61619,-31.12528 38.88333,-35.04741 -1.64427,-3.72155 -50.54585,20.54681 -51.0293,20.14297 z"
         style="fill:#d40000;stroke:#000000;stroke-width:0.53615493px;stroke-linecap:butt;stroke-linejoin:miter;stroke-opacity:1" />
      <path
         inkscape:connector-curvature="0"
         id="path3664"
         d="m -26.481663,707.07308 c 35.7451001,28.08544 42.12815,51.06443 39.57493,70.2136 -2.55322,19.14916 8.93628,66.38377 -14.04270986,76.59666 -22.97900014,10.21285 -80.42644014,30.63863 -99.57563714,12.76612 -19.1492,-17.87257 -43.4047,-15.31934 -47.2346,-61.27734 -3.8298,-45.958 -10.2129,-74.04343 25.5322,-88.08615 35.745097,-14.04272 95.745817,-10.21289 95.745817,-10.21289 z"
         style="fill:#aa0000;stroke:#000000;stroke-width:0.89362764px;stroke-linecap:butt;stroke-linejoin:miter;stroke-opacity:1" />
      <path
         sodipodi:nodetypes="sssscsssccssssssssssss"
         inkscape:connector-curvature="0"
         id="path3658"
         d="m -124.35528,565.7201 c -3.2744,3.27445 -32.2232,-32.86379 -34.8058,-30.22007 -4.4246,4.52943 21.5375,33.62071 20.5418,39.46051 -1.0516,6.16669 -35.5992,-17.21801 -37.4111,-12.89877 -1.7296,4.12319 23.541,13.58227 27.1665,21.69805 -5.7328,18.42999 -6.4617,29.98339 -6.1288,38.63949 0.766,19.9143 5.9308,42.3501 16.8506,54.3815 30.099,33.1628 60.539897,29.2941 93.444277,20.6802 29.0384,-7.6019 65.15,-53.5369 45.9561001,-94.976 -2.7548,-5.11608 -9.1228,-25.28228 -26.6640001,-41.53758 -1.6264,-22.42666 17.6324001,-48.77074 11.8235,-53.97248 -9.239,-8.27328 -16.5729,48.85502 -32.6475,49.55392 -4.0299,0.17522 -2.0325,-47.05742 -6.1871,-46.74251 -7.4107,0.5617 -1.438,32.93852 -9.0763,37.64118 -4.40017,2.70908 -2.57307,-42.91175 -6.75488,-41.59883 -5.9716,1.87485 -4.964,36.55942 -9.5414,42.72733 -3.26,4.39283 -8.7533,-49.0194 -14.0084,-47.42613 -3.1861,0.96598 4.1265,43.1525 1.8476,48.47898 -2.5178,5.88486 -26.798397,-52.34249 -32.382197,-50.53793 -5.7958,1.87307 12.5847,36.75126 13.9073,55.88377 0.3353,4.85018 -27.371,-43.23526 -31.4323,-41.85983 -3.8536,1.30511 15.9475,52.1798 15.5021,52.6252 z"
         style="fill:url(#radialGradient4608);fill-opacity:1;stroke:#000000;stroke-width:0.53615493px;stroke-linecap:butt;stroke-linejoin:miter;stroke-opacity:1" />
      <path
         inkscape:connector-curvature="0"
         id="path3660"
         d="m -178.15868,733.02207 c -18.1873,30.23199 -18.0524,22.19811 -23.3855,52.64598 -5.3331,30.44792 8.0142,49.15529 12.7536,54.05661 4.7394,4.9013 7.8449,11.38243 19.2004,5.14421 11.3555,-6.23824 29.219,-17.18886 27.6931,-22.03617 -1.5258,-4.84737 -19.8284,-15.60178 -21.2732,-25.26949 -1.4449,-9.66764 11.8952,-38.37386 9.6064,-45.64485 -2.2888,-7.27099 -2.8627,-20.94215 -13.3203,-20.31417 -10.4576,0.62797 -11.2745,1.41788 -11.2745,1.41788 z"
         style="fill:#ff8080;stroke:#000000;stroke-width:0.79542887px;stroke-linecap:butt;stroke-linejoin:miter;stroke-opacity:1" />
      <path
         inkscape:connector-curvature="0"
         id="path3666"
         d="m -142.17748,869.07186 c -13.3304,18.88481 -23.3282,18.88481 -24.4391,32.21521 -1.1109,13.3305 12.2196,36.6588 33.3261,31.1044 21.1065,-5.5543 47.767497,-12.2195 46.656697,-18.8848 -1.1109,-6.6652 5.5542,-34.4369 -8.8871,-38.88044 -14.441297,-4.4435 -46.656597,-5.55437 -46.656597,-5.55437 z"
         style="fill:#ff5555;stroke:#000000;stroke-width:0.77760935px;stroke-linecap:butt;stroke-linejoin:miter;stroke-opacity:1" />
      <path
         inkscape:connector-curvature="0"
         id="path3668"
         d="m -30.772623,877.75447 c 20,-8.57142 38.5714301,-19.99999 44.28572,-7.14285 5.71428,12.85715 18.57142,44.28575 7.14285,49.99995 -11.4285699,5.7143 -40,10 -51.42857,8.5715 -11.42857,-1.4286 -11.42857,-10 -10,-22.8572 1.42857,-12.8571 10,-28.5714 10,-28.5714 z"
         style="fill:#ff5555;stroke:#000000;stroke-width:1px;stroke-linecap:butt;stroke-linejoin:miter;stroke-opacity:1" />
      <path
         sodipodi:nodetypes="ccsscsc"
         inkscape:connector-curvature="0"
         id="path3670"
         d="m 14.941667,726.32591 c 30,17.14286 30,17.14286 30,17.14286 0,0 1.42857,1.42857 8.57143,24.28571 7.14285,22.85714 18.57142,69.95795 4.28571,71.38652 -14.28571,1.42857 -32.85714,-6.65265 -32.85714,-6.65265 0,0 -1.42857,-37.59101 -4.28572,-56.16244 -2.85714,-18.57143 -5.71428,-50 -5.71428,-50 z"
         style="fill:#ff2a2a;stroke:#000000;stroke-width:1px;stroke-linecap:butt;stroke-linejoin:miter;stroke-opacity:1" />
      <path
         transform="translate(1173.5132,-153.17913)"
         d="m -1252.8571,770.93359 c 0,7.10081 -5.7563,12.85715 -12.8571,12.85715 -7.1008,0 -12.8572,-5.75634 -12.8572,-12.85715 0,-7.1008 5.7564,-12.85714 12.8572,-12.85714 7.1008,0 12.8571,5.75634 12.8571,12.85714 z"
         sodipodi:ry="12.857142"
         sodipodi:rx="12.857142"
         sodipodi:cy="770.93359"
         sodipodi:cx="-1265.7142"
         id="path3676"
         style="fill:#2b0000;fill-opacity:1;fill-rule:nonzero;stroke:none"
         sodipodi:type="arc" />
      <path
         transform="translate(1250.656,-146.03628)"
         d="m -1304.2858,765.2193 c 0,5.52285 -4.4771,10 -10,10 -5.5228,0 -10,-4.47715 -10,-10 0,-5.52285 4.4772,-10 10,-10 5.5229,0 10,4.47715 10,10 z"
         sodipodi:ry="10"
         sodipodi:rx="10"
         sodipodi:cy="765.2193"
         sodipodi:cx="-1314.2858"
         id="path3678"
         style="fill:#2b0000;fill-opacity:1;fill-rule:nonzero;stroke:none"
         sodipodi:type="arc" />
      <path
         inkscape:connector-curvature="0"
         id="path3721"
         d="m -79.078183,648.36065 c 0,0 -9.0914,3.03045 -11.1117,13.13198 -2.0203,10.10152 7.0711,21.2132 17.1726,21.2132 10.10154,0 11.1117,-2.0203 10.10154,-11.11168 -1.01015,-9.09137 -16.16244,-23.2335 -16.16244,-23.2335 z"
         style="fill:#333333;stroke:#000000;stroke-width:1px;stroke-linecap:butt;stroke-linejoin:miter;stroke-opacity:1" />
      <path
         inkscape:connector-curvature="0"
         id="path3664-6"
         d="m -36.094733,714.93727 c 32.2534801,25.34203 38.0130701,46.07641 35.70927014,63.35507 -2.30380004,17.27865 8.06339996,59.89934 -12.67099014,69.11463 -20.73439,9.21525 -72.57033,27.64586 -89.849027,11.51911 -17.2787,-16.12676 -39.1649,-13.82293 -42.6207,-55.29171 -3.4557,-41.46878 -9.2153,-66.8108 23.0382,-79.48181 32.253497,-12.67102 86.393247,-9.21529 86.393247,-9.21529 z"
         style="fill:url(#radialGradient4610);fill-opacity:1;stroke:none" />
    </g>
    <path
       style="fill:url(#linearGradient3533);fill-opacity:1;stroke:#000000;stroke-width:1.09692121px;stroke-linecap:butt;stroke-linejoin:miter;stroke-opacity:1"
       d="m -726.78914,990.00207 c 0,0 406.86966,-177.38979 803.99395,-177.38979 397.12428,0 684.61299,52.41061 803.99391,76.60014 119.38088,24.1895 272.87068,68.53697 272.87068,68.53697 l 0,133.04241 -1883.29489,0 z"
       id="path3630"
       inkscape:connector-curvature="0"
       sodipodi:nodetypes="csscccc" />
    <g
       id="g4612"
       transform="matrix(-1.1384718,-0.07620116,-0.07620116,1.1384718,1134.7642,-186.828)">
      <path
         sodipodi:nodetypes="sssscsssssccssssssssssss"
         inkscape:connector-curvature="0"
         id="path3658-1-3"
         d="m 206.85179,600.97289 c -3.3528,3.35292 -32.9953,-33.65128 -35.6398,-30.94421 -4.5306,4.63796 22.0536,34.42634 21.034,40.40608 -1.0768,6.31446 -36.4522,-17.6306 -38.3075,-13.20786 -1.7711,4.22199 24.1051,13.90774 27.8174,22.21799 -17.0204,4.19548 -60.7276,6.91161 -24.5204,13.82584 4.0333,0.7702 13.998,-4.02702 17.0433,0.21524 4.3716,6.08999 1.0671,22.03056 1.2015,25.5243 0.7841,20.3915 6.0729,43.36491 17.2544,55.68462 30.8202,33.95746 61.9906,29.99606 95.6834,21.17575 29.7343,-7.78406 66.7112,-54.81978 47.0574,-97.25187 -2.8209,-5.23866 -5.204,-25.88809 -23.1656,-42.53291 -1.6653,-22.96406 13.9175,-49.93941 7.9694,-55.2658 -9.4604,-8.47153 -10.7639,45.88828 -27.2236,46.60393 -4.1265,0.17941 -12.4248,-164.03317 -14.6102,-78.89333 -0.1953,7.60753 0.5962,68.89599 -7.2251,73.71134 -4.5057,2.77399 -2.6348,-43.94002 -6.9168,-42.59564 -6.1147,1.91977 -5.0829,37.43547 -9.77,43.75118 -3.3381,4.49809 -11.0318,-39.85045 -16.4128,-38.219 -3.2625,0.98913 6.2941,33.84296 3.9606,39.29708 -2.5782,6.02588 -27.4406,-53.59675 -33.1582,-51.74895 -5.9347,1.91796 12.8863,37.63192 14.2406,57.22289 0.3433,4.9664 -28.0269,-44.27129 -32.1855,-42.8629 -3.946,1.33639 16.3296,53.43016 15.8735,53.88623 z"
         style="fill:#55d400;stroke:#000000;stroke-width:1.0239625;stroke-linecap:butt;stroke-linejoin:miter;stroke-miterlimit:4;stroke-opacity:1;stroke-dasharray:none" />
      <path
         inkscape:connector-curvature="0"
         id="path3664-7"
         d="m 303.15969,742.21901 c 35.7451,28.08544 42.1282,51.06443 39.5749,70.2136 -2.5532,19.14916 8.9363,66.38377 -14.0427,76.59666 -22.979,10.21285 -80.4264,30.63861 -99.5756,12.76612 -19.1492,-17.87257 -43.4047,-15.31934 -47.2346,-61.27734 -3.8298,-45.958 -10.2129,-74.04343 25.5322,-88.08615 35.7451,-14.04272 95.7458,-10.21289 95.7458,-10.21289 z"
         style="fill:#7fff2a;stroke:#000000;stroke-width:0.89362764px;stroke-linecap:butt;stroke-linejoin:miter;stroke-opacity:1" />
      <path
         sodipodi:nodetypes="sssscsssssccssssssssssss"
         inkscape:connector-curvature="0"
         id="path3658-1"
         d="m 207.63609,603.32615 c -3.2125,3.21259 -31.6143,-32.24286 -34.1481,-29.64909 -4.341,4.44385 21.1305,32.98548 20.1536,38.71494 -1.0318,6.05018 -34.9265,-16.89269 -36.7042,-12.65506 -1.697,4.04529 23.0961,13.32565 26.6532,21.28809 -16.3081,4.01988 -58.186,6.62233 -23.4942,13.24718 3.8645,0.73797 13.4121,-3.85848 16.3299,0.20622 4.1886,5.83511 1.0226,21.10851 1.1513,24.45603 0.7514,19.53803 5.8187,41.54993 16.5321,53.354 29.5304,32.53623 59.3961,28.74062 91.6789,20.28947 28.4897,-7.45826 63.919,-52.52537 45.0877,-93.18152 -2.7027,-5.0194 -4.9862,-24.80458 -22.1959,-40.75275 -1.5956,-22.00293 13.335,-47.84927 7.6359,-52.95273 -9.0645,-8.11696 -10.3135,43.96769 -26.0843,44.65339 -3.9537,0.1719 -11.9047,-157.16779 -13.9987,-75.59136 -0.1871,7.28913 0.5713,66.01245 -6.9227,70.62625 -4.317,2.6579 -2.5245,-42.10097 -6.6273,-40.81286 -5.8587,1.83943 -4.8702,35.86866 -9.3611,41.92004 -3.1984,4.30983 -10.57,-38.18256 -15.7259,-36.6194 -3.1258,0.94773 6.0307,32.42652 3.7948,37.65236 -2.4702,5.77366 -26.292,-51.35353 -31.7703,-49.58307 -5.6863,1.83768 12.3469,36.05688 13.6445,54.8279 0.3289,4.75855 -26.8538,-42.41837 -30.8384,-41.06893 -3.7808,1.28046 15.6462,51.19392 15.2092,51.6309 z"
         style="fill:url(#radialGradient4625);fill-opacity:1;stroke:none" />
      <path
         sodipodi:nodetypes="ccccssc"
         inkscape:connector-curvature="0"
         id="path3660-2"
         d="m 151.48269,768.168 c -18.1873,30.23199 -18.0524,22.19811 -23.3855,52.64598 -6.7267,30.75023 14.7003,43.80721 25.8931,38.99777 41.5707,-20.80115 14.1067,-19.12132 12.4808,-27.10261 -1.4449,-9.66764 11.8952,-38.37386 9.6064,-45.64485 -2.2888,-7.27099 -2.8627,-20.94215 -13.3203,-20.31417 -10.4576,0.62797 -11.2745,1.41788 -11.2745,1.41788 z"
         style="fill:#b3ff80;stroke:#000000;stroke-width:0.79542887px;stroke-linecap:butt;stroke-linejoin:miter;stroke-opacity:1" />
      <path
         inkscape:connector-curvature="0"
         id="path3666-6"
         d="m 187.46389,904.21779 c -13.3304,18.88479 -23.3282,18.88479 -24.4391,32.21519 -1.1109,13.3305 12.2196,36.6588 33.3261,31.1044 21.1065,-5.5543 47.7675,-12.2195 46.6567,-18.8848 -1.1109,-6.6652 5.5542,-34.4369 -8.8871,-38.88042 -14.4413,-4.4435 -46.6566,-5.55437 -46.6566,-5.55437 z"
         style="fill:#2d5016;stroke:#000000;stroke-width:0.77760935px;stroke-linecap:butt;stroke-linejoin:miter;stroke-opacity:1" />
      <path
         inkscape:connector-curvature="0"
         id="path3668-0"
         d="m 298.86869,912.90038 c 20,-8.5714 38.5715,-19.99997 44.2858,-7.14283 5.7142,12.85713 18.5714,44.28573 7.1428,49.99993 -11.4286,5.7143 -40,10 -51.4286,8.5715 -11.4285,-1.4286 -11.4285,-10 -10,-22.8572 1.4286,-12.8571 10,-28.5714 10,-28.5714 z"
         style="fill:#447821;stroke:#000000;stroke-width:1px;stroke-linecap:butt;stroke-linejoin:miter;stroke-opacity:1" />
      <path
         inkscape:connector-curvature="0"
         id="path3670-4"
         d="m 344.58299,761.47184 c 30,17.14286 30,17.14286 30,17.14286 0,0 1.4286,1.42857 8.5715,24.28571 7.1428,22.85714 18.5714,45.71429 4.2857,47.14286 -14.2857,1.42857 -32.8572,1.42857 -32.8572,1.42857 0,0 -1.4285,-21.42857 -4.2857,-40 -2.8571,-18.57143 -5.7143,-50 -5.7143,-50 z"
         style="fill:#b3ff80;stroke:#000000;stroke-width:1px;stroke-linecap:butt;stroke-linejoin:miter;stroke-opacity:1" />
      <path
         transform="matrix(0.84223936,0,0,0.84223936,1312.2526,15.181536)"
         d="m -1252.8571,770.93359 c 0,7.10081 -5.7563,12.85715 -12.8571,12.85715 -7.1008,0 -12.8572,-5.75634 -12.8572,-12.85715 0,-7.1008 5.7564,-12.85714 12.8572,-12.85714 7.1008,0 12.8571,5.75634 12.8571,12.85714 z"
         sodipodi:ry="12.857142"
         sodipodi:rx="12.857142"
         sodipodi:cy="770.93359"
         sodipodi:cx="-1265.7142"
         id="path3676-9"
         style="fill:#2b0000;fill-opacity:1;fill-rule:nonzero;stroke:none"
         sodipodi:type="arc" />
      <path
         transform="matrix(1.0549369,0,0,1.0549369,1660.7874,-144.54051)"
         d="m -1304.2858,765.2193 c 0,5.52285 -4.4771,10 -10,10 -5.5228,0 -10,-4.47715 -10,-10 0,-5.52285 4.4772,-10 10,-10 5.5229,0 10,4.47715 10,10 z"
         sodipodi:ry="10"
         sodipodi:rx="10"
         sodipodi:cy="765.2193"
         sodipodi:cx="-1314.2858"
         id="path3678-4"
         style="fill:#2b0000;fill-opacity:1;fill-rule:nonzero;stroke:none"
         sodipodi:type="arc" />
      <path
         inkscape:connector-curvature="0"
         id="path3719"
         d="m 251.41409,701.45644 c -17.0158,-3.40316 -16.1651,-12.76185 -28.076,-8.5079 -11.9111,4.25395 8.5078,20.41896 19.5681,20.41896 11.0603,0 29.7776,-1.70157 37.4348,-8.5079 7.6571,-6.80632 -28.9269,-3.40316 -28.9269,-3.40316 z"
         style="fill:#4d4d4d;stroke:#000000;stroke-width:0.84223938px;stroke-linecap:butt;stroke-linejoin:miter;stroke-opacity:1" />
      <path
         inkscape:connector-curvature="0"
         id="path3664-7-0"
         d="m 299.54579,744.91003 c 31.3806,24.65618 36.9843,44.8294 34.7428,61.64044 -2.2414,16.81102 7.8452,58.27824 -12.3281,67.24412 -20.1732,8.96585 -70.6062,26.89757 -87.4173,11.20736 -16.811,-15.6903 -38.1049,-13.44883 -41.4672,-53.79531 -3.3621,-40.34647 -8.9659,-65.00264 22.4147,-77.33072 31.3806,-12.32809 84.0551,-8.96589 84.0551,-8.96589 z"
         style="fill:url(#radialGradient4627);fill-opacity:1;stroke:none" />
    </g>
    <path
       style="fill:#ffeeaa;stroke:#000000;stroke-width:1.17267871px;stroke-linecap:butt;stroke-linejoin:miter;stroke-opacity:1"
       d="m 69.390737,243.13865 c 0,0 -10.90322,7.51829 -25.4829,10.17148 -14.57975,2.65305 -26.97101,-0.3856 -36.5045497,-8.61218 -41.6123003,-42.42927 -68.3071863,-74.58552 -131.2183073,-65.24562 -38.78741,16.60961 -63.06032,52.80081 -63.33276,93.86356 3.22572,24.68752 0.17717,54.41368 20.80747,71.23742 0,0 -0.96847,-19.60231 5.60476,-40.86591 2.97905,-9.63629 13.79234,-29.45855 17.14601,-31.12752 3.35346,-1.66918 2.15901,18.12515 2.96017,29.48993 1.79501,25.46712 17.83942,45.93558 17.83942,45.93558 0,0 2.73934,-31.48971 8.28135,-38.85064 5.5422,-7.36069 17.799298,-22.2477 22.821948,-20.56301 5.02274,1.68481 1.48011,14.74503 7.82539,25.81361 6.34528,11.06858 14.375283,17.11469 14.375283,17.11469 0,0 -0.14972,-9.5493 0.87359,-19.26391 1.0232,-9.7147 10.43083,-23.60154 15.96505,-26.7743 25.458576,-15.66922 41.200526,3.97843 66.325336,7.99793 26.76741,7.39789 37.46548,-1.73534 54.65792,-23.85408 2.01546,-2.67651 1.05479,-26.46701 1.05479,-26.46701 z"
       id="path3123-1"
       inkscape:connector-curvature="0"
       sodipodi:nodetypes="csccccssscssscscccc" />
    <path
       style="fill:#ffccaa;stroke:#000000;stroke-width:1.17267871px;stroke-linecap:butt;stroke-linejoin:miter;stroke-opacity:1"
       d="m 85.570447,278.74713 c 0,0 2.88635,23.64909 0.2422,41.11991 -2.64431,17.4708 -8.91493,24.67409 -17.08991,35.96661 -8.17501,11.29248 -31.91653,15.85151 -42.3228,21.98714 -10.40626,6.13563 43.67881,14.16092 43.67881,14.16092 0,0 35.219113,0.27039 54.686483,-2.84729 19.46752,-3.11765 60.30608,-13.44222 68.20334,-19.71662 7.89723,-6.27441 16.72342,-14.17526 16.72342,-14.17526 0,0 -15.23935,2.51264 -27.69211,0.14599 -12.45262,-2.36667 -25.71939,-7.85029 -31.69216,-18.5313 -4.09048,-7.31491 0.32026,-20.95498 0.55161,-25.13674 0.2313,-4.18174 -33.22263,-6.0323 -33.22263,-6.0323 z"
       id="path3143-0"
       inkscape:connector-curvature="0"
       sodipodi:nodetypes="cssscsscsascc" />
    <path
       style="fill:#ffe6d5;stroke:#000000;stroke-width:1.17267871px;stroke-linecap:butt;stroke-linejoin:miter;stroke-opacity:1"
       d="m 55.736547,224.93725 c 0,0 -8.45591,1.21007 -4.17815,14.86924 4.9676,6.39699 9.47701,9.43538 14.00531,17.84482 12.09583,22.46294 24.32641,53.64382 45.784153,66.33098 6.5984,2.04278 26.38181,3.94315 33.34999,-0.70483 6.96836,-4.64799 28.00888,-33.18557 29.12269,-38.15738 1.11397,-4.97185 8.3562,-17.65578 8.12123,-28.57458 -0.23473,-10.91882 -1.16927,-17.14144 1.70983,-23.69344 2.87911,-6.55198 5.57331,-9.75858 4.50198,-20.72367 -1.07116,-10.96506 0.3665,-21.79133 -4.37392,-27.08701 -4.74041,-5.29569 -13.99034,-20.06881 -13.99034,-20.06881 0,0 -14.26782,-15.05068 -29.27553,-16.71976 -15.00835,-1.6691 -47.718293,-1.80073 -58.170973,5.17124 -10.45253,6.97196 -20.16119,15.66288 -22.48167,27.27924 12.0858,22.83494 -9.68907,44.29943 -4.1246,44.23396 z"
       id="path3119-9"
       inkscape:connector-curvature="0"
       sodipodi:nodetypes="ccscsssssscsscc" />
    <path
       style="fill:#ffe680;stroke:#000000;stroke-width:1.17267871px;stroke-linecap:butt;stroke-linejoin:miter;stroke-opacity:1"
       d="m 204.92763,201.0631 c -1.66059,-29.25034 -6.70015,-54.69453 -30.97062,-68.74534 -11.4883,-2.88276 -29.9034,-6.87316 -38.05423,3.03622 -14.73066,-14.27745 -31.98193,-15.00278 -50.841503,-8.58979 -37.93104,12.58959 -53.00604,39.1956 -53.46232,71.70544 -0.13516,17.6096 2.51625,30.33991 5.49167,37.21575 2.97525,6.87586 17.15054,23.59925 17.15054,23.59925 0,0 -1.86131,-11.84766 1.94672,-20.02612 3.80787,-8.17841 12.59157,-0.14237 12.59157,-0.14237 -12.42488,-24.57246 -8.84134,-28.18997 3.88982,-55.15279 0,0 -9.19643,14.59165 -7.24245,24.76666 1.95382,10.17494 4.00034,18.67723 4.00034,18.67723 0,0 -0.004,-15.10051 5.2921,-19.841 5.29558,-4.74053 17.0007,-19.19339 17.0007,-19.19339 0,0 1.21013,8.45601 4.32419,12.82283 12.335013,-15.71512 36.258273,-26.09637 44.088093,-23.56735 0,0 7.20343,6.27083 6.8796,12.12525 -0.32386,5.85448 8.31348,-13.80156 6.87204,-18.07584 13.67273,1.79982 23.10735,27.33499 26.69152,42.11071 4.2198,23.61731 6.30432,43.92847 10.17906,38.30902 5.37662,-7.79761 7.72523,-11.34225 14.17316,-51.03437 z"
       id="path3121-4"
       inkscape:connector-curvature="0"
       sodipodi:nodetypes="cccccscsccscscccsccsc" />
    <path
       style="fill:#f9f9f9;stroke:#000000;stroke-width:1.17267871px;stroke-linecap:butt;stroke-linejoin:miter;stroke-opacity:1"
       d="m 13.892117,248.00882 7.51198,15.90545 c 0,0 0.12523,-5.61761 6.81673,-3.21945 6.69081,2.39815 11.02532,9.61445 11.02532,9.61445 -7.38997,8.9006 -1.55252,7.06698 -12.87591,6.08117 l 7.42797,19.65051 16.22133,-4.8821 c 0,0 -5.65942,1.74664 -0.60836,10.4778 5.05004,8.73112 18.64115,4.16475 18.64115,4.16475 0,0 3.5133,-6.29101 -2.69372,-13.54932 -6.20714,-7.25827 12.95994,-9.82616 12.95994,-9.82616 l -7.95377,-12.91785 c -10.50544,6.8753 -15.10863,6.63029 -18.28354,-3.40738 0,0 4.83809,-15.25396 13.63315,-6.43886 3.96891,3.97774 -11.2569,-15.9894 -11.2569,-15.9894 l -36.819,4.42039 z"
       id="path3125-8"
       inkscape:connector-curvature="0"
       sodipodi:nodetypes="ccsccccscscccsccc" />
    <path
       style="fill:#f9f9f9;stroke:#000000;stroke-width:1.17267871px;stroke-linecap:butt;stroke-linejoin:miter;stroke-opacity:1"
       d="m 88.417777,239.37286 c 0,0 6.27761,-2.47317 11.418227,-3.75348 5.140646,-1.28024 5.374766,0.61335 8.714996,0.8733 3.34056,0.25999 12.13274,5.49298 12.13274,5.49298 0,0 -4.65068,2.50657 -8.75815,3.27316 -6.79001,1.26721 -14.569169,2.91412 -23.507813,-5.886 z"
       id="path3127-8"
       inkscape:connector-curvature="0"
       sodipodi:nodetypes="csscsc" />
    <path
       style="fill:#f9f9f9;stroke:#000000;stroke-width:1.17267871px;stroke-linecap:butt;stroke-linejoin:miter;stroke-opacity:1"
       d="m 146.62648,241.14804 c 8.32757,-5.10589 9.97917,-7.58393 16.68776,-6.81064 6.70886,0.77332 11.10299,1.95792 11.10299,1.95792 0,0 -2.51177,5.39706 -8.79823,7.18349 -8.09755,2.30111 -18.1308,0.17396 -18.99252,-2.33077 z"
       id="path3129-2"
       inkscape:connector-curvature="0"
       sodipodi:nodetypes="cscsc" />
    <path
       style="fill:none;stroke:#000000;stroke-width:3.51803589;stroke-linecap:butt;stroke-linejoin:miter;stroke-miterlimit:4;stroke-opacity:1;stroke-dasharray:none"
       d="m 121.21044,225.57438 c -7.98676,-5.4331 -8.16106,-7.82538 -19.79454,-6.12842 -11.541533,1.68345 -15.378453,5.02165 -15.378453,5.02165 l 0,0"
       id="path3131-4"
       inkscape:connector-curvature="0"
       sodipodi:nodetypes="cscc" />
    <path
       style="fill:none;stroke:#000000;stroke-width:3.51803589;stroke-linecap:butt;stroke-linejoin:miter;stroke-miterlimit:4;stroke-opacity:1;stroke-dasharray:none"
       d="m 149.08007,228.12054 c 4.45922,-4.78682 7.25463,-6.8233 19.3479,-5.24268 8.16699,1.06748 10.15578,2.68017 10.15578,2.68017"
       id="path3133-5"
       inkscape:connector-curvature="0"
       sodipodi:nodetypes="csc" />
    <path
       style="fill:#e9afaf;stroke:#000000;stroke-width:1.17267871px;stroke-linecap:butt;stroke-linejoin:miter;stroke-opacity:1"
       d="m 113.80421,295.04001 c 0,0 9.28392,10.63136 19.32009,11.18653 10.03611,0.55516 14.18855,-10.32448 14.18855,-10.32448 l -18.65155,0.0107 z"
       id="path3141-7"
       inkscape:connector-curvature="0"
       sodipodi:nodetypes="csccc" />
    <path
       style="fill:#ffccaa;stroke:#000000;stroke-width:1.07090473px;stroke-linecap:butt;stroke-linejoin:miter;stroke-opacity:1"
       d="m -24.515833,453.81067 -40.838796,64.23052 c 0,0 -7.886443,16.18614 -20.210983,28.34895 -12.32481,12.16281 -18.062838,22.00293 -21.219548,36.93958 -3.15642,14.93668 6.00349,29.4861 6.00349,29.4861 l 25.761718,3.50843 29.088863,-14.09661 22.926316,-49.35457 74.21503,-91.85118 z"
       id="path3149-1"
       inkscape:connector-curvature="0"
       sodipodi:nodetypes="ccsscccccc" />
    <path
       style="fill:#ffccaa;stroke:#000000;stroke-width:1.4407686px;stroke-linecap:butt;stroke-linejoin:miter;stroke-opacity:1"
       d="m 71.077457,643.75832 102.982313,1.57389 88.83282,33.7734 112.80931,30.83304 c 0,0 37.24425,-5.11866 73.0992,17.47863 35.85497,22.59724 48.61777,34.74878 48.61777,34.74878 0,0 24.20647,9.58459 -31.27238,43.62062 -55.47886,34.03606 -67.58205,29.24378 -67.58205,29.24378 L 280.73285,803.77571 c 0,0 -110.97534,-6.1388 -148.87656,8.25571 -37.901263,14.39453 -94.289543,64.87135 -94.289543,64.87135 l -47.48582,38.60098 c 0,0 -29.680806,14.84925 -81.976599,-8.65747 C -144.19141,883.33956 -131.4061,875.80127 -104.2439,831.95329 -77.081712,788.10529 3.285667,751.32321 3.285667,751.32321 l 49.53209,-75.59276 z"
       id="path5968"
       inkscape:connector-curvature="0"
       sodipodi:nodetypes="ccccscsccsccssccc" />
    <path
       style="fill:#ffe6d5;stroke:#000000;stroke-width:1.24409401px;stroke-linecap:butt;stroke-linejoin:miter;stroke-opacity:1"
       d="m -97.900452,560.15068 c 0,0 15.62758,-2.20489 28.660933,3.23264 13.03348,5.4376 32.951666,17.98871 39.804226,27.93655 6.85273,9.94778 13.51231,36.90117 21.19746,47.13575 7.68547007,10.23465 37.67518,25.99666 37.67518,25.99666 l 10.96753,8.77788 -8.23088,37.94799 c 0,0 -49.02723,-25.42253 -56.45627,-33.67202 -7.42938,-8.24953 -57.517049,-45.70015 -70.641619,-60.37214 -10.649758,-11.90542 -19.116398,-19.59655 -18.860318,-32.10408 0.20152,-9.85372 15.884808,-24.87901 15.884808,-24.87901 z"
       id="path3151-5"
       inkscape:connector-curvature="0"
       sodipodi:nodetypes="cssscccssac" />
    <g
       id="g5977"
       transform="matrix(-0.25531984,-1.4886526,1.4886526,-0.25531984,-2193.0914,564.45928)">
      <path
         sodipodi:nodetypes="ccssccscccc"
         inkscape:connector-curvature="0"
         id="path3175-4"
         d="m -606.88113,1599.1368 -0.5546,18.3011 c 0,0 7.2095,6.6549 16.6373,7.7641 9.4278,1.1091 27.1743,2.2182 35.4929,-1.1092 8.3188,-3.3275 15.5283,-9.9825 15.5283,-9.9825 0,0 3.8821,-13.8644 6.1003,-16.6372 2.2183,-2.773 9.4278,-1.1092 16.0828,-4.9912 6.6549,-3.8821 11.0914,-11.6462 11.0914,-11.6462 l 0,-18.301 -38.8204,14.9736 z"
         style="fill:#e6e6e6;stroke:#000000;stroke-width:0.77640837px;stroke-linecap:butt;stroke-linejoin:miter;stroke-opacity:1" />
      <path
         sodipodi:nodetypes="csssccscscscsccc"
         inkscape:connector-curvature="0"
         id="path3173-7"
         d="m -554.19633,1538.6879 c 0,0 -4.9911,10.5369 -11.0914,15.5281 -6.1005,4.9912 -17.1919,18.8557 -25.5107,23.2923 -8.3187,4.4366 -11.646,3.882 -14.9735,11.0915 -3.3275,7.2095 0,16.0828 0,16.0828 2.8004,7.5029 13.0316,6.2004 19.4102,6.6549 8.3186,0.5546 17.7464,2.2183 27.1743,-0.5546 9.4278,-2.7729 17.7464,-12.2007 17.7464,-12.2007 0,0 4.4367,-6.1003 4.9913,-12.7553 0.5546,-6.6549 11.0914,-1.1091 11.0914,-1.1091 0,0 9.9824,-2.2183 12.7553,-8.8732 2.7729,-6.655 4.4367,-12.7553 4.4367,-12.7553 0,0 -3.8821,-8.8733 -3.8821,-12.2007 0,-3.3275 -0.5546,-17.7465 -0.5546,-17.7465 l 3.3275,-17.1918 z"
         style="fill:#666666;stroke:#000000;stroke-width:0.77640837px;stroke-linecap:butt;stroke-linejoin:miter;stroke-opacity:1" />
      <path
         inkscape:connector-curvature="0"
         id="path3183-2"
         d="m -561.96033,1577.5083 -6.1004,4.9912 c 0,0 -21.6285,-6.655 -24.4013,-6.1004 -2.773,0.5546 1.6636,-3.882 1.6636,-3.882 0,0 27.1743,1.1091 28.8381,4.9912 z"
         style="fill:#f9f9f9;stroke:#000000;stroke-width:0.77640837px;stroke-linecap:butt;stroke-linejoin:miter;stroke-opacity:1" />
      <path
         inkscape:connector-curvature="0"
         id="path3185-3"
         d="m -554.75093,1573.0717 c 0,0 -14.9735,-8.3187 -22.183,-6.655 -7.2095,1.6637 1.109,-6.6549 1.109,-6.6549 0,0 21.6286,1.1091 22.7377,4.4366 1.1092,3.3274 -1.6637,8.8733 -1.6637,8.8733 z"
         style="fill:#f9f9f9;stroke:#000000;stroke-width:0.77640837px;stroke-linecap:butt;stroke-linejoin:miter;stroke-opacity:1" />
      <path
         inkscape:connector-curvature="0"
         id="path3187-2"
         d="m -545.87753,1560.3163 c 0,0 -18.3012,-6.1003 -21.6286,-4.9911 -3.3275,1.1091 3.3274,-6.1004 3.3274,-6.1004 0,0 14.9736,-1.6637 18.3012,1.6638 3.3274,3.3274 0,9.4277 0,9.4277 z"
         style="fill:#f9f9f9;stroke:#000000;stroke-width:0.77640837px;stroke-linecap:butt;stroke-linejoin:miter;stroke-opacity:1" />
    </g>
    <path
       style="fill:#333333;stroke:#000000;stroke-width:1.17267871px;stroke-linecap:butt;stroke-linejoin:miter;stroke-opacity:1"
       d="m -77.385292,930.10996 c 0,0 135.812249,33.0297 160.117899,37.13274 24.305803,4.1031 88.837853,13.92847 106.436813,16.38007 17.59886,2.4514 39.40926,11.5888 50.31875,17.41413 10.9096,5.8252 2.38669,-36.0265 2.38669,-36.0265 0,0 -26.88005,-21.68442 -22.71541,-28.4003 4.16453,-6.71542 -10.10424,-15.04171 -29.36954,-14.97425 -19.26523,0.0675 -67.08904,-22.38136 -77.161,-28.20958 -10.07197,-5.82805 -67.135923,-35.78317 -79.723623,-42.44018 -12.58786,-6.65684 -62.89792,-21.558 -77.137596,-21.5082 -14.23958,0.0499 -20.92296,5.09914 -20.92296,5.09914 l 3.47366,35.16826 -3.24485,30.1663 z"
       id="path3171-6"
       inkscape:connector-curvature="0"
       sodipodi:nodetypes="cssscssssscccc" />
    <g
       id="g5970"
       transform="matrix(-0.38700264,1.4599671,-1.4599671,-0.38700264,2297.374,1993.4569)">
      <path
         sodipodi:nodetypes="cscscccccc"
         inkscape:connector-curvature="0"
         id="path3181-7"
         d="m -344.87913,1575.9019 c 0,0 -4.3443,10.9188 2.072,16.739 6.4163,5.8202 21.86092,8.1343 21.86092,8.1343 0,0 11.1748,-1.7506 18.79243,1.8998 7.61751,3.6504 14.90915,15.0581 20.93427,16.9765 15.63259,4.3338 19.16028,1.8098 39.96422,0.014 12.2831,-1.7042 20.06826,-15.2536 20.06826,-15.2536 l 0.0513,-14.4297 -60.87992,-4.2231 z"
         style="fill:#e6e6e6;stroke:#000000;stroke-width:0.77640837px;stroke-linecap:butt;stroke-linejoin:miter;stroke-opacity:1" />
      <path
         sodipodi:nodetypes="csssssssscssccc"
         inkscape:connector-curvature="0"
         id="path3179-1"
         d="m -334.71003,1545.2454 c 0,0 -11.2029,15.6261 -11.6452,26.1539 -0.4422,10.5277 12.8093,12.1945 16.68791,12.3575 3.87865,0.163 13.22829,2.2211 20.33839,4.7401 7.10996,2.519 15.47888,13.1056 20.42677,15.8451 9.76397,5.4058 21.83751,8.6884 30.8426,5.7364 9.00518,-2.9521 30.91723,-9.2474 32.18838,-13.0794 1.27115,-3.832 5.56881,-13.6427 -0.87072,-18.9088 -6.43954,-5.2662 -9.07029,-8.7071 -19.13698,-6.9098 -10.06675,1.7973 -10.06675,1.7973 -10.06675,1.7973 0,0 -5.8389,-6.351 -14.51806,-11.1563 -8.67917,-4.8052 -4.87041,-2.9799 -16.08721,-13.4424 -11.21681,-10.4625 -25.069,-11.0444 -25.069,-11.0444 l -13.11181,-4.9915 z"
         style="fill:#999999;stroke:#000000;stroke-width:0.77640837px;stroke-linecap:butt;stroke-linejoin:miter;stroke-opacity:1" />
      <path
         inkscape:connector-curvature="0"
         id="path3191-2"
         d="m -267.03204,1585.8335 c 0,0 8.89337,-13.503 13.88016,-13.2935 4.98679,0.2095 -6.46283,-4.7121 -6.46283,-4.7121 0,0 -13.53093,4.9822 -15.40269,9.8992 -1.87185,4.917 7.98536,8.1064 7.98536,8.1064 z"
         style="fill:#f2f2f2;stroke:#000000;stroke-width:0.77640837px;stroke-linecap:butt;stroke-linejoin:miter;stroke-opacity:1" />
      <path
         inkscape:connector-curvature="0"
         id="path3193-1"
         d="m -296.41736,1571.8323 c 0,0 5.8855,5.2429 9.30313,3.1662 3.41762,-2.0767 14.91845,-11.5847 18.24295,-11.445 3.32459,0.1397 -6.43953,-5.2661 -6.43953,-5.2661 0,0 -10.18313,4.5676 -15.28625,7.1286 -5.10325,2.5609 -5.8203,6.4163 -5.8203,6.4163 z"
         style="fill:#f2f2f2;stroke:#000000;stroke-width:0.77640837px;stroke-linecap:butt;stroke-linejoin:miter;stroke-opacity:1" />
      <path
         inkscape:connector-curvature="0"
         id="path3195-6"
         d="m -308.62593,1558.5527 9.20996,5.3826 c 0,0 11.47748,-8.9538 16.46438,-8.7442 4.98679,0.2094 -0.87541,-5.5875 -0.87541,-5.5875 0,0 -24.61275,4.5166 -24.79893,8.9491 z"
         style="fill:#ececec;stroke:#000000;stroke-width:0.77640837px;stroke-linecap:butt;stroke-linejoin:miter;stroke-opacity:1" />
    </g>
    <path
       style="fill:#37c8ab;stroke:#000000;stroke-width:1.17267871px;stroke-linecap:butt;stroke-linejoin:miter;stroke-opacity:1"
       d="m 100.38954,235.63961 c -4.324193,2.93669 -3.887799,9.69989 4.14751,8.81335 0,0 5.94707,-1.34886 2.83286,-5.71566 -3.11405,-4.36681 -6.98037,-3.09769 -6.98037,-3.09769 z"
       id="path3197-8"
       inkscape:connector-curvature="0"
       sodipodi:nodetypes="ccsc" />
    <path
       style="fill:none;stroke:#000000;stroke-width:1.17267871px;stroke-linecap:butt;stroke-linejoin:miter;stroke-opacity:1"
       d="M 169.84225,226.36304 z"
       id="path3199-5"
       inkscape:connector-curvature="0" />
    <path
       style="fill:#00d4aa;stroke:#000000;stroke-width:1.35859597px;stroke-linecap:butt;stroke-linejoin:miter;stroke-opacity:1"
       d="m 161.25578,243.19587 c 0,0 6.5087,-7.47885 -1.86393,-8.83317 -4.09008,-0.66154 -5.34978,0.38846 -6.13015,2.5998 -0.71456,2.02531 2.72902,5.79721 2.72902,5.79721 z"
       id="path3201-7"
       inkscape:connector-curvature="0"
       sodipodi:nodetypes="csacc" />
    <path
       style="fill:#f2f2f2;stroke:#000000;stroke-width:1.37982571px;stroke-linecap:butt;stroke-linejoin:miter;stroke-opacity:1"
       d="m -103.49947,868.27532 c 0,0 -13.49768,2.50224 -22.21847,0.8804 -8.72078,-1.62184 -13.45347,-8.51701 -14.49026,-13.72246 -1.03704,-5.20514 -1.53324,-13.31734 3.24363,-17.44122 4.77691,-4.12411 15.47999,-13.16123 19.96447,-10.3222 4.48429,2.83905 5.04865,15.97652 13.5892,18.56738 8.540658,2.59049 13.137338,-0.56438 12.460758,-7.70774 -0.67641,-7.14332 -5.36471,-25.05752 -5.36471,-25.05752 l -4.440268,-13.85811 c 0,0 11.019218,0.0444 22.286468,4.14471 11.267263,4.10048 25.757563,17.82258 25.757563,17.82258 l -12.57291,13.70154 c 0,0 -11.379663,1.89379 -6.759213,14.78307 4.620343,12.88889 11.042683,16.08833 19.155043,15.592 8.1122,-0.49623 11.55965,-2.86251 12.3927,-12.73253 0.8332,-9.86998 6.983756,-26.77094 6.983756,-26.77094 l 39.50342,19.37664 c 0,0 -6.51098993,18.83901 -13.69851,30.53444 -7.18757,11.69567 -11.89652,20.84505 -13.63053,35.55957 -1.73427,14.71509 -1.53022,29.79025 -1.53022,29.79025 0,0 -9.44157,2.25385 -30.330816,1.37657 -20.889043,-0.87741 -23.187333,0.70023 -23.187333,0.70023 0,0 8.472633,-2.43442 12.392713,-12.73267 3.92025,-10.29806 0.44905,-23.9763 -5.36469,-25.05752 -5.813923,-1.08124 -17.621783,-2.27468 -23.547923,2.6382 -5.92617,4.91309 -6.93935,15.75178 -5.9025,20.95687 1.03697,5.20551 -35.199178,-15.56836 -35.199178,-15.56836 0,0 -5.45352,-3.01913 -6.12997,-10.16227 -0.67656,-7.14337 16.62906,-13.95006 16.62906,-13.95006 l 13.97042,-10.43385 z"
       id="path3167-6"
       inkscape:connector-curvature="0" />
    <path
       style="fill:#d35f5f;stroke:#000000;stroke-width:1.17267871px;stroke-linecap:butt;stroke-linejoin:miter;stroke-opacity:1"
       d="m 119.08394,290.38477 c 11.98666,-4.37036 7.24911,-4.80421 12.4955,-1.6959 3.67549,2.17774 5.19267,-1.19575 6.86543,-1.10322 1.67247,0.0923 8.80136,5.8678 8.80136,5.8678 -7.02278,1.47027 -8.21003,1.26983 -14.2385,1.58519 -5.0644,0.55879 -27.19394,-2.84425 -27.19394,-2.84425 z"
       id="path3139-9"
       inkscape:connector-curvature="0"
       sodipodi:nodetypes="csscccc" />
    <path
       style="fill:#ffccaa;stroke:#000000;stroke-width:1.07090473px;stroke-linecap:butt;stroke-linejoin:miter;stroke-opacity:1"
       d="m 280.61915,409.70759 23.85178,72.28039 c 0,0 3.67902,17.62531 12.64685,32.43768 8.96809,14.81243 12.11951,25.75875 11.5193,41.01352 -0.60054,15.25468 -13.04683,27.11551 -13.04683,27.11551 l -25.83591,-2.91222 -24.74693,-20.7958 -10.13141,-53.46814 -49.4409,-107.2386 z"
       id="path3149-1-0"
       inkscape:connector-curvature="0"
       sodipodi:nodetypes="ccsscccccc" />
    <path
       style="fill:#f9f9f9;stroke:#000000;stroke-width:1.17267871px;stroke-linecap:butt;stroke-linejoin:miter;stroke-opacity:1"
       d="m 25.702357,375.26546 c 0,0 -10.5948,-5.6195 -31.68157,26.77038 -21.08664,32.38987 -26.56727,40.47579 -29.6777,51.20952 -3.110596,10.73372 -4.270826,16.54193 -4.270826,16.54193 0,0 17.609696,0.13521 29.087286,4.96465 11.47745003,4.82943 42.20018,18.66502 42.20018,18.66502 l 9.83868,-19.14202 c 0,0 -4.31709,17.37825 2.33465,48.78582 2.79091,13.17831 23.16695,24.011 28.47722,40.1895 7.34569,22.37932 8.39477,52.88613 7.04793,59.62839 -38.20851,84.3663 -64.66087,96.96019 -113.24413,138.99677 108.39929,73.39396 35.58883,77.23751 180.197403,79.95904 32.66402,0.96794 72.14696,-5.43229 75.49235,-5.24722 1.07285,0.0594 28.61608,3.83358 50.38359,-24.92916 15.05152,-19.88853 90.94776,-92.90144 74.66024,-110.24768 -20.54126,-21.87649 -34.23854,-2.39973 -89.0729,-72.55733 -10.78032,-13.79284 -19.66622,-31.72431 -25.99149,-50.09445 -7.95077,-23.09032 -2.00325,-50.4453 -2.00325,-50.4453 0,0 9.70881,-8.6909 14.5844,-21.00486 4.87573,-12.31388 2.03562,-36.79933 -6.33139,-52.36255 -2.0213,-3.7595 7.30322,15.86208 8.7484,30.93651 30.25718,-27.08818 36.71182,-53.6204 45.01851,-74.05555 l -35.24638,-33.87488 c 0,0 -9.3422,-13.1004 -25.00154,-18.16119 -15.6592,-5.06077 -21.51374,-5.38461 -21.51374,-5.38461 -20.33822,21.29741 -39.3402,22.79954 -67.17827,31.51806 -54.101513,3.96562 -73.293723,3.33948 -116.857623,-10.65879 z"
       id="path3145-8"
       inkscape:connector-curvature="0"
       sodipodi:nodetypes="csscsccsscccssssscsscccscccc" />
    <text
       xml:space="preserve"
       style="font-size:87.25689697px;font-style:normal;font-weight:normal;line-height:125%;letter-spacing:0px;word-spacing:0px;fill:#4d4d4d;fill-opacity:1;stroke:none;font-family:Sans"
       x="60.304169"
       y="524.57086"
       id="text4486-2"
       sodipodi:linespacing="125%"
       transform="matrix(0.99882622,-0.04843732,0.04843732,0.99882622,0,0)"><tspan
         sodipodi:role="line"
         id="tspan4488-7"
         x="60.304169"
         y="524.57086"
         style="font-style:normal;font-variant:normal;font-weight:normal;font-stretch:normal;fill:#4d4d4d;font-family:EpsilonCTT;-inkscape-font-specification:EpsilonCTT"></tspan></text>
    <path
       style="fill:#ffe6d5;stroke:#000000;stroke-width:1.24409401px;stroke-linecap:butt;stroke-linejoin:miter;stroke-opacity:1"
       d="m 298.86668,535.63108 c 0,0 -14.59019,6.0174 -23.07145,17.30908 -8.48142,11.29185 -19.29397,32.20488 -20.16131,44.25329 -0.86748,12.04847 7.04809,38.66011 5.6082,51.37762 -1.44007,12.71771 -19.30859,41.50205 -19.30859,41.50205 l -5.00779,13.12476 26.32389,28.54555 c 0,0 29.38644,-46.75899 31.61135,-57.63531 2.22511,-10.87654 26.43136,-68.54265 30.31231,-87.8419 3.14913,-15.66007 6.55148,-26.58078 -0.007,-37.23418 -5.1665,-8.39306 -26.30065,-13.40026 -26.30065,-13.40026 z"
       id="path3151-5-1"
       inkscape:connector-curvature="0"
       sodipodi:nodetypes="cssscccssac" />
    <path
       style="fill:#f9f9f9;stroke:#000000;stroke-width:1.51038897px;stroke-linecap:butt;stroke-linejoin:miter;stroke-opacity:1"
       d="m -70.139509,472.40453 -21.314393,53.83097 -9.814498,11.68151 c 0,0 -6.26208,2.70973 29.962191,10.82575 36.224436,8.11606 59.924546,21.65151 59.924546,21.65151 0,0 -6.26212,2.70973 10.3201201,-20.82186 16.5823599,-23.53162 20.1347499,-32.50346 20.1347499,-32.50346 0,0 -25.73578,-31.98475 -49.94149,-36.37983 -24.205696,-4.39511 -39.271226,-8.28459 -39.271226,-8.28459 z"
       id="path5247"
       inkscape:connector-curvature="0" />
    <g
       id="g5300"
       transform="matrix(0.30481817,0.13284402,-0.13284402,0.30481817,354.28595,636.14419)">
      <rect
         y="60.010883"
         x="-1268.0199"
         height="59.808636"
         width="59.808636"
         id="rect3344-0"
         style="fill:#f40000;fill-opacity:1" />
      <rect
         y="178.75209"
         x="-1267.7131"
         height="59.808636"
         width="59.808636"
         id="rect3344-1-9"
         style="fill:#ec5049;fill-opacity:1" />
      <rect
         y="119.85656"
         x="-1208.0281"
         height="59.808636"
         width="59.808636"
         id="rect3344-2-3"
         style="fill:#ff2a2a" />
      <rect
         y="119.79937"
         x="-1267.8256"
         height="59.808636"
         width="59.808636"
         id="rect3344-4-0"
         style="fill:#d40000" />
      <rect
         y="119.76199"
         x="-1327.5142"
         height="59.808636"
         width="59.808636"
         id="rect3344-3-0"
         style="fill:#aa0000" />
      <text
         sodipodi:linespacing="125%"
         id="text3017-8"
         y="179.73885"
         x="-1154.1338"
         style="font-size:119.65602875px;font-style:normal;font-weight:normal;line-height:125%;letter-spacing:0px;word-spacing:0px;fill:#808080;fill-opacity:1;stroke:none;font-family:Sans"
         xml:space="preserve"><tspan
           style="font-style:normal;font-variant:normal;font-weight:normal;font-stretch:normal;fill:#808080;font-family:Segoe UI;-inkscape-font-specification:Segoe UI"
           y="179.73885"
           x="-1154.1338"
           id="tspan3019-7"
           sodipodi:role="line"></tspan></text>
      <rect
         y="183.40395"
         x="-1204.3231"
         height="10.049547"
         width="56.40995"
         id="rect3021-6"
         style="fill:#333333;fill-opacity:1;stroke:none" />
    </g>
    <path
       style="fill:#333333;stroke:#000000;stroke-width:1.17267871px;stroke-linecap:butt;stroke-linejoin:miter;stroke-opacity:1"
       d="m 407.35967,752.04837 c 0,0 -25.09597,21.63849 -44.26853,27.74178 -19.17258,6.10297 -41.35426,8.84576 -59.66561,17.30949 -18.31126,8.46399 -33.25202,23.72241 -52.91406,40.70391 -19.66202,16.98105 -35.88935,33.60105 -54.77483,40.49092 -18.88544,6.89003 -25.90348,2.31736 -38.91929,10.63228 -13.01562,8.31499 -12.29269,15.18438 -21.31018,14.90765 -9.01722,-0.2767 17.03498,2.70154 20.48008,12.14426 3.4449,9.44254 -2.90387,28.69988 4.47552,36.70711 7.37936,8.00765 16.82227,4.56255 16.82227,4.56255 0,0 8.64533,-12.96216 17.30125,-16.12002 8.65578,-3.15779 114.88648,-41.91405 114.88648,-41.91405 0,0 37.48402,-14.56678 52.14786,-20.80814 14.66391,-6.24162 105.08248,-41.90391 105.08248,-41.90391 l 9.36844,-6.09258 c 0,0 -37.5253,-24.64993 -45.19187,-33.44422 -7.66635,-8.79411 -23.7328,-43.05615 -23.52001,-44.91703 z"
       id="path3177-4"
       inkscape:connector-curvature="0"
       sodipodi:nodetypes="csssssssscscsccsc" />
    <path
       style="fill:#f9f9f9;stroke:#000000;stroke-width:1.38796782px;stroke-linecap:butt;stroke-linejoin:miter;stroke-opacity:1"
       d="m 415.04658,740.36427 -14.94533,33.49957 c 0,0 11.78573,-3.92561 16.76441,-1.99783 4.97872,1.92778 14.88637,4.38226 13.05792,12.16323 -1.82836,7.78097 -5.485,23.34325 -17.41996,23.06514 -11.93495,-0.27831 -26.34444,-10.99054 -24.36678,-14.56814 1.97741,-3.57742 -5.5348,21.94221 -10.94061,27.74581 -5.40592,5.80338 8.60597,5.30638 22.24018,13.94179 13.63433,8.63542 39.10396,14.74648 52.91697,8.64452 13.81286,-6.10159 83.44309,-99.76296 83.44309,-99.76296 0,0 -21.82224,17.60934 -28.20221,15.73118 -6.38,-1.87799 11.9644,-18.66261 11.9644,-18.66261 0,0 11.68632,-6.72789 1.52997,-16.18822 -10.15613,-9.46014 -17.41069,-16.21758 -28.47095,-11.61644 -11.06021,4.60131 -19.21878,11.90551 -20.99741,21.08774 -1.77858,9.18219 5.09837,25.07203 -3.20942,28.17252 -8.30757,3.10072 -21.06735,-0.65521 -26.82126,-4.6602 -5.75376,-4.00457 -26.54301,-16.5951 -26.54301,-16.5951 z"
       id="path3169-1"
       inkscape:connector-curvature="0" />
    <path
       style="fill:#999999;stroke:#000000;stroke-width:1.51038897px;stroke-linecap:butt;stroke-linejoin:miter;stroke-opacity:1"
       d="m 147.68989,607.44741 131.33589,-53.85714 c 0,0 14.72833,9.98309 9.49054,49.4228 -5.23782,39.43971 -28.23764,123.73857 -28.23764,123.73857 0,0 -38.75245,37.58578 -75.14539,32.51652 -36.39293,-5.06926 -41.31981,-81.74459 -41.31981,-81.74459 z"
       id="path5984"
       inkscape:connector-curvature="0" />
    <path
       style="fill:#f2f2f2;stroke:#000000;stroke-width:1.51038897px;stroke-linecap:butt;stroke-linejoin:miter;stroke-opacity:1"
       d="m 160.88827,589.84086 c 0,0 29.27502,-31.99782 33.85173,-4.23967 4.57674,27.7582 4.40823,30.80497 4.40823,30.80497 l -22.83134,81.25207 c 0,0 -16.23208,72.44875 -1.16666,76.33826 15.0654,3.88948 64.9938,-14.74141 64.9938,-14.74141 l 35.20006,-28.61396 c 0,0 -28.7825,-32.15327 -20.83499,-65.33088 7.9475,-33.17761 34.34427,-68.39075 34.34427,-68.39075 0,0 27.58966,-1.52991 7.94753,-33.17759 -19.64214,-31.64766 -44.85913,-17.76203 -44.85913,-17.76203 l -64.82527,11.69462 z"
       id="path5986"
       inkscape:connector-curvature="0" />
    <path
       style="fill:none;stroke:#000000;stroke-width:1.19425297px;stroke-linecap:butt;stroke-linejoin:miter;stroke-opacity:1"
       d="m 142.4981,262.57785 c 0,0 -0.3016,2.71435 0.30159,6.33348 3.61913,-1.20638 2.71435,0.3016 2.71435,0.3016 2.32748,4.85051 2.6017,3.67455 -0.3016,7.84144 -2.21169,0 -1.70903,0.3016 -3.92073,0.3016 0,0 -6.63507,3.61915 -11.15899,1.20638 -4.15683,-2.21696 -5.42871,-1.50797 -5.42871,-1.50797 -5.50932,1.95471 -5.91994,-1.75679 -5.42869,-8.14305 l 4.8255,-0.30159"
       id="path5988"
       inkscape:connector-curvature="0"
       sodipodi:nodetypes="cccccsccc" />
    <path
       sodipodi:type="arc"
       style="fill:#1a1a1a;fill-opacity:1;fill-rule:nonzero;stroke:#000000;stroke-width:1;stroke-linecap:round;stroke-linejoin:round;stroke-miterlimit:4;stroke-opacity:0.45502642;stroke-dasharray:none;stroke-dashoffset:0"
       id="path5990"
       sodipodi:cx="253.39285"
       sodipodi:cy="371.64789"
       sodipodi:rx="2.3214285"
       sodipodi:ry="2.1428571"
       d="m 255.71428,371.64789 a 2.3214285,2.1428571 0 1 1 -4.64286,0 2.3214285,2.1428571 0 1 1 4.64286,0 z"
       transform="matrix(1.194253,0,0,1.194253,-199.48575,-204.63464)" />
    <path
       sodipodi:type="arc"
       style="fill:#1a1a1a;fill-opacity:1;fill-rule:nonzero;stroke:#000000;stroke-width:1;stroke-linecap:round;stroke-linejoin:round;stroke-miterlimit:4;stroke-opacity:0.45502642;stroke-dasharray:none;stroke-dashoffset:0"
       id="path5992"
       sodipodi:cx="299.10715"
       sodipodi:cy="371.11218"
       sodipodi:rx="1.9642857"
       sodipodi:ry="1.9642857"
       d="m 301.07143,371.11218 a 1.9642857,1.9642857 0 1 1 -3.92857,0 1.9642857,1.9642857 0 1 1 3.92857,0 z"
       transform="matrix(1.5528389,0,0,1.3902962,-306.42206,-278.24168)" />
    <path
       style="fill:#ffe6d5;fill-opacity:1;stroke:#000000;stroke-width:1.29270685px;stroke-linecap:butt;stroke-linejoin:miter;stroke-opacity:1"
       d="m 243.83619,695.90098 c 0,0 -14.98638,5.139 -19.53581,5.84565 -4.54933,0.70682 -16.37811,2.5441 -16.37811,2.5441 0,0 2.35549,8.0675 7.06564,8.27296 4.70993,0.20526 22.31902,-0.656 22.31902,-0.656 0,0 16.19063,-6.26304 29.94583,-13.08489 9.17423,-4.54991 -29.03583,12.94364 -29.03583,12.94364 l -29.9195,-0.0375 4.41601,9.15281 c 0,0 35.37882,-0.81046 39.33955,0.44831 3.96075,1.25879 -0.32848,0.5515 18.27789,-10.33532 -20.11163,12.30837 -20.05851,10.86678 -20.05851,10.86678 -13.13243,-1.92699 -37.63927,-1.43582 -37.63927,-1.43582 0,0 32.72981,8.03435 41.07953,7.67447 8.34964,-0.35994 17.50191,-4.12427 21.89067,-5.74313 4.38899,-1.61867 20.55213,-18.65358 20.55213,-18.65358 -19.96633,-50.93637 -36.61408,-11.60196 -52.31924,-7.80248 z"
       id="path3153-9"
       inkscape:connector-curvature="0"
       sodipodi:nodetypes="cscscscccscccsscc" />
    <path
       style="fill:#ececec;stroke:none"
       d="m 14.456157,390.19468 c 0,0 -5.1182397,0 -11.94253,11.94253 -6.8243099,11.94253 -25.59114,44.35797 -25.59114,44.35797 l -5.11823,17.06075 c 0,0 18.76684,-3.41215 29.00329003,1.70607 10.23644997,5.11824 18.76682997,10.23646 18.76682997,10.23646 l 13.6486,-10.23646 11.94253,3.41215 c 0,0 0,29.0033 3.41216,40.94583 3.41215,11.94253 18.76683,29.00328 23.88506,39.23973 5.11822,10.23646 17.06075,27.29721 17.06075,44.35797 0,17.06076 -8.53038,37.53367 -13.6486,49.4762 -5.11823,11.94253 -22.17899,66.53696 -35.82759,75.06733 -13.6486,8.53038 -40.94581993,17.06076 -46.06405,29.00329 -5.11822,11.94253 20.47292,30.70936 34.12152,42.65189 13.6486,11.94253 15.35468,29.00329 32.41544,30.70936 17.06075,1.70608 112.600993,10.23646 141.604273,6.8243 29.0033,-3.41215 63.12481,-34.1215 69.94911,-46.06403 6.82431,-11.94253 -13.6486,3.41214 -35.82759,10.23644 -22.17899,6.82431 -35.82759,15.35469 -58.00657,3.41216 -22.17898,-11.94253 -39.23974,-42.6519 -51.18227,-30.70937 -11.94253,11.94253 -23.88506,1.70608 -32.415443,-5.11822 -8.53037,-6.82431 -1.70608,-64.83088 5.118237,-81.89164 6.824296,-17.06076 15.354676,-51.18226 23.885056,-61.41872 8.53038,-10.23646 0,-30.70937 -1.70607,-40.94582 -1.70608,-10.23646 -1.70608,-25.59114 -1.70608,-25.59114 0,0 -5.11823,10.23646 -20.472906,6.82431 -15.354687,-3.41216 -39.239747,-27.29722 -39.239747,-35.82759 0,-8.53038 5.11822,-52.88835 11.94253,-63.12481 6.8243,-10.23644 1.70608,-5.11822 -11.94253,-25.59113 -13.64861,-20.4729 -3.41216,-25.59114 -18.76684,-32.41543 -15.35467,-6.82431 -27.2972,-8.53038 -27.2972,-8.53038 z"
       id="path5998"
       inkscape:connector-curvature="0" />
    <path
       style="fill:#ffff00;stroke:#000000;stroke-width:1.19425297px;stroke-linecap:butt;stroke-linejoin:miter;stroke-opacity:1"
       d="M 48.577667,574.45085 82.699187,731.40981 101.46601,760.4131 99.759944,729.70374 63.932347,571.0387 z"
       id="path6000"
       inkscape:connector-curvature="0" />
    <path
       style="fill:#ffccaa;stroke:#000000;stroke-width:1.31200862px;stroke-linecap:butt;stroke-linejoin:miter;stroke-opacity:1"
       d="m 36.155057,660.47598 c 0,0 0,6.56005 -4.68573,12.18294 -4.68575,5.62289 -2.81145,17.80583 -2.81145,17.80583 0,0 0.93714,5.62289 -2.81145,7.49719 -11.2657,28.79721 15.32611,26.02911 32.86877,29.86252 20.05413,4.26213 0.9542,-10.96124 -16.00009,-15.80532 6.9408,0.35379 18.98346,8.97787 24.3506,8.8272 6.48659,-0.18207 13.38367,-3.16733 3.76388,-10.70149 -12.18294,-10.30864 -28.11448,-14.99439 -28.11448,-14.99439 l 24.36588,12.18294 c 0,0 9.37149,5.6229 14.99438,12.18294 5.6229,6.56004 15.931544,17.80582 15.931544,17.80582 l 1.874293,-11.24578 c 0,0 4.685746,3.7486 -7.497187,-13.12008 -12.18295,-16.8687 -34.67452,-28.11449 -34.67452,-28.11449 l -4.68574,-4.68573 26.24017,9.37148 c 0,0 6.56004,2.81145 12.18293,13.12009 5.622904,10.30865 10.308643,23.42873 10.308643,23.42873 l 5.6229,-6.56004 c 0,0 -3.74859,-11.24579 -5.6229,-18.74299 -1.874296,-7.49718 -16.868683,-24.36588 -16.868683,-24.36588 l -28.11447,-9.37145 36.42541,18.19647 -14.19809,-28.16867 -17.62644,3.41215 -25.21815,0"
       id="path5994"
       inkscape:connector-curvature="0"
       sodipodi:nodetypes="csccccscccsccscccsccscccccc" />
    <path
       style="fill:#00ffff;stroke:#000000;stroke-width:1.17267871px;stroke-linecap:butt;stroke-linejoin:miter;stroke-opacity:1"
       d="m 105.2003,727.96876 -4.80735,-10.98736 5.4099,-2.81404 4.63977,10.16664 z"
       id="path4458-5"
       inkscape:connector-curvature="0" />
    <path
       style="fill:#00ffff;stroke:#000000;stroke-width:1.17267871px;stroke-linecap:butt;stroke-linejoin:miter;stroke-opacity:1"
       d="m 103.63352,732.16088 c 0,0 -3.802396,-6.03393 -6.383479,-6.76208 -2.580904,-0.72815 -4.674464,-0.77507 -4.868154,0.39355 -0.1947,1.16859 2.83047,8.27424 5.411534,9.00245 2.581069,0.72815 5.840099,-2.63392 5.840099,-2.63392 z"
       id="path4462-3"
       inkscape:connector-curvature="0" />
    <path
       style="fill:none;stroke:#000000;stroke-width:1.19425297px;stroke-linecap:butt;stroke-linejoin:miter;stroke-opacity:1"
       d="M 94.641707,750.17665 z"
       id="path6002"
       inkscape:connector-curvature="0" />
    <path
       style="fill:#1a1a1a;stroke:#000000;stroke-width:1.19425297px;stroke-linecap:butt;stroke-linejoin:miter;stroke-opacity:1"
       d="m 105.56059,763.14282 -13.648603,-13.6486 10.236463,-6.8243 z"
       id="path6004"
       inkscape:connector-curvature="0" />
    <path
       style="fill:#999999;stroke:#000000;stroke-width:0.30961758px;stroke-linecap:butt;stroke-linejoin:miter;stroke-opacity:1"
       d="m -621.31046,836.42852 c 0,0 -23.81476,30.27023 -8.76434,69.12988 15.05049,38.85965 16.44475,38.08553 16.44475,38.08553 l 49.0715,-17.00179 c 0,0 -6.21067,-33.80521 -10.45008,-42.95725 -4.23939,-9.15203 -14.18105,-37.16747 -46.30183,-47.25637 z"
       id="path3211"
       inkscape:connector-curvature="0"
       inkscape:transform-center-x="14.899699"
       inkscape:transform-center-y="-38.942484" />
    <path
       style="fill:#ff9955;stroke:#000000;stroke-width:0.30961758px;stroke-linecap:butt;stroke-linejoin:miter;stroke-opacity:1"
       d="m -627.82146,898.86367 c 0,0 -6.66795,27.41517 -4.58477,34.95807 2.08311,7.5429 9.46545,26.52589 9.46545,26.52589 0,0 13.19101,-2.90381 14.80007,-5.06 1.60919,-2.15626 -19.68075,-56.42396 -19.68075,-56.42396 z"
       id="path3213"
       inkscape:connector-curvature="0"
       inkscape:transform-center-x="34.365824"
       inkscape:transform-center-y="3.6044867" />
    <path
       style="fill:#ffb380;stroke:#000000;stroke-width:0.30961758px;stroke-linecap:butt;stroke-linejoin:miter;stroke-opacity:1"
       d="m -600.66512,894.84258 c 0,0 -6.17956,27.91575 -0.52373,42.52534 5.65581,14.60964 6.69128,18.87555 6.69128,18.87555 l 19.67406,-7.27496 c 0,0 -7.06014,-21.05609 -10.22747,-28.90909 -3.16736,-7.85299 -15.61414,-25.21684 -15.61414,-25.21684 z"
       id="path3215"
       inkscape:connector-curvature="0"
       inkscape:transform-center-x="4.2881362"
       inkscape:transform-center-y="-3.4362488" />
    <path
       style="fill:#ffccaa;stroke:#000000;stroke-width:0.30961758px;stroke-linecap:butt;stroke-linejoin:miter;stroke-opacity:1"
       d="m -580.50889,883.11107 20.2766,56.23346 13.31057,-4.58381 c 0,0 -0.88933,-16.13347 -3.80744,-20.12588 -2.91819,-3.99238 -10.34928,-19.01948 -15.92424,-24.13262 -5.57502,-5.1131 -13.85549,-7.39115 -13.85549,-7.39115 z"
       id="path3217"
       inkscape:connector-curvature="0"
       inkscape:transform-center-x="-24.466064"
       inkscape:transform-center-y="-12.853023" />
    <path
       sodipodi:type="arc"
       style="fill:#ffccaa;fill-opacity:1;stroke:none"
       id="path4459"
       sodipodi:cx="-952.85712"
       sodipodi:cy="485.21933"
       sodipodi:rx="12.857142"
       sodipodi:ry="12.857142"
       d="m -939.99997,485.21933 a 12.857142,12.857142 0 1 1 -25.71429,0 12.857142,12.857142 0 1 1 25.71429,0 z"
       transform="matrix(-0.67211747,0.74044453,-0.74044453,-0.67211747,-888.67347,1906.4947)" />
    <path
       style="fill:url(#linearGradient3436);fill-opacity:1;stroke:#000000;stroke-width:0.30961758px;stroke-linecap:butt;stroke-linejoin:miter;stroke-opacity:1"
       d="m -545.5856,938.00797 c 0,0 -0.77979,-16.13798 -3.67134,-20.14966 -2.89157,-4.01171 -10.24411,-19.09448 -15.78501,-24.2445 -2.32091,-2.15732 -5.08157,-3.7887 -7.55081,-4.99302 -0.255,-0.6933 -0.49739,-1.33451 -0.74154,-1.87107 -4.17848,-9.18001 -13.94302,-37.27551 -45.996,-47.5777 0,0 -24.03025,30.11986 -9.23836,69.07862 0.17833,0.46968 0.29752,0.78275 0.47197,1.24095 -1.86971,8.69089 -4.31917,22.06511 -2.98665,27.018 2.03294,7.55658 9.29233,26.59428 9.29233,26.59428 0,0 13.23027,-2.83103 14.85362,-4.97648 0.46855,-0.61923 -0.99453,-5.64351 -3.23773,-12.40489 l 10.9468,-3.72983 c 4.94725,13.16432 5.89191,17.18188 5.89191,17.18188 l 19.73918,-7.14862 c 0,0 -2.83025,-8.55377 -5.67758,-16.81481 l 15.85454,-5.37217 4.48696,12.66244 13.34771,-4.49342 z"
       id="path3211-8"
       inkscape:connector-curvature="0" />
  </g>
</svg>
